<svg width="34" height="35" viewBox="0 0 34 35" fill="none" xmlns="http://www.w3.org/2000/svg">
<path d="M31.877 17.3947C31.877 16.1671 31.776 15.2713 31.5574 14.3423H17.3406V19.883H25.6855C25.5173 21.2599 24.6088 23.3336 22.5898 24.727L22.5615 24.9125L27.0566 28.346L27.368 28.3767C30.2282 25.7722 31.877 21.9401 31.877 17.3947Z" fill="#4285F4"/>
<path d="M17.3396 31.9933C21.4279 31.9933 24.8601 30.6661 27.367 28.3769L22.5888 24.7271C21.3102 25.6064 19.594 26.2202 17.3396 26.2202C13.3354 26.2202 9.93685 23.6157 8.72536 20.0159L8.54779 20.0307L3.87375 23.5974L3.81262 23.765C6.30263 28.6422 11.4173 31.9933 17.3396 31.9933Z" fill="#34A853"/>
<path d="M8.72624 20.0159C8.40658 19.0869 8.22158 18.0915 8.22158 17.063C8.22158 16.0344 8.40658 15.0391 8.70942 14.1101L8.70096 13.9123L3.96833 10.2883L3.81349 10.361C2.78723 12.3849 2.19836 14.6576 2.19836 17.063C2.19836 19.4684 2.78723 21.7411 3.81349 23.765L8.72624 20.0159Z" fill="#FBBC05"/>
<path d="M17.3397 7.90579C20.183 7.90579 22.101 9.11679 23.1946 10.1288L27.4681 6.01467C24.8435 3.60925 21.428 2.13281 17.3397 2.13281C11.4173 2.13281 6.30264 5.48379 3.81262 10.361L8.70857 14.1102C9.93688 10.5103 13.3354 7.90579 17.3397 7.90579Z" fill="#EB4335"/>
</svg>
