<svg width="110" height="109" viewBox="0 0 110 109" fill="none" xmlns="http://www.w3.org/2000/svg">
<path d="M58.4397 96.8645C58.2245 97.0577 57.8918 97.0427 57.697 96.8298C57.5015 96.6177 57.5173 96.2882 57.7317 96.095C61.699 92.533 63.64 89.5466 64.303 86.9504C64.9527 84.4094 64.3685 82.2216 63.2758 80.2222C62.4109 78.6406 61.2172 77.1561 60.0536 75.7102C57.1586 72.1103 54.4441 68.7352 56.8211 64.3091C56.9678 64.0363 57.1239 63.7643 57.2902 63.4947C54.8832 63.6169 52.1656 64.6284 48.617 67.033C45.4761 69.1617 42.8255 69.4629 40.9798 68.8598C40.2198 68.6114 39.5907 68.2062 39.1137 67.7071L39.1129 67.7063L39.1121 67.7071C38.6296 67.2033 38.3063 66.6018 38.1621 65.9671C37.9003 64.8184 38.2236 63.5735 39.2453 62.5991C40.793 61.1232 42.9894 60.9316 45.1836 60.7408C47.0347 60.58 48.8835 60.4192 50.1489 59.4471C50.9925 58.799 51.609 57.8395 51.9725 56.7208C52.1112 56.2919 52.2137 55.8401 52.2768 55.3742C51.3354 55.7211 50.4335 55.8007 49.6278 55.684C48.6793 55.5476 47.8617 55.14 47.261 54.5748C46.6452 53.9961 46.255 53.2495 46.1785 52.4508C46.061 51.2319 46.6665 49.92 48.3072 48.9432C48.8441 48.6239 49.4669 48.4347 50.1599 48.3551C49.1902 47.2647 47.8838 46.3715 46.2124 45.8409C42.0449 44.5171 39.7499 42.2505 39.1145 40.0319C38.8062 38.9581 38.8811 37.8946 39.3155 36.9438C39.7444 36.004 40.5218 35.1833 41.6231 34.5849C43.1306 33.7649 45.2703 33.3605 47.9713 33.6514C47.8602 30.8408 48.6762 28.5442 50.0764 26.7545C48.5067 25.3109 46.5499 24.2513 44.5032 23.8358C44.4969 23.835 44.4906 23.8335 44.4842 23.8319L44.4661 23.8287C41.8179 23.3013 39.0183 23.8303 36.7453 25.1343C35.2608 25.9858 34.0048 27.1676 33.1691 28.6001C33.5625 28.7838 33.9441 28.9975 34.3131 29.2435C34.3462 29.2655 34.3904 29.2963 34.4479 29.3357L34.4471 29.3365C36.4489 30.7257 37.0693 32.1661 36.9345 33.3526C36.8068 34.4784 36.0034 35.3559 35.0313 35.7675C34.0458 36.1853 32.8766 36.1294 32.0386 35.3804C31.1997 34.6306 30.7235 33.1918 31.1997 30.8502L31.2029 30.8368C31.2037 30.8305 31.2044 30.8234 31.206 30.8171C31.3259 30.24 31.5001 29.6858 31.7224 29.1567C30.0904 28.6506 28.3063 28.6687 26.5876 29.1197C24.1041 29.7725 21.7641 31.3248 20.2126 33.5134C20.2063 33.5221 20.1692 33.5773 20.099 33.6798C18.5475 35.9583 17.8553 38.9179 18.102 41.6781C18.1036 41.6923 18.1044 41.7065 18.1044 41.7207C18.1935 42.677 18.3961 43.6065 18.7154 44.473C19.6102 43.523 21.0136 42.9403 22.9594 42.9482C25.1763 42.9561 26.4244 43.672 26.9676 44.6401C27.4051 45.4206 27.3768 46.3391 27.0212 47.1867C26.6845 47.9908 26.0452 48.739 25.2363 49.2294C23.9693 49.9965 22.2947 50.1503 20.7014 48.9511C19.8917 48.3417 19.2192 47.5951 18.6791 46.7523C18.4734 47.6952 18.6003 48.8045 19.0379 49.9484C19.611 51.4464 20.7132 52.9893 22.3003 54.2988C26.1957 57.5147 32.9847 59.2894 42.0378 55.5579C42.3067 55.4475 42.6142 55.5737 42.7253 55.8386C42.8373 56.1035 42.7096 56.4078 42.4415 56.5182C32.9507 60.4302 25.7724 58.5199 21.6254 55.0967C19.8956 53.6689 18.6886 51.9722 18.0547 50.315C17.4019 48.6097 17.3523 46.9344 17.957 45.6075C17.9727 45.5728 17.9885 45.5389 18.0058 45.5042C17.4934 44.3666 17.1804 43.1122 17.0598 41.8177C17.0566 41.8011 17.0542 41.7845 17.0527 41.768C16.7854 38.7831 17.5391 35.5751 19.2263 33.098C19.2357 33.0846 19.2783 33.0246 19.3524 32.919C21.0499 30.5254 23.6074 28.8272 26.3195 28.1145C28.2779 27.6004 30.3199 27.5965 32.1852 28.2107C33.1139 26.5574 34.5346 25.2006 36.2187 24.2348C38.7021 22.8093 41.7674 22.233 44.6719 22.8109L44.6932 22.8149C44.6995 22.8156 44.7066 22.8172 44.7129 22.8188C46.9354 23.269 49.057 24.4114 50.7599 25.9669C51.5806 25.1123 52.5464 24.3964 53.6076 23.8169C55.618 22.7195 57.9746 22.1226 60.3342 22.017C62.6908 21.9114 65.0567 22.2985 67.09 23.1696C69.3906 24.1551 71.2654 25.7516 72.2359 27.9473C73.5841 27.7794 74.9788 27.8906 76.3332 28.2469C79.0453 28.9589 81.6029 30.6571 83.2995 33.0507C83.3744 33.1563 83.4162 33.2154 83.4265 33.2296C85.1136 35.7076 85.8673 38.9156 85.6001 41.8997C85.5173 42.8229 85.3368 43.7256 85.0569 44.581C86.763 45.5602 88.2239 46.8839 89.2906 48.4654C90.7822 50.6785 91.5036 53.3906 91.0503 56.3707C90.9163 57.2522 90.6782 58.1588 90.325 59.0852C90.1373 59.5787 89.9095 60.0549 89.6383 60.5035C88.7505 61.9747 87.4134 63.1297 85.5299 63.6319C84.7699 63.8345 83.9231 63.9291 82.9826 63.8928C82.9479 64.0529 82.9085 64.2121 82.8643 64.3698C82.7208 64.8799 82.5261 65.3806 82.2809 65.8568C81.5603 67.2562 80.3927 68.4884 78.7781 69.2011C77.1792 69.9068 75.1522 70.0976 72.705 69.4243C71.7518 69.1617 70.7387 68.7707 69.6665 68.2298C68.6156 67.7008 67.5812 67.1411 66.6028 66.6113C63.6526 65.0163 61.2409 63.7115 58.5272 63.5081C58.2434 63.9338 57.9832 64.3643 57.7514 64.7971C55.6977 68.6225 58.204 71.739 60.8767 75.0629C62.0679 76.5443 63.2907 78.0643 64.2013 79.7294C65.4084 81.9362 66.0501 84.3621 65.324 87.2027C64.6121 89.9873 62.5764 93.1504 58.4397 96.8645ZM59.3945 91.7139C59.2715 91.8456 59.0641 91.8542 58.9301 91.7328C58.7969 91.6114 58.7882 91.4056 58.9112 91.2732C59.4765 90.6685 59.9503 90.0882 60.3421 89.5308C60.7324 88.9758 61.0391 88.4483 61.2732 87.9446C61.3481 87.7821 61.5428 87.7104 61.7076 87.7845C61.8724 87.8586 61.9449 88.0518 61.87 88.2142C61.617 88.759 61.2913 89.3203 60.8822 89.9022C60.4754 90.4808 59.9826 91.084 59.3945 91.7139ZM58.0258 62.3933C58.733 61.4141 59.5577 60.472 60.4659 59.6079C61.9173 58.2266 63.5809 57.0432 65.3153 56.2241C65.6354 56.0727 65.9516 55.9292 66.263 55.7936C63.4303 54.0379 60.1986 52.1883 57.2098 50.9166C56.9055 51.3407 56.5964 51.7602 56.2819 52.1717C55.3374 53.4111 54.3519 54.2783 53.3837 54.8467C53.3348 55.6091 53.1961 56.3486 52.9722 57.0385C52.5456 58.3536 51.8093 59.4896 50.7946 60.2694C49.284 61.4299 47.2807 61.6049 45.2742 61.7791C43.2646 61.9542 41.2518 62.1292 39.9738 63.3481C39.2382 64.049 39.0033 64.932 39.187 65.7393C39.2895 66.1926 39.5252 66.6262 39.8776 66.9952L39.8761 66.996C40.234 67.3697 40.7165 67.6764 41.3094 67.8703C42.8822 68.3844 45.197 68.0903 48.0242 66.1745C52.1909 63.3504 55.2759 62.3302 58.0258 62.3933ZM61.1944 60.3569C60.4903 61.027 59.8383 61.7468 59.2589 62.495C61.8551 62.86 64.24 64.1507 67.1042 65.6999C68.033 66.2021 69.0145 66.7335 70.1435 67.3019C71.159 67.8136 72.1058 68.181 72.9849 68.4222C75.1735 69.0253 76.96 68.8661 78.35 68.2527C79.7249 67.6456 80.723 66.5884 81.3427 65.3853C81.5595 64.9635 81.729 64.5291 81.852 64.0931C81.8788 63.9969 81.9041 63.8992 81.9269 63.8014C80.8586 63.6603 79.6839 63.363 78.3933 62.8821C76.9703 62.3515 75.4021 61.5955 73.6779 60.5768C73.1702 60.2765 72.3605 59.7419 71.3277 59.06C70.2239 58.3299 68.8584 57.428 67.3431 56.4701C66.833 56.6782 66.3079 56.9092 65.7679 57.1639C64.1335 57.9357 62.5646 59.0529 61.1944 60.3569ZM67.4472 55.3072C68.3633 54.9532 69.2376 54.6694 70.0694 54.4494C71.6296 54.0386 73.0424 53.8565 74.3094 53.8644C75.2752 53.8707 76.1685 53.9969 76.986 54.2215C78.9854 54.7719 80.5354 55.9127 81.5832 57.3499C82.6302 58.7856 83.1734 60.5161 83.1616 62.2506C83.16 62.4532 83.1513 62.6558 83.1347 62.8577C83.92 62.8782 84.6256 62.7954 85.2579 62.6267C86.8497 62.2017 87.9818 61.221 88.7371 59.9698C88.9736 59.5787 89.1747 59.1585 89.3418 58.7194C89.6659 57.8679 89.885 57.0314 90.0096 56.2162C90.4211 53.5073 89.7691 51.0475 88.4178 49.0433C87.4725 47.6408 86.1843 46.459 84.6792 45.5673C84.0674 46.9541 83.1623 48.1714 81.9514 49.0828C78.9696 51.3273 76.4838 51.5741 74.7832 50.859C73.5415 50.3371 72.7208 49.3075 72.4157 48.1469C72.1098 46.988 72.3211 45.6982 73.1426 44.6575C74.2519 43.2518 76.472 42.3112 80.0221 42.8394C81.0321 42.99 82.0168 43.2454 82.9566 43.5955C83.35 43.7421 83.7355 43.9061 84.1108 44.0851C84.3347 43.3574 84.4806 42.5927 84.5507 41.8106C84.7983 39.0496 84.1053 36.0907 82.5537 33.8115C82.4843 33.7098 82.4465 33.6546 82.4402 33.6451C80.8886 31.4573 78.5486 29.9041 76.0652 29.2521C74.9188 28.951 73.7433 28.843 72.6025 28.9541C72.9084 29.998 73.0243 31.1569 72.9116 32.431C72.8446 33.18 72.7082 33.8256 72.5174 34.3783C73.1276 34.9609 73.5857 35.7178 73.834 36.5243C74.1967 37.6991 74.1202 38.9873 73.4343 40.0114C72.5962 41.265 70.8728 42.0999 67.9699 41.7885C66.442 41.6253 65.0047 41.2469 63.6163 40.7462C63.3365 41.2137 63.0487 41.6978 62.7523 42.1953C61.2858 44.6614 59.6326 47.4413 57.8011 50.0785C61.0572 51.4677 64.508 53.4678 67.4472 55.3072ZM70.3375 55.4554C69.7659 55.606 69.1722 55.7889 68.5557 56.0073C69.8195 56.8138 70.9603 57.5675 71.9127 58.1967C72.9305 58.87 73.7291 59.3974 74.2164 59.6852C75.8831 60.6699 77.3944 61.3991 78.7639 61.9092C79.989 62.3657 81.0944 62.6448 82.0885 62.7741C82.1035 62.5983 82.1106 62.4225 82.1122 62.2467C82.1224 60.7274 81.647 59.2121 80.7317 57.9562C79.8172 56.7026 78.4603 55.7061 76.7061 55.2228C75.9729 55.021 75.1719 54.9082 74.3055 54.9027C73.1307 54.8948 71.8094 55.0667 70.3375 55.4554ZM53.2623 52.5415C53.3222 52.8947 53.3624 53.2495 53.3845 53.6019C54.068 53.1115 54.7626 52.4374 55.443 51.5449C55.7024 51.2043 55.9586 50.859 56.2117 50.5106C54.7579 49.9476 53.3829 49.5448 52.1648 49.3855C52.7167 50.3868 53.0786 51.4621 53.2623 52.5415ZM52.2248 52.7126C52.0253 51.5355 51.5885 50.3639 50.8947 49.313C50.1063 49.3343 49.4133 49.4975 48.8465 49.8349C47.6055 50.5736 47.1427 51.5087 47.2239 52.353C47.276 52.8962 47.5503 53.4127 47.9847 53.8218C48.4341 54.2444 49.0522 54.5503 49.776 54.6544C50.5431 54.7648 51.4253 54.6496 52.3533 54.2129L52.2248 52.7126ZM51.3173 48.1059C51.3741 48.1785 51.4293 48.251 51.4837 48.3235C53.0612 48.4158 54.8872 48.9203 56.8077 49.6725C58.6754 47.003 60.3587 44.1726 61.8472 41.6702C62.1121 41.224 62.3715 40.7888 62.6245 40.3654C61.1486 39.7678 59.7209 39.052 58.2891 38.3353C57.1885 37.7834 56.0848 37.2307 54.9778 36.7404C54.724 36.6284 54.4725 36.5204 54.2241 36.4179C53.8757 37.4799 53.3325 38.2517 52.712 38.709C52.2665 39.037 51.7769 39.2088 51.2818 39.2175C50.7804 39.2262 50.2869 39.0685 49.8391 38.7382C49.0656 38.1674 48.4247 37.0628 48.1511 35.3961C48.1125 35.1604 48.0801 34.9286 48.0533 34.6992C45.5029 34.3917 43.5098 34.7457 42.1293 35.4963C41.2353 35.9827 40.6108 36.6339 40.2742 37.3711C39.9423 38.0972 39.8871 38.9171 40.126 39.7513C40.6747 41.6647 42.7411 43.6467 46.5333 44.8514C48.621 45.5145 50.2017 46.6852 51.3173 48.1059ZM49.0317 33.7973C50.3901 34.0235 51.8747 34.4177 53.4783 35.009C53.8433 32.6005 52.9682 30.1643 51.389 28.1665C51.2109 27.9418 51.024 27.7226 50.8293 27.5098C49.5978 29.1465 48.8961 31.2397 49.0317 33.7973ZM54.4788 35.3977C54.7839 35.5223 55.093 35.6532 55.4059 35.7919C56.5531 36.3004 57.6592 36.8539 58.763 37.4073C60.2191 38.1366 61.6729 38.8651 63.1693 39.4619C64.2368 37.7006 65.1908 36.2192 66.0383 35.2298C65.8294 34.864 65.6827 34.4564 65.6189 34.0212C65.4155 32.6336 66.0478 30.9779 68.1749 29.4902C68.1843 29.4824 68.1946 29.4745 68.2048 29.4674C68.2624 29.428 68.3073 29.3972 68.3396 29.3751C69.2148 28.7925 70.1656 28.3873 71.1558 28.146C70.2657 26.3106 68.6455 24.9664 66.6745 24.122C64.7895 23.3147 62.5843 22.956 60.3792 23.0545C58.178 23.1531 55.9823 23.7089 54.1138 24.7283C53.1409 25.2597 52.2571 25.9188 51.5089 26.7072C51.7564 26.9721 51.993 27.2457 52.2161 27.5279C53.9852 29.7646 54.9518 32.5216 54.5017 35.2645C54.4946 35.3094 54.4867 35.3536 54.4788 35.3977ZM53.2465 36.0316C51.7612 35.4742 50.3878 35.0934 49.1334 34.864C49.15 34.9846 49.1681 35.1068 49.1878 35.229C49.4133 36.604 49.8974 37.4815 50.469 37.9033C50.726 38.0933 50.998 38.1839 51.2653 38.1792C51.5373 38.1745 51.8187 38.072 52.0868 37.8741C52.5567 37.528 52.9729 36.9099 53.2465 36.0316ZM64.1659 39.8356C65.4265 40.2779 66.7226 40.609 68.0818 40.7549C70.5219 41.0166 71.9206 40.3914 72.5576 39.4375C73.059 38.6893 73.1063 37.7219 72.8304 36.8255C72.6695 36.3036 72.3999 35.8093 72.0467 35.3977C71.6083 36.1215 71.0454 36.5921 70.4368 36.8539C69.4198 37.2899 68.29 37.1346 67.3778 36.5898C67.1334 36.4431 66.9032 36.2689 66.695 36.0694C65.9618 36.9603 65.1151 38.2754 64.1659 39.8356ZM71.2394 34.7023C71.2007 34.6787 71.1621 34.6558 71.1227 34.6338C70.1679 34.1047 68.9097 34.1166 67.5646 35.1778C67.5142 35.2172 67.4629 35.2605 67.4109 35.3071C67.5654 35.4568 67.7373 35.5885 67.9218 35.6989C68.5596 36.0797 69.337 36.1948 70.0213 35.9015C70.4825 35.7036 70.909 35.3181 71.2394 34.7023ZM66.9103 34.3633C68.6455 32.9947 70.3209 33.0033 71.6233 33.7184C71.7337 33.3187 71.8157 32.8614 71.8614 32.3411C71.9671 31.1569 71.8472 30.0847 71.5445 29.1244C70.6213 29.3333 69.7367 29.7 68.9278 30.2384C68.8765 30.2731 68.8363 30.2999 68.8095 30.3181C68.8009 30.3244 68.7914 30.3307 68.7827 30.3362C67.038 31.5551 66.5082 32.8354 66.6604 33.8745C66.6887 34.0716 66.7423 34.2608 66.8165 34.4398C66.848 34.4138 66.8795 34.3878 66.9103 34.3633ZM83.7513 45.0674C83.3736 44.8837 82.9842 44.7174 82.586 44.5684C81.7204 44.2459 80.8074 44.0094 79.8653 43.8691C76.7558 43.4063 74.8692 44.156 73.9696 45.2961C73.361 46.0679 73.2049 47.025 73.4319 47.8868C73.6582 48.7485 74.2692 49.514 75.1948 49.9027C76.5855 50.4877 78.6874 50.233 81.3135 48.2565C82.3992 47.4389 83.2073 46.3336 83.7513 45.0674ZM32.7016 29.5328C32.4998 30.009 32.3429 30.5065 32.2349 31.0245C32.2333 31.0308 32.2325 31.0371 32.2309 31.0434L32.2286 31.0536C31.8383 32.9726 32.1529 34.0842 32.7418 34.6109C33.2464 35.0619 33.9828 35.0808 34.6198 34.8111C35.271 34.5352 35.8071 33.9628 35.8891 33.2383C35.9861 32.3916 35.4713 31.3146 33.8448 30.1864L33.8432 30.1856L33.8424 30.1864C33.8164 30.1683 33.777 30.1415 33.7242 30.1068C33.3954 29.8868 33.0532 29.6968 32.7016 29.5328ZM19.1916 45.5492C19.719 46.5591 20.4325 47.4421 21.3392 48.1249C22.5226 49.015 23.758 48.9062 24.6883 48.3417C25.3072 47.9672 25.7944 47.3979 26.0507 46.7877C26.288 46.2201 26.3187 45.624 26.0499 45.1447C25.6786 44.4824 24.7277 43.9929 22.9594 43.9858C21.0972 43.9787 19.8578 44.5905 19.1916 45.5492Z" fill="#FBFBF2"/>
</svg>
