<svg width="109" height="109" viewBox="0 0 109 109" fill="none" xmlns="http://www.w3.org/2000/svg">
<mask id="path-1-outside-1_134_1530" maskUnits="userSpaceOnUse" x="13" y="23" width="82" height="69" fill="black">
<rect fill="white" x="13" y="23" width="82" height="69"/>
<path d="M93.7936 60.6034C93.4385 59.0871 92.7697 57.6621 91.8301 56.4201C90.8906 55.1781 89.7013 54.1467 88.3388 53.3925C82.57 49.9058 75.2064 49.5071 68.5215 49.9991C68.0385 49.6719 67.5275 49.388 66.9945 49.1508C65.4406 48.46 63.7217 48.2274 62.0402 48.4806C62.2088 48.316 62.3429 48.1194 62.4346 47.9024C62.5264 47.6854 62.574 47.4522 62.5746 47.2166C62.5746 46.0628 61.3784 45.8423 60.4707 45.7405C59.6257 45.7271 58.818 45.3901 58.2141 44.7988C57.2725 43.645 58.7486 42.9749 59.7411 43.2209C60.4607 43.466 61.094 43.9138 61.5651 44.5104C61.7962 45.0369 62.1513 45.4997 62.6001 45.8592C64.6361 47.4796 67.3847 46.9027 69.4547 45.6726C71.338 44.5528 73.1534 42.5931 71.9318 40.3111C71.6892 39.8428 71.3556 39.4276 70.9507 39.0897C70.5458 38.7517 70.0776 38.4979 69.5734 38.3429C69.8293 38.2876 70.0689 38.1738 70.2735 38.0104C70.4781 37.847 70.6421 37.6385 70.7526 37.4012C70.9008 36.97 70.8918 36.5002 70.7273 36.0749C70.5628 35.6496 70.2532 35.2961 69.8534 35.0768C69.2911 34.8267 68.6779 34.7125 68.0633 34.7434C67.4487 34.7744 66.8501 34.9496 66.3158 35.2549C65.6721 35.5634 65.0729 35.9572 64.5343 36.4257C64.3202 35.807 63.9181 35.2708 63.3841 34.892C62.8502 34.5133 62.2112 34.3109 61.5566 34.3133C59.0116 34.3642 57.1113 37.3503 57.4846 39.7257C57.6712 40.9473 58.528 41.9314 59.8429 41.5496C61.1579 41.1679 62.3116 39.6154 63.2363 38.5804C63.5248 38.275 63.8132 37.9612 64.0847 37.6557C64.0958 37.9065 64.073 38.1576 64.0168 38.4023C63.6939 38.5911 63.4068 38.8351 63.1685 39.1234C63.057 39.2616 62.9576 39.4092 62.8715 39.5645C62.5954 39.7971 62.3451 40.0588 62.125 40.345C61.4626 41.1993 61.1448 42.2709 61.2342 43.3481C61.1081 43.2326 60.9749 43.1249 60.8355 43.0258C60.4094 42.7026 59.8958 42.5153 59.3617 42.488C58.8276 42.4608 58.2977 42.595 57.8409 42.8731C57.6706 43.0159 57.5322 43.1928 57.4343 43.3923C57.3364 43.5918 57.2813 43.8096 57.2726 44.0316C57.2638 44.2537 57.3015 44.4751 57.3833 44.6817C57.4651 44.8883 57.5891 45.0756 57.7475 45.2315C58.1119 45.6191 58.5666 45.9105 59.071 46.0798C59.7666 46.3513 61.862 46.2579 61.9553 47.2166C62.0317 47.9546 61.1748 48.4636 60.564 48.4976C59.9354 48.4694 59.3247 48.2795 58.791 47.9461C58.3668 47.7256 58.0275 47.4626 57.5779 47.768C57.4229 47.8775 57.3046 48.0313 57.2385 48.2091C56.837 47.7013 56.3913 47.2301 55.9066 46.8009C55.8549 46.755 55.7898 46.7269 55.721 46.7208C55.6521 46.7148 55.5831 46.731 55.5242 46.7671C55.4652 46.8032 55.4194 46.8574 55.3936 46.9215C55.3678 46.9856 55.3632 47.0564 55.3807 47.1233C55.2195 46.8518 55.0583 46.5803 54.9056 46.2749C53.5737 43.8656 52.9714 41.1849 52.0127 38.6398C51.251 36.6353 50.2115 34.7477 48.9248 33.0323C46.4611 29.7348 43.1764 27.1404 39.3979 25.5075C36.0045 24.0483 30.7363 22.4959 28.8445 26.8648C28.7221 27.1389 28.6228 27.4226 28.5476 27.7132C24.8488 26.2286 20.0642 24.9561 16.6708 27.7132C13.7525 30.2243 13.498 34.729 14.6093 38.1648C15.3047 40.2465 16.4406 42.1538 17.9397 43.7569C19.4388 45.3599 21.2658 46.621 23.2963 47.4541C25.6037 48.3578 28.0012 49.012 30.4479 49.4053C33.1626 49.9143 35.8942 50.33 38.6344 50.6354C41.3745 50.9408 44.3522 51.1698 47.2196 51.2717C49.7646 51.3565 52.3945 51.1189 54.9395 51.3565C55.3534 51.3865 55.7629 51.4604 56.1611 51.5771C55.0108 51.733 53.8757 51.9856 52.7678 52.3321C51.5037 52.7478 50.2227 53.7234 50.2227 55.1655C50.2227 56.4381 51.3256 56.8622 52.3521 56.4805C52.5048 57.0998 51.9279 57.6766 51.368 57.8718C50.7775 58.0175 50.1672 58.0662 49.561 58.016C48.8269 57.9601 48.0932 58.1288 47.4571 58.4995C47.2141 58.6373 47.0088 58.8329 46.8595 59.0691C46.7103 59.3053 46.6216 59.5746 46.6015 59.8533C46.5813 60.1319 46.6303 60.4113 46.7441 60.6664C46.8578 60.9216 47.0328 61.1447 47.2535 61.316C47.6156 61.5989 47.9431 61.9235 48.2291 62.2831C48.4752 62.6988 48.4667 62.9873 48.0425 63.1315C47.8386 63.1343 47.6354 63.1057 47.4402 63.0467C46.5345 62.9362 45.6179 62.9533 44.717 63.0975C42.8963 63.4293 41.1875 64.2109 39.7457 65.3711C36.6118 67.8882 33.9097 70.8998 31.7458 74.2872C29.6759 77.4091 28.3525 81.7187 24.4586 82.9488C23.0673 83.3899 21.4894 83.7971 21.0652 85.4259C20.7004 86.8342 21.5742 88.6496 21.0652 90.0239C20.904 90.27 20.7513 90.5245 20.6071 90.7959C20.4629 91.0674 20.8531 91.4576 21.1076 91.1777L21.1585 91.1183C21.3502 90.8972 21.5023 90.6446 21.6081 90.3718C23.9071 86.902 28.2591 85.7907 31.2283 82.9997C33.0815 81.111 34.8371 79.129 36.4881 77.0613L42.3077 70.2745C42.5707 69.9691 42.1211 69.5195 41.8581 69.8249L36.0384 76.6117C34.3343 78.7914 32.4925 80.86 30.5242 82.8045C27.818 85.2223 24.1616 86.3761 21.7948 89.0993C21.7948 88.6836 21.7354 88.2509 21.6845 87.8183C21.5107 87.056 21.5107 86.2645 21.6845 85.5023C22.0153 84.4928 22.9825 84.111 23.8987 83.8056C25.2859 83.4641 26.566 82.7817 27.6229 81.8205C28.687 80.6603 29.581 79.355 30.2782 77.9436C32.1709 74.4819 34.5222 71.2916 37.2685 68.4591C40.3565 65.2693 43.8771 62.8006 48.4158 63.8102C48.4702 63.8262 48.5279 63.8275 48.583 63.8141C48.6381 63.8007 48.6887 63.773 48.7297 63.7338C48.9559 63.443 49.0694 63.0801 49.0492 62.7121C49.0289 62.3442 48.8762 61.996 48.6194 61.7317C48.2631 61.2736 47.6353 60.9852 47.3723 60.4762C46.5918 58.9746 48.6788 58.6437 49.561 58.6437C50.579 58.6437 51.6734 58.7031 52.4454 57.9227C52.7205 57.681 52.9061 57.3536 52.9723 56.9934C53.0385 56.6332 52.9814 56.2613 52.8102 55.9375C52.7676 55.8654 52.6987 55.8127 52.6179 55.7905C52.5372 55.7684 52.4509 55.7785 52.3775 55.8188C51.0626 56.5314 50.5621 55.3182 51.1559 54.2918C51.4229 53.8938 51.7696 53.5555 52.1741 53.2985C52.5786 53.0415 53.0321 52.8713 53.5058 52.7987C54.7274 52.4848 56 52.2981 57.2555 52.103C57.573 52.351 57.819 52.6789 57.9681 53.0532C58.4771 54.3087 58.036 55.9291 58.0614 57.2525C58.1127 59.7803 58.5799 62.2825 59.4442 64.6585C61.0254 69.1547 63.3512 73.3531 66.3243 77.0782C68.8099 80.0814 72.6784 82.8894 76.8098 81.9901C80.9412 81.0909 81.306 76.5099 80.2032 73.0995C79.6094 71.3038 78.8125 69.5818 77.8278 67.967C82.2901 70.037 87.3038 71.2501 91.2316 68.2046C92.3289 67.3056 93.151 66.116 93.6041 64.7719C94.0571 63.4277 94.1228 61.9832 93.7936 60.6034ZM71.4483 40.7776C72.7802 43.5857 68.6572 45.8083 66.4515 46.1646C65.9407 46.2537 65.4184 46.2537 64.9076 46.1646C65.2668 46.0912 65.6004 45.9244 65.8747 45.6811C66.0219 45.5438 66.1392 45.3776 66.2195 45.193C66.2997 45.0084 66.3412 44.8092 66.3412 44.6079C66.3412 44.4066 66.2997 44.2075 66.2195 44.0228C66.1392 43.8382 66.0219 43.6721 65.8747 43.5348C64.9415 42.5931 63.0412 42.5677 63.1769 40.854C63.1975 40.5847 63.2634 40.3208 63.3721 40.0735C63.6006 39.8871 63.848 39.7251 64.1101 39.59H64.1949C64.7435 39.3552 65.3111 39.1678 65.8916 39.0301C66.9951 38.86 68.1194 38.8772 69.2171 39.081C69.2704 39.0935 69.3261 39.0914 69.3784 39.075C69.4306 39.0585 69.4775 39.0284 69.5141 38.9876C69.9395 39.1419 70.3299 39.3798 70.662 39.6872C70.9942 39.9946 71.2615 40.3654 71.4483 40.7776ZM62.7019 38.2835C62.1504 38.8858 61.6075 39.5051 61.0052 40.065C60.7836 40.3291 60.5072 40.5417 60.1951 40.6882C59.8831 40.8347 59.5429 40.9116 59.1982 40.9134C58.2565 40.854 58.0529 39.8869 58.0529 39.0894C58.0587 38.1702 58.363 37.2777 58.9199 36.5464C59.4769 35.815 60.2563 35.2844 61.1409 35.0344C61.7727 34.9276 62.4215 35.0632 62.9578 35.4138C63.494 35.7645 63.8783 36.3046 64.0338 36.9262C63.5502 37.3588 63.1176 37.8254 62.7019 38.2835ZM64.704 37.1383C65.465 36.418 66.3826 35.8837 67.3847 35.5773C67.9571 35.3856 68.5724 35.362 69.1577 35.5094C69.9043 35.7639 70.6678 36.748 70.0061 37.503C69.3444 38.2581 67.8598 37.8424 67.0369 37.8424C66.2777 37.8263 65.5211 37.9352 64.7973 38.1648C64.8173 37.8199 64.7859 37.4739 64.704 37.1383ZM62.0995 41.7787C62.2072 41.5006 62.3467 41.2358 62.5152 40.9897C62.5043 41.4885 62.6695 41.9751 62.9818 42.3641C63.5587 43.0512 66.8503 44.1032 65.3148 45.2654C64.161 46.1137 63.0921 45.206 62.1589 44.2474C61.9719 43.8644 61.8698 43.4456 61.8596 43.0195C61.8493 42.5935 61.9312 42.1702 62.0995 41.7787ZM55.4061 48.9811L54.9735 49.2865C54.6935 49.6768 54.3796 49.6937 54.0403 49.3459C52.9023 48.6029 51.8397 47.7505 50.8675 46.8009C50.4263 46.4106 50.0191 46.0034 49.5865 45.5962C50.8393 45.9901 52.0638 46.4692 53.2513 47.0299C53.8141 47.2696 54.3374 47.5928 54.8038 47.9886C54.9141 48.1073 55.491 48.7521 55.4061 48.9811ZM58.2905 51.2632H58.0529C57.9851 51.068 57.9427 50.856 57.8918 50.6439L58.0614 50.7287C58.1463 50.9323 58.2226 51.0935 58.2905 51.2632ZM58.3838 51.9164H58.5195C58.6087 52.164 58.6851 52.416 58.7486 52.6714C58.6383 52.3999 58.5195 52.1539 58.3838 51.9164ZM59.1558 51.7891L59.8769 51.6789C66.3729 55.1323 71.911 60.1429 75.9954 66.2619C74.7992 65.6341 73.62 64.9639 72.4748 64.2852C69.3181 62.4293 66.3165 60.3214 63.4993 57.982C62.0886 56.8814 60.8053 55.6265 59.6733 54.2409C59.5914 53.4071 59.4179 52.5849 59.1558 51.7891ZM58.545 50.2876C58.5134 50.2356 58.4851 50.1818 58.4601 50.1264L58.774 50.0076C59.1919 49.9408 59.5995 49.8211 59.9872 49.6513C62.0839 49.1959 64.2692 49.3852 66.2564 50.1943H66.1122C64.0592 50.3979 62.0232 50.6863 59.9957 51.0426C59.5121 50.7626 59.0285 50.5251 58.545 50.2876ZM58.791 48.6757C59.1141 48.8338 59.4523 48.9589 59.8005 49.049C59.4764 49.1226 59.1565 49.2132 58.8419 49.3205C58.6503 49.3284 58.4592 49.2945 58.282 49.2213C58.1048 49.148 57.9456 49.0371 57.8154 48.8963C57.3912 48.2007 58.5195 48.5485 58.791 48.6757ZM31.644 24.9221C33.7734 24.0738 36.5475 25.0918 38.575 25.8977C41.543 27.0824 44.2287 28.8782 46.4575 31.1684C48.6864 33.4587 50.4086 36.1921 51.5122 39.1912C52.2028 41.4513 53.0098 43.6741 53.93 45.8507C54.1166 46.2325 54.3287 46.5973 54.5408 46.9621C53.7994 46.5383 53.0248 46.1751 52.2248 45.8762C51.0456 45.3842 49.841 45.0278 48.6279 44.6122C45.9216 41.8466 43.453 38.8519 40.7468 36.1287C37.4999 32.7112 33.6072 29.9718 29.2941 28.0695L29.1754 28.0186C29.288 27.3294 29.5735 26.68 30.0053 26.1311C30.437 25.5821 31.0008 25.1516 31.644 24.8797V24.9221ZM29.0566 28.6803C32.8644 30.3355 36.3375 32.6729 39.3046 35.5773C42.1465 38.3344 44.6831 41.3885 47.4147 44.2559L45.6502 43.7553C40.9673 42.4234 36.5814 40.7522 33.1456 37.1892C31.3622 35.4982 30.0271 33.3905 29.2602 31.0556C29.0433 30.2693 28.9743 29.4494 29.0566 28.6379V28.6803ZM54.5069 50.7372C51.9618 50.6099 49.4168 50.7372 46.8124 50.6693C41.4457 50.4599 36.1013 49.8616 30.8211 48.8793C26.1637 48.031 21.413 46.8009 18.1384 43.1191C15.3304 39.8954 13.6846 35.1786 15.2031 31.0472C15.5702 29.9936 16.2091 29.0558 17.0554 28.3288C17.9016 27.6018 18.9249 27.1113 20.0217 26.9072C22.3886 26.4576 24.8488 27.0939 27.0884 27.8659C27.5409 28.0299 27.982 28.1996 28.4118 28.3749C27.8435 32.133 30.8296 35.9591 33.4086 38.3684C36.9292 41.6514 41.2812 43.2124 45.8707 44.4595L48.3309 45.1805C48.4144 45.2583 48.4937 45.3404 48.5685 45.4266C50.0716 46.9952 51.7222 48.4157 53.4973 49.6683C54.3457 50.2112 55.9236 50.5166 56.0424 49.2865C56.492 49.9567 56.9416 50.6354 57.3573 51.331C56.4734 50.8876 55.4957 50.6636 54.5069 50.6778V50.7372ZM79.6687 79.1567C78.4895 81.4727 75.673 81.829 73.374 81.2436C71.3024 80.6549 69.4328 79.5073 67.9701 77.9266C64.8736 74.7792 62.651 70.5375 60.9119 66.5249C59.8127 64.1179 59.0861 61.5577 58.7571 58.9322C58.651 57.7554 58.651 56.5714 58.7571 55.3946C58.7571 55.1146 58.7571 54.8347 58.7995 54.5463C59.0774 55.5236 59.1181 56.5531 58.9183 57.5494C58.8334 57.9481 59.4527 58.1178 59.5375 57.7191C59.6981 56.9262 59.7749 56.1187 59.7666 55.3098C60.6422 56.3029 61.5953 57.2248 62.617 58.0669C65.5392 60.5421 68.6603 62.7723 71.9488 64.7349C73.357 65.5832 74.9774 66.5249 76.6995 67.3986C78.6422 70.529 81.5945 75.3985 79.6687 79.1567ZM90.2391 68.1282C87.4989 69.8249 84.1649 69.511 81.2466 68.5439C79.8647 68.0678 78.5158 67.501 77.2085 66.8472C76.0844 65.1216 74.8547 63.467 73.5267 61.8929C70.643 58.4691 67.2665 55.4928 63.5078 53.0617C62.6594 52.5102 61.8111 52.0012 60.9119 51.5092C63.0667 51.1868 65.2299 50.9153 67.3932 50.7372C69.1008 51.6448 70.507 53.0304 71.4398 54.7244C71.4808 54.7881 71.543 54.8353 71.6154 54.8578C71.6878 54.8802 71.7658 54.8764 71.8357 54.847C71.9056 54.8176 71.9629 54.7646 71.9975 54.6972C72.0322 54.6298 72.0419 54.5523 72.0251 54.4784C71.487 52.9622 70.549 51.6198 69.3104 50.593C75.4185 50.2536 82.1713 50.6608 87.5753 53.7064C88.8943 54.3763 90.0623 55.3089 91.0077 56.4468C91.9531 57.5848 92.6557 58.904 93.0725 60.3235C93.8191 63.2927 92.9538 66.5079 90.2391 68.1452V68.1282Z"/>
</mask>
<path d="M93.7936 60.6034C93.4385 59.0871 92.7697 57.6621 91.8301 56.4201C90.8906 55.1781 89.7013 54.1467 88.3388 53.3925C82.57 49.9058 75.2064 49.5071 68.5215 49.9991C68.0385 49.6719 67.5275 49.388 66.9945 49.1508C65.4406 48.46 63.7217 48.2274 62.0402 48.4806C62.2088 48.316 62.3429 48.1194 62.4346 47.9024C62.5264 47.6854 62.574 47.4522 62.5746 47.2166C62.5746 46.0628 61.3784 45.8423 60.4707 45.7405C59.6257 45.7271 58.818 45.3901 58.2141 44.7988C57.2725 43.645 58.7486 42.9749 59.7411 43.2209C60.4607 43.466 61.094 43.9138 61.5651 44.5104C61.7962 45.0369 62.1513 45.4997 62.6001 45.8592C64.6361 47.4796 67.3847 46.9027 69.4547 45.6726C71.338 44.5528 73.1534 42.5931 71.9318 40.3111C71.6892 39.8428 71.3556 39.4276 70.9507 39.0897C70.5458 38.7517 70.0776 38.4979 69.5734 38.3429C69.8293 38.2876 70.0689 38.1738 70.2735 38.0104C70.4781 37.847 70.6421 37.6385 70.7526 37.4012C70.9008 36.97 70.8918 36.5002 70.7273 36.0749C70.5628 35.6496 70.2532 35.2961 69.8534 35.0768C69.2911 34.8267 68.6779 34.7125 68.0633 34.7434C67.4487 34.7744 66.8501 34.9496 66.3158 35.2549C65.6721 35.5634 65.0729 35.9572 64.5343 36.4257C64.3202 35.807 63.9181 35.2708 63.3841 34.892C62.8502 34.5133 62.2112 34.3109 61.5566 34.3133C59.0116 34.3642 57.1113 37.3503 57.4846 39.7257C57.6712 40.9473 58.528 41.9314 59.8429 41.5496C61.1579 41.1679 62.3116 39.6154 63.2363 38.5804C63.5248 38.275 63.8132 37.9612 64.0847 37.6557C64.0958 37.9065 64.073 38.1576 64.0168 38.4023C63.6939 38.5911 63.4068 38.8351 63.1685 39.1234C63.057 39.2616 62.9576 39.4092 62.8715 39.5645C62.5954 39.7971 62.3451 40.0588 62.125 40.345C61.4626 41.1993 61.1448 42.2709 61.2342 43.3481C61.1081 43.2326 60.9749 43.1249 60.8355 43.0258C60.4094 42.7026 59.8958 42.5153 59.3617 42.488C58.8276 42.4608 58.2977 42.595 57.8409 42.8731C57.6706 43.0159 57.5322 43.1928 57.4343 43.3923C57.3364 43.5918 57.2813 43.8096 57.2726 44.0316C57.2638 44.2537 57.3015 44.4751 57.3833 44.6817C57.4651 44.8883 57.5891 45.0756 57.7475 45.2315C58.1119 45.6191 58.5666 45.9105 59.071 46.0798C59.7666 46.3513 61.862 46.2579 61.9553 47.2166C62.0317 47.9546 61.1748 48.4636 60.564 48.4976C59.9354 48.4694 59.3247 48.2795 58.791 47.9461C58.3668 47.7256 58.0275 47.4626 57.5779 47.768C57.4229 47.8775 57.3046 48.0313 57.2385 48.2091C56.837 47.7013 56.3913 47.2301 55.9066 46.8009C55.8549 46.755 55.7898 46.7269 55.721 46.7208C55.6521 46.7148 55.5831 46.731 55.5242 46.7671C55.4652 46.8032 55.4194 46.8574 55.3936 46.9215C55.3678 46.9856 55.3632 47.0564 55.3807 47.1233C55.2195 46.8518 55.0583 46.5803 54.9056 46.2749C53.5737 43.8656 52.9714 41.1849 52.0127 38.6398C51.251 36.6353 50.2115 34.7477 48.9248 33.0323C46.4611 29.7348 43.1764 27.1404 39.3979 25.5075C36.0045 24.0483 30.7363 22.4959 28.8445 26.8648C28.7221 27.1389 28.6228 27.4226 28.5476 27.7132C24.8488 26.2286 20.0642 24.9561 16.6708 27.7132C13.7525 30.2243 13.498 34.729 14.6093 38.1648C15.3047 40.2465 16.4406 42.1538 17.9397 43.7569C19.4388 45.3599 21.2658 46.621 23.2963 47.4541C25.6037 48.3578 28.0012 49.012 30.4479 49.4053C33.1626 49.9143 35.8942 50.33 38.6344 50.6354C41.3745 50.9408 44.3522 51.1698 47.2196 51.2717C49.7646 51.3565 52.3945 51.1189 54.9395 51.3565C55.3534 51.3865 55.7629 51.4604 56.1611 51.5771C55.0108 51.733 53.8757 51.9856 52.7678 52.3321C51.5037 52.7478 50.2227 53.7234 50.2227 55.1655C50.2227 56.4381 51.3256 56.8622 52.3521 56.4805C52.5048 57.0998 51.9279 57.6766 51.368 57.8718C50.7775 58.0175 50.1672 58.0662 49.561 58.016C48.8269 57.9601 48.0932 58.1288 47.4571 58.4995C47.2141 58.6373 47.0088 58.8329 46.8595 59.0691C46.7103 59.3053 46.6216 59.5746 46.6015 59.8533C46.5813 60.1319 46.6303 60.4113 46.7441 60.6664C46.8578 60.9216 47.0328 61.1447 47.2535 61.316C47.6156 61.5989 47.9431 61.9235 48.2291 62.2831C48.4752 62.6988 48.4667 62.9873 48.0425 63.1315C47.8386 63.1343 47.6354 63.1057 47.4402 63.0467C46.5345 62.9362 45.6179 62.9533 44.717 63.0975C42.8963 63.4293 41.1875 64.2109 39.7457 65.3711C36.6118 67.8882 33.9097 70.8998 31.7458 74.2872C29.6759 77.4091 28.3525 81.7187 24.4586 82.9488C23.0673 83.3899 21.4894 83.7971 21.0652 85.4259C20.7004 86.8342 21.5742 88.6496 21.0652 90.0239C20.904 90.27 20.7513 90.5245 20.6071 90.7959C20.4629 91.0674 20.8531 91.4576 21.1076 91.1777L21.1585 91.1183C21.3502 90.8972 21.5023 90.6446 21.6081 90.3718C23.9071 86.902 28.2591 85.7907 31.2283 82.9997C33.0815 81.111 34.8371 79.129 36.4881 77.0613L42.3077 70.2745C42.5707 69.9691 42.1211 69.5195 41.8581 69.8249L36.0384 76.6117C34.3343 78.7914 32.4925 80.86 30.5242 82.8045C27.818 85.2223 24.1616 86.3761 21.7948 89.0993C21.7948 88.6836 21.7354 88.2509 21.6845 87.8183C21.5107 87.056 21.5107 86.2645 21.6845 85.5023C22.0153 84.4928 22.9825 84.111 23.8987 83.8056C25.2859 83.4641 26.566 82.7817 27.6229 81.8205C28.687 80.6603 29.581 79.355 30.2782 77.9436C32.1709 74.4819 34.5222 71.2916 37.2685 68.4591C40.3565 65.2693 43.8771 62.8006 48.4158 63.8102C48.4702 63.8262 48.5279 63.8275 48.583 63.8141C48.6381 63.8007 48.6887 63.773 48.7297 63.7338C48.9559 63.443 49.0694 63.0801 49.0492 62.7121C49.0289 62.3442 48.8762 61.996 48.6194 61.7317C48.2631 61.2736 47.6353 60.9852 47.3723 60.4762C46.5918 58.9746 48.6788 58.6437 49.561 58.6437C50.579 58.6437 51.6734 58.7031 52.4454 57.9227C52.7205 57.681 52.9061 57.3536 52.9723 56.9934C53.0385 56.6332 52.9814 56.2613 52.8102 55.9375C52.7676 55.8654 52.6987 55.8127 52.6179 55.7905C52.5372 55.7684 52.4509 55.7785 52.3775 55.8188C51.0626 56.5314 50.5621 55.3182 51.1559 54.2918C51.4229 53.8938 51.7696 53.5555 52.1741 53.2985C52.5786 53.0415 53.0321 52.8713 53.5058 52.7987C54.7274 52.4848 56 52.2981 57.2555 52.103C57.573 52.351 57.819 52.6789 57.9681 53.0532C58.4771 54.3087 58.036 55.9291 58.0614 57.2525C58.1127 59.7803 58.5799 62.2825 59.4442 64.6585C61.0254 69.1547 63.3512 73.3531 66.3243 77.0782C68.8099 80.0814 72.6784 82.8894 76.8098 81.9901C80.9412 81.0909 81.306 76.5099 80.2032 73.0995C79.6094 71.3038 78.8125 69.5818 77.8278 67.967C82.2901 70.037 87.3038 71.2501 91.2316 68.2046C92.3289 67.3056 93.151 66.116 93.6041 64.7719C94.0571 63.4277 94.1228 61.9832 93.7936 60.6034ZM71.4483 40.7776C72.7802 43.5857 68.6572 45.8083 66.4515 46.1646C65.9407 46.2537 65.4184 46.2537 64.9076 46.1646C65.2668 46.0912 65.6004 45.9244 65.8747 45.6811C66.0219 45.5438 66.1392 45.3776 66.2195 45.193C66.2997 45.0084 66.3412 44.8092 66.3412 44.6079C66.3412 44.4066 66.2997 44.2075 66.2195 44.0228C66.1392 43.8382 66.0219 43.6721 65.8747 43.5348C64.9415 42.5931 63.0412 42.5677 63.1769 40.854C63.1975 40.5847 63.2634 40.3208 63.3721 40.0735C63.6006 39.8871 63.848 39.7251 64.1101 39.59H64.1949C64.7435 39.3552 65.3111 39.1678 65.8916 39.0301C66.9951 38.86 68.1194 38.8772 69.2171 39.081C69.2704 39.0935 69.3261 39.0914 69.3784 39.075C69.4306 39.0585 69.4775 39.0284 69.5141 38.9876C69.9395 39.1419 70.3299 39.3798 70.662 39.6872C70.9942 39.9946 71.2615 40.3654 71.4483 40.7776ZM62.7019 38.2835C62.1504 38.8858 61.6075 39.5051 61.0052 40.065C60.7836 40.3291 60.5072 40.5417 60.1951 40.6882C59.8831 40.8347 59.5429 40.9116 59.1982 40.9134C58.2565 40.854 58.0529 39.8869 58.0529 39.0894C58.0587 38.1702 58.363 37.2777 58.9199 36.5464C59.4769 35.815 60.2563 35.2844 61.1409 35.0344C61.7727 34.9276 62.4215 35.0632 62.9578 35.4138C63.494 35.7645 63.8783 36.3046 64.0338 36.9262C63.5502 37.3588 63.1176 37.8254 62.7019 38.2835ZM64.704 37.1383C65.465 36.418 66.3826 35.8837 67.3847 35.5773C67.9571 35.3856 68.5724 35.362 69.1577 35.5094C69.9043 35.7639 70.6678 36.748 70.0061 37.503C69.3444 38.2581 67.8598 37.8424 67.0369 37.8424C66.2777 37.8263 65.5211 37.9352 64.7973 38.1648C64.8173 37.8199 64.7859 37.4739 64.704 37.1383ZM62.0995 41.7787C62.2072 41.5006 62.3467 41.2358 62.5152 40.9897C62.5043 41.4885 62.6695 41.9751 62.9818 42.3641C63.5587 43.0512 66.8503 44.1032 65.3148 45.2654C64.161 46.1137 63.0921 45.206 62.1589 44.2474C61.9719 43.8644 61.8698 43.4456 61.8596 43.0195C61.8493 42.5935 61.9312 42.1702 62.0995 41.7787ZM55.4061 48.9811L54.9735 49.2865C54.6935 49.6768 54.3796 49.6937 54.0403 49.3459C52.9023 48.6029 51.8397 47.7505 50.8675 46.8009C50.4263 46.4106 50.0191 46.0034 49.5865 45.5962C50.8393 45.9901 52.0638 46.4692 53.2513 47.0299C53.8141 47.2696 54.3374 47.5928 54.8038 47.9886C54.9141 48.1073 55.491 48.7521 55.4061 48.9811ZM58.2905 51.2632H58.0529C57.9851 51.068 57.9427 50.856 57.8918 50.6439L58.0614 50.7287C58.1463 50.9323 58.2226 51.0935 58.2905 51.2632ZM58.3838 51.9164H58.5195C58.6087 52.164 58.6851 52.416 58.7486 52.6714C58.6383 52.3999 58.5195 52.1539 58.3838 51.9164ZM59.1558 51.7891L59.8769 51.6789C66.3729 55.1323 71.911 60.1429 75.9954 66.2619C74.7992 65.6341 73.62 64.9639 72.4748 64.2852C69.3181 62.4293 66.3165 60.3214 63.4993 57.982C62.0886 56.8814 60.8053 55.6265 59.6733 54.2409C59.5914 53.4071 59.4179 52.5849 59.1558 51.7891ZM58.545 50.2876C58.5134 50.2356 58.4851 50.1818 58.4601 50.1264L58.774 50.0076C59.1919 49.9408 59.5995 49.8211 59.9872 49.6513C62.0839 49.1959 64.2692 49.3852 66.2564 50.1943H66.1122C64.0592 50.3979 62.0232 50.6863 59.9957 51.0426C59.5121 50.7626 59.0285 50.5251 58.545 50.2876ZM58.791 48.6757C59.1141 48.8338 59.4523 48.9589 59.8005 49.049C59.4764 49.1226 59.1565 49.2132 58.8419 49.3205C58.6503 49.3284 58.4592 49.2945 58.282 49.2213C58.1048 49.148 57.9456 49.0371 57.8154 48.8963C57.3912 48.2007 58.5195 48.5485 58.791 48.6757ZM31.644 24.9221C33.7734 24.0738 36.5475 25.0918 38.575 25.8977C41.543 27.0824 44.2287 28.8782 46.4575 31.1684C48.6864 33.4587 50.4086 36.1921 51.5122 39.1912C52.2028 41.4513 53.0098 43.6741 53.93 45.8507C54.1166 46.2325 54.3287 46.5973 54.5408 46.9621C53.7994 46.5383 53.0248 46.1751 52.2248 45.8762C51.0456 45.3842 49.841 45.0278 48.6279 44.6122C45.9216 41.8466 43.453 38.8519 40.7468 36.1287C37.4999 32.7112 33.6072 29.9718 29.2941 28.0695L29.1754 28.0186C29.288 27.3294 29.5735 26.68 30.0053 26.1311C30.437 25.5821 31.0008 25.1516 31.644 24.8797V24.9221ZM29.0566 28.6803C32.8644 30.3355 36.3375 32.6729 39.3046 35.5773C42.1465 38.3344 44.6831 41.3885 47.4147 44.2559L45.6502 43.7553C40.9673 42.4234 36.5814 40.7522 33.1456 37.1892C31.3622 35.4982 30.0271 33.3905 29.2602 31.0556C29.0433 30.2693 28.9743 29.4494 29.0566 28.6379V28.6803ZM54.5069 50.7372C51.9618 50.6099 49.4168 50.7372 46.8124 50.6693C41.4457 50.4599 36.1013 49.8616 30.8211 48.8793C26.1637 48.031 21.413 46.8009 18.1384 43.1191C15.3304 39.8954 13.6846 35.1786 15.2031 31.0472C15.5702 29.9936 16.2091 29.0558 17.0554 28.3288C17.9016 27.6018 18.9249 27.1113 20.0217 26.9072C22.3886 26.4576 24.8488 27.0939 27.0884 27.8659C27.5409 28.0299 27.982 28.1996 28.4118 28.3749C27.8435 32.133 30.8296 35.9591 33.4086 38.3684C36.9292 41.6514 41.2812 43.2124 45.8707 44.4595L48.3309 45.1805C48.4144 45.2583 48.4937 45.3404 48.5685 45.4266C50.0716 46.9952 51.7222 48.4157 53.4973 49.6683C54.3457 50.2112 55.9236 50.5166 56.0424 49.2865C56.492 49.9567 56.9416 50.6354 57.3573 51.331C56.4734 50.8876 55.4957 50.6636 54.5069 50.6778V50.7372ZM79.6687 79.1567C78.4895 81.4727 75.673 81.829 73.374 81.2436C71.3024 80.6549 69.4328 79.5073 67.9701 77.9266C64.8736 74.7792 62.651 70.5375 60.9119 66.5249C59.8127 64.1179 59.0861 61.5577 58.7571 58.9322C58.651 57.7554 58.651 56.5714 58.7571 55.3946C58.7571 55.1146 58.7571 54.8347 58.7995 54.5463C59.0774 55.5236 59.1181 56.5531 58.9183 57.5494C58.8334 57.9481 59.4527 58.1178 59.5375 57.7191C59.6981 56.9262 59.7749 56.1187 59.7666 55.3098C60.6422 56.3029 61.5953 57.2248 62.617 58.0669C65.5392 60.5421 68.6603 62.7723 71.9488 64.7349C73.357 65.5832 74.9774 66.5249 76.6995 67.3986C78.6422 70.529 81.5945 75.3985 79.6687 79.1567ZM90.2391 68.1282C87.4989 69.8249 84.1649 69.511 81.2466 68.5439C79.8647 68.0678 78.5158 67.501 77.2085 66.8472C76.0844 65.1216 74.8547 63.467 73.5267 61.8929C70.643 58.4691 67.2665 55.4928 63.5078 53.0617C62.6594 52.5102 61.8111 52.0012 60.9119 51.5092C63.0667 51.1868 65.2299 50.9153 67.3932 50.7372C69.1008 51.6448 70.507 53.0304 71.4398 54.7244C71.4808 54.7881 71.543 54.8353 71.6154 54.8578C71.6878 54.8802 71.7658 54.8764 71.8357 54.847C71.9056 54.8176 71.9629 54.7646 71.9975 54.6972C72.0322 54.6298 72.0419 54.5523 72.0251 54.4784C71.487 52.9622 70.549 51.6198 69.3104 50.593C75.4185 50.2536 82.1713 50.6608 87.5753 53.7064C88.8943 54.3763 90.0623 55.3089 91.0077 56.4468C91.9531 57.5848 92.6557 58.904 93.0725 60.3235C93.8191 63.2927 92.9538 66.5079 90.2391 68.1452V68.1282Z" fill="#FBFBF2"/>
<path d="M93.7936 60.6034C93.4385 59.0871 92.7697 57.6621 91.8301 56.4201C90.8906 55.1781 89.7013 54.1467 88.3388 53.3925C82.57 49.9058 75.2064 49.5071 68.5215 49.9991C68.0385 49.6719 67.5275 49.388 66.9945 49.1508C65.4406 48.46 63.7217 48.2274 62.0402 48.4806C62.2088 48.316 62.3429 48.1194 62.4346 47.9024C62.5264 47.6854 62.574 47.4522 62.5746 47.2166C62.5746 46.0628 61.3784 45.8423 60.4707 45.7405C59.6257 45.7271 58.818 45.3901 58.2141 44.7988C57.2725 43.645 58.7486 42.9749 59.7411 43.2209C60.4607 43.466 61.094 43.9138 61.5651 44.5104C61.7962 45.0369 62.1513 45.4997 62.6001 45.8592C64.6361 47.4796 67.3847 46.9027 69.4547 45.6726C71.338 44.5528 73.1534 42.5931 71.9318 40.3111C71.6892 39.8428 71.3556 39.4276 70.9507 39.0897C70.5458 38.7517 70.0776 38.4979 69.5734 38.3429C69.8293 38.2876 70.0689 38.1738 70.2735 38.0104C70.4781 37.847 70.6421 37.6385 70.7526 37.4012C70.9008 36.97 70.8918 36.5002 70.7273 36.0749C70.5628 35.6496 70.2532 35.2961 69.8534 35.0768C69.2911 34.8267 68.6779 34.7125 68.0633 34.7434C67.4487 34.7744 66.8501 34.9496 66.3158 35.2549C65.6721 35.5634 65.0729 35.9572 64.5343 36.4257C64.3202 35.807 63.9181 35.2708 63.3841 34.892C62.8502 34.5133 62.2112 34.3109 61.5566 34.3133C59.0116 34.3642 57.1113 37.3503 57.4846 39.7257C57.6712 40.9473 58.528 41.9314 59.8429 41.5496C61.1579 41.1679 62.3116 39.6154 63.2363 38.5804C63.5248 38.275 63.8132 37.9612 64.0847 37.6557C64.0958 37.9065 64.073 38.1576 64.0168 38.4023C63.6939 38.5911 63.4068 38.8351 63.1685 39.1234C63.057 39.2616 62.9576 39.4092 62.8715 39.5645C62.5954 39.7971 62.3451 40.0588 62.125 40.345C61.4626 41.1993 61.1448 42.2709 61.2342 43.3481C61.1081 43.2326 60.9749 43.1249 60.8355 43.0258C60.4094 42.7026 59.8958 42.5153 59.3617 42.488C58.8276 42.4608 58.2977 42.595 57.8409 42.8731C57.6706 43.0159 57.5322 43.1928 57.4343 43.3923C57.3364 43.5918 57.2813 43.8096 57.2726 44.0316C57.2638 44.2537 57.3015 44.4751 57.3833 44.6817C57.4651 44.8883 57.5891 45.0756 57.7475 45.2315C58.1119 45.6191 58.5666 45.9105 59.071 46.0798C59.7666 46.3513 61.862 46.2579 61.9553 47.2166C62.0317 47.9546 61.1748 48.4636 60.564 48.4976C59.9354 48.4694 59.3247 48.2795 58.791 47.9461C58.3668 47.7256 58.0275 47.4626 57.5779 47.768C57.4229 47.8775 57.3046 48.0313 57.2385 48.2091C56.837 47.7013 56.3913 47.2301 55.9066 46.8009C55.8549 46.755 55.7898 46.7269 55.721 46.7208C55.6521 46.7148 55.5831 46.731 55.5242 46.7671C55.4652 46.8032 55.4194 46.8574 55.3936 46.9215C55.3678 46.9856 55.3632 47.0564 55.3807 47.1233C55.2195 46.8518 55.0583 46.5803 54.9056 46.2749C53.5737 43.8656 52.9714 41.1849 52.0127 38.6398C51.251 36.6353 50.2115 34.7477 48.9248 33.0323C46.4611 29.7348 43.1764 27.1404 39.3979 25.5075C36.0045 24.0483 30.7363 22.4959 28.8445 26.8648C28.7221 27.1389 28.6228 27.4226 28.5476 27.7132C24.8488 26.2286 20.0642 24.9561 16.6708 27.7132C13.7525 30.2243 13.498 34.729 14.6093 38.1648C15.3047 40.2465 16.4406 42.1538 17.9397 43.7569C19.4388 45.3599 21.2658 46.621 23.2963 47.4541C25.6037 48.3578 28.0012 49.012 30.4479 49.4053C33.1626 49.9143 35.8942 50.33 38.6344 50.6354C41.3745 50.9408 44.3522 51.1698 47.2196 51.2717C49.7646 51.3565 52.3945 51.1189 54.9395 51.3565C55.3534 51.3865 55.7629 51.4604 56.1611 51.5771C55.0108 51.733 53.8757 51.9856 52.7678 52.3321C51.5037 52.7478 50.2227 53.7234 50.2227 55.1655C50.2227 56.4381 51.3256 56.8622 52.3521 56.4805C52.5048 57.0998 51.9279 57.6766 51.368 57.8718C50.7775 58.0175 50.1672 58.0662 49.561 58.016C48.8269 57.9601 48.0932 58.1288 47.4571 58.4995C47.2141 58.6373 47.0088 58.8329 46.8595 59.0691C46.7103 59.3053 46.6216 59.5746 46.6015 59.8533C46.5813 60.1319 46.6303 60.4113 46.7441 60.6664C46.8578 60.9216 47.0328 61.1447 47.2535 61.316C47.6156 61.5989 47.9431 61.9235 48.2291 62.2831C48.4752 62.6988 48.4667 62.9873 48.0425 63.1315C47.8386 63.1343 47.6354 63.1057 47.4402 63.0467C46.5345 62.9362 45.6179 62.9533 44.717 63.0975C42.8963 63.4293 41.1875 64.2109 39.7457 65.3711C36.6118 67.8882 33.9097 70.8998 31.7458 74.2872C29.6759 77.4091 28.3525 81.7187 24.4586 82.9488C23.0673 83.3899 21.4894 83.7971 21.0652 85.4259C20.7004 86.8342 21.5742 88.6496 21.0652 90.0239C20.904 90.27 20.7513 90.5245 20.6071 90.7959C20.4629 91.0674 20.8531 91.4576 21.1076 91.1777L21.1585 91.1183C21.3502 90.8972 21.5023 90.6446 21.6081 90.3718C23.9071 86.902 28.2591 85.7907 31.2283 82.9997C33.0815 81.111 34.8371 79.129 36.4881 77.0613L42.3077 70.2745C42.5707 69.9691 42.1211 69.5195 41.8581 69.8249L36.0384 76.6117C34.3343 78.7914 32.4925 80.86 30.5242 82.8045C27.818 85.2223 24.1616 86.3761 21.7948 89.0993C21.7948 88.6836 21.7354 88.2509 21.6845 87.8183C21.5107 87.056 21.5107 86.2645 21.6845 85.5023C22.0153 84.4928 22.9825 84.111 23.8987 83.8056C25.2859 83.4641 26.566 82.7817 27.6229 81.8205C28.687 80.6603 29.581 79.355 30.2782 77.9436C32.1709 74.4819 34.5222 71.2916 37.2685 68.4591C40.3565 65.2693 43.8771 62.8006 48.4158 63.8102C48.4702 63.8262 48.5279 63.8275 48.583 63.8141C48.6381 63.8007 48.6887 63.773 48.7297 63.7338C48.9559 63.443 49.0694 63.0801 49.0492 62.7121C49.0289 62.3442 48.8762 61.996 48.6194 61.7317C48.2631 61.2736 47.6353 60.9852 47.3723 60.4762C46.5918 58.9746 48.6788 58.6437 49.561 58.6437C50.579 58.6437 51.6734 58.7031 52.4454 57.9227C52.7205 57.681 52.9061 57.3536 52.9723 56.9934C53.0385 56.6332 52.9814 56.2613 52.8102 55.9375C52.7676 55.8654 52.6987 55.8127 52.6179 55.7905C52.5372 55.7684 52.4509 55.7785 52.3775 55.8188C51.0626 56.5314 50.5621 55.3182 51.1559 54.2918C51.4229 53.8938 51.7696 53.5555 52.1741 53.2985C52.5786 53.0415 53.0321 52.8713 53.5058 52.7987C54.7274 52.4848 56 52.2981 57.2555 52.103C57.573 52.351 57.819 52.6789 57.9681 53.0532C58.4771 54.3087 58.036 55.9291 58.0614 57.2525C58.1127 59.7803 58.5799 62.2825 59.4442 64.6585C61.0254 69.1547 63.3512 73.3531 66.3243 77.0782C68.8099 80.0814 72.6784 82.8894 76.8098 81.9901C80.9412 81.0909 81.306 76.5099 80.2032 73.0995C79.6094 71.3038 78.8125 69.5818 77.8278 67.967C82.2901 70.037 87.3038 71.2501 91.2316 68.2046C92.3289 67.3056 93.151 66.116 93.6041 64.7719C94.0571 63.4277 94.1228 61.9832 93.7936 60.6034ZM71.4483 40.7776C72.7802 43.5857 68.6572 45.8083 66.4515 46.1646C65.9407 46.2537 65.4184 46.2537 64.9076 46.1646C65.2668 46.0912 65.6004 45.9244 65.8747 45.6811C66.0219 45.5438 66.1392 45.3776 66.2195 45.193C66.2997 45.0084 66.3412 44.8092 66.3412 44.6079C66.3412 44.4066 66.2997 44.2075 66.2195 44.0228C66.1392 43.8382 66.0219 43.6721 65.8747 43.5348C64.9415 42.5931 63.0412 42.5677 63.1769 40.854C63.1975 40.5847 63.2634 40.3208 63.3721 40.0735C63.6006 39.8871 63.848 39.7251 64.1101 39.59H64.1949C64.7435 39.3552 65.3111 39.1678 65.8916 39.0301C66.9951 38.86 68.1194 38.8772 69.2171 39.081C69.2704 39.0935 69.3261 39.0914 69.3784 39.075C69.4306 39.0585 69.4775 39.0284 69.5141 38.9876C69.9395 39.1419 70.3299 39.3798 70.662 39.6872C70.9942 39.9946 71.2615 40.3654 71.4483 40.7776ZM62.7019 38.2835C62.1504 38.8858 61.6075 39.5051 61.0052 40.065C60.7836 40.3291 60.5072 40.5417 60.1951 40.6882C59.8831 40.8347 59.5429 40.9116 59.1982 40.9134C58.2565 40.854 58.0529 39.8869 58.0529 39.0894C58.0587 38.1702 58.363 37.2777 58.9199 36.5464C59.4769 35.815 60.2563 35.2844 61.1409 35.0344C61.7727 34.9276 62.4215 35.0632 62.9578 35.4138C63.494 35.7645 63.8783 36.3046 64.0338 36.9262C63.5502 37.3588 63.1176 37.8254 62.7019 38.2835ZM64.704 37.1383C65.465 36.418 66.3826 35.8837 67.3847 35.5773C67.9571 35.3856 68.5724 35.362 69.1577 35.5094C69.9043 35.7639 70.6678 36.748 70.0061 37.503C69.3444 38.2581 67.8598 37.8424 67.0369 37.8424C66.2777 37.8263 65.5211 37.9352 64.7973 38.1648C64.8173 37.8199 64.7859 37.4739 64.704 37.1383ZM62.0995 41.7787C62.2072 41.5006 62.3467 41.2358 62.5152 40.9897C62.5043 41.4885 62.6695 41.9751 62.9818 42.3641C63.5587 43.0512 66.8503 44.1032 65.3148 45.2654C64.161 46.1137 63.0921 45.206 62.1589 44.2474C61.9719 43.8644 61.8698 43.4456 61.8596 43.0195C61.8493 42.5935 61.9312 42.1702 62.0995 41.7787ZM55.4061 48.9811L54.9735 49.2865C54.6935 49.6768 54.3796 49.6937 54.0403 49.3459C52.9023 48.6029 51.8397 47.7505 50.8675 46.8009C50.4263 46.4106 50.0191 46.0034 49.5865 45.5962C50.8393 45.9901 52.0638 46.4692 53.2513 47.0299C53.8141 47.2696 54.3374 47.5928 54.8038 47.9886C54.9141 48.1073 55.491 48.7521 55.4061 48.9811ZM58.2905 51.2632H58.0529C57.9851 51.068 57.9427 50.856 57.8918 50.6439L58.0614 50.7287C58.1463 50.9323 58.2226 51.0935 58.2905 51.2632ZM58.3838 51.9164H58.5195C58.6087 52.164 58.6851 52.416 58.7486 52.6714C58.6383 52.3999 58.5195 52.1539 58.3838 51.9164ZM59.1558 51.7891L59.8769 51.6789C66.3729 55.1323 71.911 60.1429 75.9954 66.2619C74.7992 65.6341 73.62 64.9639 72.4748 64.2852C69.3181 62.4293 66.3165 60.3214 63.4993 57.982C62.0886 56.8814 60.8053 55.6265 59.6733 54.2409C59.5914 53.4071 59.4179 52.5849 59.1558 51.7891ZM58.545 50.2876C58.5134 50.2356 58.4851 50.1818 58.4601 50.1264L58.774 50.0076C59.1919 49.9408 59.5995 49.8211 59.9872 49.6513C62.0839 49.1959 64.2692 49.3852 66.2564 50.1943H66.1122C64.0592 50.3979 62.0232 50.6863 59.9957 51.0426C59.5121 50.7626 59.0285 50.5251 58.545 50.2876ZM58.791 48.6757C59.1141 48.8338 59.4523 48.9589 59.8005 49.049C59.4764 49.1226 59.1565 49.2132 58.8419 49.3205C58.6503 49.3284 58.4592 49.2945 58.282 49.2213C58.1048 49.148 57.9456 49.0371 57.8154 48.8963C57.3912 48.2007 58.5195 48.5485 58.791 48.6757ZM31.644 24.9221C33.7734 24.0738 36.5475 25.0918 38.575 25.8977C41.543 27.0824 44.2287 28.8782 46.4575 31.1684C48.6864 33.4587 50.4086 36.1921 51.5122 39.1912C52.2028 41.4513 53.0098 43.6741 53.93 45.8507C54.1166 46.2325 54.3287 46.5973 54.5408 46.9621C53.7994 46.5383 53.0248 46.1751 52.2248 45.8762C51.0456 45.3842 49.841 45.0278 48.6279 44.6122C45.9216 41.8466 43.453 38.8519 40.7468 36.1287C37.4999 32.7112 33.6072 29.9718 29.2941 28.0695L29.1754 28.0186C29.288 27.3294 29.5735 26.68 30.0053 26.1311C30.437 25.5821 31.0008 25.1516 31.644 24.8797V24.9221ZM29.0566 28.6803C32.8644 30.3355 36.3375 32.6729 39.3046 35.5773C42.1465 38.3344 44.6831 41.3885 47.4147 44.2559L45.6502 43.7553C40.9673 42.4234 36.5814 40.7522 33.1456 37.1892C31.3622 35.4982 30.0271 33.3905 29.2602 31.0556C29.0433 30.2693 28.9743 29.4494 29.0566 28.6379V28.6803ZM54.5069 50.7372C51.9618 50.6099 49.4168 50.7372 46.8124 50.6693C41.4457 50.4599 36.1013 49.8616 30.8211 48.8793C26.1637 48.031 21.413 46.8009 18.1384 43.1191C15.3304 39.8954 13.6846 35.1786 15.2031 31.0472C15.5702 29.9936 16.2091 29.0558 17.0554 28.3288C17.9016 27.6018 18.9249 27.1113 20.0217 26.9072C22.3886 26.4576 24.8488 27.0939 27.0884 27.8659C27.5409 28.0299 27.982 28.1996 28.4118 28.3749C27.8435 32.133 30.8296 35.9591 33.4086 38.3684C36.9292 41.6514 41.2812 43.2124 45.8707 44.4595L48.3309 45.1805C48.4144 45.2583 48.4937 45.3404 48.5685 45.4266C50.0716 46.9952 51.7222 48.4157 53.4973 49.6683C54.3457 50.2112 55.9236 50.5166 56.0424 49.2865C56.492 49.9567 56.9416 50.6354 57.3573 51.331C56.4734 50.8876 55.4957 50.6636 54.5069 50.6778V50.7372ZM79.6687 79.1567C78.4895 81.4727 75.673 81.829 73.374 81.2436C71.3024 80.6549 69.4328 79.5073 67.9701 77.9266C64.8736 74.7792 62.651 70.5375 60.9119 66.5249C59.8127 64.1179 59.0861 61.5577 58.7571 58.9322C58.651 57.7554 58.651 56.5714 58.7571 55.3946C58.7571 55.1146 58.7571 54.8347 58.7995 54.5463C59.0774 55.5236 59.1181 56.5531 58.9183 57.5494C58.8334 57.9481 59.4527 58.1178 59.5375 57.7191C59.6981 56.9262 59.7749 56.1187 59.7666 55.3098C60.6422 56.3029 61.5953 57.2248 62.617 58.0669C65.5392 60.5421 68.6603 62.7723 71.9488 64.7349C73.357 65.5832 74.9774 66.5249 76.6995 67.3986C78.6422 70.529 81.5945 75.3985 79.6687 79.1567ZM90.2391 68.1282C87.4989 69.8249 84.1649 69.511 81.2466 68.5439C79.8647 68.0678 78.5158 67.501 77.2085 66.8472C76.0844 65.1216 74.8547 63.467 73.5267 61.8929C70.643 58.4691 67.2665 55.4928 63.5078 53.0617C62.6594 52.5102 61.8111 52.0012 60.9119 51.5092C63.0667 51.1868 65.2299 50.9153 67.3932 50.7372C69.1008 51.6448 70.507 53.0304 71.4398 54.7244C71.4808 54.7881 71.543 54.8353 71.6154 54.8578C71.6878 54.8802 71.7658 54.8764 71.8357 54.847C71.9056 54.8176 71.9629 54.7646 71.9975 54.6972C72.0322 54.6298 72.0419 54.5523 72.0251 54.4784C71.487 52.9622 70.549 51.6198 69.3104 50.593C75.4185 50.2536 82.1713 50.6608 87.5753 53.7064C88.8943 54.3763 90.0623 55.3089 91.0077 56.4468C91.9531 57.5848 92.6557 58.904 93.0725 60.3235C93.8191 63.2927 92.9538 66.5079 90.2391 68.1452V68.1282Z" stroke="#FBFBF2" stroke-width="0.6" mask="url(#path-1-outside-1_134_1530)"/>
</svg>
