<svg width="109" height="109" viewBox="0 0 109 109" fill="none" xmlns="http://www.w3.org/2000/svg">
<path d="M50.7627 89.3178L51.3434 88.1298C41.7869 83.51 33.2203 75.2866 25.8681 63.6841C20.5883 55.4079 15.876 43.2247 23.017 32.1106C28.6797 23.3064 39.4638 20.7325 48.0963 26.1179C50.941 27.8993 53.4077 30.2225 55.3561 32.9553C55.1053 33.2325 54.8546 33.5097 54.617 33.8001C52.818 35.6904 51.3539 37.8731 50.2875 40.2547C49.2711 42.8947 48.9675 46.8546 51.515 49.2305C54.0626 51.6064 56.4385 51.2632 57.5209 50.6825C59.9496 49.3625 61.4808 45.5346 60.7812 42.1291C60.1504 38.8966 58.8804 35.8225 57.0457 33.0873C60.3284 29.4835 64.5526 26.8684 69.2422 25.5372C77.3467 23.2404 83.2074 29.2067 85.9793 35.5689C88.1773 40.8175 89.0697 46.5209 88.58 52.1901C88.0904 57.8593 86.2332 63.3252 83.1678 68.1192C76.3304 79.1541 65.4143 88.737 51.6206 95.8384L52.2278 97C66.2326 89.793 77.3203 79.9989 84.2898 68.8056C87.4744 63.8354 89.407 58.1674 89.9219 52.287C90.4369 46.4065 89.5189 40.4889 87.2465 35.0409C84.2502 28.1771 77.8615 21.7357 68.9386 24.2568C64.0799 25.6135 59.6902 28.2856 56.2537 31.9786C54.2328 29.1948 51.6966 26.8244 48.7827 24.996C39.5034 19.2805 27.9405 21.9204 21.8819 31.3978C15.8232 40.8751 16.9188 52.0552 24.733 64.3969C32.2832 76.1974 40.9685 84.5923 50.7627 89.3178ZM56.1349 34.0773C57.7639 36.6083 58.8972 39.4258 59.4744 42.3799C60.0024 45.2046 58.8144 48.4781 56.8345 49.5209C55.1581 50.4317 53.4818 49.3493 52.373 48.2801C50.3007 46.3002 50.5911 43.0003 51.4754 40.7299C52.4868 38.4895 53.8703 36.4365 55.5673 34.6581C55.7653 34.4601 55.9369 34.2621 56.1085 34.0773H56.1349Z" fill="#FBFBF2"/>
</svg>
