<svg width="109" height="109" viewBox="0 0 109 109" fill="none" xmlns="http://www.w3.org/2000/svg">
<path d="M70.0707 40.4707C68.4605 38.0585 66.2872 36.0747 63.7386 34.6904C60.3102 32.7727 56.5019 32.3023 52.6665 32.4109C51.3461 32.4326 50.0371 32.6584 48.7858 33.0803C44.6545 34.4807 41.0792 37.1654 38.5821 40.7421C36.1077 44.4332 34.5565 48.6649 34.0591 53.0807C33.5069 56.8767 34.0466 60.7516 35.615 64.2523C36.7984 67.2094 38.9947 69.6494 41.8114 71.1362C44.9528 72.8057 48.4779 73.6199 52.0333 73.4972C54.0776 73.9043 56.2396 73.1987 58.3654 72.6831C61.1024 72.0389 63.6322 70.7134 65.7197 68.8295C68.1255 66.7564 70.128 64.2571 71.6266 61.4571C73.7525 57.5995 74.4931 53.1301 73.7253 48.7929C73.075 45.8027 71.8324 42.9729 70.0707 40.4707ZM70.6316 60.3716C69.1566 63.3489 67.0697 65.9814 64.5075 68.0968C62.529 69.7089 60.2135 70.8559 57.7322 71.4528C55.2642 72.065 52.7143 72.2787 50.1789 72.086C47.6855 71.9233 45.2468 71.2814 42.9964 70.1955C39.8123 68.73 37.8765 66.161 36.5648 62.9588C34.7014 58.4358 35.0542 53.9129 36.1578 49.3266C36.4782 47.682 37.1274 46.119 38.0664 44.7313C38.0031 45.0389 37.9307 45.3465 37.8674 45.6359C37.672 46.3201 37.515 47.0147 37.397 47.7165C37.0257 50.0769 36.7932 52.457 36.7005 54.8446C36.7005 58.0469 37.3609 61.1767 39.7671 63.5377C41.0151 64.9362 42.3832 66.2226 43.8558 67.3822C45.5567 68.5979 47.5116 69.4114 49.5728 69.7613C50.1772 69.854 50.7946 69.8139 51.382 69.6437C54.1862 68.7391 57.0718 68.124 59.668 66.6223C62.4374 65.1586 64.5602 62.7132 65.6202 59.7656C66.3346 58.0801 66.6682 56.2577 66.5971 54.4285C66.5999 53.8162 66.6882 53.2072 66.8594 52.6193C67.5288 49.39 66.4162 46.7124 64.2904 44.3695C63.4763 43.4649 62.5446 42.6689 61.6581 41.8276C60.6191 40.9049 59.3502 40.2798 57.9854 40.0184C53.363 38.9782 48.7134 40.1632 46.1173 44.6771C45.6831 45.4188 45.2127 46.1515 44.7061 46.8571C43.3261 48.8267 42.5354 51.1486 42.4265 53.5511C42.2988 55.8262 42.9886 58.072 44.3714 59.8832C45.3755 61.2943 47.0218 61.8823 48.5777 62.5246C48.8725 62.6293 49.1749 62.711 49.4823 62.7688C51.4275 63.3728 53.5285 63.2258 55.3706 62.3566C57.2127 61.4875 58.6621 59.9594 59.4328 58.074C59.5669 57.7438 59.7178 57.4208 59.8851 57.1061C61.2058 54.8537 60.6359 52.7098 59.5142 50.5931C59.281 50.1981 59.0242 49.8174 58.7453 49.4533C58.1775 48.5658 57.2967 47.9243 56.2778 47.6561C55.259 47.388 54.1765 47.5129 53.2454 48.0059C52.0785 48.5937 51.1026 49.5009 50.4315 50.622C49.7605 51.7431 49.4219 53.0319 49.4552 54.338C49.5637 56.292 50.5286 57.3141 52.3499 57.4046C53.1942 57.4547 54.026 57.1815 54.6763 56.6405C55.3265 56.0995 55.7464 55.3312 55.8506 54.4918C55.9078 54.0874 55.929 53.6788 55.9139 53.2706C55.941 52.9389 55.9008 52.6052 55.7957 52.2894C55.6905 51.9737 55.5227 51.6825 55.3022 51.4332C55.0816 51.184 54.813 50.9819 54.5124 50.839C54.2118 50.6962 53.8855 50.6156 53.553 50.6021C53.2183 50.5388 52.8836 50.5026 52.4765 50.4483C54.159 48.4492 56.3662 48.4673 57.7322 50.394C57.9312 50.6926 58.1573 50.973 58.3201 51.2986C59.2247 53.0354 59.668 54.7632 58.6277 56.6628C57.895 57.9926 57.3341 59.3766 56.0406 60.3536C53.4896 62.2984 50.8935 62.0904 48.1435 60.9144C44.2086 59.2228 43.4668 55.4869 44.0729 51.8685C44.0729 51.7147 44.1543 51.57 44.1905 51.4253C44.7332 49.2 47.8088 44.2881 49.618 42.8679C51.9609 41.0044 54.6837 40.9049 57.4608 41.3753C59.0609 41.6208 60.5223 42.4252 61.5857 43.6458C62.0742 44.2248 62.7164 44.668 63.2411 45.2198C64.2217 46.1558 64.9467 47.327 65.3473 48.6221C65.7478 49.9172 65.8106 51.2931 65.5297 52.6193C65.3863 53.4202 65.3016 54.2304 65.2764 55.0436C65.0865 58.9605 63.6843 62.3346 60.3826 64.5599C58.5531 65.6407 56.6271 66.5492 54.6294 67.2736C53.7248 67.6717 52.6755 67.8254 51.7076 68.1782C50.7399 68.5263 49.6811 68.5263 48.7134 68.1782C47.4377 67.814 46.2196 67.272 45.0951 66.5681C41.8386 64.1528 38.763 61.5024 38.2745 57.088C38.1419 56.0321 38.0995 54.9669 38.1479 53.9038C38.2383 52.2304 38.4373 50.5569 38.6363 48.8924C38.9607 45.9989 40.0331 43.2398 41.7481 40.8868C42.2004 40.2717 42.6527 39.6566 43.0779 39.0234C44.1038 37.409 45.5223 36.081 47.2007 35.1635C48.8791 34.246 50.7627 33.7689 52.6755 33.7768C56.0979 33.5392 59.524 34.1839 62.626 35.6493C65.103 36.8561 67.216 38.6976 68.75 40.9863C69.5932 42.2542 70.3546 43.5746 71.0296 44.9394C73.5443 50.1408 73.074 55.324 70.6316 60.3716ZM52.5398 51.9499C53.7158 51.4705 54.6294 52.3299 54.5299 53.9672C54.5419 54.3905 54.4173 54.8064 54.1746 55.1534C53.9319 55.5004 53.5839 55.7601 53.1821 55.8939C52.8345 56.0408 52.4496 56.0753 52.0814 55.9926C51.7132 55.9099 51.3801 55.7141 51.1287 55.4326C50.9052 55.0647 50.7825 54.6445 50.773 54.2142C50.7635 53.7838 50.8674 53.3586 51.0744 52.9812C51.4944 52.5492 51.9914 52.1995 52.5398 51.9499Z" fill="#FBFBF2"/>
<path d="M71.7539 25.4997C70.4061 27.3089 69.1035 29.2266 67.7828 31.0991C67.638 31.3071 67.4119 31.5061 67.3847 31.7323C67.3794 32.038 67.4191 32.3427 67.5023 32.6369C67.7812 32.6136 68.057 32.5621 68.3255 32.4831C68.4987 32.3759 68.6419 32.2265 68.7416 32.0489C70.2885 29.8417 71.8444 27.6436 73.346 25.4092C73.7315 24.7258 74.067 24.0153 74.3501 23.2834C73.7711 23.5005 73.4998 23.5277 73.355 23.6724C72.7856 24.2493 72.251 24.8594 71.7539 25.4997Z" fill="#FBFBF2"/>
<path d="M76.3847 36.029C78.628 34.2198 80.8443 32.3292 83.0605 30.4658C83.2192 30.2956 83.3615 30.1108 83.4857 29.914L83.2957 29.6155C82.1378 29.9092 81.0675 30.477 80.1749 31.2709C78.5738 32.483 77.0541 33.7494 75.5163 35.043C75.0821 35.4048 74.2408 35.7214 74.8197 36.418C75.3987 37.1145 75.9414 36.3908 76.3847 36.029Z" fill="#FBFBF2"/>
<path d="M25.9546 51.326C25.7251 51.218 25.4754 51.1594 25.2218 51.1541C22.2873 50.9328 19.3362 51.1492 16.4654 51.7964C15.9679 51.9321 15.4885 52.1492 15 52.3301L15.1176 52.7191C15.312 52.753 15.5084 52.7741 15.7056 52.7824L25.1314 52.4658C25.3829 52.4847 25.6355 52.4508 25.8731 52.3663C26.0675 52.2273 26.203 52.0209 26.2531 51.7873C26.2412 51.6929 26.2081 51.6025 26.1565 51.5226C26.1048 51.4427 26.0358 51.3755 25.9546 51.326Z" fill="#FBFBF2"/>
<path d="M80.5833 47.1826C80.8456 47.653 81.2617 47.5354 81.6417 47.3545C84.1745 46.1484 86.6983 44.9423 89.2131 43.7362C89.4988 43.549 89.7628 43.3306 90.0001 43.0848C89.6835 42.9401 89.5749 42.8406 89.5116 42.8677C86.6712 43.9623 83.8308 45.0568 80.9994 46.1785C80.8937 46.199 80.7947 46.2453 80.7112 46.3134C80.6278 46.3815 80.5625 46.4692 80.5213 46.5687C80.4801 46.6681 80.4642 46.7763 80.475 46.8835C80.4858 46.9906 80.523 47.0934 80.5833 47.1826Z" fill="#FBFBF2"/>
<path d="M88.4801 57.0066C86.0015 56.9161 83.532 56.8437 81.0535 56.7804C80.8548 56.7483 80.6511 56.7833 80.4745 56.8799C80.2476 57.0466 80.0848 57.2861 80.0132 57.5584C80.0132 57.7031 80.2846 57.9383 80.4836 58.0559C80.6673 58.1407 80.8702 58.175 81.0715 58.1554C83.3963 58.083 85.7121 58.0107 88.0369 57.9021C88.4524 57.8372 88.8591 57.7249 89.249 57.5674L89.1857 57.1784C88.9574 57.0957 88.7208 57.0381 88.4801 57.0066Z" fill="#FBFBF2"/>
<path d="M20.536 41.0588C22.6618 41.8367 24.8147 42.5514 26.9586 43.2841C27.1527 43.3464 27.3615 43.3464 27.5556 43.2841C27.8993 43.1574 28.4059 43.0127 28.4602 42.7594C28.614 42.2981 28.1707 42.1262 27.7456 42.0086C25.8007 41.4478 23.8739 40.8417 21.9381 40.2899C21.1339 39.9639 20.273 39.8009 19.4053 39.8105C19.4425 40.1096 19.571 40.3899 19.7734 40.6133C19.9757 40.8367 20.242 40.9923 20.536 41.0588Z" fill="#FBFBF2"/>
<path d="M25.4018 63.6552C25.2315 63.5842 25.0468 63.5545 24.8629 63.5686C24.6789 63.5828 24.5009 63.6404 24.3435 63.7366C23.276 64.5055 22.2629 65.3468 21.2317 66.179C20.2005 67.0112 19.332 67.7078 18.4094 68.5129C18.1054 68.8182 17.8271 69.148 17.5771 69.4989L17.8033 69.8064C18.0278 69.7425 18.2459 69.6577 18.4546 69.5531C20.2005 68.4134 21.9463 67.2826 23.656 66.1067C24.2237 65.6765 24.7533 65.1984 25.239 64.6774C25.5375 64.3789 25.836 63.9899 25.4018 63.6552Z" fill="#FBFBF2"/>
<path d="M59.2978 78.5086C59.2978 78.3005 59.0264 77.9658 58.8817 77.9658C58.737 77.9658 58.1852 78.1196 58.1399 78.3005C57.9799 78.7717 57.9395 79.2753 58.0223 79.766C58.5108 81.8375 59.0626 83.8818 59.6144 85.9262C59.7807 86.2481 59.9809 86.5513 60.2114 86.8308C60.5323 85.8008 60.5636 84.7023 60.3019 83.6557C59.9943 81.9641 59.6506 80.2725 59.2978 78.5086Z" fill="#FBFBF2"/>
<path d="M60.9438 29.6611C61.1573 29.5258 61.3368 29.3432 61.4684 29.1274C62.4273 27.5172 63.3952 25.9071 64.2998 24.2788C64.4699 23.8893 64.609 23.4871 64.7159 23.0757C64.5802 22.8858 64.4807 22.5872 64.2998 22.5239C64.0645 22.4954 63.8273 22.5603 63.6394 22.7048C63.4956 22.8465 63.3817 23.0157 63.3047 23.2024C62.3459 24.8758 61.3961 26.5403 60.4553 28.2228C60.2738 28.5193 60.151 28.8479 60.0934 29.1907C60.0854 29.2929 60.1069 29.3952 60.1555 29.4855C60.204 29.5757 60.2775 29.6501 60.3672 29.6997C60.4568 29.7493 60.5589 29.772 60.6611 29.7652C60.7634 29.7584 60.8615 29.7222 60.9438 29.6611Z" fill="#FBFBF2"/>
<path d="M37.8145 77.5585C37.2717 77.3776 36.9732 77.7937 36.7833 78.2369C36.6837 78.4723 36.6109 78.7181 36.5662 78.9696C36.34 80.4713 36.0777 81.9729 35.9149 83.4926C35.8828 84.2289 35.904 84.9665 35.9782 85.6998L36.3491 85.7631C37.0546 85.1751 37.0456 84.2796 37.1994 83.4745C37.525 81.8824 37.7693 80.2813 38.104 78.6892C38.1582 78.2369 38.4477 77.7304 37.8145 77.5585Z" fill="#FBFBF2"/>
<path d="M47.2033 80.0192C47.0651 80.0494 46.9347 80.1086 46.8209 80.1928C46.7071 80.277 46.6124 80.3843 46.543 80.5076C46.4445 80.8422 46.4228 81.1947 46.4797 81.5389C46.6334 83.0495 46.7963 84.5602 47.0043 86.0618C47.0948 86.7402 47.2757 87.4006 47.4204 88.07H47.7823C47.9064 87.9152 48.0042 87.741 48.0717 87.5544C48.5693 85.1663 48.0717 82.8234 47.7009 80.4805C47.6647 80.2725 47.339 79.992 47.2033 80.0192Z" fill="#FBFBF2"/>
<path d="M68.1628 75.2613C68 74.8271 67.8191 74.2934 67.2582 74.5015C66.6974 74.7096 66.815 75.3066 66.9416 75.8041C66.9714 75.9012 67.0108 75.9952 67.0592 76.0845C67.7105 77.8485 68.3618 79.6034 69.0312 81.3673C69.1669 81.7201 69.3569 82.0638 69.5197 82.4076L69.8906 82.3171C70.1321 81.3399 70.0754 80.3128 69.7277 79.3682C69.2574 77.9932 68.6875 76.6544 68.1628 75.2613Z" fill="#FBFBF2"/>
<path d="M30.0709 73.036C29.0668 74.5376 28.117 76.0392 27.1582 77.5589C26.9688 77.894 26.8026 78.2415 26.6606 78.5992L26.8506 78.8163C27.1663 78.6741 27.469 78.5046 27.7552 78.3097C29.3574 76.5838 30.7315 74.6594 31.8439 72.5837C30.8851 72.1314 30.7041 72.1314 30.0709 73.036Z" fill="#FBFBF2"/>
<path d="M75.409 67.4455C75.1647 67.3912 74.8391 67.7169 74.5044 67.8616C74.7396 68.1511 74.9115 68.5943 75.2009 68.7029C77.1367 69.4265 79.1087 70.0778 81.0627 70.7563L81.2978 70.5211C81.1745 70.2239 81.0034 69.9489 80.7913 69.707C79.196 68.5474 77.3537 67.7734 75.409 67.4455Z" fill="#FBFBF2"/>
<path d="M48.7593 26.9653C49.0035 26.9653 49.4648 26.5311 49.5191 26.2326C49.7572 24.7922 49.9143 23.3396 49.9895 21.8815C50.0086 21.4989 49.9184 21.1188 49.7293 20.7856C49.5403 20.4524 49.2603 20.1799 48.9221 20C48.8045 21.4654 48.7231 22.7138 48.5874 23.9711C48.5241 24.6224 48.3431 25.2557 48.2436 25.907C48.1713 26.3773 48.1713 26.902 48.7593 26.9653Z" fill="#FBFBF2"/>
<path d="M39.6954 29.1178C39.6954 29.3711 40.1206 29.5882 40.401 29.8777C41.3056 28.8193 40.8623 27.8243 40.5096 26.9287C40.3019 26.2058 39.9439 25.5347 39.4591 24.9596C38.9744 24.3844 38.3737 23.918 37.6963 23.5908C37.7768 24.101 37.9009 24.6034 38.0672 25.0924C38.8192 26.3398 39.3687 27.6985 39.6954 29.1178Z" fill="#FBFBF2"/>
<path d="M34.159 34.0663C34.1104 33.766 33.9603 33.4914 33.7338 33.2884C32.4855 32.2692 31.2191 31.2711 29.9345 30.2942C29.7717 30.1675 29.4732 30.2128 28.9033 30.1223C29.0528 30.4397 29.2315 30.7426 29.437 31.0269C30.6944 32.2752 31.9518 33.5145 33.2272 34.7267C33.372 34.8624 33.7971 34.9347 33.8876 34.8352C33.9818 34.7316 34.0544 34.6103 34.101 34.4782C34.1476 34.3461 34.1673 34.2061 34.159 34.0663Z" fill="#FBFBF2"/>
</svg>
