<svg width="109" height="109" viewBox="0 0 109 109" fill="none" xmlns="http://www.w3.org/2000/svg">
<path d="M33.7659 69.091C39.6534 68.6739 45.5586 68.5614 51.4577 68.754C53.7259 68.754 55.9811 68.8188 58.2234 68.8188L69.8884 68.754H71.1845C73.6989 68.8577 77.1466 68.9744 78.3779 65.9155C78.6443 65.1395 78.6933 64.3054 78.5197 63.5035C78.346 62.7016 77.9564 61.9625 77.3928 61.3662C75.0858 58.774 71.5344 58.9814 68.3979 59.1369H66.8425C63.68 59.2017 60.4916 59.3184 57.3809 59.4739C50.9004 59.7979 44.4199 60.3164 38.1986 61.0292C36.4877 61.2236 34.7768 61.444 33.0141 61.6643L31.9254 61.8587C31.1376 62.0786 30.3163 62.1533 29.5017 62.0791C29.4026 62.0611 29.3143 62.0053 29.2554 61.9235C29.2554 61.7032 29.8257 61.0163 33.9603 59.6554L34.5824 59.448C37.2758 58.4072 40.0885 57.7062 42.9553 57.3612C43.4608 57.3612 43.9792 57.2835 44.4976 57.2446C46.6233 57.1279 48.8137 56.9983 50.5375 55.3393C51.4606 54.3196 52.1664 53.1226 52.6121 51.8213C53.0577 50.52 53.2339 49.1416 53.1297 47.77V46.9535C53.1297 46.6424 53.1297 46.3314 53.1297 46.0333C54.0247 46.5644 55.0331 46.8754 56.0719 46.9405C59.6431 47.1225 63.1757 46.1301 66.1297 44.115C67.9953 42.8595 69.5061 41.1445 70.5163 39.1354C71.5265 37.1263 72.0022 34.8908 71.8973 32.6445V32.2557L71.5344 32.1001C70.9641 31.8409 70.0958 32.1001 68.3849 32.7223L67.672 32.9685L67.011 33.15C65.7149 33.487 64.4188 33.8369 63.1227 34.3035C59.1566 35.8459 54.3221 38.0233 52.4557 42.132C52.31 42.4507 52.1887 42.78 52.0928 43.117C51.679 42.2834 51.3365 41.4162 51.0689 40.5248C50.8432 39.8147 50.557 39.1252 50.2135 38.464C52.4817 35.0164 52.5724 29.2876 52.6242 26.0862C52.6242 25.7492 52.6242 25.3604 52.6242 24.9197C52.6242 22.9366 52.5205 19.6186 53.8167 18.5947C54.0812 18.4192 54.3836 18.3089 54.699 18.2729C55.0144 18.2368 55.3339 18.276 55.6312 18.3873C56.0101 18.4825 56.3509 18.6912 56.608 18.9853C56.8651 19.2795 57.0262 19.6451 57.0699 20.0334C57.17 20.4738 57.1532 20.9327 57.0214 21.3646C56.8895 21.7965 56.6471 22.1865 56.3181 22.496C56.1783 22.6021 56.0076 22.6596 55.8321 22.6596C55.6566 22.6596 55.4858 22.6021 55.3461 22.496L54.6721 23.6106C55.022 23.848 55.4352 23.9749 55.858 23.9749C56.2809 23.9749 56.694 23.848 57.044 23.6106C57.5782 23.1587 57.9806 22.571 58.2088 21.9095C58.4369 21.2479 58.4822 20.5371 58.3401 19.8519C58.2588 19.2186 57.9892 18.6243 57.5664 18.146C57.1435 17.6677 56.5867 17.3273 55.9682 17.169C55.4751 17.0039 54.9497 16.9589 54.4357 17.0378C53.9217 17.1167 53.434 17.3172 53.0131 17.6226C51.2115 19.0354 51.2892 22.6126 51.3281 24.9715C51.3281 25.3992 51.3281 25.7881 51.3281 26.0991C51.3281 29.0024 51.1985 34.0702 49.4617 37.2457C48.1551 35.2771 46.3106 33.7251 44.1477 32.7741C42.8516 32.2686 38.6781 31.5946 37.4339 33.1629C37.045 33.6554 36.7988 34.5238 37.7838 35.8977C39.1966 37.8548 42.6183 40.6933 45.8197 40.8748C46.4619 40.9235 47.1071 40.8329 47.7111 40.6092C48.3151 40.3855 48.8636 40.034 49.3192 39.5787C49.5173 40.0001 49.6904 40.4329 49.8376 40.8748C50.2351 42.3605 50.9078 43.7586 51.8206 44.9964C51.8206 45.6963 51.8206 46.3962 51.8206 47.0831V47.8867C51.8206 49.1828 51.691 52.5397 49.6561 54.4968C48.2693 55.793 46.4029 55.9355 44.4717 56.0392C43.9403 56.0392 43.396 56.104 42.8645 56.1688C39.8918 56.5226 36.9747 57.2453 34.1806 58.3204L33.6103 58.5148C30.5645 59.5128 27.6353 60.6274 28.0371 62.2994C28.117 62.5811 28.273 62.8354 28.4879 63.0343C28.7028 63.2332 28.9684 63.3691 29.2554 63.427C30.2528 63.5643 31.2677 63.4937 32.2365 63.2196C32.5994 63.1548 32.9364 63.0771 33.2345 63.0382C34.9324 62.8179 36.6432 62.6105 38.3411 62.4161C44.5884 61.7032 51.0041 61.1199 57.4458 60.8478C60.5434 60.6922 63.7189 60.5885 66.8684 60.5237H68.4627C71.3011 60.3812 74.5284 60.2256 76.4337 62.3253C76.8255 62.7347 77.1006 63.2414 77.2305 63.7929C77.3604 64.3445 77.3404 64.9207 77.1725 65.4619C76.3559 67.5098 74.1914 67.6005 71.2363 67.4968H69.8495L58.1845 67.5616C55.9552 67.5616 53.7 67.5616 51.4448 67.4968C45.5024 67.3046 39.5541 67.4171 33.6233 67.8338C33.0302 67.8386 32.4475 67.9902 31.9273 68.2752C31.4071 68.5602 30.9656 68.9696 30.6423 69.4669C29.4628 71.4758 30.5127 74.7809 31.6014 77.2435C33.4762 81.63 36.4274 85.4728 40.1816 88.416C43.8071 90.8539 48.1011 92.1041 52.4687 91.9932C54.5116 91.9945 56.5475 91.7552 58.5345 91.2804C64.2244 89.8935 68.5275 86.7699 70.6401 82.4927C72.1177 79.5506 73.4138 76.414 72.9213 73.1219L71.6252 73.2904C72.0269 76.2455 70.8345 79.1618 69.4995 81.8706C67.5554 85.7589 63.5634 88.6752 58.2364 89.9713C52.0021 91.4877 45.2753 90.4508 40.9593 87.3791C37.3875 84.5683 34.5797 80.9047 32.7938 76.7251C31.4329 73.7052 31.07 71.3851 31.7699 70.2445C31.977 69.8984 32.269 69.6108 32.6183 69.409C32.9676 69.2071 33.3625 69.0977 33.7659 69.091ZM53.6352 42.5986C55.2683 38.9954 59.8047 36.9476 63.5504 35.6515C64.7794 35.2171 66.0296 34.845 67.2962 34.5368L67.9572 34.3553C68.1257 34.3553 68.4238 34.1998 68.7737 34.0702C69.1237 33.9406 70.0698 33.5906 70.6012 33.461C70.5858 35.3795 70.1062 37.2656 69.2033 38.9584C68.3005 40.6512 67.0014 42.1003 65.4168 43.1818C62.7103 45.0286 59.4739 45.939 56.2015 45.774C55.0744 45.7241 54.0047 45.2631 53.1945 44.4779C53.2402 43.832 53.3889 43.1975 53.6352 42.5986ZM48.5285 38.4899C48.204 38.8473 47.801 39.1246 47.3512 39.3C46.9014 39.4754 46.4171 39.5442 45.9363 39.5009C43.3441 39.3454 40.1427 36.818 38.8725 35.0552C38.6911 34.796 38.2763 34.1609 38.4837 33.8887C39.0828 33.4907 39.8048 33.3205 40.5186 33.4092C41.5927 33.3977 42.6613 33.5642 43.6811 33.9017C45.7762 34.8225 47.5335 36.3714 48.71 38.3344L48.5285 38.4899Z" fill="#FBFBF2"/>
</svg>
