<svg width="109" height="109" viewBox="0 0 109 109" fill="none" xmlns="http://www.w3.org/2000/svg">
<path d="M84.6617 40.5151C83.2301 36.2726 81.3163 31.5439 77.3024 29.1335C73.0697 26.5916 67.6619 26.5134 62.8768 26.5642C52.5096 26.6742 38.6353 28.2962 32.0706 18.1104C32.05 18.0767 32.0211 18.0488 31.9867 18.0295C31.9522 18.0102 31.9134 18 31.8739 18C31.8344 18 31.7955 18.0102 31.7611 18.0295C31.7266 18.0488 31.6978 18.0767 31.6772 18.1104C29.7076 21.4761 27.7379 24.8418 25.7682 28.2075C24.7607 29.929 23.7416 31.6444 22.7468 33.3734C21.9289 34.639 21.3571 36.0478 21.0617 37.5255C20.704 39.9864 21.909 42.3898 24.4764 42.869C27.5967 43.4513 30.1597 41.3421 32.8059 40.0894C34.5917 39.1138 36.6683 38.8111 38.6583 39.2364C39.4766 39.4439 40.223 39.8704 40.8171 40.4702C41.4113 41.0699 41.8307 41.8202 42.0305 42.6405C42.3826 44.6214 40.5223 46.8493 38.4403 46.2405C37.0245 45.8265 36.0044 44.5305 34.4387 44.5559C31.7658 44.5992 32.1693 48.5801 32.0872 50.3467C31.8624 53.4947 32.0249 56.6583 32.5709 59.7667C33.1761 62.9093 34.6398 65.8229 36.7996 68.1846C39.0157 70.6091 41.8711 72.848 42.3697 76.2984C42.41 76.5773 42.7868 76.465 42.8171 76.2378C43.0502 74.4929 42.944 72.2891 44.7039 71.3145C46.7004 70.2089 49.2192 70.7235 51.2366 71.4647C53.5054 72.2983 55.8307 73.5848 58.2256 73.9626C56.9414 74.5154 55.709 75.2401 54.4547 75.8568C52.9527 76.6829 51.2605 77.101 49.5466 77.0696C47.9401 76.9826 46.3156 76.4955 44.7048 76.7756C42.741 77.1172 40.6273 78.892 41.6711 81.0508C43.0574 83.9179 46.8438 83.0865 49.2733 82.469C53.144 81.4746 56.8292 79.8629 60.1871 77.6959C60.4331 77.538 60.2049 77.1435 59.9572 77.3025C56.69 79.4123 53.109 80.9911 49.3477 81.98C47.5383 82.4507 45.238 83.1335 43.4636 82.2169C42.9219 81.9847 42.475 81.5759 42.1955 81.0571C41.916 80.5384 41.8206 79.9402 41.9247 79.3602C42.0928 78.9057 42.364 78.4965 42.7169 78.1645C43.0699 77.8325 43.495 77.5868 43.9588 77.4468C45.6306 76.8243 47.4387 77.3472 49.1469 77.4957C50.6077 77.6198 52.0768 77.3876 53.4282 76.8191C55.3828 76.031 57.2037 74.7634 59.189 74.062C60.2204 74.1183 61.2513 73.943 62.206 73.549C62.2577 73.5329 62.3019 73.499 62.3309 73.4534C62.36 73.4077 62.3719 73.3533 62.3647 73.2997C62.3574 73.2461 62.3314 73.1968 62.2913 73.1605C62.2512 73.1243 62.1995 73.1034 62.1455 73.1016C61.1124 73.0818 60.0848 73.2549 59.1152 73.612C55.437 73.4388 51.9768 70.6238 48.272 70.2761C46.6529 70.1241 44.5755 70.3777 43.4809 71.7299C42.8523 72.6749 42.511 73.7818 42.4984 74.9168C41.7391 72.9979 40.5596 71.2735 39.0466 69.8702C36.8179 67.5515 34.7819 65.3348 33.7081 62.2322C32.755 59.1698 32.336 55.9663 32.4694 52.7617C32.4864 51.2189 32.5688 49.6775 32.6679 48.138C32.7222 47.2954 32.6902 46.1042 33.3452 45.4529C34.2513 44.552 35.6116 45.2027 36.5043 45.7392C37.5345 46.3583 38.582 47.0342 39.8365 46.7242C40.3327 46.5844 40.7936 46.3413 41.1891 46.0108C41.5846 45.6802 41.9057 45.2697 42.1313 44.8063C43.2085 42.6942 41.9052 40.3697 39.9911 39.3013C37.4682 37.8933 34.4432 38.7216 32.038 39.9666C29.3804 41.3422 24.5947 44.4999 22.171 40.9594C20.9259 39.1404 21.4945 36.8018 22.395 34.9764C23.3058 33.13 24.4405 31.3782 25.4798 29.6024C27.6176 25.9493 29.7555 22.2962 31.8933 18.6432C36.3662 25.2369 44.8373 27.0923 52.3468 27.2181C57.6072 27.3062 62.8725 26.763 68.1286 27.1581C73.1469 27.5353 78.0159 28.894 80.9049 33.3317C83.4805 37.288 84.947 42.1613 85.8416 46.7614C86.7694 51.5502 86.9689 56.4516 86.4335 61.2999C85.4013 70.6542 81.7863 80.6986 73.4529 85.8812C69.0916 88.5935 64.0219 90.1995 59.1217 91.6392C56.3297 92.4595 52.9553 93.2011 50.259 91.6873C48.0651 90.4554 46.3746 87.7423 47.5287 85.2575C47.6514 84.9933 47.2588 84.7617 47.1353 85.0276C45.5716 88.3944 48.5098 91.979 51.7706 92.7519C54.2568 93.3413 56.844 92.7851 59.2429 92.0785C61.6407 91.3723 64.0283 90.5867 66.3726 89.7193C70.708 88.1152 74.9708 86.0235 78.2131 82.6502C81.4062 79.1028 83.7365 74.8655 85.022 70.269C88.0201 60.558 87.8941 50.1507 84.6617 40.5151Z" fill="#FBFBF2" stroke="#FBFBF2" stroke-width="0.7"/>
<path d="M58.3755 36.5649C56.469 37.3535 54.8285 38.6721 53.6483 40.3644C52.4681 42.0567 51.7977 44.0518 51.7165 46.1134C51.7196 46.1355 51.7267 46.1569 51.7375 46.1766C51.7473 46.2168 51.7713 46.2522 51.8052 46.276C51.8243 46.2951 51.8463 46.3111 51.8704 46.3234C51.8767 46.3252 51.877 46.3316 51.8837 46.333C55.6035 47.1304 59.1741 48.2538 62.835 46.5626C64.3241 45.8977 65.5651 44.7792 66.3806 43.3669C66.5381 43.0909 66.7044 42.7602 66.8903 42.4291C67.4256 42.6461 67.9793 42.8144 68.5449 42.932C69.2345 43.0586 70.3014 43.1543 70.7757 42.4865C71.3058 41.7401 70.523 40.9713 69.8825 40.6349C69.4594 40.414 68.9748 40.3399 68.505 40.4242C68.0352 40.5084 67.6066 40.7464 67.2867 41.1006C67.0452 41.3403 66.8285 41.6037 66.6399 41.8869C65.8635 41.5669 65.0573 41.3246 64.2331 41.1635C62.7693 40.9367 61.278 40.9547 59.82 41.2166C56.8786 41.7266 54.1977 43.2208 52.2167 45.4542C52.4422 43.3444 53.3114 41.3552 54.7064 39.7565C56.1014 38.1578 57.9546 37.0271 60.0144 36.5179C64.759 35.4303 69.3755 38.502 74.1442 37.3675C74.1822 37.3564 74.2168 37.3357 74.2444 37.3073C74.272 37.2789 74.2919 37.2439 74.302 37.2056C74.3121 37.1673 74.3121 37.127 74.3021 37.0887C74.2921 37.0503 74.2723 37.0153 74.2447 36.9868C71.3233 34.1831 67.5023 32.506 63.461 32.2538C61.0919 32.0491 58.709 32.0631 56.3425 32.2956C54.5646 32.3499 52.8209 32.7975 51.2367 33.6061C47.813 35.6081 47.4736 40.2988 47.7685 43.8339C48.1427 48.3186 49.7515 52.5732 50.8816 56.8969C51.4711 59.1523 52.4463 62.3219 50.6455 64.2886C48.9732 66.1152 46.0206 65.5857 43.882 65.1309C43.5961 65.07 43.4738 65.509 43.7609 65.5701C46.5237 66.1577 50.4784 66.5963 51.7559 63.3447C52.2232 61.79 52.2248 60.1324 51.7605 58.5767C51.2886 56.4179 50.6301 54.303 50.017 52.1817C48.7293 47.7263 47.4007 42.8531 48.5782 38.2234C48.8102 37.093 49.3394 36.045 50.1114 35.1872C50.8833 34.3295 51.87 33.6931 52.9697 33.3436C55.0798 32.7828 57.259 32.5257 59.4416 32.5798C64.5101 32.4561 69.8423 33.377 73.6039 37.0043C68.4906 37.9697 63.4432 34.4793 58.3755 36.5649ZM69.1961 40.8504C69.8207 40.9809 71.1515 41.7996 69.9857 42.4893C69.5919 42.6086 69.1725 42.6146 68.7755 42.5065C68.2073 42.4098 67.6495 42.2594 67.1097 42.0573C67.5923 41.2935 68.2237 40.647 69.1961 40.8504ZM59.9412 41.6558C61.5297 41.3713 63.158 41.3923 64.7387 41.7177C65.3065 41.8515 65.863 42.0296 66.403 42.2503C65.9234 43.2377 65.2944 44.1451 64.5381 44.9407C62.9747 46.2278 61.0334 46.9686 59.01 47.05C56.7493 47.1807 54.5495 46.4709 52.3649 45.9758C54.3049 43.691 56.9869 42.1617 59.9412 41.6558Z" fill="#FBFBF2" stroke="#FBFBF2" stroke-width="0.7"/>
</svg>
