<svg width="110" height="111" viewBox="0 0 110 111" fill="none" xmlns="http://www.w3.org/2000/svg">
<g filter="url(#filter0_d_133_1520)">
<path d="M42.7064 30.355C42.8529 30.3295 42.993 30.2117 42.9899 30.1193C42.9866 30.0397 42.8815 29.9537 42.7541 29.9251H42.751C42.5494 29.8765 42.3487 29.919 41.6235 30.0333C41.9533 30.1927 42.4128 30.404 42.7064 30.355Z" fill="white"/>
<path d="M81.1125 61.3084C80.9895 60.5014 77.0297 48.1609 72.3377 39.4266C71.7422 38.3213 71.0773 37.2429 70.3498 36.1973C71.3905 33.3885 70.4022 30.0622 67.0583 28.0111C66.4787 24.4726 65.1664 21.6762 63.0133 19.7302C56.4747 14.5801 51.2641 14.2679 45.4993 18.9116C43.2693 20.7071 39.5364 25.695 40.1104 28.4983C40.2645 29.2612 40.3415 29.2598 40.9289 29.6386C42.0152 29.5548 42.8543 29.1643 43.3267 29.7441C43.28 30.0457 43.2333 30.3468 43.1859 30.6468C43.0693 30.737 42.9297 30.8001 42.7888 30.8234C42.2508 30.9312 41.3642 30.4581 40.8939 30.1768C40.7367 30.6771 40.3086 31.0786 39.9606 31.403C38.779 32.5114 37.2884 33.9669 37.3904 35.7346C37.4509 36.741 38.2694 37.6551 39.2631 37.8239C38.8936 38.1488 38.4159 38.3271 38.0401 38.6488C36.7917 39.7126 37.04 41.9102 38.0943 43.0154C39.3757 44.3527 41.4419 44.055 43.1084 43.8621C43.9696 45.5307 45.3727 46.7284 47.1125 47.4174C47.1098 47.4302 47.1031 47.4413 47.1019 47.4547L46.7778 51.2241C39.5094 51.1309 30.5504 50.8262 27.0929 57.2795C26.1179 59.0944 25.9642 61.1484 25.8155 63.1347C25.5748 66.3423 24.2541 90.6676 23.7419 95.6794C23.723 95.8659 23.8689 96.0303 24.0591 96.0303C24.2206 96.0303 24.359 95.908 24.3758 95.7441C24.9302 90.3183 26.1526 67.1585 26.4507 63.1823C26.5944 61.2623 26.743 59.277 27.6543 57.5809C30.9632 51.4059 39.7979 51.7681 46.7231 51.8604C46.7014 52.1321 46.6665 52.4882 46.6602 52.6259C46.5781 54.404 47.7569 56.4229 49.3441 57.222C50.9645 58.0372 53.0171 57.9719 54.5753 57.0571C56.1276 56.1454 57.0947 54.4471 57.0526 52.7194C57.1158 52.602 57.0831 52.5577 57.1129 52.1375C63.26 52.4898 63.1866 52.5297 63.3686 52.4168C65.0679 59.5708 66.6559 69.428 68.168 74.7952C66.7211 76.6624 66.8728 79.3665 68.6047 81.0554C68.6929 81.1402 68.7671 81.2003 68.889 81.2003C69.1457 81.2003 68.8091 81.3657 75.2499 74.8161C75.3652 74.6978 75.3788 74.488 75.1877 74.3047C73.2899 72.4535 70.4348 72.5959 68.6792 74.239C66.707 67.0241 63.4383 45.6535 60.8485 43.0029C60.5062 42.6526 60.3789 42.5207 60.3476 42.4886C58.8872 40.9826 57.2199 39.1692 57.4819 38.4139C57.6018 38.0687 58.2043 37.9186 58.6954 37.8532C59.4075 38.6189 60.3147 39.0145 60.6296 39.0145C60.7814 39.0145 60.9157 38.906 60.9428 38.7514C60.9736 38.5781 60.8579 38.413 60.6846 38.3825C59.8806 38.2407 58.6237 37.1315 58.6026 36.3605C58.5923 35.986 58.9131 35.7168 59.5515 35.5579C59.9318 35.9738 60.4772 36.3878 61.1757 36.7847C61.3297 36.8723 61.524 36.817 61.6099 36.6653C61.697 36.5123 61.6435 36.3179 61.4905 36.2311C59.2877 34.9796 58.6861 33.5559 61.1561 33.0716C61.5876 33.4848 62.1197 33.7574 62.544 33.9463C62.5863 33.9652 62.6301 33.9739 62.6734 33.9739C63.016 33.9739 63.1161 33.504 62.8034 33.3646C62.4084 33.1886 61.9082 32.9385 61.5412 32.5643C61.195 32.2113 61.0171 31.7868 61.0529 31.3995C61.0902 30.9915 61.4009 30.6313 61.7757 30.5619C62.5174 30.4229 65.66 31.593 67.4583 33.5367C69.145 35.4589 70.5982 37.5412 71.7766 39.7286C74.4581 44.7154 77.7269 52.3354 80.436 61.2682C81.7798 65.7173 83.1013 70.9734 82.8358 76.379C77.2538 74.2188 71.2199 77.7149 70.1795 83.3722C69.624 86.3973 70.382 89.1269 72.4329 91.4892C72.2799 91.6929 70.5647 93.9756 70.2563 94.3955C70.0274 94.7068 69.9496 95.0835 70.0423 95.4287C70.264 96.255 71.4201 96.6469 72.0898 95.7662C72.4444 95.2983 74.1365 93.0408 74.1613 93.0077C77.671 95.1417 81.2108 95.141 84.6913 93.0074C85.7602 94.4347 86.274 95.1212 86.7584 95.7606C87.7164 97.0232 89.5352 95.6852 88.5876 94.384C88.4379 94.1779 86.4428 91.52 86.4181 91.487C87.4809 90.2995 88.2078 88.9238 88.5795 87.3945C89.639 83.031 87.4906 78.5497 83.461 76.6463C83.777 71.151 82.4682 65.8273 81.1125 61.3084ZM74.5681 74.6027L68.885 80.4299C68.2082 79.6906 67.8309 78.741 67.8181 77.7304C67.7732 74.2322 71.8992 72.2996 74.5681 74.6027ZM63.2108 51.8321C61.9464 51.8054 58.4395 51.5745 57.1417 51.5013L57.3644 46.6029C57.954 46.1524 58.5595 45.4413 59.0496 44.8297C60.0349 44.9008 59.1085 44.8948 61.1554 44.9392C61.8598 46.6174 62.5698 49.1175 63.2296 51.8363C63.2229 51.8358 63.2175 51.8323 63.2108 51.8321ZM59.1485 35.0117C57.9506 35.4066 57.6789 36.3066 58.2598 37.281C57.4944 37.4375 57.041 37.7412 56.8801 38.2052C56.5275 39.2219 57.7299 40.6839 59.7027 42.7362C59.0714 43.8429 57.7753 45.5473 56.868 46.185C56.7757 46.25 56.7342 46.3547 56.7386 46.4594C56.7325 46.506 56.4085 52.4692 56.4163 52.6927C56.4698 54.2068 55.6207 55.7044 54.2528 56.5078C52.8759 57.3162 51.0619 57.3728 49.6303 56.6528C48.4317 56.0495 47.2946 54.4786 47.2946 52.642C47.9603 44.9088 47.6306 48.739 47.7259 47.6316C48.5817 47.8973 49.479 48.0335 50.3774 48.0335C51.8212 48.0335 53.2653 47.6898 54.5334 47.0002C54.6879 46.916 54.7452 46.7228 54.6612 46.5682C54.5769 46.4136 54.3834 46.3567 54.2292 46.4404C51.8628 47.7274 48.7043 47.6938 46.3697 46.357C43.4199 44.6688 42.279 41.5889 42.8821 36.9418C43.2198 34.3422 43.658 31.8187 44.0735 29.075C44.4575 28.8055 44.848 28.555 45.2987 28.3646C46.2882 27.9432 48.9408 26.9872 52.8342 24.6541C53.5572 24.2177 54.1911 23.6094 54.8599 23.0871C55.1028 23.4498 55.8664 27.4804 60.6571 30.6409C60.2898 31.2299 60.356 31.9216 60.7118 32.5213C58.9304 32.9819 58.6164 34.0655 59.1485 35.0117ZM85.7727 91.2479C85.6663 91.3608 85.6567 91.5337 85.7497 91.6575C85.7739 91.6898 87.9126 94.5391 88.0725 94.7585C88.5248 95.3792 87.7286 95.9854 87.266 95.3759C87.2376 95.3383 86.3166 94.1185 85.0157 92.3865C84.9145 92.258 84.7316 92.2282 84.5942 92.3163C81.1296 94.542 77.7475 94.5414 74.253 92.3144C74.1131 92.2254 73.9271 92.2593 73.8269 92.3921C73.8028 92.4243 71.8725 94.9987 71.5825 95.3808C71.1315 95.9754 70.3265 95.3771 70.7695 94.7725C71.0692 94.3653 72.7923 92.0707 73.0985 91.6631C73.1903 91.5412 73.1822 91.3713 73.0798 91.2581C71.0376 89.0059 70.2728 86.3914 70.8059 83.4873C71.1959 81.367 72.292 79.5873 74.0646 78.1985C77.452 75.5448 82.3716 75.8111 85.508 78.8172C88.9253 82.0917 89.2003 87.615 85.7727 91.2479Z" fill="white"/>
<path d="M54.52 30.1258C54.3493 30.0826 54.176 30.1861 54.1337 30.3572C54.0908 30.5276 54.1944 30.7009 54.3651 30.7435C54.6087 30.8048 55.5909 31.239 55.8453 31.4271C55.9022 31.4691 55.9685 31.4893 56.0341 31.4893C56.3402 31.4893 56.4709 31.0972 56.2235 30.9146C55.8976 30.6738 54.8301 30.2035 54.52 30.1258Z" fill="white"/>
<path d="M47.1873 29.9854C47.1862 29.6773 46.8363 29.6537 46.8681 29.6679C46.479 29.6688 45.2893 30.1453 45.0228 30.3257C44.7636 30.5013 44.8882 30.908 45.2016 30.908C45.2629 30.908 45.3251 30.8902 45.3799 30.8532C45.5926 30.7092 46.6548 30.3055 46.8694 30.3049C47.0451 30.3042 47.1876 30.1615 47.1873 29.9854Z" fill="white"/>
<path d="M46.7223 31.8711C46.2579 31.7533 45.7828 32.0141 45.6611 32.4462C45.537 32.8868 45.8118 33.3377 46.2761 33.4555C46.7316 33.5709 47.2067 33.3101 47.3308 32.8695C47.4524 32.4374 47.1777 31.9865 46.7223 31.8711Z" fill="white"/>
<path d="M54.5592 32.5297C54.0948 32.4121 53.6197 32.6728 53.498 33.105C53.374 33.5456 53.6487 33.9965 54.1131 34.1141C54.5685 34.2296 55.0436 33.9688 55.1677 33.5282C55.2893 33.0961 55.0146 32.6452 54.5592 32.5297Z" fill="white"/>
<path d="M51.1095 41.6346C49.8504 41.1315 48.7266 40.9335 47.718 41.8228C47.5862 41.9395 47.5737 42.1407 47.69 42.2726C47.8069 42.4044 48.008 42.4168 48.1398 42.3006C48.5056 41.9774 48.829 41.9003 48.8903 41.8881C49.5569 41.7547 50.2365 41.9718 50.8731 42.2262C51.0364 42.2909 51.2215 42.2122 51.2871 42.0486C51.3524 41.8853 51.2728 41.7 51.1095 41.6346Z" fill="white"/>
<path d="M49.0483 38.5746C49.1049 38.616 49.1706 38.6359 49.2356 38.6359C49.5419 38.6359 49.6729 38.242 49.4234 38.0602C48.4369 37.3404 48.4613 36.933 48.9647 36.004L50.4813 33.2022C50.5649 33.0476 50.5074 32.8545 50.3525 32.7705C50.1979 32.6877 50.0048 32.744 49.9208 32.8992L48.4045 35.7007C48.1986 36.0805 47.9168 36.6008 47.9983 37.1619C48.0907 37.803 48.6079 38.2536 49.0483 38.5746Z" fill="white"/>
<path d="M39.6512 64.9417L38.9488 91.2717C38.9442 91.4475 39.0829 91.594 39.2589 91.5986C39.2617 91.5986 39.2645 91.5986 39.2677 91.5986C39.4393 91.5986 39.5812 91.4615 39.5858 91.2885L40.2881 64.9585C40.2928 64.7828 40.1541 64.6363 39.978 64.6316C39.816 64.6325 39.6558 64.7656 39.6512 64.9417Z" fill="white"/>
<path d="M89.6594 21.84H91.2197V16.8596H72.9556V21.84H73.6447C72.8366 28.637 74.5943 33.5853 79.0246 36.9527C79.0803 36.995 79.1478 37.0177 79.2175 37.0177H94.8546C95.1425 37.0177 95.2825 36.6644 95.0729 36.4672C90.7932 32.4388 89.0713 27.7794 89.6594 21.84ZM79.3254 36.3807C75.1364 33.1502 73.4894 28.3892 74.2853 21.84H89.0199C88.4673 27.6173 90.1189 32.388 94.0717 36.3807H79.3254Z" fill="white"/>
<path d="M87.7842 23.8477H76.1836V26.3725H87.7842V23.8477Z" fill="white"/>
<path d="M83.6061 74.3702C83.4845 74.4937 83.4842 74.6918 83.6052 74.8159C90.0576 81.3759 89.7018 81.1933 89.9602 81.1933C90.0831 81.1933 90.1646 81.1392 90.251 81.0546C92.1164 79.2361 92.1554 76.2529 90.3359 74.3877C88.5201 72.5264 85.5283 72.4888 83.6683 74.304C83.6494 74.3218 83.624 74.3504 83.6061 74.3702ZM91.0373 77.7303C91.0242 78.7346 90.6519 79.6786 89.9689 80.4279L84.2854 74.601C86.9211 72.3099 91.0825 74.2099 91.0373 77.7303Z" fill="white"/>
<path d="M76.8351 82.3362L77.367 81.7361L74.686 81.3547L75.5058 83.7942L76.0405 83.1572L78.3181 85.1188C78.1151 85.9332 78.7387 86.669 79.5324 86.669C79.991 86.669 80.3898 86.4177 80.6073 86.0466L82.8817 86.0749L82.8597 86.8766L85.1591 85.4462L82.9635 84.1036L82.9631 84.9354L80.6689 84.9052C80.401 84.3151 79.7164 84.0048 79.071 84.2591L76.8351 82.3362Z" fill="white"/>
<path d="M17.0752 38.5047L36.3442 32.7687C36.5116 32.7191 36.6093 32.5421 36.5585 32.3727L33.7472 22.9324C33.7598 22.9293 33.7724 22.9279 33.7849 22.9246C35.6545 22.4437 36.7756 20.5359 36.2915 18.6695C35.8074 16.7999 33.9028 15.6788 32.0332 16.1629C30.1668 16.647 29.0457 18.5516 29.5267 20.4213C29.5521 20.519 29.5835 20.6134 29.6164 20.7069L13.2278 25.5848C13.0604 25.6343 12.9626 25.8113 13.0135 25.9807L16.6793 38.2904C16.7295 38.4596 16.9074 38.5549 17.0752 38.5047ZM13.8235 26.4689L20.6502 29.3769L17.0605 37.3393L13.8235 26.4689ZM28.1824 27.3989L35.5012 32.3552L17.605 37.6824L21.2367 29.6267L25.2423 31.3329C25.3793 31.392 25.5455 31.3466 25.6317 31.2169L28.1824 27.3989ZM33.1294 23.0887L35.6996 31.7203L28.5363 26.8692L31.3298 22.6875C31.3353 22.6793 31.336 22.6696 31.3407 22.6611C31.8824 22.9336 32.4948 23.0683 33.124 23.0287C33.1259 23.0488 33.1234 23.0687 33.1294 23.0887ZM31.8581 18.437L33.1193 17.9847C33.3425 17.9106 33.4642 18.2392 33.2403 18.3192L32.1002 18.7268L32.272 19.6059C32.8149 18.9978 33.8079 18.894 34.1098 19.7683C34.2885 20.2624 34.1011 20.7716 33.3518 21.0391C33.0333 21.1538 32.7276 21.1792 32.4346 21.1124C32.2118 21.0456 32.2652 20.7394 32.4919 20.7621C32.7372 20.8002 32.9664 20.7779 33.1798 20.7047C33.6124 20.5494 33.9057 20.3119 33.7468 19.8766C33.5398 19.2907 32.7823 19.4844 32.4059 19.9531C32.3996 19.9563 32.3899 19.9722 32.3677 19.9944C32.2802 20.0965 32.0204 20.1149 31.9441 19.9148C31.9313 19.883 31.9249 19.8511 31.9186 19.8161L31.7211 18.7077C31.6932 18.5685 31.7527 18.4743 31.8581 18.437ZM30.8048 22.3292C30.8035 22.3309 30.8016 22.3318 30.8004 22.3336L25.2488 30.6434L14.2315 25.9504L29.8244 21.3093C29.8455 21.3031 29.8616 21.2897 29.8802 21.2797C30.1178 21.6943 30.4335 22.0494 30.8048 22.3292Z" fill="white"/>
<path d="M90.0974 50.1125C89.0138 50.3551 87.5432 50.2721 86.7576 49.5514C86.714 49.5051 86.6692 49.46 86.6229 49.4158C86.4994 49.2973 86.3044 49.2979 86.1809 49.4177C86.058 49.5368 86.0518 49.7321 86.1666 49.8593C86.2101 49.9075 86.2552 49.9539 86.3025 49.9984C87.0736 50.8363 87.421 52.2677 86.6574 53.263C86.4684 53.5087 86.7091 53.8546 87.007 53.76C88.1774 53.3864 89.4007 53.5429 90.6402 54.2259C90.7825 54.3044 90.9632 54.263 91.0563 54.1273C91.149 53.9923 91.1244 53.8088 90.9991 53.7034C90.2511 53.0732 90.0156 51.6835 90.4632 50.5396C90.5561 50.3008 90.3433 50.0565 90.0974 50.1125ZM87.5298 52.9843C87.7992 52.2639 87.7665 51.4185 87.4583 50.6525C88.1628 50.8792 88.9696 50.9181 89.708 50.8257C89.5139 51.6428 89.5833 52.5003 89.8791 53.1983C89.0814 52.9353 88.2888 52.8668 87.5298 52.9843Z" fill="white"/>
<path d="M54.4536 91.5101C54.304 91.418 54.1074 91.4656 54.016 91.6161L52.8717 93.4916L50.691 92.1545C50.5408 92.0628 50.3452 92.1097 50.2531 92.2596C50.161 92.4096 50.2083 92.6055 50.3582 92.6976C52.8833 94.2266 52.8111 94.2484 52.9774 94.2484C53.0874 94.2484 53.1912 94.1912 53.2493 94.0957L54.5596 91.9477C54.6514 91.7975 54.6038 91.6015 54.4536 91.5101Z" fill="white"/>
<path d="M17.9366 62.1514C18.1797 62.1514 18.0314 62.1367 21.697 58.6715C21.8242 58.5499 21.8285 58.3484 21.7066 58.2215C21.5847 58.0943 21.3828 58.0896 21.2566 58.2118L17.7164 61.603C17.5075 61.8027 17.6534 62.1514 17.9366 62.1514Z" fill="white"/>
<path d="M19.9122 57.0382C19.7919 56.9098 19.5906 56.9039 19.4619 57.0239L16.8735 59.4537C16.7453 59.5741 16.7388 59.7759 16.8592 59.9041C16.9793 60.032 17.1805 60.0389 17.3095 59.9184L19.8979 57.4886C20.0261 57.3682 20.0326 57.1664 19.9122 57.0382Z" fill="white"/>
</g>
<defs>
<filter id="filter0_d_133_1520" x="7" y="9.63599" width="102.173" height="100.632" filterUnits="userSpaceOnUse" color-interpolation-filters="sRGB">
<feFlood flood-opacity="0" result="BackgroundImageFix"/>
<feColorMatrix in="SourceAlpha" type="matrix" values="0 0 0 0 0 0 0 0 0 0 0 0 0 0 0 0 0 0 127 0" result="hardAlpha"/>
<feOffset dx="4" dy="4"/>
<feGaussianBlur stdDeviation="5"/>
<feComposite in2="hardAlpha" operator="out"/>
<feColorMatrix type="matrix" values="0 0 0 0 0.462745 0 0 0 0 0.596078 0 0 0 0 0.701961 0 0 0 1 0"/>
<feBlend mode="normal" in2="BackgroundImageFix" result="effect1_dropShadow_133_1520"/>
<feBlend mode="normal" in="SourceGraphic" in2="effect1_dropShadow_133_1520" result="shape"/>
</filter>
</defs>
</svg>
