<svg width="110" height="112" viewBox="0 0 110 112" fill="none" xmlns="http://www.w3.org/2000/svg">
<g filter="url(#filter0_d_133_1524)">
<path d="M16.2147 78.1429C16.0948 81.295 17.4179 83.0495 20.0966 83.471C21.4879 86.354 27.6397 85.0147 28.512 81.7652C29.073 83.951 28.8915 86.3864 28.2462 88.9743C27.9931 89.9926 29.1315 90.7774 29.9907 90.1775C33.2597 87.8782 35.7761 83.9088 36.4735 80.0854C37.6015 81.5089 39.5601 81.8785 41.1656 81.3175C41.181 82.0816 41.214 82.7986 41.2675 83.502C41.2804 83.6724 41.4225 83.8018 41.5905 83.8018C41.7806 83.8018 41.9284 83.6403 41.9142 83.453C41.7708 81.5669 41.8604 81.2178 41.7753 81.0482C42.872 80.4581 43.6955 79.3757 43.7734 77.8445C49.2442 78.1007 51.8451 76.5214 54.472 70.5997C54.8351 69.7209 55.0361 68.7512 55.088 67.6908C55.3183 63.0955 52.6494 58.8538 48.4692 56.9372C47.64 56.5565 46.7536 56.2305 45.8252 55.9544C48.5439 53.2187 53.4412 51.5862 57.6414 52.0155C58.068 53.8787 59.9381 55.4245 61.9044 55.4245C63.8081 55.4245 65.6092 54.1118 66.1287 52.3732C69.7973 52.5565 73.3599 52.4101 76.807 53.2102C80.2482 54.0087 83.1852 56.4683 84.2893 59.4766C85.2395 62.0659 84.8747 64.0038 82.2695 76.998C81.944 78.7118 81.575 80.6544 80.5392 82.2081C79.1061 84.3578 76.5119 85.4707 74.0034 86.5467C70.0801 88.2299 65.6715 89.7371 61.9321 91.1749C61.8849 91.1931 61.8467 91.2225 61.8143 91.257C61.8132 91.2579 61.8118 91.2579 61.8107 91.2588C60.3519 92.3619 58.8651 93.7531 57.3298 94.7144C56.1905 95.4281 54.9076 96.4469 53.5706 96.3776C53.2872 96.3642 52.9652 96.1532 53.1057 95.8678C53.2743 95.5279 53.3696 95.6298 53.5022 95.4781C54.6208 94.947 55.4597 94.3834 56.6523 93.7013C56.8077 93.6123 56.8618 93.4142 56.7728 93.2587C56.6837 93.1035 56.4862 93.0487 56.3302 93.1382C54.6929 94.0749 53.8043 94.7311 52.0708 95.3819C51.6993 95.5208 51.253 95.5128 51.0083 95.3612C50.4029 94.9857 51.2965 94.3451 51.3245 94.2908C52.9602 93.4774 54.4373 92.5293 56.0106 91.7984C56.1732 91.7229 56.2437 91.5301 56.1682 91.3678C56.0927 91.2053 55.8996 91.1345 55.7376 91.2102C53.964 92.0338 52.277 93.1444 50.5339 93.9542C50.025 94.1902 49.5019 94.3821 49.1241 94.1825C48.7822 94.0025 48.7089 93.5187 48.857 93.197C49.2507 92.341 49.9176 92.2144 50.153 92.1296C51.3845 91.6861 52.2102 91.2605 53.2557 90.7215C53.5885 90.5498 53.9415 90.3678 54.3347 90.1717C54.4951 90.0918 54.5602 89.8971 54.4803 89.7368C54.4001 89.5767 54.2063 89.5109 54.0453 89.5913C53.6492 89.7889 53.2938 89.9721 52.9585 90.1449C52.1507 90.5613 50.8396 91.2393 49.7395 91.5842C49.6666 91.5926 49.0739 91.8292 48.735 91.5867C48.4774 91.4025 48.4802 90.9812 48.6447 90.7031C48.8567 90.3442 49.2763 90.0962 49.6528 89.892C49.8416 89.7896 50.1004 89.6467 50.4093 89.4762C52.1092 88.5377 55.6467 86.585 56.8438 86.2791C57.3603 86.1117 57.8086 86.0323 58.2546 86.0293C58.4336 86.028 58.578 85.8819 58.5767 85.7028C58.5755 85.5244 58.4305 85.3807 58.2524 85.3807C57.9681 85.3807 57.6621 85.4173 57.3868 85.4701L57.403 84.3298C57.4359 84.3272 57.4641 84.3323 57.5267 84.3074C62.0106 82.5227 68.3308 79.7878 72.6939 78.0518C72.8603 77.9855 72.9414 77.797 72.8754 77.6306C72.8093 77.4642 72.6206 77.3835 72.4542 77.4491C71.7647 77.7235 71.0642 78.0072 70.3594 78.2951C71.5808 74.2721 72.4965 70.1569 73.0761 66.0496C73.1009 65.8722 72.9776 65.7082 72.8002 65.6832C72.6247 65.6585 72.4592 65.7816 72.4338 65.9591C71.8347 70.2055 70.8756 74.4616 69.5858 78.6132C65.3663 80.349 61.3405 82.0879 57.4126 83.6542L57.4327 82.2257L53.207 82.1641C52.9893 81.7628 52.9751 81.1028 53.3012 80.5751C53.46 80.3156 53.6321 79.9654 53.6384 79.6833C53.6483 78.8109 53.0061 78.0942 52.1954 78.0845C51.3878 78.0715 50.7231 78.7687 50.7101 79.6411C50.7068 79.9265 50.8722 80.28 51.0215 80.5426C51.3207 81.0662 51.3094 81.6997 51.0734 82.1349L47.0358 82.0798L46.9743 86.4805C47.2693 86.4805 47.5644 86.3929 47.8206 86.234C48.0865 86.0719 48.4368 85.8935 48.7222 85.8968C49.5945 85.9097 50.2917 86.6264 50.2788 87.4988C50.2657 88.3711 49.549 89.0684 48.6768 89.0554C48.3946 89.0522 48.0444 88.8641 47.785 88.6954C47.532 88.53 47.2434 88.4328 46.9483 88.423L46.8867 92.6356L48.4143 92.6556C48.3607 92.7433 48.3103 92.8329 48.2675 92.9259C47.8031 93.935 48.5319 95.3193 50.1796 94.7933C50.0872 95.2192 50.269 95.6568 50.6544 95.9028C51.0302 96.7065 51.9249 97.0025 52.6435 96.5853C52.9084 96.9095 53.2699 97.0292 53.6936 97.0292C54.9729 97.0292 56.126 96.2737 57.1477 95.6042C60.1228 93.6545 60.1676 93.314 62.202 91.7762C62.2076 91.772 62.2101 91.7656 62.2153 91.7611C66.0451 90.2904 70.3365 88.8255 74.2588 87.1428C76.7337 86.0812 79.5389 84.8779 81.0789 82.568C82.1874 80.9046 82.5696 78.8935 82.9068 77.1191C85.5158 64.0818 85.9211 62.0407 84.8983 59.2532C83.7209 56.045 80.6024 53.4249 76.9536 52.5783C73.3817 51.7496 69.7364 51.9127 66.0461 51.7203C65.8383 46.6982 65.8812 46.9766 65.8311 46.8621C66.8934 45.7086 67.5038 44.2662 67.8337 42.8025C68.6803 42.6318 69.2533 41.7836 69.4199 40.9681C69.5312 40.4236 70.1084 38.57 70.1252 38.5307C70.2857 38.4141 70.4321 38.2796 70.5626 38.1287C71.639 37.373 71.9436 35.1823 71.788 33.8659C71.7275 33.3545 71.6175 33.0189 71.2595 32.6419C72.5777 32.6433 74.0383 32.2288 74.8928 31.2173C75.0917 30.9814 75.2696 30.7239 75.427 30.4518C79.2551 30.9 83.033 32.093 85.4481 28.5597C88.5829 28.5235 91.4305 27.0481 92.2686 24.0784C93.0565 23.7267 93.8231 23.2518 94.3776 22.5835C94.9967 21.8382 95.2729 20.9313 95.1354 20.0957C94.9322 18.8568 93.8728 17.9862 93.0936 17.439C89.3343 14.7999 84.41 13.689 81.497 14.0744C79.7754 14.302 78.2609 15.0294 77.2323 16.1224C75.7111 17.7391 75.1984 20.2508 75.9259 22.5211C76.5855 24.5787 78.1926 26.3612 80.335 27.4114C81.5709 28.0174 83.0937 28.4429 84.657 28.5396C82.5093 31.2304 79.1659 30.29 75.7334 29.8364C76.6451 27.7567 76.5804 25.1839 74.9804 23.5185C73.6881 22.1646 72.5961 22.0915 70.5862 22.2797C68.8316 22.4386 67.3432 23.6839 66.5519 25.2438C66.6454 26.0675 66.9144 26.8599 67.3529 27.569C67.4243 27.6825 67.3886 27.8349 67.2751 27.903C67.1463 27.9822 67.0058 27.9314 66.941 27.8252C66.4639 27.0497 66.1623 26.1674 66.0655 25.2502C64.431 23.8979 62.307 22.9997 60.2703 22.7207C57.4653 22.3348 54.7411 23.2558 52.6785 25.1757C51.657 26.1258 50.8041 27.2447 50.0649 28.4251C49.5135 29.3039 48.333 30.8152 49.0756 31.8756C49.6579 32.7124 51.3883 32.6158 52.423 32.5697C52.3917 32.6284 52.3731 32.6944 52.3835 32.7653C52.716 35.0718 52.85 37.4586 52.782 39.8594C52.7245 41.9007 52.659 44.2143 53.9968 46.1447C54.9221 47.48 56.3387 48.4478 57.9006 48.8477L57.623 51.3634C53.1941 50.9415 48.0341 52.7026 45.2321 55.6263C45.1931 55.667 45.1714 55.7159 45.1577 55.7667C39.2123 54.1888 31.675 54.6235 25.5999 56.7361C24.8701 56.9923 24.1633 57.2842 23.479 57.6182V60.3228C23.813 60.3974 24.16 60.3293 24.4517 60.1444C24.6628 60.0083 24.9415 59.8656 25.1718 59.8656C25.8756 59.8656 26.443 60.4331 26.443 61.1336C26.443 61.8341 25.8756 62.4016 25.1718 62.4016C24.9448 62.4016 24.6628 62.2589 24.4517 62.1259C24.1633 61.9378 23.813 61.8697 23.479 61.9443V65.6477H20.0868C20.1128 65.4694 20.1777 65.2975 20.2749 65.1418C20.4111 64.9343 20.5571 64.6489 20.5571 64.4219C20.5571 63.7214 19.9896 63.1507 19.289 63.1507C18.5853 63.1507 18.0179 63.7214 18.0179 64.4219C18.0179 64.6489 18.1638 64.9343 18.2967 65.1418C18.3972 65.2975 18.4622 65.4694 18.4881 65.6477H15.0862C14.4246 66.8768 13.8993 68.1902 13.5328 69.5685C12.2908 74.2448 13.2344 78.052 16.2147 78.1429ZM85.8498 27.9031C86.3194 27.0458 86.6336 26.1171 86.8916 25.1201C88.6012 25.1108 90.139 24.867 91.4809 24.3931C90.6081 26.6477 88.2828 27.7705 85.8498 27.9031ZM87.4741 19.6914C87.0429 17.9527 85.5 16.5858 83.7221 16.3673C81.6691 16.1152 80.7203 17.8991 82.4699 19.4328C83.6646 20.481 85.5198 21.2646 86.9287 21.6488C86.8517 22.3966 86.5482 23.7789 86.3848 24.4672C85.051 24.4366 83.704 24.2813 82.4837 23.7538C81.2249 23.2098 80.2441 22.2871 79.7931 21.2224C79.0966 19.5786 79.7383 17.4354 81.223 16.4445C83.4897 14.9315 88.5393 15.4439 91.4838 18.9273C91.7439 19.2349 92.0386 19.6404 92.0103 20.049C91.9682 20.6671 91.2274 21.0535 90.6065 21.1967C89.7043 21.4046 88.7147 21.3899 87.6138 21.1495C87.6289 20.6655 87.5937 20.1737 87.4741 19.6914ZM86.9674 20.9862C85.6165 20.6005 83.964 19.8807 82.8977 18.9452C81.7436 17.933 82.108 16.995 83.3761 16.995C84.791 16.995 86.4328 18.1877 86.8444 19.8475C86.9363 20.2176 86.9705 20.6015 86.9674 20.9862ZM80.6206 26.8292C74.0716 23.6185 74.9447 14.6387 82.8052 14.6387C83.7712 14.6387 84.8231 14.7768 86.0307 15.0585C88.5584 15.6482 90.8097 16.6278 92.7212 17.9698C93.4044 18.4497 94.3317 19.203 94.4956 20.2008C94.6007 20.8414 94.3701 21.5773 93.8788 22.1693C93.5416 22.5753 93.0848 22.9309 92.4894 23.2488C92.7275 22.4317 93.0248 21.8541 93.7023 21.8541C93.7036 21.8542 93.707 21.8545 93.708 21.8541C93.8866 21.8541 94.0316 21.7097 94.0323 21.531C94.0329 21.3519 93.8882 21.2061 93.7092 21.2055C93.7067 21.2055 93.7042 21.2055 93.7017 21.2055C92.4258 21.2055 92.0212 22.3987 91.7222 23.6074C90.3875 24.155 88.8204 24.4443 87.0504 24.4699C87.2164 23.756 87.483 22.5297 87.5654 21.8023C88.7254 22.0448 89.7798 22.0527 90.7518 21.8286C91.6294 21.6266 92.591 21.0647 92.6577 20.0935C92.7017 19.4525 92.3183 18.9097 91.9789 18.5086C88.8172 14.7682 83.3999 14.2114 80.8632 15.9051C79.1026 17.0798 78.3703 19.5265 79.196 21.4753C79.7113 22.6922 80.816 23.7397 82.2264 24.3493C83.3192 24.8216 84.5903 25.0642 86.2228 25.1119C85.9501 26.1329 85.6114 27.0706 85.0936 27.9143C83.4869 27.8762 81.893 27.453 80.6206 26.8292ZM62.9833 47.5482C62.8443 47.4348 62.6398 47.4565 62.5269 47.5949C62.274 47.9057 60.6868 48.5617 58.8916 48.372C57.1593 48.1874 55.5287 47.2167 54.5297 45.7752C52.5167 42.8703 54.0864 40.0333 53.0252 32.6728C53.0178 32.6209 52.9959 32.576 52.9679 32.5357C55.6456 32.3217 58.2674 31.4176 60.5037 29.9266C60.6327 29.8376 60.7185 29.8423 60.8022 30.0434C61.4791 31.7234 61.8952 34.1653 64.5737 36.3769C65.3326 37.0027 66.461 36.8276 67.0027 36.0072C67.3046 35.5525 67.5866 35.0859 67.8403 34.6057C69.0102 34.2263 70.2428 34.9247 70.4961 36.054C70.7347 37.1187 70.026 38.1385 68.9432 38.357C68.097 38.5271 67.8905 38.1527 67.6195 38.375C67.4268 38.5326 67.5231 38.7091 67.5283 38.9071C67.5846 40.8696 67.349 44.4856 65.1389 46.6533C64.9953 46.7944 65.0018 47.0553 65.2179 47.1681C65.4468 52.1554 65.3346 52.0436 65.4996 52.2167C65.0428 53.6999 63.4778 54.8215 61.833 54.7751C60.1627 54.741 58.5531 53.3871 58.2455 51.7571C58.2438 51.7477 58.2376 51.7406 58.2351 51.7315L58.539 48.9785C61.0924 49.3673 63.7131 48.1432 62.9833 47.5482ZM34.6769 70.2884C34.904 70.2949 35.1308 70.3663 35.3256 70.496C35.5266 70.6289 35.7958 70.7716 36.0163 70.7748C36.6907 70.7846 37.2484 70.2463 37.2583 69.5685C37.2679 68.8939 36.7264 68.3394 36.0519 68.3297C35.8315 68.3264 35.5589 68.4626 35.3546 68.5891C35.1535 68.7123 34.9267 68.7804 34.6964 68.7804L34.745 65.3721L37.8712 65.4175C38.06 65.0616 38.062 64.584 37.8324 64.1819C37.7157 63.9776 37.5891 63.7052 37.5922 63.4847C37.6021 62.8102 38.1145 62.2686 38.7436 62.2783C39.3695 62.2848 39.8688 62.8393 39.8592 63.5171C39.8559 63.7344 39.7197 64.0036 39.5997 64.2046C39.3749 64.5702 39.3293 65.0492 39.5252 65.4402L42.7973 65.4856L42.7518 68.6053C43.0726 68.8666 43.6328 68.9291 44.101 68.6378C44.3053 68.5113 44.5777 68.3751 44.7982 68.3783C45.4727 68.388 46.0142 68.9426 46.0045 69.6171C45.9949 70.2949 45.4403 70.8332 44.7625 70.8235C44.5451 70.8235 44.2762 70.6776 44.075 70.5446C43.7638 70.3403 43.3745 70.2755 43.0176 70.3922C42.914 70.4246 42.8135 70.4733 42.7259 70.5381L42.6804 73.6611L39.4083 73.6157C39.208 73.9954 39.2328 74.4697 39.4473 74.848C39.564 75.0556 39.6938 75.328 39.6906 75.5453C39.6807 76.223 39.1651 76.7614 38.5393 76.7549C37.9134 76.7452 37.414 76.1906 37.4236 75.5128C37.4236 75.2955 37.5598 75.0264 37.6831 74.8253C37.9024 74.4624 37.95 73.9991 37.7577 73.593L34.6315 73.5476L34.6769 70.2884Z" fill="white"/>
<path d="M68.622 36.319C68.7693 36.2669 68.9747 36.3405 69.0423 36.4701C69.1254 36.6294 69.3219 36.69 69.4801 36.6073C69.6387 36.5244 69.7 36.3284 69.6173 36.1697C69.4012 35.7566 68.8583 35.5498 68.4075 35.7069C68.2386 35.766 68.1496 35.9511 68.2087 36.1202C68.2679 36.289 68.4516 36.3778 68.622 36.319Z" fill="white"/>
<path d="M57.3759 41.2995C57.1352 41.1756 56.8059 40.9811 56.7232 40.7219C56.6263 40.419 56.772 40.1847 57.5935 37.7817C57.652 37.6125 57.5624 37.4279 57.3932 37.3692C57.223 37.3107 57.0393 37.4005 56.9808 37.5697C56.1062 40.098 55.9338 40.3815 56.1054 40.9192C56.2598 41.4026 56.7068 41.6846 57.0789 41.8761C57.1264 41.9007 57.1771 41.9121 57.2271 41.9121C57.5678 41.9121 57.6758 41.454 57.3759 41.2995Z" fill="white"/>
<path d="M62.063 34.7861C61.4606 34.4263 60.7372 34.2607 60.0288 34.3173C59.8501 34.3317 59.7171 34.4881 59.7315 34.6666C59.746 34.8453 59.9033 34.9808 60.081 34.9637C60.6579 34.9179 61.2427 35.0519 61.7308 35.3432C61.8842 35.4347 62.0834 35.3848 62.1753 35.2309C62.2672 35.0771 62.2168 34.878 62.063 34.7861Z" fill="white"/>
<path d="M55.4811 35.5647C55.6548 35.5211 55.7605 35.3448 55.7167 35.1712C55.673 34.9974 55.4972 34.892 55.3232 34.9356C54.7353 35.0833 54.1924 35.3727 53.753 35.7726C53.6206 35.8933 53.6108 36.0984 53.7316 36.2308C53.8524 36.3638 54.0578 36.3724 54.1896 36.2523C54.5501 35.9241 54.9967 35.6863 55.4811 35.5647Z" fill="white"/>
<path d="M56.1016 36.6963C55.928 36.6558 55.7525 36.7633 55.7116 36.9377C55.6786 37.078 55.4776 37.2316 55.2228 37.3114C54.9488 37.3972 54.7547 37.3604 54.7138 37.3294C54.6286 37.1759 54.4364 37.1182 54.2788 37.2005C54.1206 37.2842 54.0599 37.4803 54.1436 37.6387C54.5298 38.3683 56.1395 37.9515 56.3432 37.0861C56.3841 36.9119 56.2759 36.7373 56.1016 36.6963Z" fill="white"/>
<path d="M61.2332 36.661C61.1351 36.7666 60.8847 36.8007 60.6233 36.7447C60.343 36.684 60.192 36.5564 60.1716 36.509C60.1732 36.3295 60.0279 36.1821 59.847 36.1821C59.4062 36.1821 59.3271 36.9355 60.1782 37.2835C60.6707 37.4851 61.3441 37.4957 61.7088 37.1017C61.8305 36.9704 61.8227 36.7652 61.6915 36.6434C61.5594 36.5218 61.3546 36.5294 61.2332 36.661Z" fill="white"/>
<path d="M57.3184 45.0439C57.3184 45.223 57.4637 45.3682 57.6427 45.3682C57.8216 45.3682 57.967 45.223 57.967 45.0439C57.967 44.9229 58.1806 44.8481 58.3781 44.8481C58.5759 44.8481 58.7895 44.9229 58.7895 45.0439C58.7895 45.223 58.9349 45.3682 59.1138 45.3682C59.2928 45.3682 59.4381 45.223 59.4381 45.0439C59.4381 43.9199 57.3184 43.9161 57.3184 45.0439Z" fill="white"/>
<path d="M39.5499 39.9247C39.8368 39.9247 39.9836 39.576 39.7796 39.3715L37.1213 36.7038C36.9948 36.5764 36.7891 36.5764 36.6627 36.7029C36.5359 36.8293 36.5356 37.0347 36.662 37.1615C39.4491 39.9072 39.3032 39.9247 39.5499 39.9247Z" fill="white"/>
<path d="M39.8395 37.1715C40.1264 37.1715 40.2732 36.8228 40.0692 36.6183L37.8371 34.3784C37.7106 34.251 37.5049 34.251 37.3785 34.3774C37.2517 34.5039 37.2514 34.7093 37.3778 34.8361C39.6957 37.1117 39.5927 37.1715 39.8395 37.1715Z" fill="white"/>
<path d="M90.1413 46.1601C89.9759 46.1511 89.8117 46.2925 89.8051 46.4716L89.7151 48.8283C89.7079 49.0083 89.8491 49.1583 90.0275 49.1648C93.5925 49.2928 92.5348 49.2619 92.7345 49.2619C92.9081 49.2619 93.0519 49.1243 93.0582 48.9492C93.0648 48.7702 92.9248 48.6199 92.7458 48.6134L90.3757 48.5283L90.4531 46.4965C90.46 46.3175 90.3203 46.1668 90.1413 46.1601Z" fill="white"/>
<path d="M18.785 26.222C18.786 26.222 18.7872 26.222 18.7882 26.222C20.4107 26.2189 21.1936 24.2536 20.0634 23.126C19.484 22.5474 18.7494 22.5908 18.7816 22.5972C18.2969 22.598 17.8414 22.7874 17.4998 23.1303C16.3677 24.2665 17.1736 26.222 18.785 26.222ZM17.9593 23.5881C18.6919 22.8524 19.9463 23.3742 19.9473 24.4088C19.9486 25.0497 19.428 25.5721 18.7869 25.5734C18.7863 25.5734 18.7857 25.5734 18.785 25.5734C17.7465 25.5734 17.2338 24.3157 17.9593 23.5881Z" fill="white"/>
</g>
<defs>
<filter id="filter0_d_133_1524" x="7" y="8" width="102.17" height="103.029" filterUnits="userSpaceOnUse" color-interpolation-filters="sRGB">
<feFlood flood-opacity="0" result="BackgroundImageFix"/>
<feColorMatrix in="SourceAlpha" type="matrix" values="0 0 0 0 0 0 0 0 0 0 0 0 0 0 0 0 0 0 127 0" result="hardAlpha"/>
<feOffset dx="4" dy="4"/>
<feGaussianBlur stdDeviation="5"/>
<feComposite in2="hardAlpha" operator="out"/>
<feColorMatrix type="matrix" values="0 0 0 0 0.462745 0 0 0 0 0.596078 0 0 0 0 0.701961 0 0 0 1 0"/>
<feBlend mode="normal" in2="BackgroundImageFix" result="effect1_dropShadow_133_1524"/>
<feBlend mode="normal" in="SourceGraphic" in2="effect1_dropShadow_133_1524" result="shape"/>
</filter>
</defs>
</svg>
