<svg width="111" height="109" viewBox="0 0 111 109" fill="none" xmlns="http://www.w3.org/2000/svg">
<g filter="url(#filter0_d_133_1522)">
<path d="M39.4428 23.8663C39.5656 23.7419 39.5737 23.5448 39.4617 23.4108C31.1289 13.4342 22.5746 13.9118 14.0893 23.1467C13.9674 23.2795 13.9705 23.4848 14.0971 23.6137C22.4218 32.094 30.9332 32.4989 39.4428 23.8663ZM38.742 23.6092C30.8092 31.5079 22.8874 31.4476 14.8088 23.3683C23.1173 14.4796 31.0368 14.5465 38.742 23.6092Z" fill="white"/>
<path d="M23.8095 26.6559C26.9297 29.5464 32.0398 27.3254 32.0398 23.0545C32.0398 20.3416 29.8457 18.1509 27.1363 18.1509C24.6133 18.1509 22.5243 20.0601 22.2563 22.5187C23.7183 22.0463 25.1625 23.1287 25.1625 24.6178C25.1625 25.5334 24.6031 26.3202 23.8095 26.6559Z" fill="white"/>
<path d="M77.8306 32.9293C77.7086 33.0621 77.7117 33.2674 77.8383 33.3963C83.6569 39.3232 89.6444 39.6304 95.6156 33.5722C95.7385 33.4478 95.7466 33.2507 95.6346 33.1167C90.1321 26.5285 84.1327 26.0707 77.8306 32.9293ZM94.9139 33.315C89.4818 38.6785 84.084 38.6374 78.5509 33.1507C84.4337 26.9056 89.8092 27.3592 94.9139 33.315Z" fill="white"/>
<path d="M83.8638 32.9329C83.8638 34.8217 85.4001 36.3478 87.2786 36.3478C89.3262 36.3478 90.8705 34.5562 90.6733 32.6378C89.6899 33.2842 88.3095 32.5843 88.3095 31.3492C88.3095 30.7828 88.6114 30.2911 89.0659 30.03C86.8375 28.6466 83.8638 30.2435 83.8638 32.9329Z" fill="white"/>
<path d="M96.1343 85.2728C93.8114 82.4917 91.441 80.4315 89.0425 79.0886C88.6346 74.1953 87.3664 69.6637 85.8684 67.7768C84.5133 66.0682 82.7488 64.7608 80.5961 63.8558C80.1839 61.8765 78.3401 60.2172 76.2943 60.164C76.6888 60.164 78.96 57.7057 78.3492 54.2973C78.0102 52.361 77.2233 50.4551 75.7143 49.1394C75.3582 48.8308 74.0188 47.8778 73.5337 48.2441C76.2975 46.1619 77.688 42.4079 76.9487 39.0269C76.2263 35.7103 73.4897 32.9194 70.1934 32.1157C69.5898 32.7634 69.0642 33.4858 68.6336 34.2691C68.5861 34.3539 68.4978 34.4013 68.4098 34.4013C68.228 34.4013 68.0874 34.2021 68.1858 34.0249C68.6945 33.1025 69.3255 32.2615 70.0578 31.5222C70.1054 30.9084 70.1054 30.2913 70.0646 29.6775C69.8002 25.9133 67.8841 22.2576 64.8524 19.9923C61.1797 17.2455 56.0184 16.6385 51.8099 18.4595C49.5107 19.4544 47.5489 21.1556 46.1552 23.235C44.0938 23.6433 42.1782 24.8323 41.0092 26.5813C39.1881 29.3044 39.3033 33.1771 41.2804 35.7883C39.2763 35.1271 36.9703 35.3238 35.2 36.4734C33.4332 37.6264 32.2972 39.7594 32.5107 41.8585C32.8478 45.1911 35.7693 45.9256 36.0683 46.2976C30.1548 51.3463 29.9308 58.3657 30.1514 66.1552C28.6228 67.3106 27.3398 68.7197 26.3184 70.3767C26.3118 70.3874 26.3056 70.3986 26.3003 70.41C24.618 73.9798 23.9418 79.6678 23.3937 85.1878C23.3754 85.3741 23.5113 85.5402 23.6976 85.5587C23.8884 85.5768 24.0505 85.438 24.0687 85.2547C24.6102 79.8026 25.2752 74.1899 26.9056 70.7163C28.5836 68.0015 30.9957 65.9767 34.0819 64.6896C31.4359 73.9118 28.6642 85.4405 27.9404 93.4322C27.9225 93.631 28.0791 93.802 28.2785 93.802C28.4521 93.802 28.6001 93.6695 28.616 93.4935C29.4803 83.9462 33.2923 69.2949 36.2941 59.6492C38.8731 51.3627 38.9381 51.6491 38.8791 51.394C38.9399 51.2043 38.776 50.8667 38.7886 46.0935C38.7916 44.9605 38.5601 40.4223 41.0224 37.8769C41.4505 37.4331 42.1956 37.3557 42.4618 37.9731C42.6992 38.5246 42.5328 38.7603 42.538 38.8937C41.9519 40.841 41.6696 42.5082 41.4899 44.8507C41.4756 45.0374 41.6152 45.2004 41.8018 45.2147C41.8108 45.2155 41.8196 45.2158 41.8283 45.2158C42.0037 45.2158 42.1524 45.0805 42.166 44.9026C42.3956 41.9165 42.7925 40.0552 43.8002 37.2421C44.0108 36.6541 44.4086 36.1934 44.8132 36.0685C45.5212 35.8498 46.3498 36.7338 46.2713 37.3583C45.5034 40.3169 45.2676 42.9909 44.4879 45.854C44.4387 46.0348 44.5451 46.2211 44.7258 46.2704C44.7557 46.2784 44.7859 46.2823 44.8154 46.2823C44.9644 46.2823 45.1012 46.1831 45.1423 46.0323C45.9325 43.1326 46.1575 40.5192 46.916 37.576C47.097 37.0589 47.3065 35.5102 48.2977 35.1538C48.991 34.9043 49.7705 35.4141 50.0628 36.0466C50.3543 36.6761 50.5208 37.6064 50.2897 38.3516C49.968 39.0305 48.7332 42.1435 48.1372 45.9674C48.1083 46.1525 48.2349 46.3259 48.42 46.3548C48.6075 46.3817 48.7779 46.2567 48.8072 46.0719C49.2364 43.3198 49.7543 41.652 50.6836 39.1653C50.9241 38.5225 51.3022 37.6979 51.9688 37.5592C52.5952 37.4262 53.2021 37.9859 53.4073 38.5764C53.6503 39.2759 53.5171 40.0827 53.3731 40.7841C52.8609 43.281 51.3129 50.204 50.3182 52.2246C50.2389 52.3846 50.2517 52.363 50.251 52.3652C46.5176 63.4291 44.3722 76.804 42.7968 88.3698C42.7689 88.5732 42.9271 88.7547 43.133 88.7547C43.3001 88.7547 43.4456 88.6314 43.4686 88.4613C44.5341 80.646 46.0191 71.1942 47.8246 63.4826C48.7176 63.6252 49.6131 63.8053 50.4955 64.0205C50.9264 67.7609 57.2782 69.9197 61.1318 66.0476C62.6379 73.0074 63.9509 81.4345 64.9087 88.4613C64.9317 88.6314 65.0772 88.7547 65.2443 88.7547C65.4503 88.7547 65.6084 88.573 65.5805 88.3698C63.9699 76.5512 61.8486 63.395 58.1266 52.3652C58.1259 52.363 58.1372 52.385 58.0591 52.2246C57.0641 50.2029 55.5164 43.2807 55.0042 40.7841C54.8605 40.0825 54.7274 39.2754 54.9703 38.5762C55.1752 37.9856 55.7839 37.4282 56.4088 37.5592C57.0754 37.698 57.4524 38.5208 57.694 39.1655C58.623 41.6511 59.1409 43.3185 59.5701 46.0719C59.599 46.2567 59.7679 46.3819 59.9573 46.3548C60.1424 46.3259 60.269 46.1525 60.2401 45.9674C59.8043 43.1726 59.2547 41.404 58.3291 38.9278C58.1606 38.4778 57.6192 37.5496 58.3148 36.0465C58.6072 35.414 59.3854 34.9043 60.0796 35.1538C61.0556 35.5047 61.2792 37.0397 61.461 37.5748C62.222 40.5275 62.4425 43.1241 63.235 46.0323C63.2761 46.1831 63.4129 46.2823 63.5619 46.2823C63.7855 46.2823 63.9481 46.07 63.8894 45.854C63.1131 43.0034 62.8759 40.3251 62.1063 37.36C62.0549 36.9626 62.3577 36.5133 62.6991 36.2651C63.5338 35.6601 64.2622 36.3618 64.5774 37.2421C65.5848 40.0552 65.9817 41.9165 66.2116 44.9026C66.2252 45.0805 66.3739 45.2158 66.5493 45.2158C66.7479 45.2158 66.9028 45.047 66.8877 44.8507C66.7077 42.5081 66.4254 40.8408 65.8393 38.8934C65.8446 38.7574 65.677 38.5294 65.9155 37.973C66.1806 37.3589 66.9268 37.4338 67.3552 37.8769C68.6992 39.2659 69.5947 42.2963 69.5878 44.2549C69.5779 46.8653 69.6364 48.7629 69.4811 51.271C69.4803 51.2839 69.491 51.5417 69.5013 51.5736C72.2546 60.1979 74.8268 67.9885 77.1558 78.3195C74.2312 79.5366 71.2727 81.7622 68.3126 84.984C68.1907 85.1168 68.1938 85.322 68.3204 85.451C77.4713 94.7724 86.799 95.1793 96.1154 85.7283C96.2382 85.6038 96.2463 85.4068 96.1343 85.2728ZM49.8762 55.772C50.0865 55.8479 50.2983 55.9197 50.5138 55.9827L50.4522 63.3129C49.6336 63.1186 48.8056 62.9537 47.9789 62.8207C48.5414 60.4685 49.1688 58.114 49.8762 55.772ZM58.284 67.0704C54.7482 68.3048 51.0998 66.0912 51.1486 63.5821C51.1494 63.5415 51.1402 63.5036 51.1278 63.4673C51.1278 63.4652 51.129 63.4635 51.129 63.4614L51.1905 56.1549C53.4524 56.6635 56.2847 56.4681 58.4523 55.7945C58.4703 55.7888 58.4837 55.7765 58.5002 55.7683C59.4511 58.9162 60.2542 62.0866 60.954 65.2436C60.2345 66.0714 59.2938 66.7187 58.284 67.0704ZM56.2404 48.9382C55.079 48.3019 53.2002 48.5745 52.7663 49.6961C52.6802 49.9191 52.8458 50.1576 53.0826 50.1576C53.2185 50.1576 53.347 50.0752 53.3989 49.9408C53.7129 49.1295 55.6997 49.0134 56.3164 49.8668C56.373 49.9451 56.4568 49.9905 56.5456 50.0026C56.6694 50.4171 57.2285 52.22 57.4826 52.5707C57.5836 52.9169 57.6649 53.064 58.3064 55.1411C58.0168 55.1806 56.5237 55.7913 53.7184 55.7623C52.4329 55.7534 51.2104 55.5368 50.0768 55.123C50.6071 53.406 50.7786 52.9416 50.8951 52.57C51.8012 51.2996 54.0697 41.1052 54.1888 40.0061C54.3279 41.2955 55.6877 46.9396 56.2404 48.9382ZM61.778 36.2467C61.4895 35.4627 61.0693 34.7888 60.3091 34.5156C59.3462 34.1703 58.1767 34.7291 57.6989 35.7617C57.4778 36.2399 57.3486 36.7632 57.3109 37.2715C56.1735 36.3219 54.4287 37.1093 54.1888 38.9675C53.9466 37.0924 52.1917 36.3324 51.0665 37.2715C51.0289 36.7631 50.8998 36.2398 50.6787 35.7617C50.2009 34.7288 49.029 34.1698 48.0682 34.5156C47.6808 34.6548 47.383 34.8997 47.1444 35.2085C47.3158 34.2192 47.4586 33.2228 47.5809 32.224C52.5839 32.1007 57.3871 30.5894 62.3395 29.9081C62.8686 29.8368 63.3638 30.1997 63.462 30.7287C63.6958 32.0071 64.0938 34.2113 64.6272 36.0021C63.7018 34.9704 62.4786 35.2664 61.778 36.2467ZM73.8331 63.0825C78.0138 63.3372 82.7346 64.9171 85.3372 68.1984C86.6933 69.9065 87.8967 74.1713 88.327 78.7093C84.821 76.9608 81.3634 76.7655 77.795 78.0723C76.7467 73.4336 75.4478 68.5195 73.8331 63.0825ZM69.0317 85.2056C78.1876 75.3951 86.9248 75.4693 95.4146 85.4712C86.6725 94.1906 77.9355 94.124 69.0317 85.2056Z" fill="white"/>
<path d="M82.6154 79.4697C78.8252 79.4697 76.2034 83.3033 77.6069 86.8489C77.8814 86.7065 78.1901 86.6251 78.519 86.6251C80.0841 86.6251 81.0214 88.3558 80.1807 89.6602C83.684 91.4602 88.0041 88.9391 88.0041 84.8583C88.0041 81.8808 85.5964 79.4697 82.6154 79.4697Z" fill="white"/>
<path d="M16.1132 93.1874C16.0622 93.2209 16.0128 93.2565 15.9646 93.2943C15.7113 93.4928 15.8528 93.9003 16.1742 93.9003C16.2987 93.9003 16.3735 93.8407 16.5085 93.7392C17.3278 93.2157 18.6665 93.3742 19.6083 93.7628C19.8586 93.8657 20.124 93.6478 20.0702 93.3818C19.8468 92.282 20.2742 91.0696 21.0428 90.6214C21.1936 90.5335 21.253 90.3458 21.1802 90.1872C21.1075 90.0284 20.9271 89.951 20.7619 90.0077C19.5321 90.4307 18.4009 90.3802 17.4006 89.8577C17.1059 89.7037 16.79 90.0232 16.9431 90.3155C17.4721 91.3259 16.9362 92.5549 16.1132 93.1874ZM17.7903 90.7528C18.4323 90.9578 19.1193 91.0155 19.831 90.9228C19.4867 91.4943 19.3038 92.2178 19.3361 92.9492C18.7182 92.7673 18.0269 92.6804 17.3819 92.7548C17.744 92.134 17.8951 91.4172 17.7903 90.7528Z" fill="white"/>
<path d="M26.3149 45.3555C26.447 45.2228 26.4467 45.0081 26.3142 44.8759C26.1811 44.7434 25.9665 44.744 25.8346 44.8768L22.4568 48.2666C22.243 48.4811 22.3976 48.8451 22.6969 48.8451C22.784 48.8451 22.7987 48.8306 26.3149 45.3555Z" fill="white"/>
<path d="M90.3583 16.7645C90.3848 16.9499 90.5571 17.0791 90.7415 17.053L93.0864 16.7225L93.3651 18.7318C93.3907 18.9158 93.5603 19.0467 93.7476 19.021C93.933 18.9952 94.0627 18.824 94.0369 18.6385L93.7116 16.2927C93.6854 16.1055 93.5117 15.9766 93.3284 16.0036L90.647 16.3815C90.4616 16.4076 90.3322 16.5791 90.3583 16.7645Z" fill="white"/>
</g>
<defs>
<filter id="filter0_d_133_1522" x="8" y="10" width="102.213" height="97.9004" filterUnits="userSpaceOnUse" color-interpolation-filters="sRGB">
<feFlood flood-opacity="0" result="BackgroundImageFix"/>
<feColorMatrix in="SourceAlpha" type="matrix" values="0 0 0 0 0 0 0 0 0 0 0 0 0 0 0 0 0 0 127 0" result="hardAlpha"/>
<feOffset dx="4" dy="4"/>
<feGaussianBlur stdDeviation="5"/>
<feComposite in2="hardAlpha" operator="out"/>
<feColorMatrix type="matrix" values="0 0 0 0 0.462745 0 0 0 0 0.596078 0 0 0 0 0.701961 0 0 0 1 0"/>
<feBlend mode="normal" in2="BackgroundImageFix" result="effect1_dropShadow_133_1522"/>
<feBlend mode="normal" in="SourceGraphic" in2="effect1_dropShadow_133_1522" result="shape"/>
</filter>
</defs>
</svg>
