<svg width="111" height="109" viewBox="0 0 111 109" fill="none" xmlns="http://www.w3.org/2000/svg">
<g filter="url(#filter0_d_133_1523)">
<path d="M54.7545 31.8908C54.7007 31.7232 54.5209 31.6321 54.3539 31.6849C54.0948 31.7683 53.2472 32.2159 52.9831 32.4442C52.7616 32.6357 52.8964 33.0037 53.1915 33.0037C53.2656 33.0037 53.3396 32.9782 53.3999 32.9263C53.5887 32.7627 54.3623 32.3515 54.5486 32.2914C54.7162 32.2376 54.8083 32.0582 54.7545 31.8908Z" fill="white"/>
<path d="M62.1314 31.462C61.8956 31.3121 60.8817 30.9544 60.5647 30.9671C60.3915 30.9758 60.263 31.1208 60.2677 31.294C60.2727 31.4666 60.4198 31.6035 60.5921 31.6035C60.5927 31.6032 60.5946 31.6032 60.5955 31.6035C60.7825 31.6035 61.6194 31.8912 61.7899 31.9994C61.9378 32.0934 62.1346 32.0506 62.2294 31.9015C62.3239 31.7531 62.2801 31.5562 62.1314 31.462Z" fill="white"/>
<path d="M60.783 32.8919C60.4184 33.0099 60.2154 33.4072 60.3334 33.7718C60.4537 34.1436 60.8511 34.3467 61.2157 34.2287C61.5873 34.1084 61.7904 33.711 61.6701 33.3393C61.5521 32.9746 61.1548 32.7715 60.783 32.8919Z" fill="white"/>
<path d="M54.4495 33.7859C54.0849 33.9039 53.8819 34.3013 53.9999 34.6659C54.1202 35.0376 54.5176 35.2407 54.8822 35.1227C55.2538 35.0024 55.4569 34.605 55.3366 34.2333C55.2186 33.8687 54.8213 33.6656 54.4495 33.7859Z" fill="white"/>
<path d="M57.6257 41.392C57.3223 41.5386 57.4271 41.9972 57.7647 41.9972C57.9623 41.9972 58.6833 41.4752 59.4555 41.5988C59.5858 41.619 59.8203 41.712 60.0517 41.9061C60.187 42.0196 60.3877 42.001 60.5006 41.8666C60.6135 41.7316 60.5957 41.5307 60.4611 41.4178C59.5828 40.6823 58.6567 40.8939 57.6257 41.392Z" fill="white"/>
<path d="M59.0915 36.5407C59.5261 37.2888 59.5836 37.6206 58.8219 38.271C58.5967 38.4637 58.7346 38.8318 59.0287 38.8318C59.1021 38.8318 59.1755 38.8066 59.2355 38.7556C59.5858 38.456 59.9941 38.0402 60.0417 37.4738C60.0939 36.8573 59.8606 36.5973 58.2863 33.8876C58.1979 33.7352 58.0026 33.6842 57.8508 33.7725C57.6987 33.8609 57.6471 34.0559 57.7357 34.208L59.0915 36.5407Z" fill="white"/>
<path d="M46.3258 34.5869C46.448 34.4603 46.4446 34.2587 46.3183 34.1365C46.1917 34.0146 45.9905 34.0177 45.8679 34.144C45.4216 34.6053 45.456 35.4174 45.9426 35.8394C46.0748 35.9539 46.2757 35.9409 46.392 35.8074C46.5071 35.6742 46.4928 35.4733 46.36 35.3579C46.1504 35.1763 46.1319 34.7873 46.3258 34.5869Z" fill="white"/>
<path d="M58.7864 22.4555C59.0741 22.4555 59.3081 22.2215 59.3081 21.9323C59.3081 21.6446 59.0741 21.4106 58.7864 21.4106C58.4972 21.4106 58.2632 21.6446 58.2632 21.9323C58.2632 22.2215 58.4972 22.4555 58.7864 22.4555Z" fill="white"/>
<path d="M49.7986 19.624C50.0863 19.624 50.3203 19.39 50.3203 19.1008C50.3203 18.8131 50.0863 18.5791 49.7986 18.5791C49.5094 18.5791 49.2754 18.8131 49.2754 19.1008C49.2754 19.39 49.5094 19.624 49.7986 19.624Z" fill="white"/>
<path d="M45.2058 26.988C45.4936 26.988 45.7275 26.7541 45.7275 26.4648C45.7275 26.1771 45.4936 25.9431 45.2058 25.9431C44.9166 25.9431 44.6826 26.1771 44.6826 26.4648C44.6826 26.7541 44.9166 26.988 45.2058 26.988Z" fill="white"/>
<path d="M38.3226 30.4048C38.0333 30.4048 37.7993 30.6387 37.7993 30.9264C37.7993 31.2157 38.0333 31.4496 38.3226 31.4496C38.6103 31.4496 38.8442 31.2157 38.8442 30.9264C38.8442 30.6387 38.6103 30.4048 38.3226 30.4048Z" fill="white"/>
<path d="M85.453 15C79.5406 15 74.7305 19.8092 74.7305 25.7203C74.7305 31.6327 79.5406 36.4428 85.453 36.4428C91.3641 36.4428 96.173 31.6327 96.173 25.7203C96.173 19.8092 91.3641 15 85.453 15ZM85.453 35.8058C79.8917 35.8058 75.3675 31.2816 75.3675 25.7203C75.3675 20.1603 79.8917 15.637 85.453 15.637C91.0126 15.637 95.536 20.1603 95.536 25.7203C95.536 31.2816 91.0126 35.8058 85.453 35.8058Z" fill="white"/>
<path d="M85.4548 20.0962C82.3494 20.0962 79.8301 22.6155 79.8301 25.7208C79.8301 28.8261 82.3494 31.3455 85.4548 31.3455C88.5601 31.3455 91.0762 28.8261 91.0762 25.7208C91.0762 22.6155 88.5601 20.0962 85.4548 20.0962ZM88.611 27.0362H84.9896C84.8145 27.0362 84.6711 26.8929 84.6711 26.7177V23.1187C84.6711 22.9435 84.8145 22.8002 84.9896 22.8002C85.1649 22.8002 85.3081 22.9435 85.3081 23.1187V26.3992H88.611C88.7862 26.3992 88.9294 26.5394 88.9294 26.7177C88.9294 26.8929 88.7862 27.0362 88.611 27.0362Z" fill="white"/>
<path d="M20.0297 61.9774C19.7329 67.1224 28.924 68.6708 30.5155 63.9067C30.5881 63.9953 30.6636 64.0765 30.7396 64.1568C30.6496 66.37 30.7862 61.0378 30.7625 89.6843C30.7625 89.8604 30.9049 90.0028 31.081 90.0028C31.257 90.0028 31.3995 89.8604 31.3995 89.6843C31.4058 60.6835 31.3117 66.7131 31.3596 64.7001C34.4857 66.9304 38.955 63.651 37.2929 59.7899C38.374 60.1236 39.2104 60.7584 40.2695 61.7382C40.4698 61.923 40.7943 61.7867 40.8038 61.5155C40.9036 58.6453 39.4499 56.4734 36.4811 55.056C36.7546 54.7356 36.9826 54.4004 37.168 54.0547C40.6077 52.5667 43.7596 52.6706 47.6413 53.0151C46.8446 55.8142 47.5381 58.4159 49.1684 60.2807C49.3054 60.4399 50.7609 61.6375 50.7609 61.6726C50.6462 62.1694 50.678 62.6854 50.7162 63.1918C50.7746 63.9696 50.8697 64.7644 51.0813 65.5218C49.0298 67.1244 46.5554 68.75 43.9645 69.0219C43.9042 69.0279 43.8053 69.0395 43.684 69.0569V63.7969C43.684 63.6209 43.5415 63.4784 43.3655 63.4784C43.1894 63.4784 43.047 63.6209 43.047 63.7969V69.177C41.2645 69.5915 40.1531 70.6054 41.1475 72.1139C42.677 74.4208 45.0417 74.7602 47.654 76.741C47.465 77.0156 47.347 77.4285 47.5246 78.0294C47.8032 78.9699 49.6327 80.2643 50.6456 81.9649C48.3671 81.7893 43.3935 82.2861 43.3387 82.2914C42.7953 82.3465 42.173 82.4404 41.6651 82.8619C40.9669 83.4405 40.7237 84.6188 41.4914 85.2729C39.6299 86.1657 39.6346 88.5601 41.6861 88.7882C40.9969 89.9203 41.6631 91.036 42.94 91.1154C43.0141 91.12 43.081 91.1219 43.1532 91.1259C42.753 91.7301 43.0305 92.5562 43.628 92.9125C44.8984 93.6706 47.1252 93.6688 48.486 93.1956C50.1414 92.62 53.1292 91.3639 54.032 91.4053C62.3611 91.4668 73.8722 92.2946 84.649 88.2144C89.5069 86.3709 91.8891 83.5575 89.6407 76.1564C88.9891 74.0124 88.2631 71.8912 87.4834 69.8518C87.4206 69.6872 87.2367 69.6057 87.0722 69.6682C86.908 69.7311 86.8259 69.9149 86.8887 70.0794C87.6628 72.1049 88.3838 74.2118 89.0311 76.3417C91.1963 83.4674 88.8669 85.9327 84.4231 87.6188C74.6393 91.3229 64.1965 91.0373 54.0973 90.7608C54.0816 90.7602 54.0673 90.7668 54.052 90.7686C52.9728 90.7237 50.0957 91.9614 48.277 92.594C47.0742 93.0118 45.0509 93.0198 43.9546 92.3657C43.7679 92.2544 43.6311 92.042 43.6062 91.8246C43.5496 91.3414 44.0079 91.2374 44.262 91.1612C45.4494 91.1612 46.5058 91.0555 48.2116 90.6305C48.3821 90.5879 48.486 90.415 48.4437 90.2442C48.4011 90.0738 48.2269 89.9708 48.0574 90.0122C46.1542 90.4865 44.92 90.6006 42.9798 90.4797C41.586 90.3934 42.0526 88.9127 42.5939 88.794C44.5684 88.711 46.3348 88.3047 48.2499 88.2517C48.4259 88.2468 48.5643 88.1003 48.5597 87.9245C48.5547 87.7516 48.4132 87.6147 48.2415 87.6147C47.7397 87.6147 42.5565 88.1552 42.5247 88.1596C41.9363 88.1828 41.2185 88.2141 40.903 87.7227C40.4217 86.9741 41.1324 85.5952 42.842 85.7274C44.6286 85.867 45.8332 85.8739 47.6493 85.5896C47.8228 85.5623 47.9417 85.3993 47.9146 85.2254C47.8875 85.0518 47.7267 84.934 47.5504 84.9601C45.7539 85.2416 44.6167 85.227 42.8918 85.0923C42.4494 85.0577 41.9127 84.9584 41.7241 84.5582C41.5381 84.1635 41.7537 83.6158 42.0719 83.3521C42.4417 83.0451 42.9527 82.9707 43.4028 82.9253C49.3945 82.3196 51.0901 82.6649 51.1234 82.6644C51.3901 82.7497 51.6237 82.4764 51.5086 82.2283C50.5676 80.1968 48.3701 78.6409 48.1354 77.8487C47.7683 76.6063 49.4056 76.5249 50.1459 76.8369C51.8117 77.5407 53.794 79.7656 54.4279 80.094C56.5951 81.2181 59.124 81.2078 61.716 81.298C66.1875 81.4574 78.795 79.7556 81.5461 77.6767C81.9671 77.3589 82.0173 76.1269 81.4239 76.0447C81.0894 75.9935 80.9188 76.4442 81.2089 76.6291C81.2475 76.7716 81.2183 77.096 81.1623 77.1685C80.3143 77.809 76.6601 78.8047 74.099 79.3672C77.1135 76.9825 80.1804 74.6075 82.9013 71.9092C86.2 68.6467 89.0446 65.3451 93.3152 63.531C94.0668 63.2121 95.1309 62.7681 95.498 62.0604C95.8433 61.4076 95.6022 60.6203 95.2113 60.1308C94.3205 59.0073 92.8204 58.3464 91.4969 57.7632C89.831 57.0292 88.5235 56.4789 87.0132 53.9076C85.8319 51.0112 84.3977 49.5455 82.3175 47.7287C80.8056 46.4095 78.9878 44.844 78.874 42.6832C78.8182 41.6105 79.4528 39.7974 78.228 38.855C77.6899 38.4401 77.132 38.3032 76.5712 38.4475C74.984 38.8553 73.8543 41.4437 73.1794 42.9902C72.0729 45.5297 70.1374 48.7103 67.7389 51.5061C65.2131 51.5466 61.9491 52.1015 60.1341 52.4235L60.09 47.181C62.243 46.4794 63.8211 44.8688 64.4105 42.6412C65.1097 40.003 64.4297 37.1854 63.8301 34.6996C63.7426 34.2901 63.2185 32.4553 62.8301 29.3667C63.4811 29.3783 64.1343 29.4045 64.7909 29.4556C65.6829 29.5235 66.3656 28.7113 66.1793 27.8619L65.5218 24.5867C65.3927 24.0173 64.8947 23.5933 64.3119 23.5557C64.1658 23.546 64.0213 23.5387 63.8762 23.5312C61.9292 21.1952 59.7472 18.866 56.9983 17.5413C54.2121 16.2013 50.9459 16.0732 47.5544 17.1721C41.7752 19.0408 35.9816 24.1214 36.0656 31.2599C36.0915 33.5547 36.1986 36.1182 36.2951 38.4578C36.2967 38.4956 36.3077 38.5301 36.3213 38.563C35.0449 39.1413 34.1541 40.4233 34.1541 41.9175C34.1541 43.95 35.8054 45.6013 37.838 45.6013C41.0596 45.6013 42.7346 41.7274 40.5125 39.3855C40.6421 39.2548 40.753 38.6023 41.1977 37.0823C41.9293 38.6472 42.9589 40.0885 44.0214 41.5149C44.5693 41.7857 45.2318 41.8907 45.9738 41.8207C46.098 41.8111 46.219 41.9067 46.2318 42.0373C46.2445 42.1679 46.149 42.2857 46.0153 42.2984C45.3324 42.3542 44.6549 42.2944 44.015 42.0341C43.4513 42.636 43.0054 44.1298 42.9927 44.7158C42.9291 47.2479 43.7126 49.2512 45.426 51.1017C45.9324 51.6495 47.1173 52.1559 48.0314 51.917C47.9871 51.9488 47.9107 52.147 47.8295 52.3941C43.6893 52.0185 40.7885 51.983 37.5203 53.2272C38.4606 50.2944 36.2508 47.2356 33.4146 46.5869C31.8197 46.2233 30.2757 46.6569 29.0182 47.8118C26.6298 42.5076 16.63 45.8975 18.1247 51.6154C11.5257 53.2037 13.3479 62.855 20.0297 61.9774ZM73.7632 43.2449C74.6567 41.1976 76.1052 38.0243 77.8395 39.3598C78.7314 40.0457 78.1807 41.6008 78.2377 42.7165C78.3005 43.9069 79.4618 46.1372 79.7617 48.5589C79.784 48.7394 79.9515 48.8588 80.1169 48.8357C80.2914 48.8142 80.4155 48.655 80.3937 48.4805C80.3049 47.7623 80.1445 47.0597 79.9504 46.3703C81.6491 48.2734 84.1626 49.6386 85.4803 52.3553C85.7718 52.9566 86.078 53.5612 86.4184 54.1458C87.4673 57.8917 87.1832 57.1123 87.2856 57.5614C87.4525 58.6371 87.7354 59.1085 88.4883 60.1389C88.5929 60.2819 88.7925 60.3112 88.9334 60.2082C89.0755 60.1043 89.1063 59.905 89.0028 59.7631C87.6458 57.9071 88.217 58.2376 87.5354 55.7753C88.7159 57.2055 89.7106 57.6725 91.24 58.3461C92.5572 58.9265 93.9195 59.5268 94.713 60.5273C94.9749 60.8555 95.1453 61.365 94.9338 61.7646C94.8489 61.9285 94.6953 62.0828 94.4517 62.2498C93.4896 62.9027 92.5279 62.9815 90.3691 64.368C90.0153 64.4995 90.0347 64.6347 87.6691 65.4295C86.5512 65.8049 85.3954 66.1928 84.365 66.8344C84.2157 66.9274 84.17 67.1237 84.263 67.273C84.356 67.4227 84.5529 67.4679 84.7015 67.375C85.7809 66.7031 86.9932 66.3317 88.2698 65.8982C86.1772 67.602 84.3202 69.6089 82.4531 71.4567C79.4389 74.4456 75.9897 77.0378 72.72 79.6471C72.1662 79.7476 72.3637 79.7156 68.8152 80.1761C69.2814 79.5386 69.7676 78.9216 70.2513 78.3074C70.3602 78.1693 70.3328 77.9737 70.1947 77.8649C70.0563 77.7557 69.8529 77.784 69.7437 77.9224C69.1426 78.6853 68.5232 79.4735 67.9554 80.2848C63.0849 80.8842 61.5219 80.6162 60.8243 80.6287C58.7418 80.5567 56.6305 80.4855 54.7937 79.5547C54.1173 79.2132 52.2029 77.0142 50.3935 76.2503C49.8386 76.0158 48.8329 75.9424 48.1441 76.3142C45.3808 74.1881 43.1244 73.9437 41.679 71.7624C40.7933 70.4193 42.4544 69.8126 44.0292 69.6555C46.539 69.3922 48.8674 67.9661 50.7189 66.5977C50.1647 67.4374 49.7485 68.1267 48.5021 70.1286C48.3696 70.3425 48.5258 70.6153 48.7724 70.6153C48.8788 70.6153 48.983 70.5621 49.0433 70.4651C50.7048 67.7937 51.5251 66.3885 52.5818 65.1376C59.8309 59.2323 64.1697 56.8058 68.605 51.4664C69.602 50.7033 71.7858 50.9604 73.3548 49.8627C73.4988 49.7619 73.5339 49.5632 73.4332 49.4192C73.3321 49.2749 73.134 49.24 72.9896 49.3408C71.9775 50.049 70.5395 50.1347 69.4491 50.4118C71.3036 48.0046 72.8595 45.3164 73.7632 43.2449ZM56.6447 61.1239C55.9066 60.7367 55.1588 60.3647 54.3312 60.2202C54.3153 60.217 54.2993 60.2138 54.2834 60.2138C53.5699 60.7458 52.7706 61.1279 51.9075 61.3381C51.7974 61.3748 51.6542 61.3057 51.6176 61.1629C51.5857 61.0356 51.6653 60.9082 51.7927 60.8763C52.484 60.7075 53.1304 60.4209 53.7197 60.0292C53.9076 59.6947 54.0509 59.3475 54.1337 58.9526C54.3133 58.0598 54.3575 57.0845 54.2899 56.1579C55.5616 56.5139 56.8578 56.3741 57.941 55.8768C58.9201 55.4275 60.0434 54.4332 60.1157 53.0738C61.7507 52.7828 64.7192 52.2687 67.166 52.161C64.0159 55.6638 60.7757 57.9741 56.6447 61.1239ZM63.7946 42.4782C63.074 45.2022 60.7039 46.9101 57.6091 46.9359C56.3691 46.9434 55.2291 46.7894 54.2127 46.4725C54.0438 46.4208 53.8662 46.5141 53.8136 46.6818C53.7614 46.8497 53.855 47.0283 54.0229 47.0808C55.6377 47.5841 57.787 47.7461 59.4545 47.36L59.5002 52.8023C59.5002 52.8033 59.5008 52.804 59.5008 52.8051C59.4928 52.8341 59.484 52.863 59.4847 52.8946C59.5071 53.9708 58.592 54.8772 57.6754 55.2977C56.598 55.7921 55.3399 55.8543 54.2176 55.4712C54.0094 54.0502 53.351 52.7018 51.9266 52.1877C51.8946 52.1764 51.814 52.1497 51.7072 52.114C51.7907 50.7054 52.0596 46.393 52.0509 46.283C52.0584 46.1782 52.0198 46.0719 51.9291 46.0047C50.3966 44.8628 48.3099 41.6273 47.8508 37.1963L47.8176 36.8762C47.7915 36.6321 47.5115 36.524 47.3249 36.6302C46.9917 36.8209 46.6235 37.0146 46.2509 37.0146C43.7308 37.0146 43.3882 34.4433 44.8139 33.2606C45.2071 33.7516 45.9166 33.9101 46.5031 33.5812C51.4443 30.7856 56.7118 29.3721 62.1867 29.3598C62.937 35.4259 64.7912 38.7172 63.7946 42.4782ZM64.8988 24.7199L65.556 27.9932C65.6543 28.4418 65.2926 28.8574 64.8419 28.8205C64.8416 28.8205 64.8409 28.8205 64.8406 28.8205C58.2993 28.3117 52.0221 29.7269 46.1909 33.0263C45.8369 33.2226 45.3548 33.1006 45.1912 32.6372L44.2656 30.4142C44.172 30.1396 44.2587 29.8419 44.4861 29.6566C50.0257 25.1719 57.1006 23.7111 64.2702 24.1914C64.5741 24.211 64.8335 24.4312 64.8988 24.7199ZM40.0174 38.9501C39.1549 38.317 38.047 38.0665 36.9282 38.3514C36.8296 35.9595 36.7277 33.4879 36.7025 31.2525C36.6226 24.4748 42.3736 19.5166 47.7507 17.778C50.0054 17.0477 53.3925 16.5139 56.7218 18.1151C59.1901 19.3045 61.2075 21.3663 63.013 23.4935C56.2633 23.275 49.3786 24.8761 44.0846 29.162C43.6544 29.5129 43.4849 30.0985 43.6703 30.6394L44.4297 32.4627C41.6144 32.1862 40.7421 36.4094 40.0174 38.9501ZM46.7031 42.3431C47.1962 41.727 47.5524 41.0145 47.7732 40.1942C48.5995 43.1678 50.244 45.443 51.4143 46.4022L51.0821 51.8982C50.4957 51.688 49.8331 51.4223 49.8786 51.2991C50.7685 48.8334 50.3866 46.0525 48.5281 43.91C48.388 43.7444 46.8083 42.2092 46.7031 42.3431ZM18.5878 52.1671C18.7791 52.1303 18.8908 51.9341 18.8301 51.7532C17.0623 46.4764 26.8295 43.2051 28.5968 48.4811C28.6749 48.714 28.971 48.7702 29.132 48.5968C30.286 47.3542 31.7568 46.8606 33.2725 47.2081C36.3859 47.9199 38.6103 51.8345 35.8366 54.8221C35.7838 54.879 35.7536 54.9534 35.7514 55.0311C35.7618 55.0968 35.6781 55.39 35.9355 55.5054C38.6138 56.7029 40.001 58.4335 40.1572 60.7818C38.2569 59.141 37.1197 59.1271 36.7806 59.0002C36.501 58.9097 36.2562 59.2162 36.4102 59.4689C38.8778 63.516 33.1297 67.0625 30.6427 62.9854C30.4855 62.7267 30.1007 62.8154 30.0561 63.1021C29.2927 68.0031 19.9391 66.5627 20.7053 61.6455C20.7388 61.4291 20.5489 61.2426 20.3308 61.2835C14.0224 62.4903 12.2791 53.3733 18.5878 52.1671Z" fill="white"/>
<path d="M20.2653 54.5191L22.2653 54.6753L20.0803 57.2652C19.9088 57.4692 20.0491 57.7815 20.3154 57.789C20.3487 57.7899 22.8749 57.8562 22.9094 57.8571C23.0814 57.8571 23.2229 57.7199 23.2276 57.547C23.2323 57.3713 23.0932 57.2248 22.9175 57.2201L20.9944 57.1694L23.1526 54.6112C23.3194 54.4133 23.1924 54.1086 22.934 54.0883L20.3151 53.884C20.1403 53.8706 19.9863 54.0016 19.9727 54.1767C19.959 54.3521 20.0902 54.5054 20.2653 54.5191Z" fill="white"/>
<path d="M24.918 51.244L27.5508 51.4465L24.7422 54.7291C24.5685 54.9319 24.7077 55.2473 24.9758 55.2548L28.1922 55.3384C28.195 55.3384 28.1978 55.3384 28.2006 55.3384C28.3729 55.3384 28.5144 55.2013 28.5191 55.0283C28.5234 54.8523 28.3847 54.7061 28.209 54.7014L25.661 54.6352L28.4426 51.3843C28.6118 51.1867 28.4846 50.8798 28.2251 50.8596L24.9671 50.6089C24.7879 50.5952 24.6383 50.7268 24.625 50.9019C24.6116 51.0773 24.7428 51.2306 24.918 51.244Z" fill="white"/>
<path d="M29.415 56.7352L31.1291 56.8671L29.2275 59.0897C29.0537 59.2925 29.1929 59.6079 29.4611 59.6154L31.7705 59.6754C31.7733 59.6754 31.7761 59.6754 31.7792 59.6754C31.9512 59.6754 32.0927 59.5382 32.0974 59.3653C32.1017 59.1893 31.963 59.0431 31.7873 59.0384L30.1463 58.9958L32.0208 56.8049C32.1901 56.6073 32.0629 56.3005 31.8034 56.2802L29.4642 56.1001C29.2847 56.083 29.1351 56.2177 29.122 56.3931C29.1087 56.5685 29.2399 56.7219 29.415 56.7352Z" fill="white"/>
<path d="M23.2763 24.1463C24.3745 23.7958 25.5207 23.9429 26.6833 24.5836C26.8257 24.6621 27.0063 24.6207 27.0995 24.485C27.1922 24.35 27.1676 24.1665 27.0422 24.0611C26.3437 23.4726 26.1244 22.1728 26.543 21.1022C26.6349 20.8663 26.4282 20.6208 26.1773 20.6752C25.1605 20.9016 23.7839 20.8248 23.0492 20.1523C23.0082 20.1085 22.9656 20.0656 22.9217 20.0236C22.7979 19.9054 22.6029 19.9063 22.4797 20.0257C22.3569 20.1449 22.3507 20.3402 22.4654 20.4674C22.5065 20.5131 22.5497 20.557 22.5945 20.5993C23.3149 21.3828 23.6399 22.7196 22.9267 23.6493C22.7378 23.8949 22.9778 24.2404 23.2763 24.1463ZM25.7907 21.3865C25.6177 22.1377 25.6793 22.923 25.9434 23.5696C25.2212 23.3374 24.4969 23.2712 23.7914 23.3749C24.0305 22.7103 24.0016 21.9364 23.7273 21.2313C24.377 21.4325 25.1139 21.4689 25.7907 21.3865Z" fill="white"/>
<path d="M22.6314 91.8107C22.6323 91.8107 22.6329 91.8107 22.6339 91.8107C22.8087 91.8107 22.9511 91.6698 22.9524 91.4947L22.9707 89.125C22.972 88.9493 22.8309 88.8053 22.6541 88.804L19.9444 88.7891H19.9425C19.7674 88.7891 19.625 88.9306 19.624 89.1057C19.6231 89.2817 19.7649 89.4251 19.9407 89.4261L22.3312 89.4391L22.3154 91.4897C22.3141 91.6658 22.4557 91.8095 22.6314 91.8107Z" fill="white"/>
<path d="M94.0503 41.7411L90.734 43.5426C90.4452 43.6996 90.5565 44.1411 90.8865 44.1411C91.0349 44.1411 90.8788 44.1728 94.3544 42.301C94.509 42.217 94.5663 42.0236 94.4823 41.869C94.398 41.7147 94.2045 41.6575 94.0503 41.7411Z" fill="white"/>
</g>
<defs>
<filter id="filter0_d_133_1523" x="8" y="9" width="102.173" height="98.522" filterUnits="userSpaceOnUse" color-interpolation-filters="sRGB">
<feFlood flood-opacity="0" result="BackgroundImageFix"/>
<feColorMatrix in="SourceAlpha" type="matrix" values="0 0 0 0 0 0 0 0 0 0 0 0 0 0 0 0 0 0 127 0" result="hardAlpha"/>
<feOffset dx="4" dy="4"/>
<feGaussianBlur stdDeviation="5"/>
<feComposite in2="hardAlpha" operator="out"/>
<feColorMatrix type="matrix" values="0 0 0 0 0.462745 0 0 0 0 0.596078 0 0 0 0 0.701961 0 0 0 1 0"/>
<feBlend mode="normal" in2="BackgroundImageFix" result="effect1_dropShadow_133_1523"/>
<feBlend mode="normal" in="SourceGraphic" in2="effect1_dropShadow_133_1523" result="shape"/>
</filter>
</defs>
</svg>
