<svg width="109" height="109" viewBox="0 0 109 109" fill="none" xmlns="http://www.w3.org/2000/svg">
<g filter="url(#filter0_d_133_1519)">
<path d="M21.4781 92.4166L20.0159 91.9755L20.5372 90.2611C20.5882 90.0929 20.4933 89.915 20.3251 89.8636C20.1565 89.8133 19.9789 89.9078 19.9276 90.0758L19.3136 92.0956C19.2628 92.2629 19.3568 92.4422 19.5263 92.4931C21.3637 93.0423 21.2994 93.0399 21.386 93.0399C21.7503 93.0399 21.828 92.522 21.4781 92.4166Z" fill="white"/>
<path d="M84.0258 64.9342L82.8587 64.6161C82.5553 61.8405 81.7372 59.7452 80.3516 58.2269C76.4856 54.0023 69.0235 54.3468 63.399 55.2723L63.0873 49.7621C64.259 49.3467 65.2869 48.6748 66.0668 47.7874C67.2758 46.4111 67.8164 44.6202 67.5887 42.7453C67.4537 41.5972 67.1148 40.4825 66.7921 39.377C68.0301 37.9393 70.1219 34.2936 71.199 30.1975C72.0461 26.987 71.9856 20.8624 67.6159 20.3209C66.1286 20.1363 64.5583 20.3272 63.2621 21.0821C62.3289 21.63 61.5581 22.4931 61.1791 23.4963C61.3892 24.3722 61.7301 25.2131 62.1982 25.9869C63.7206 28.5024 61.3262 28.9625 60.5707 27.7705C60.1949 27.1909 60.23 26.471 60.2905 25.8437C60.3605 25.1174 60.4561 24.3944 60.5771 23.6778C59.8191 22.7192 58.0133 22.302 57.0418 22.251C54.7292 22.1306 53.2643 23.5761 53.5607 26.5475C53.9397 26.9998 54.4874 27.3915 55.2073 27.7386C55.4993 27.8771 55.281 28.3068 55.0034 28.1686C54.2072 27.7864 53.6021 27.3469 53.1752 26.8342C52.6306 26.7832 51.7483 26.7259 51.6306 26.7132C47.9275 26.3726 46.4664 28.3173 46.4009 32.0352C46.368 33.8673 46.1921 35.9435 46.4488 37.7708C46.3131 39.0694 47.0475 40.2572 48.1856 40.7341C48.5419 41.2585 48.7506 41.9962 49.0997 42.4615C49.5809 43.1031 50.3489 43.7019 51.0725 44.141C51.8765 46.3839 53.2765 48.2921 54.278 49.1109L54.4024 54.9321C51.7365 54.4797 47.2798 54.004 44.8594 54.259L27.8429 49.6209C27.6744 49.5746 27.4983 49.6741 27.452 49.8446L26.1454 54.6372L19.3649 52.7888L15 68.8005L21.7804 70.6489L20.4737 75.4421C20.4272 75.6138 20.5297 75.7877 20.6973 75.8331L26.0028 77.2794C23.4154 86.0166 26.6771 88.1985 30.632 89.7004C37.7126 92.3809 45.3599 92.9292 52.6558 92.9292C55.4392 92.9292 60.3267 92.8018 60.3588 92.798C61.2714 92.7774 64.1905 93.9967 65.7393 94.536C67.4042 95.1155 70.9051 94.9998 71.1037 93.2676C71.1347 92.9981 71.0755 92.7425 70.9366 92.5262C71.0012 92.5226 71.0609 92.5209 71.127 92.5168C71.6638 92.4835 72.1388 92.2409 72.3979 91.8674C72.7357 91.3807 72.6578 90.7547 72.3597 90.2561C72.5665 90.232 72.785 90.1814 72.9919 90.09L76.8801 91.1495C76.9081 91.1573 76.9361 91.1607 76.9641 91.1607C77.1041 91.1607 77.2325 91.0677 77.2711 90.9259L82.3167 72.4157C82.3164 72.4589 82.321 91.0803 82.321 91.1194C82.321 91.2954 82.4635 91.4378 82.6395 91.4378C82.8155 91.4378 82.958 91.2954 82.958 91.1194C82.9573 90.2405 82.9453 72.0727 82.9795 69.9838L84.2494 65.3252C84.2959 65.1535 84.1934 64.9797 84.0258 64.9342ZM79.8816 58.6564C81.1308 60.0257 81.8853 61.9246 82.1944 64.4351L60.3942 58.4932C61.6074 58.0777 62.6972 57.167 63.3167 55.9489C63.3195 55.9434 63.3189 55.9375 63.3214 55.9319C68.7182 55.0016 76.1729 54.6046 79.8816 58.6564ZM50.8291 40.1612L50.7967 39.8505C50.7781 39.676 50.626 39.5519 50.4462 39.5678C50.2714 39.5864 50.1448 39.7432 50.1635 39.9183L50.1825 40.1017C48.7177 40.7957 47.0693 39.6984 47.0693 38.0764C47.0693 36.8456 48.0516 35.8444 49.2587 35.8444C50.4694 35.8444 51.058 36.7493 51.6082 37.8891C51.793 38.265 52.274 40.2046 52.7962 39.7332C53.3441 39.2364 53.2198 38.2873 53.2262 37.6248C53.2486 36.0195 53.8346 34.3347 55.2709 33.4621C56.5449 32.685 58.1629 32.6309 59.5356 33.1755C59.7395 33.2551 59.9496 33.3283 60.1695 33.3283C61.0135 33.3251 61.4499 32.1307 62.2301 31.8918C63.2911 31.5656 64.3016 32.3379 64.8219 33.2654C65.5722 38.5768 66.6799 40.4707 66.9561 42.8209C67.1617 44.5144 66.6761 46.1287 65.5881 47.3669C63.5306 49.7087 59.9404 50.0758 56.9993 49.1591C56.8314 49.1077 56.6532 49.2007 56.6003 49.3684C56.548 49.5363 56.6416 49.7149 56.8096 49.7674C58.4886 50.2903 60.6746 50.4307 62.4605 49.9562L62.7763 55.5381C62.7621 55.5742 62.7556 55.6116 62.7555 55.6517C62.7537 55.655 62.7505 55.6569 62.7487 55.6602C62.0652 57.0038 60.6858 58.0116 59.0359 58.123L56.1894 57.3471C55.4681 56.8147 55.0609 56.1089 55.0734 55.4024C55.0742 55.356 55.0641 55.3125 55.0469 55.2724L54.9129 49.0001C54.9127 48.9903 54.908 48.9822 54.9069 48.9727C54.9103 48.8718 54.8717 48.771 54.7848 48.7062C53.2982 47.5993 51.2737 44.4585 50.8291 40.1612ZM54.4469 55.5864C54.4779 56.0851 54.6571 56.5731 54.9706 57.0149L46.9501 54.8288C49.375 54.8733 52.461 55.2411 54.4469 55.5864ZM71.8747 91.5044C71.7279 91.7156 71.4265 91.8602 71.0875 91.8811C69.2067 91.998 68.008 91.8879 66.1608 91.4276C65.9884 91.385 65.8168 91.4889 65.7745 91.6596C65.7322 91.8304 65.836 92.0033 66.0065 92.0459C67.6647 92.4592 68.6828 92.5611 69.8553 92.5611C70.2273 92.6634 70.5151 92.8102 70.471 93.1949C70.3403 94.3322 67.3001 94.4046 65.9489 93.9345C64.2221 93.3338 61.3574 92.1103 60.2947 92.1542C50.4913 92.4226 40.3548 92.6997 30.8578 89.1048C27.0533 87.6601 24.1533 85.7499 26.6176 77.447L33.4474 79.3087C33.4582 79.3904 33.4999 79.4677 33.5709 79.5213C34.8946 80.5216 41.4073 81.9352 42.8692 82.1131C45.3706 82.4175 55.5606 84.1074 59.9784 81.8161C60.3827 81.6069 60.9507 80.9809 61.3006 80.6933C62.1974 79.9536 63.1061 79.089 64.1347 78.6545C64.7285 78.4042 66.4519 78.3486 66.074 79.6252C65.8516 80.3773 63.7054 81.9204 62.7998 83.876C62.6842 84.1251 62.9188 84.3965 63.1843 84.3124C63.2166 84.3129 64.6649 83.9598 70.6763 84.5659C71.1118 84.6098 71.6063 84.6816 71.9634 84.978C72.2488 85.2147 72.4806 85.752 72.2986 86.1385C72.1176 86.5229 71.5987 86.6178 71.1727 86.6511C69.4991 86.7823 68.3955 86.7963 66.6522 86.5229C66.4743 86.4977 66.3153 86.6147 66.288 86.7882C66.2609 86.9621 66.3797 87.1251 66.5533 87.1525C68.3051 87.4269 69.4736 87.423 71.2225 87.2862C71.5081 87.2641 72.1296 87.0781 72.8859 87.8461C73.3092 88.277 73.7372 89.6999 71.7124 89.6382C69.8196 89.585 67.9354 89.1538 65.9891 89.1001C65.9863 89.1001 65.9832 89.1001 65.98 89.1001C65.8084 89.1001 65.6668 89.237 65.6619 89.4099C65.6572 89.5857 65.7956 89.7322 65.9716 89.7371C67.8196 89.788 69.5241 90.1816 71.4623 90.2635C71.7939 90.338 72.164 91.0867 71.8747 91.5044ZM65.4059 83.5849C64.7535 83.5715 64.1471 83.5768 63.6636 83.6131C64.3662 82.4416 65.4812 81.4515 66.2282 80.5794L65.4059 83.5849ZM76.7402 90.4513L73.5995 89.5953C74.0699 88.9227 73.865 87.9341 73.3403 87.3997C73.1054 87.1609 72.8321 86.9708 72.5486 86.8337C72.6769 86.7222 72.7917 86.5861 72.8747 86.4097C73.1485 85.8285 72.9459 85.1342 72.5678 84.6875L77.3237 67.2545L70.3773 65.3627L66.7021 78.8388C66.3526 77.8052 64.7625 77.6976 63.8871 78.0679C62.9543 78.4616 62.1612 79.1334 61.3942 79.7832C59.8081 81.1257 60.4186 80.7478 59.5864 81.2983C56.096 83.0379 48.5225 82.2153 44.6385 81.6991L21.1719 75.3022L27.9829 50.3192L83.5511 65.4652L76.7402 90.4513Z" fill="white"/>
<path d="M58.0013 76.2215C58.0293 76.229 58.0576 76.2327 58.0856 76.2327C58.2255 76.2327 58.3537 76.1397 58.3925 75.9982L60.3073 69.0019C60.3536 68.8324 60.2538 68.6572 60.0839 68.6106C59.9163 68.5667 59.7393 68.6641 59.6927 68.8339L57.7779 75.8302C57.7316 75.9998 57.8314 76.1749 58.0013 76.2215Z" fill="white"/>
<path d="M45.8581 72.8866C45.998 72.8866 46.1262 72.7936 46.1651 72.6521L48.0798 65.6555C48.1261 65.486 48.0263 65.3108 47.8565 65.2642C47.6894 65.2188 47.5118 65.3177 47.4652 65.4875L45.5505 72.4842C45.4953 72.6861 45.6472 72.8866 45.8581 72.8866Z" fill="white"/>
<path d="M33.5457 69.5291C33.7194 69.5755 33.8911 69.4727 33.937 69.3058L35.8517 62.3092C35.898 62.1397 35.7982 61.9646 35.6284 61.9179C35.4601 61.8728 35.2834 61.9714 35.2371 62.1412L33.3224 69.1379C33.276 69.3074 33.3759 69.4825 33.5457 69.5291Z" fill="white"/>
<path d="M63.1189 34.82C63.596 34.7391 64.1089 34.8271 64.5285 35.0632C64.5779 35.0909 64.6314 35.1039 64.6843 35.1039C65.0122 35.1039 65.1251 34.6674 64.8408 34.5077C64.2874 34.197 63.6371 34.0844 63.0113 34.1923C62.8377 34.2222 62.7214 34.3867 62.7513 34.5599C62.7811 34.7332 62.9472 34.8501 63.1189 34.82Z" fill="white"/>
<path d="M62.5345 39.5886C62.9431 40.2925 63.0072 40.6077 62.2788 41.2315C62.1451 41.3456 62.1292 41.5469 62.2437 41.6803C62.3581 41.8145 62.5597 41.8296 62.6925 41.7154C63.0303 41.4268 63.4237 41.0253 63.4698 40.4775C63.5207 39.8761 63.2702 39.5874 61.7852 37.0316C61.6969 36.8789 61.5006 36.8276 61.3501 36.9162C61.198 37.0046 61.146 37.1993 61.2347 37.3514L62.5345 39.5886Z" fill="white"/>
<path d="M56.1823 36.2293C56.5568 35.7329 57.2013 35.4508 57.8174 35.5168C57.9956 35.532 58.149 35.4076 58.167 35.2325C58.1847 35.0574 58.0575 34.9009 57.8827 34.8829C57.0451 34.7992 56.1792 35.175 55.6735 35.8455C55.5677 35.9861 55.5957 36.1858 55.736 36.2919C55.8758 36.3969 56.0752 36.3705 56.1823 36.2293Z" fill="white"/>
<path d="M49.346 37.6355C49.4682 37.5089 49.4648 37.3074 49.3385 37.1851C48.8484 36.7107 48.1289 38.1298 48.9609 38.8523C49.0212 38.9045 49.0956 38.93 49.1696 38.93C49.4635 38.93 49.6002 38.5635 49.3783 38.3708C49.1771 38.1965 49.1633 37.8246 49.346 37.6355Z" fill="white"/>
<path d="M60.1192 44.8845C60.9826 44.2177 61.6345 44.2267 62.2348 44.9116C62.3503 45.0436 62.5517 45.0574 62.6843 44.9411C62.8164 44.8254 62.8298 44.6242 62.7138 44.4917C62.1381 43.8345 61.1534 43.2802 59.7298 44.3807C59.5904 44.488 59.5649 44.6883 59.6725 44.8273C59.7795 44.966 59.9798 44.9925 60.1192 44.8845Z" fill="white"/>
<path d="M60.7649 25.8882C60.7108 26.4647 60.6821 27.0636 60.972 27.5125C61.3971 28.1781 62.9867 28.2109 61.7905 26.2354C61.4401 25.6621 61.1599 25.0475 60.9465 24.4136C60.9237 24.5947 60.8371 25.1239 60.7649 25.8882Z" fill="white"/>
<path d="M57.0155 37.1684C56.992 37.539 57.2866 37.8499 57.6749 37.8644C58.0558 37.8785 58.3883 37.5908 58.4118 37.2202C58.4348 36.8568 58.1402 36.5459 57.7593 36.5318C57.371 36.5174 57.0385 36.805 57.0155 37.1684Z" fill="white"/>
<path d="M64.0879 35.7215C63.6996 35.7071 63.3671 35.9947 63.3441 36.3581C63.3206 36.7287 63.6152 37.0396 64.0035 37.0541C64.3844 37.0682 64.7169 36.7805 64.7404 36.4099C64.7634 36.0465 64.4688 35.7356 64.0879 35.7215Z" fill="white"/>
<path d="M46.2417 19.8824L48.779 19.0804L43.667 13L45.5314 17.7848L43.1367 18.7642L49.2315 25.2525L46.2417 19.8824Z" fill="white"/>
<path d="M39.196 25.3777L41.1108 23.5297L33.8262 20.3616L37.626 23.8157L35.9179 25.7589L44.2641 28.8549L39.196 25.3777Z" fill="white"/>
<path d="M41.7114 34.7761L35.6019 34.1039L36.4174 31.5708L28.5 32.2175L33.4805 33.4682L32.8923 35.9878L41.7114 34.7761Z" fill="white"/>
<path d="M86.3723 16.6894C86.2501 16.4866 85.9523 16.4815 85.8271 16.6894L77.6774 30.2118C77.5497 30.4237 77.7027 30.6948 77.9502 30.6948C79.9918 30.6936 92.2282 30.6863 94.2631 30.6851C94.5117 30.6851 94.6629 30.4132 94.5353 30.2021L86.3723 16.6894ZM78.5141 30.0575L86.1001 17.4704L93.6986 30.0485L78.5141 30.0575Z" fill="white"/>
<path d="M85.3644 26.3384L86.843 26.3376L87.2957 21.2825L84.9058 21.2839L85.3644 26.3384Z" fill="white"/>
<path d="M86.1031 26.7817C85.6015 26.782 85.1965 27.209 85.1968 27.7347C85.1971 28.2585 85.6027 28.685 86.1043 28.6847C86.606 28.6844 87.0129 28.2575 87.0126 27.7336C87.0123 27.2079 86.6049 26.7815 86.1031 26.7817Z" fill="white"/>
<path d="M24.381 23.5706C24.4889 23.4826 24.5272 23.3348 24.4755 23.2055C24.4242 23.0764 24.2936 22.9974 24.1555 23.0061C23.093 23.0873 22.0977 22.7115 21.1901 21.8882C21.0688 21.7781 20.8841 21.7781 20.7621 21.8882C20.6408 21.9983 20.6228 22.1825 20.7202 22.314C21.2197 22.9874 21.1394 24.1961 20.5376 25.0654C20.4707 25.1622 20.4623 25.2881 20.5164 25.3926C20.5702 25.4971 20.6775 25.5637 20.7951 25.5653C21.7543 25.5783 22.973 25.9382 23.488 26.6959C23.5157 26.7444 23.5449 26.7923 23.5757 26.8395C23.6367 26.9335 23.7387 26.9848 23.8432 26.9848C23.8989 26.9848 23.9552 26.9702 24.0062 26.9397C24.1533 26.852 24.2046 26.6635 24.1222 26.5133C24.0945 26.4629 24.065 26.4137 24.0336 26.3658C23.5555 25.5124 23.5477 24.2493 24.381 23.5706ZM23.0977 25.5214C22.5686 25.2185 21.9382 25.0359 21.3316 24.9637C21.6315 24.342 21.7419 23.6468 21.6554 23.0235C22.2377 23.3681 22.8541 23.5743 23.4874 23.6347C23.1493 24.1712 23.014 24.8489 23.0977 25.5214Z" fill="white"/>
<path d="M90.1152 48.0179L87.4493 50.1463C87.3119 50.2561 87.2895 50.4564 87.3993 50.5939C87.5087 50.731 87.709 50.7541 87.8468 50.644L90.5127 48.5156C90.6502 48.4058 90.6726 48.2055 90.5628 48.068C90.4533 47.9309 90.2527 47.9078 90.1152 48.0179Z" fill="white"/>
<path d="M90.1064 46.3496C90.2439 46.2398 90.2663 46.0395 90.1565 45.902C90.0467 45.7648 89.8467 45.7418 89.7089 45.8519L87.4708 47.6388C87.2366 47.8258 87.369 48.2061 87.6698 48.2061C87.8781 48.2061 87.7975 48.1606 90.1064 46.3496Z" fill="white"/>
</g>
<defs>
<filter id="filter0_d_133_1519" x="9" y="7" width="99.5815" height="101.85" filterUnits="userSpaceOnUse" color-interpolation-filters="sRGB">
<feFlood flood-opacity="0" result="BackgroundImageFix"/>
<feColorMatrix in="SourceAlpha" type="matrix" values="0 0 0 0 0 0 0 0 0 0 0 0 0 0 0 0 0 0 127 0" result="hardAlpha"/>
<feOffset dx="4" dy="4"/>
<feGaussianBlur stdDeviation="5"/>
<feComposite in2="hardAlpha" operator="out"/>
<feColorMatrix type="matrix" values="0 0 0 0 0.462745 0 0 0 0 0.596078 0 0 0 0 0.701961 0 0 0 1 0"/>
<feBlend mode="normal" in2="BackgroundImageFix" result="effect1_dropShadow_133_1519"/>
<feBlend mode="normal" in="SourceGraphic" in2="effect1_dropShadow_133_1519" result="shape"/>
</filter>
</defs>
</svg>
