<svg width="110" height="109" viewBox="0 0 110 109" fill="none" xmlns="http://www.w3.org/2000/svg">
<g filter="url(#filter0_d_133_1521)">
<path d="M80.392 37.1141C80.5148 37.0697 80.6815 37.1381 80.7382 37.2544C80.8152 37.4127 81.0065 37.478 81.164 37.4009C81.6899 37.1452 80.9538 36.2351 80.1749 36.5151C80.0094 36.5751 79.9242 36.758 79.9839 36.9232C80.0439 37.0886 80.2281 37.1729 80.392 37.1141Z" fill="white"/>
<path d="M93.6156 61.2106C93.366 57.8983 92.8029 54.8007 87.7326 53.048C88.2257 52.8393 89.3351 51.6387 89.7605 50.044C90.6176 46.8376 89.2656 44.4369 86.6998 43.4129C86.4387 43.3078 86.2284 43.2473 86.0819 43.1804C85.4927 43.4575 84.8526 43.6295 84.1901 43.6868H84.171C84.0469 43.6868 83.9417 43.5944 83.9321 43.4702C83.9193 43.3396 84.0181 43.2218 84.1487 43.2122C84.7475 43.1613 85.3334 43.002 85.8686 42.7536C86.9203 37.4814 85.463 37.5302 85.4036 37.6003C88.7032 33.7115 86.6043 26.2905 81.1008 25.988C79.8607 25.9173 79.415 26.1986 78.7851 26.5135C79.1993 27.4435 79.2375 28.3289 78.8713 29.0487C78.4387 29.8935 77.2039 29.7966 77.1099 28.5519C77.0487 27.7723 77.5617 27.6272 77.9412 26.488C77.0215 25.6496 76.0929 22.7755 68.9245 24.3796C66.7524 24.8637 64.8415 26.1854 64.7013 28.5805C64.7044 28.5168 63.577 29.157 63.4878 29.243C62.5113 30.2195 62.3743 31.8546 63.835 32.842C64.4466 33.2592 64.9371 33.4312 65.0421 34.2466C65.2596 35.9638 62.4306 40.2122 61.6598 41.2312C60.6472 42.5664 58.5395 44.6276 59.1371 46.9004C59.443 48.0629 60.545 48.9674 61.7425 49.0502C62.3126 48.891 62.8572 48.6298 63.3477 48.2795C63.4529 48.2031 63.6025 48.2285 63.679 48.3368C63.7553 48.4419 63.7331 48.5916 63.6249 48.668C62.9942 49.1203 62.2807 49.4324 61.5355 49.5885C61.0736 50.7079 60.8536 51.9374 60.9618 53.1285C58.7751 53.9122 57.0591 55.1801 56.0554 56.7812C54.6935 58.9516 54.5507 59.1609 53.3837 61.3375C53.3003 61.4927 53.3588 61.6856 53.5137 61.7686C53.668 61.8518 53.8618 61.7937 53.9448 61.6386C55.035 59.606 55.2293 59.2962 56.3086 57.5768C56.5104 57.3519 57.3981 55.1232 61.0539 53.7707C61.5768 56.4277 63.8315 58.0785 65.934 57.9872C65.8319 59.4269 65.7937 61.0512 66.7907 62.0959C68.1239 63.4959 71.1981 63.7327 73.8007 59.1721C74.3988 58.1297 75.4233 55.9552 74.7295 54.9754C76.021 54.8251 77.2378 54.0888 77.9436 52.9913C77.9665 52.9557 77.9807 52.917 77.988 52.8778C80.3824 52.8491 84.2525 52.7778 86.5601 53.3621C93.0016 54.9928 92.7602 59.1413 93.0626 62.2529C93.8002 69.8582 94.2715 74.4292 94.5353 81.9181C94.5412 82.0902 94.6824 82.2254 94.8532 82.2254C95.0329 82.2254 95.1781 82.0766 95.1717 81.8958C94.8188 71.8658 93.8994 64.9539 93.6156 61.2106ZM74.1192 54.3661C72.9555 54.3242 71.8414 53.7003 71.175 52.7507C70.9596 51.365 71.1281 51.492 71.1338 49.2347C73.0064 49.5359 74.7946 48.8658 75.228 48.3118C75.3363 48.1731 75.3117 47.9731 75.1733 47.8646C75.0333 47.756 74.834 47.7812 74.726 47.9193C74.4962 48.2139 73.0573 48.8291 71.4338 48.6356C69.8646 48.4487 68.3913 47.5084 67.493 46.1209C66.3615 44.3728 65.9285 42.0304 65.9085 39.6658C65.9073 38.1792 66.0158 36.7384 66.3427 35.0523C66.8821 35.0577 67.4132 35.0273 67.9501 35.0969C68.7909 35.2075 70.1573 34.6826 70.9947 33.6319C71.2336 33.3325 71.7815 32.5776 71.6924 32.1636C71.9313 33.272 72.7465 34.2434 73.7976 34.6702C74.8518 35.0938 76.1098 34.9664 77.0525 34.3357C76.9729 35.6893 77.5144 37.0716 78.4922 38.0144C78.2997 37.8272 78.8039 36.4551 79.0431 36.1002C79.5364 35.3707 80.2403 35.1056 81.1286 35.5916C82.0031 36.2889 82.0104 36.7744 82.1028 37.3124C82.0638 38.5621 80.8659 39.3822 79.7318 39.0161C79.5638 38.9617 79.3801 39.0677 79.3308 39.221L79.3307 39.2225C79.3002 39.3181 79.34 39.4868 79.342 39.5918C79.3806 41.4804 79.1424 44.958 77.1141 47.0285C76.9913 47.1545 76.9931 47.356 77.1188 47.4792C77.1373 47.4972 77.1597 47.507 77.1808 47.5196C77.3256 52.8876 77.2768 52.609 77.3406 52.7373C76.6269 53.7719 75.3797 54.4053 74.1192 54.3661Z" fill="white"/>
<path d="M85.4617 86.4173C85.6374 86.4117 85.7755 86.2646 85.7696 86.0889L85.0545 64.0038C85.0492 63.8315 84.9077 63.6956 84.7366 63.6956C84.7329 63.6956 84.7295 63.6956 84.7261 63.6959C84.5503 63.7015 84.4122 63.8486 84.4182 64.0243L85.1332 86.1094C85.1391 86.3009 85.3116 86.431 85.4617 86.4173Z" fill="white"/>
<path d="M62.6888 63.3586C62.514 63.3325 62.3523 63.451 62.3255 63.6248L59.9496 79.0706C59.9228 79.2445 60.0419 79.4072 60.2158 79.4339C60.3923 79.4606 60.5526 79.3395 60.5791 79.1677L62.955 63.7219C62.9818 63.548 62.8627 63.3853 62.6888 63.3586Z" fill="white"/>
<path d="M77.5846 28.5167C77.6379 29.1886 78.1925 29.3249 78.4444 28.832C78.7948 28.1409 78.6419 27.3765 78.3617 26.7395C77.9692 27.8476 77.5452 27.9599 77.5846 28.5167Z" fill="white"/>
<path d="M69.7653 41.0857C69.7482 40.9003 69.858 40.6913 69.9921 40.4571L71.0151 38.6689C71.1025 38.5162 71.0496 38.3215 70.8969 38.2341C70.7435 38.1464 70.5491 38.1999 70.462 38.3523L69.4391 40.1407C69.2935 40.3949 69.0944 40.7429 69.1308 41.1438C69.1731 41.6038 69.4997 41.9332 69.7793 42.1687C69.839 42.2191 69.9121 42.2436 69.9843 42.2436C70.0751 42.2436 70.1653 42.2051 70.2281 42.1304C70.3417 41.9957 70.3243 41.7948 70.1899 41.6816C69.9128 41.448 69.7818 41.2642 69.7653 41.0857Z" fill="white"/>
<path d="M69.5001 38.2461C69.5486 37.9659 69.3656 37.7004 69.0914 37.653C68.8172 37.6057 68.5557 37.7945 68.5073 38.0747C68.4588 38.3549 68.6418 38.6205 68.916 38.6678C69.1902 38.7152 69.4516 38.5264 69.5001 38.2461Z" fill="white"/>
<path d="M73.6691 36.2268C73.66 36.2268 73.6507 36.2271 73.6414 36.2271C73.4653 36.2302 73.3254 36.3752 73.3282 36.5509C73.3313 36.7269 73.4837 36.8697 73.6519 36.8641C73.9652 36.8622 74.2756 36.9951 74.483 37.2293C74.5462 37.3002 74.6336 37.3363 74.7213 37.3363C74.7965 37.3363 74.8721 37.3098 74.9328 37.256C75.0643 37.1391 75.0762 36.9378 74.9595 36.8063C74.6364 36.4424 74.1558 36.2268 73.6691 36.2268Z" fill="white"/>
<path d="M68.7953 36.6577C68.8619 36.6577 68.9288 36.6368 68.9863 36.5939C69.1048 36.505 69.2728 36.4776 69.4134 36.5236C69.5813 36.5802 69.7605 36.4879 69.8155 36.3211C69.8709 36.1541 69.7801 35.974 69.613 35.919C69.2756 35.8073 68.8883 35.8708 68.6037 36.0845C68.4632 36.1899 68.4348 36.3896 68.5403 36.5305C68.6028 36.6138 68.6986 36.6577 68.7953 36.6577Z" fill="white"/>
<path d="M73.5854 38.0417C73.3113 37.9942 73.0523 38.1692 73.0068 38.4325C72.9614 38.6957 73.1468 38.9476 73.421 38.9951C73.695 39.0426 73.9541 38.8676 73.9995 38.6043C74.0449 38.341 73.8595 38.0892 73.5854 38.0417Z" fill="white"/>
<path d="M26.6423 44.1075C26.2106 43.9946 25.7045 44.1554 25.4896 44.4752C25.3916 44.6214 25.4305 44.8192 25.5764 44.9172C25.7204 45.0143 25.919 44.9779 26.0184 44.8304C26.0694 44.7539 26.2927 44.6739 26.4799 44.7234C26.6501 44.7685 26.8242 44.6668 26.869 44.4966C26.9138 44.3265 26.8124 44.1523 26.6423 44.1075Z" fill="white"/>
<path d="M16.4757 57.9819C17.5411 67.899 20.9015 73.3152 21.0749 73.7396C28.4025 87.168 40.685 85.8253 47.0129 70.486C47.0479 70.4405 47.0696 70.3875 47.0762 70.3292C49.4049 64.6103 50.4039 58.1167 50.4039 52.0091C50.4039 34.9301 42.7242 21.0354 33.2847 21.0354C28.7057 21.0354 24.4076 24.2409 21.1816 30.0612C16.757 38.0444 15.4877 48.7349 16.4726 57.9517C16.4723 57.9618 16.4751 57.9717 16.4757 57.9819ZM30.0775 42.4543C31.1063 42.9543 32.479 43.0562 33.6256 42.7186C34.7722 42.381 35.6576 41.6134 35.9156 40.7376C35.82 41.0656 36.4188 41.6612 36.6769 41.8969C37.5815 42.7215 39.0629 43.1441 39.9954 43.0562C40.5859 43.0014 41.1708 43.0259 41.7678 43.0214C42.2783 44.9144 42.2216 45.8246 42.2179 47.333C42.0998 48.9454 41.6131 50.5022 40.5458 51.699C39.5645 52.7995 37.9449 53.5456 36.2134 53.6955C34.4113 53.8514 32.8132 53.3556 32.5576 53.1183C32.4294 52.9992 32.2272 53.006 32.1075 53.1348C31.9877 53.2635 31.9952 53.4651 32.124 53.5848C32.5162 53.9494 33.9099 54.3627 35.5033 54.3627C36.158 54.3627 36.4686 54.3032 36.5573 54.2923C36.6193 56.0431 36.6788 56.0838 36.4859 56.9972C34.8001 58.6586 31.3861 58.6162 29.7591 56.9762C29.7933 56.8495 29.7531 57.2949 29.9091 52.951C30.1246 52.8415 30.1403 52.5502 29.9545 52.4122C27.8821 50.8764 27.507 48.4121 27.5577 46.6149C27.5583 46.5841 27.5652 46.5524 27.5705 46.521L27.582 46.4497L27.5821 46.4486L27.5838 46.4383C27.5866 46.4177 27.5811 46.3987 27.58 46.3787C27.579 46.36 27.5827 46.3418 27.5783 46.3229C27.5779 46.3211 27.5765 46.3199 27.5761 46.3182C27.5686 46.2885 27.5537 46.2625 27.5384 46.2366C27.5326 46.227 27.53 46.2152 27.5234 46.2063C27.5024 46.178 27.4751 46.1552 27.4458 46.1351C27.4415 46.1322 27.4387 46.1276 27.4343 46.1249C27.4176 46.1147 27.3248 46.0834 27.3168 46.0821C27.3147 46.0817 27.3129 46.0802 27.3108 46.0799C27.2894 46.0771 27.2697 46.0827 27.2491 46.084C27.2311 46.085 27.2134 46.0813 27.1954 46.0855C25.8722 46.3982 24.6713 45.7115 24.5588 44.8912C24.719 44.1865 24.741 44.0892 25.3474 43.6403C25.927 43.328 26.7088 43.2359 27.4321 43.472C27.9023 43.7533 28.1868 44.1215 28.3577 44.5882C28.3991 44.6965 28.6316 45.2793 28.5106 45.3621C29.5776 44.6169 30.1635 43.5276 30.0775 42.4543ZM16.9428 56.0668C17.3549 56.5635 17.8772 56.9713 18.2161 57.1536C17.8258 57.2585 17.4426 57.3789 17.0678 57.5168C17.02 57.0375 16.9783 56.5543 16.9428 56.0668ZM21.6904 73.5799L22.0288 65.9353C22.0366 65.7595 21.9007 65.6105 21.725 65.6028C21.5508 65.5903 21.4005 65.7309 21.3925 65.9066L21.1027 72.4536C19.1495 68.525 17.747 63.6366 17.1351 58.1722C21.2997 56.5723 27.3053 57.2793 29.1043 57.1812C29.1176 57.217 29.1358 57.2515 29.1626 57.2817C29.9161 58.1324 31.1968 58.7079 32.5573 58.8378C32.3849 59.0517 32.3362 59.3186 32.3675 59.5957C32.4695 60.4907 33.0141 61.3252 33.6193 62.0959C34.4186 63.1087 35.3805 64.112 36.7882 64.6821C38.1961 65.249 40.1484 65.2522 41.2568 64.405C42.3428 63.5801 42.3014 62.2966 42.1899 61.1564C44.3942 61.2247 46.8809 59.9908 47.4906 57.8806C48.2162 58.0757 48.8718 58.3029 49.3834 58.5177C48.9192 62.4076 48.0482 66.0197 46.8563 69.1955L46.0911 65.5875C46.0548 65.4155 45.8862 65.3054 45.7136 65.3418C45.5416 65.3782 45.4314 65.5474 45.4678 65.7194L46.4333 70.2726C40.3667 85.0197 28.7457 86.3846 21.6904 73.5799ZM33.2847 21.6724C42.3731 21.6724 49.7669 35.2813 49.7669 52.0091C49.7669 54.0109 49.6599 55.9673 49.4577 57.8617C48.8477 57.6177 48.1749 57.4002 47.6124 57.2544C47.711 56.3509 47.4836 55.4215 47.012 54.5699C46.2061 54.4488 45.4322 54.2036 44.7475 53.8469C44.6296 53.7864 44.585 53.643 44.6455 53.5252C44.706 53.4073 44.8494 53.3628 44.9672 53.4233C45.566 53.7354 46.2412 53.9584 46.9482 54.0762C48.1808 53.952 49.2733 53.264 49.5918 52.3913C49.8912 51.5696 49.5344 50.6842 48.9484 49.9485C47.8156 48.534 47.2656 48.7347 44.4798 45.1742C43.8492 44.3716 42.9894 43.3588 43.1614 42.3874C43.276 41.7377 43.8111 41.6039 44.4767 41.2758C46.0743 40.4887 45.9022 39.178 44.8525 38.4285C44.757 38.3584 43.5276 37.852 43.534 37.9061C43.3811 36.0111 41.3013 34.9664 38.9317 34.5842C31.103 33.3127 30.0734 35.6165 29.1029 36.2531C29.243 36.5557 29.4247 36.8105 29.6475 37.0462C29.9055 37.3169 30.0265 37.6099 29.9948 37.8934C29.8898 38.8817 28.6274 39.027 28.138 38.3234C27.7238 37.7374 27.7526 37.0207 28.1952 36.2691C27.5447 36.0408 27.1024 35.7965 25.6727 35.855C19.6754 36.0939 17.3887 41.9606 20.9845 45.0373C20.8093 44.8876 19.9525 45.7443 19.8889 45.8335C18.9638 47.1657 20.3009 48.6539 20.4622 49.0567C21.0481 49.2573 21.6851 49.3816 22.3413 49.423C22.475 49.4325 22.5738 49.544 22.5674 49.6778C22.5579 49.802 22.4528 49.9007 22.3285 49.9007C22.124 49.874 21.3034 49.8717 20.1819 49.4707C20.0291 49.5153 19.8219 49.5599 19.5704 49.6332C18.4494 49.9565 17.4511 50.5099 16.7987 51.2371C17.0218 34.897 24.37 21.6724 33.2847 21.6724Z" fill="white"/>
<path d="M29.5201 37.8423C29.5623 37.4555 29.0828 37.3467 28.657 36.4377C28.3448 36.9282 28.157 37.5238 28.5263 38.0493C28.7738 38.4058 29.4716 38.3745 29.5201 37.8423Z" fill="white"/>
<path d="M37.8217 47.3679C38.1232 47.7506 38.1752 47.8408 37.6123 48.1847C37.4621 48.2768 37.4148 48.4727 37.5066 48.6226C37.5996 48.7741 37.7966 48.8193 37.9445 48.7284C38.8258 48.189 38.874 47.6742 38.3218 46.9735L37.2077 45.5593C37.0988 45.4215 36.8991 45.3972 36.7604 45.5064C36.6223 45.615 36.5987 45.8153 36.7075 45.9537L37.8217 47.3679Z" fill="white"/>
<path d="M38.752 45.0785C38.4533 45.1159 38.254 45.3259 38.3068 45.5475C38.3596 45.7691 38.6445 45.9183 38.9431 45.8809C39.2418 45.8435 39.4411 45.6335 39.3883 45.4119C39.3355 45.1903 39.0506 45.0411 38.752 45.0785Z" fill="white"/>
<path d="M32.8212 44.8223C33.0491 44.6357 33.409 44.521 33.7645 44.521C34.2289 44.521 34.2032 43.8893 33.7938 43.8843C33.2858 43.8837 32.7661 44.0441 32.4174 44.3297C32.2815 44.441 32.2613 44.6416 32.373 44.7779C32.4834 44.9129 32.6837 44.9346 32.8212 44.8223Z" fill="white"/>
<path d="M38.3656 44.2562C38.5476 44.2127 38.7715 44.2376 38.9211 44.3191C39.0734 44.4026 39.2681 44.3478 39.3532 44.1919C39.4375 44.0376 39.3805 43.8441 39.226 43.7598C38.9395 43.604 38.5535 43.5567 38.217 43.6367C38.0459 43.6777 37.9405 43.8497 37.9815 44.0208C38.0229 44.1915 38.1946 44.297 38.3656 44.2562Z" fill="white"/>
<path d="M33.8565 45.386C33.5579 45.4235 33.3559 45.6227 33.4054 45.8309C33.4549 46.0391 33.737 46.1774 34.0356 46.1399C34.3343 46.1024 34.5362 45.9032 34.4867 45.695C34.4372 45.4868 34.1551 45.3485 33.8565 45.386Z" fill="white"/>
<path d="M36.0109 50.5776C36.3985 50.4977 36.8538 50.5532 37.2247 50.653C37.4027 50.7009 37.5512 50.791 37.7309 50.834C38.626 51.0475 38.6711 50.4979 37.6459 50.13C36.4102 49.6865 35.0034 50.2406 35.0994 50.6375C35.1616 50.8952 35.7849 50.6242 36.0109 50.5776Z" fill="white"/>
<path d="M33.2842 86.9942C44.4624 86.9942 53.5563 71.3005 53.5563 52.01C53.5563 32.7055 44.4624 17 33.2842 17C22.0995 17 13 32.7055 13 52.01C13 71.3005 22.0995 86.9942 33.2842 86.9942ZM33.2842 17.637C44.1109 17.637 52.9193 33.0567 52.9193 52.01C52.9193 70.949 44.1109 86.3572 33.2842 86.3572C22.4507 86.3572 13.637 70.949 13.637 52.01C13.637 33.0567 22.4507 17.637 33.2842 17.637Z" fill="white"/>
<path d="M87.7832 17.8699L85.2466 23.1778L91.2339 19.9058L87.7832 17.8699Z" fill="white"/>
<path d="M90.2759 27.2213L89.7123 24.073L85.1792 25.3001L90.2759 27.2213Z" fill="white"/>
<path d="M82.9806 23.4377L84.1872 18.1262L81.1455 19.1148L82.9806 23.4377Z" fill="white"/>
<path d="M49.4565 19.5355C49.4565 20.5127 50.2528 21.3081 51.2313 21.3081C52.2085 21.3081 53.0039 20.5127 53.0039 19.5355C53.0039 18.557 52.2085 17.7607 51.2313 17.7607C50.2528 17.7607 49.4565 18.557 49.4565 19.5355ZM52.3669 19.5355C52.3669 20.1616 51.8574 20.6711 51.2313 20.6711C50.6039 20.6711 50.0935 20.1616 50.0935 19.5355C50.0935 18.9081 50.6039 18.3977 51.2313 18.3977C51.8574 18.3977 52.3669 18.9081 52.3669 19.5355Z" fill="white"/>
<path d="M22.2439 92.8667L23.9542 91.1566C24.0786 91.0322 24.0786 90.8307 23.9542 90.7063C23.8298 90.5818 23.6283 90.5818 23.5039 90.7063L22.0187 92.1911L19.9519 90.1243C19.8275 89.9999 19.6259 89.9999 19.5015 90.1243C19.3771 90.2487 19.3771 90.4503 19.5015 90.5747L21.7935 92.8667C21.9179 92.9911 22.1195 92.9911 22.2439 92.8667Z" fill="white"/>
<path d="M75.1716 92.6296C75.3197 92.6296 75.1843 92.65 78.5102 90.8781C78.6651 90.7948 78.7233 90.6016 78.6399 90.4467C78.5566 90.2915 78.3631 90.234 78.2085 90.317L75.0205 92.0305C74.7297 92.187 74.8417 92.6296 75.1716 92.6296Z" fill="white"/>
<path d="M75.822 89.9784L78.4987 88.5399C78.6536 88.4565 78.7118 88.2634 78.6284 88.1085C78.5451 87.9533 78.3516 87.8954 78.197 87.9788L75.5203 89.4173C75.3654 89.5007 75.3072 89.6938 75.3906 89.8487C75.4746 90.005 75.6689 90.0609 75.822 89.9784Z" fill="white"/>
<path d="M71.9242 42.6427C71.7516 42.6135 71.5865 42.7289 71.5563 42.9024C71.509 43.1758 71.3973 43.4632 70.709 43.4169C70.5283 43.4088 70.3815 43.5379 70.3694 43.713C70.3576 43.8884 70.4901 44.0405 70.6655 44.0526C70.728 44.0567 70.788 44.0588 70.8456 44.0588C71.7964 44.0588 72.0997 43.4977 72.1839 43.0107C72.2138 42.8374 72.0978 42.6726 71.9242 42.6427Z" fill="white"/>
<path d="M34.0331 47.7718C34.0193 47.7354 33.9764 47.5618 33.9359 47.5557C33.8836 47.548 33.8244 47.6868 33.8008 47.7248C33.6059 48.04 33.2222 48.7552 33.2494 49.1242C33.3107 49.9605 34.7509 49.671 34.0331 47.7718Z" fill="white"/>
<path d="M40.5302 49.0643C40.4921 48.886 40.4334 48.7131 40.3691 48.5428C40.3554 48.5064 40.3125 48.3328 40.2719 48.3267C40.2196 48.319 40.1604 48.4578 40.1367 48.4958C39.9417 48.8113 39.5583 49.5262 39.5853 49.8952C39.6426 50.6764 40.8269 50.4476 40.5302 49.0643Z" fill="white"/>
</g>
<defs>
<filter id="filter0_d_133_1521" x="7" y="11" width="102.172" height="95.96" filterUnits="userSpaceOnUse" color-interpolation-filters="sRGB">
<feFlood flood-opacity="0" result="BackgroundImageFix"/>
<feColorMatrix in="SourceAlpha" type="matrix" values="0 0 0 0 0 0 0 0 0 0 0 0 0 0 0 0 0 0 127 0" result="hardAlpha"/>
<feOffset dx="4" dy="4"/>
<feGaussianBlur stdDeviation="5"/>
<feComposite in2="hardAlpha" operator="out"/>
<feColorMatrix type="matrix" values="0 0 0 0 0.462745 0 0 0 0 0.596078 0 0 0 0 0.701961 0 0 0 1 0"/>
<feBlend mode="normal" in2="BackgroundImageFix" result="effect1_dropShadow_133_1521"/>
<feBlend mode="normal" in="SourceGraphic" in2="effect1_dropShadow_133_1521" result="shape"/>
</filter>
</defs>
</svg>
