<svg width="70" height="70" viewBox="0 0 70 70" fill="none" xmlns="http://www.w3.org/2000/svg">
<path d="M50.911 33.4582L26.1364 18.3077C25.8234 18.1135 25.4638 18.0073 25.0955 18.0004C24.7272 17.9934 24.3639 18.0859 24.0438 18.2681C23.726 18.4428 23.4612 18.7 23.2775 19.0126C23.0938 19.3253 22.9979 19.6817 23 20.0444V50.3454C22.9979 50.7081 23.0938 51.0645 23.2775 51.3772C23.4612 51.6898 23.726 51.947 24.0438 52.1217C24.3639 52.3039 24.7272 52.3964 25.0955 52.3894C25.4638 52.3825 25.8234 52.2763 26.1364 52.0821L50.911 36.9316C51.2092 36.7503 51.4557 36.4953 51.6267 36.1911C51.7978 35.887 51.8876 35.5439 51.8876 35.1949C51.8876 34.8459 51.7978 34.5028 51.6267 34.1987C51.4557 33.8945 51.2092 33.6395 50.911 33.4582ZM50.1923 35.7572L25.4177 50.9094C25.3128 50.9739 25.1925 51.009 25.0694 51.0111C24.9463 51.0133 24.8249 50.9823 24.7178 50.9215C24.6134 50.866 24.5262 50.7829 24.4656 50.6814C24.4049 50.5799 24.3732 50.4637 24.3739 50.3454V20.0444C24.3732 19.9261 24.4049 19.8099 24.4656 19.7084C24.5262 19.6069 24.6134 19.5238 24.7178 19.4683C24.8249 19.4075 24.9463 19.3766 25.0694 19.3787C25.1925 19.3808 25.3128 19.4159 25.4177 19.4804L50.1923 34.6326C50.2899 34.6904 50.3708 34.7727 50.4271 34.8713C50.4833 34.9699 50.5128 35.0814 50.5128 35.1949C50.5128 35.3084 50.4833 35.4199 50.4271 35.5185C50.3708 35.6171 50.2899 35.6994 50.1923 35.7572Z" fill="#FBFBF2"/>
</svg>
