<svg width="70" height="70" viewBox="0 0 70 70" fill="none" xmlns="http://www.w3.org/2000/svg">
<path d="M43.6173 21.125C48.463 23.8891 51.6467 29.1985 51.6467 35.1764C51.6467 38.3525 50.7048 41.4572 48.9403 44.0981C47.1757 46.7389 44.6677 48.7972 41.7334 50.0126C38.799 51.2281 35.5702 51.5461 32.4551 50.9265C29.34 50.3068 26.4786 48.7774 24.2328 46.5316C21.9869 44.2857 20.4575 41.4243 19.8379 38.3092C19.2182 35.1942 19.5363 31.9653 20.7517 29.031C21.9671 26.0966 24.0254 23.5886 26.6663 21.8241C29.3071 20.0595 32.4119 19.1177 35.588 19.1177" stroke="#FBFBF2" stroke-width="1.42857" stroke-linecap="round" stroke-linejoin="round"/>
<path d="M43.6182 29.1541V21.1248H51.6475" stroke="#FBFBF2" stroke-width="1.42857" stroke-linecap="round" stroke-linejoin="round"/>
</svg>
