<svg width="294" height="294" viewBox="0 0 294 294" fill="none" xmlns="http://www.w3.org/2000/svg">
<path d="M169.273 180.843L172.455 176.071C180.468 165.386 191.641 157.493 204.389 153.511C217.138 149.528 230.816 149.658 243.487 153.882C256.158 158.105 267.179 166.209 274.988 177.044C282.798 187.879 287 200.896 287 214.253C287 227.609 282.798 240.626 274.988 251.461C267.179 262.296 256.158 270.4 243.487 274.623C230.816 278.847 217.138 278.977 204.389 274.994C191.641 271.012 180.468 263.119 172.455 252.434L121.545 176.071C113.532 165.386 102.359 157.493 89.6107 153.511C76.862 149.528 63.1835 149.658 50.5128 153.882C37.842 158.105 26.8213 166.209 19.0119 177.044C11.2024 187.879 7 200.896 7 214.253C7 227.609 11.2024 240.626 19.0119 251.461C26.8213 262.296 37.842 270.4 50.5128 274.623C63.1835 278.847 76.862 278.977 89.6107 274.994C102.359 271.012 113.532 263.119 121.545 252.434L125.796 246.071" stroke="#CAD7E2" stroke-width="10" stroke-linecap="round" stroke-linejoin="round"/>
<circle cx="147" cy="89.8081" r="55.8081" stroke="#CAD7E2" stroke-width="10"/>
</svg>
