<svg width="846" height="178" viewBox="0 0 846 178" fill="none" xmlns="http://www.w3.org/2000/svg">
<path d="M261.85 32.7H266.65C284.55 32.7 298.35 37.6 308.05 47.4C317.85 57.1 322.75 70.95 322.75 88.95C322.75 99.25 320.25 108.7 315.25 117.3C310.25 125.9 303.45 132.7 294.85 137.7C286.35 142.7 276.95 145.2 266.65 145.2H261.85V32.7ZM267.85 140.55C277.05 140.55 285.45 138.3 293.05 133.8C300.65 129.2 306.65 122.95 311.05 115.05C315.55 107.15 317.8 98.45 317.8 88.95C317.8 72.35 313.45 59.6 304.75 50.7C296.15 41.7 283.85 37.2 267.85 37.2H266.65V140.55H267.85Z" fill="#FBFBF2"/>
<path d="M343.149 32.7H348.099V97.95H425.199V32.7H430.149V145.2H425.199V102.3H348.099V145.2H343.149V32.7Z" fill="#FBFBF2"/>
<path d="M514.641 32.7L481.191 100.2V145.2H476.241V100.2L442.041 32.7H447.441L478.791 94.35L509.541 32.7H514.641Z" fill="#FBFBF2"/>
<path d="M612.365 145.2H607.115L585.815 102.3H526.115L505.265 145.2H500.015L556.115 30L612.365 145.2ZM584.015 97.95L555.815 40.8L528.215 97.95H584.015Z" fill="#FBFBF2"/>
<path d="M633.436 43.95V145.2H629.086V31.05L711.886 133.8V32.7H716.236V146.85L633.436 43.95Z" fill="#FBFBF2"/>
<path d="M845.275 145.2H840.025L818.725 102.3H759.025L738.175 145.2H732.925L789.025 30L845.275 145.2ZM816.925 97.95L788.725 40.8L761.125 97.95H816.925Z" fill="#FBFBF2"/>
<path d="M116.75 107.375L119 104C124.667 96.4442 132.567 90.863 141.582 88.0469C150.598 85.2308 160.27 85.3226 169.23 88.3093C178.19 91.2959 185.983 97.0261 191.506 104.688C197.028 112.35 200 121.555 200 131C200 140.445 197.028 149.65 191.506 157.312C185.983 164.974 178.19 170.704 169.23 173.691C160.27 176.677 150.598 176.769 141.582 173.953C132.567 171.137 124.667 165.556 119 158L83 104C77.3332 96.4442 69.4326 90.863 60.4175 88.0469C51.4024 85.2308 41.7298 85.3226 32.7698 88.3093C23.8097 91.2959 16.0165 97.0261 10.4941 104.688C4.97168 112.35 2 121.555 2 131C2 140.445 4.97168 149.65 10.4941 157.312C16.0165 164.974 23.8097 170.704 32.7698 173.691C41.7298 176.677 51.4024 176.769 60.4175 173.953C69.4326 171.137 77.3332 165.556 83 158L86.006 153.5" stroke="#FBFBF2" stroke-width="3" stroke-linecap="round" stroke-linejoin="round"/>
<circle cx="101" cy="43" r="41.5" stroke="#FBFBF2" stroke-width="3"/>
</svg>
