<svg width="284" height="251" viewBox="0 0 284 251" fill="none" xmlns="http://www.w3.org/2000/svg">
<path d="M164.273 151.843L167.455 147.071C175.468 136.386 186.641 128.493 199.389 124.511C212.138 120.528 225.816 120.658 238.487 124.882C251.158 129.105 262.179 137.209 269.988 148.044C277.798 158.879 282 171.896 282 185.253C282 198.609 277.798 211.626 269.988 222.461C262.179 233.296 251.158 241.4 238.487 245.623C225.816 249.847 212.138 249.977 199.389 245.994C186.641 242.012 175.468 234.119 167.455 223.434L116.545 147.071C108.532 136.386 97.3593 128.493 84.6107 124.511C71.862 120.528 58.1835 120.658 45.5128 124.882C32.842 129.105 21.8213 137.209 14.0119 148.044C6.20238 158.879 2 171.896 2 185.253C2 198.609 6.20238 211.626 14.0119 222.461C21.8213 233.296 32.842 241.4 45.5128 245.623C58.1835 249.847 71.862 249.977 84.6107 245.994C97.3593 242.012 108.532 234.119 116.545 223.434L120.796 217.071" stroke="#FBFBF2" stroke-width="3" stroke-linecap="round" stroke-linejoin="round"/>
<circle cx="142" cy="60.8081" r="59.3081" stroke="#FBFBF2" stroke-width="3"/>
</svg>
