<svg width="286" height="252" viewBox="0 0 286 252" fill="none" xmlns="http://www.w3.org/2000/svg">
<path d="M165.273 151.843L168.455 147.071C176.468 136.386 187.641 128.493 200.389 124.511C213.138 120.528 226.816 120.658 239.487 124.882C252.158 129.105 263.179 137.209 270.988 148.044C278.798 158.879 283 171.896 283 185.253C283 198.609 278.798 211.626 270.988 222.461C263.179 233.296 252.158 241.4 239.487 245.623C226.816 249.847 213.138 249.977 200.389 245.994C187.641 242.012 176.468 234.119 168.455 223.434L117.545 147.071C109.532 136.386 98.3593 128.493 85.6107 124.511C72.862 120.528 59.1835 120.658 46.5128 124.882C33.842 129.105 22.8213 137.209 15.0119 148.044C7.20238 158.879 3 171.896 3 185.253C3 198.609 7.20238 211.626 15.0119 222.461C22.8213 233.296 33.842 241.4 46.5128 245.623C59.1835 249.847 72.862 249.977 85.6107 245.994C98.3593 242.012 109.532 234.119 117.545 223.434L121.796 217.071" stroke="#7698B3" stroke-width="5" stroke-linecap="round" stroke-linejoin="round"/>
<path d="M201.308 60.8081C201.308 93.0107 175.203 119.116 143 119.116C110.797 119.116 84.692 93.0107 84.692 60.8081C84.692 28.6054 110.797 2.5 143 2.5C175.203 2.5 201.308 28.6054 201.308 60.8081Z" stroke="#7698B3" stroke-width="5"/>
</svg>
