<svg width="258" height="280" viewBox="0 0 258 280" fill="none" xmlns="http://www.w3.org/2000/svg">
<path d="M0 230.178H2.12264C10.0383 230.178 16.1409 232.317 20.4304 236.594C24.7641 240.828 26.931 246.873 26.931 254.729C26.931 259.225 25.8254 263.349 23.6143 267.103C21.4033 270.856 18.3962 273.824 14.5931 276.006C10.8343 278.189 6.67747 279.28 2.12264 279.28H0V230.178ZM2.6533 277.25C6.72169 277.25 10.4363 276.268 13.7971 274.304C17.158 272.297 19.8113 269.569 21.757 266.121C23.747 262.673 24.742 258.875 24.742 254.729C24.742 247.484 22.8184 241.919 18.9711 238.035C15.168 234.107 9.72876 232.142 2.6533 232.142H2.12264V277.25H2.6533Z" fill="#7698B3"/>
<path d="M35.9517 230.178H38.1406V258.657H72.2355V230.178H74.4245V279.28H72.2355V260.556H38.1406V279.28H35.9517V230.178Z" fill="#7698B3"/>
<path d="M111.788 230.178L96.9961 259.639V279.28H94.8072V259.639L79.6834 230.178H82.0713L95.9348 257.086L109.533 230.178H111.788Z" fill="#7698B3"/>
<path d="M155.003 279.28H152.682L143.262 260.556H116.862L107.642 279.28H105.32L130.129 229L155.003 279.28ZM142.467 258.657L129.996 233.714L117.791 258.657H142.467Z" fill="#7698B3"/>
<path d="M164.321 235.089V279.28H162.398V229.458L199.013 274.304V230.178H200.937V280L164.321 235.089Z" fill="#7698B3"/>
<path d="M258 279.28H255.678L246.259 260.556H219.859L210.639 279.28H208.317L233.125 229L258 279.28ZM245.463 258.657L232.993 233.714L220.787 258.657H245.463Z" fill="#7698B3"/>
<path d="M144.75 107.375L147 104C152.667 96.4442 160.567 90.863 169.582 88.0469C178.598 85.2308 188.27 85.3226 197.23 88.3093C206.19 91.2959 213.983 97.0261 219.506 104.688C225.028 112.35 228 121.555 228 131C228 140.445 225.028 149.65 219.506 157.312C213.983 164.974 206.19 170.704 197.23 173.691C188.27 176.677 178.598 176.769 169.582 173.953C160.567 171.137 152.667 165.556 147 158L111 104C105.333 96.4442 97.4326 90.863 88.4175 88.0469C79.4024 85.2308 69.7298 85.3226 60.7698 88.3093C51.8097 91.2959 44.0165 97.0261 38.4941 104.688C32.9717 112.35 30 121.555 30 131C30 140.445 32.9717 149.65 38.4941 157.312C44.0165 164.974 51.8097 170.704 60.7698 173.691C69.7298 176.677 79.4024 176.769 88.4175 173.953C97.4326 171.137 105.333 165.556 111 158L114.006 153.5" stroke="#7698B3" stroke-width="3" stroke-linecap="round" stroke-linejoin="round"/>
<circle cx="129" cy="43" r="41.5" stroke="#7698B3" stroke-width="3"/>
</svg>
