<svg width="110" height="110" viewBox="0 0 110 110" fill="none" xmlns="http://www.w3.org/2000/svg">
<path d="M32.2358 83.0311C36.1093 83.4544 39.9459 82.0204 43.8807 82.1011C48.1214 82.1887 52.3306 82.4526 56.5774 82.3956C60.7375 82.3395 64.9204 82.3158 69.0761 82.137C70.8668 82.0599 72.6366 81.7645 74.4326 81.7084C79.0643 82.6542 79.7287 84.7009 76.425 87.8468C75.6072 88.0239 74.7894 88.1948 73.9698 88.3605C69.5319 89.2738 65.8504 88.1869 61.4799 87.8223C57.2664 87.4708 53.1274 88.2535 48.9305 88.5288C45.1035 88.7794 41.3265 87.9827 37.4933 88.4516C35.7017 88.6708 32.4734 89.3615 31.951 86.6775C31.5258 84.4949 31.4294 83.273 33.7838 82.4499C34.4465 82.2185 34.1616 81.1597 33.4928 81.3937C30.3004 82.5095 30.3898 83.7043 30.8947 86.9694C31.3891 90.1679 35.0934 89.8217 37.4942 89.5473C40.2615 89.2309 42.9673 89.4097 45.7407 89.5832C49.4257 89.8138 53.0704 89.2265 56.7291 88.8846C60.4745 88.5349 63.9167 89.5876 67.5912 89.9058C70.3137 90.1416 72.8654 89.7051 75.5265 89.1572C77.7959 88.69 79.9855 87.2955 79.6112 84.6001C79.1151 81.0361 76.24 80.5557 73.0959 80.6548C66.5174 80.8625 59.9512 81.2964 53.3509 81.3306C49.6738 81.349 46.0116 81.0501 42.338 80.9747C38.9142 80.9037 35.6053 82.3044 32.2367 81.9363C31.5337 81.8583 31.5416 82.9548 32.2358 83.0311Z" fill="#FBFBF2"/>
<path d="M52.8268 80.2719C50.6898 77.6335 47.6237 76.1933 45.555 73.3507C43.4601 70.473 42.0865 66.902 41.3897 63.4379C39.9863 56.4623 42.2127 47.5628 48.8666 44.0785C51.8372 42.5227 56.9019 41.3867 58.2912 37.877C59.0783 35.889 58.6173 34.3121 57.8406 32.3635C57.3936 31.2424 56.7704 30.1722 56.2392 29.0888C54.6974 25.9464 55.2794 22.7961 55.7738 19.4932C55.8439 19.026 55.2408 18.4738 54.8586 18.9603C53.2484 21.0053 51.668 23.5595 51.462 26.233C51.3323 27.9151 51.5944 29.2825 51.9406 30.919C52.7111 34.5628 51.022 36.1221 47.9813 37.8901C42.6905 40.9668 36.7598 44.4607 34.3002 50.4019C28.9612 63.2985 38.5365 79.0579 52.1536 81.3272C52.8443 81.4421 53.1406 80.3867 52.4446 80.271C37.4707 77.7763 27.8558 58.4442 38.3183 46.2427C42.2022 41.7127 48.4607 40.2884 52.3666 36.0021C53.4325 34.8327 53.3782 33.1717 53.195 31.7228C53.0126 30.2817 52.5928 28.9161 52.463 27.4566C52.2211 24.7464 54.0321 21.7687 55.6326 19.736C55.3276 19.5581 55.0226 19.381 54.7175 19.2031C54.2337 22.4305 53.7744 25.2539 54.7798 28.4261C55.9543 32.1295 59.6297 35.5734 55.9333 39.1269C53.9234 41.0597 50.7792 41.9468 48.3126 43.1336C46.1712 44.1635 44.5934 45.7913 43.2146 47.696C39.754 52.4741 39.4324 59.2567 40.5535 64.8272C41.1995 68.038 42.8675 71.1777 44.6083 73.9038C46.5779 76.9883 49.8527 78.3321 52.0519 81.0467C52.4964 81.5954 53.2668 80.8153 52.8268 80.2719Z" fill="#FBFBF2"/>
<path d="M56.5415 80.9066C58.4883 82.5782 61.2152 78.2025 62.1198 77.0077C65.0553 73.1325 67.0048 69.8753 66.0231 64.9123C64.3734 56.5755 51.9878 56.2906 56.5695 45.7493C58.8459 40.512 65.2789 35.6375 61.0495 29.5946C60.7997 29.8444 60.5499 30.0943 60.3001 30.3441C63.936 31.8912 64.9046 35.5052 64.9572 39.0946C64.9975 41.854 62.8316 44.2671 62.3503 46.9677C61.7657 50.2504 66.4429 52.1639 68.6194 53.2902C75.5905 56.899 76.9684 65.5934 72.2833 71.5556C68.6799 76.1408 62.31 79.5295 56.5082 79.9704C55.8087 80.0239 55.8034 81.1196 56.5082 81.0661C62.1671 80.6357 67.3756 77.7414 71.5128 73.9758C76.3435 69.5781 77.2691 63.8885 74.8025 57.9455C73.8699 55.699 72.1063 54.0405 70.0648 52.8248C68.579 51.9403 67.0013 51.2426 65.5357 50.317C62.0541 48.1186 64.0561 45.1016 65.292 42.3098C67.2861 37.8026 65.5322 31.388 60.8541 29.3974C60.4097 29.2081 59.7505 29.6411 60.1046 30.1469C64.3304 36.1862 56.4494 42.0486 54.7472 47.5489C53.6042 51.2417 55.0899 54.5489 57.7844 57.0033C62.0023 60.8425 67.7831 64.9605 64.3576 71.5144C63.7887 72.6022 58.4997 81.1476 57.3172 80.1326C56.7834 79.6742 56.0042 80.4455 56.5415 80.9066Z" fill="#FBFBF2"/>
<path d="M54.8112 77.9935C54.6087 73.0656 49.7246 70.8576 47.1598 67.1945C42.2766 60.2199 51.0596 54.3987 50.602 47.6888C50.2909 47.8177 49.9788 47.9465 49.6668 48.0762C51.4549 49.7425 52.3779 52.0996 51.9572 54.5478C51.8844 54.9676 51.9388 55.4243 52.051 55.8319C52.4954 57.4465 55.0137 58.6631 56.1207 59.5809C60.9058 63.5507 61.0215 68.5689 57.248 73.3321C55.6211 75.3849 55.0628 77.2932 53.9311 79.5415C54.2712 79.6335 54.6113 79.7256 54.9523 79.8176C54.9926 79.2584 55.033 78.6991 55.0733 78.139C54.7148 78.0908 54.3563 78.0417 53.9969 77.9935C53.9504 78.3678 53.9031 78.7421 53.8566 79.1155C53.769 79.815 54.8655 79.8071 54.9523 79.1155C54.9988 78.7412 55.0461 78.3669 55.0926 77.9935C55.1688 77.3826 54.1038 77.2388 54.0162 77.848C53.8908 78.7228 53.8724 78.9113 53.8558 79.8176C53.8461 80.3462 54.628 80.5881 54.8769 80.0937C55.5212 78.8149 55.8245 77.4895 56.5389 76.2133C57.6617 74.2077 59.3534 72.5967 60.4824 70.585C61.9375 67.9922 61.3292 64.9199 60.0617 62.4323C58.8179 59.9893 52.6943 56.6988 53.1966 53.779C53.7234 50.7173 52.6382 49.3472 50.4425 47.3005C50.1155 46.9963 49.473 47.1865 49.5072 47.6879C49.8903 53.3039 43.6633 57.8725 44.8133 63.8339C45.2279 65.9858 46.0282 67.6757 47.45 69.3333C49.7877 72.0585 53.5507 73.943 53.7164 77.9927C53.7436 78.6974 54.8401 78.7 54.8112 77.9935Z" fill="#FBFBF2"/>
</svg>
