<svg width="109" height="110" viewBox="0 0 109 110" fill="none" xmlns="http://www.w3.org/2000/svg">
<path d="M90.8416 58.5585C87.5546 54.0356 84.7759 48.9166 80.586 45.1737C78.5658 43.3857 76.3132 41.879 73.8892 40.6946C71.9665 39.8181 69.926 39.2275 67.8323 38.9415C62.6607 38.0124 57.5592 37.4689 52.6506 39.8181C49.5915 41.3082 47.7332 44.0605 45.0685 46.059C43.6279 47.255 41.8581 47.9856 39.9933 48.154C38.1619 48.094 36.3747 47.5756 34.7954 46.6463C32.2359 45.4104 29.1154 43.9378 26.3543 45.4718C25.1841 46.1445 24.1108 46.9731 23.1637 47.9348C22.8925 48.1399 22.6724 48.4048 22.5203 48.7088C22.3683 49.0129 22.2885 49.348 22.2871 49.6879C22.2911 49.7414 22.3119 49.7922 22.3466 49.8332C22.3812 49.8741 22.4279 49.903 22.48 49.9158C21.821 50.2294 21.2264 50.6635 20.7269 51.1956C20.6305 51.292 20.7269 51.4585 20.8671 51.3621C21.3754 50.8697 21.9696 50.4746 22.6202 50.1963C22.6429 50.2094 22.6686 50.2163 22.6947 50.2163C22.7209 50.2163 22.7466 50.2094 22.7692 50.1963C23.0147 50.0911 23.2689 49.9947 23.5143 49.9071C24.0306 49.8292 24.5525 49.794 25.0746 49.8019C28.6947 50.0911 32.5076 53.6674 35.5931 54.956C39.6164 56.709 44.1481 56.0429 48.1802 54.7018C53.5096 52.9487 58.3481 49.7931 63.9054 48.6887C68.5051 47.8203 73.2552 48.2389 77.6321 49.8983C82.6068 51.7045 86.9226 54.9666 90.0176 59.2598C90.4296 59.8295 91.236 59.102 90.8416 58.5585ZM25.1973 49.5477H24.9343C29.019 48.6711 33.0599 50.2226 37.0657 51.3534C41.0715 52.4841 44.7705 51.7653 48.4607 49.6967C52.6418 47.33 56.3934 44.0518 61.267 43.1927C65.9005 42.4583 70.6469 43.2684 74.7746 45.4981C76.2472 46.3114 77.6566 47.2344 78.9907 48.2592C73.4685 45.1737 67.1574 43.6135 60.9252 45.5594C55.8325 47.1284 51.3708 50.3366 46.208 51.6163C41.65 52.7734 37.1358 52.1423 32.6742 50.9151C30.2286 50.2489 27.7042 49.4074 25.1973 49.5477ZM34.9357 54.0356C33.9539 53.5798 32.8758 52.9311 31.745 52.2825C35.0614 53.8148 38.7039 54.5072 42.3512 54.2985C45.116 54.0945 47.8482 53.5739 50.4943 52.7471L50.8712 52.6331C45.91 54.7193 40.1073 56.4198 34.9357 54.0356ZM66.8769 47.181C64.6511 47.3616 62.4586 47.8331 60.3554 48.5835C60.3185 48.5708 60.2784 48.5708 60.2415 48.5835C56.9807 49.5915 53.8778 51.0553 50.5995 52.0195C48.0982 52.7865 45.5255 53.2975 42.921 53.5447C38.3315 53.8379 33.7417 52.976 29.5712 51.0378C28.9569 50.7106 28.3248 50.418 27.6779 50.1613C29.2469 50.4856 30.7984 51.0378 32.2797 51.441C35.7888 52.6451 39.4968 53.1629 43.2015 52.9662C48.189 52.4929 52.5629 49.9947 57.0508 47.9699C61.8455 45.8048 66.5175 44.9546 71.6891 46.2168C74.4207 46.9057 77.0453 47.9644 79.4904 49.3636C75.5197 47.642 71.1952 46.8937 66.8769 47.181ZM84.0046 51.6163C81.4713 49.3677 78.7695 47.3164 75.9228 45.4805C72.2532 43.3015 68.0399 42.2102 63.7739 42.3337C59.2685 42.4477 55.552 44.3585 51.8617 46.7778C49.7231 48.3222 47.418 49.6218 44.9896 50.6521C42.327 51.5772 39.4302 51.5772 36.7676 50.6521C32.3849 49.3636 27.1257 47.4966 22.7868 49.7756C22.7967 49.7235 22.7967 49.6699 22.7868 49.6178C26.2929 46.024 32.1921 48.8552 36.3381 50.2489C40.4842 51.6426 44.0868 50.8976 47.6105 48.3118C49.5739 46.8742 51.3446 45.1913 53.3431 43.8063C55.4197 42.3709 57.8029 41.4404 60.3028 41.089C64.9748 40.3878 70.3392 40.9137 74.5116 43.2629C78.272 45.3753 81.0857 48.7325 84.1536 51.739L84.0046 51.6163ZM75.8702 43.5083C72.0226 41.189 67.5676 40.0776 63.0815 40.3177C58.5396 40.4225 54.1759 42.1053 50.7397 45.0773C48.6448 46.769 46.5937 48.6887 44.0692 49.723C41.2029 50.9063 38.4155 50.3716 35.6106 49.3198C31.6837 47.8472 26.5208 45.8662 22.9971 49.0568C23.6447 48.2568 24.4998 47.6503 25.469 47.3037C26.6604 46.7267 27.967 46.427 29.2907 46.4272C32.3323 46.6551 34.7604 48.9253 37.6529 49.6704C38.9433 49.956 40.2797 49.9637 41.5734 49.6932C42.867 49.4227 44.0883 48.8801 45.1562 48.1014C47.6981 46.436 49.4074 43.9115 51.8354 42.1497C56.411 38.8188 61.6439 38.9503 66.9295 39.7392C68.8187 39.944 70.6778 40.3676 72.4692 41.0014C75.0417 42.0784 77.4265 43.5578 79.5342 45.3841C81.7616 47.3938 83.7129 49.6899 85.3369 52.2124C82.2602 49.2584 79.4904 45.875 75.8702 43.5171V43.5083Z" fill="#FBFBF2"/>
<path d="M63.5281 69.4455C58.3123 67.3498 52.6731 66.5236 47.0754 67.035C44.3493 67.3067 41.6408 67.8414 38.8797 67.7275C35.242 67.5785 32.8578 65.729 30.1143 63.5201C28.1683 61.9423 26.2487 60.6713 23.6629 60.7239C22.5682 60.7 21.4822 60.9242 20.4864 61.3796C19.4906 61.835 18.6108 62.5098 17.9128 63.3535C17.6235 63.7304 18.2634 64.0898 18.5439 63.7217C19.1526 62.9379 19.961 62.3324 20.8843 61.9686H20.9982C24.0573 62.1614 25.6439 64.5106 27.1954 66.8597C28.8565 69.3518 30.2826 71.9928 31.4554 74.7486C33.2698 79.0349 36.3377 83.6367 41.185 84.7236C46.6283 85.9508 51.4756 82.3132 56.2089 80.2796C61.6084 78.0532 67.5251 78.5615 72.723 81.0159C78.8062 83.8296 83.4607 89.1414 87.7382 94.164C87.8248 94.2417 87.9359 94.2867 88.0521 94.2913C88.1684 94.2958 88.2826 94.2597 88.3751 94.189C88.4676 94.1184 88.5325 94.0177 88.5586 93.9043C88.5848 93.7909 88.5705 93.672 88.5183 93.568C82.8296 83.2072 74.7215 73.872 63.5281 69.4455ZM60.8984 77.4834C55.1045 78.1671 50.6078 82.4797 44.9191 83.3738C38.196 84.4256 34.1989 77.9041 31.5781 72.7676C31.1573 71.9436 30.7249 71.1285 30.2808 70.322C31.508 72.0751 32.7497 73.799 34.0061 75.4936C36.0747 78.3161 38.3888 80.7529 42.0966 81.0334C48.6619 81.5944 55.1922 76.3877 61.626 77.422L60.8984 77.4834ZM63.1775 77.3519C57.0855 75.292 50.8094 80.1393 44.6736 80.5601C42.6976 80.7597 40.707 80.3628 38.9586 79.4206C37.0302 78.2986 35.6715 76.4315 34.3655 74.6785C32.7088 72.452 31.0609 70.2169 29.3692 68.008C31.0755 69.7611 32.8637 71.4382 34.7336 73.0393C37.3633 75.2833 40.3435 78.0181 43.9636 78.2986C45.7123 78.3413 47.4433 77.9402 48.995 77.1328C51.5194 76.002 53.7984 74.959 56.6297 75.0203C59.7325 75.2109 62.7593 76.0595 65.5091 77.5097C64.7356 77.4129 63.957 77.3632 63.1775 77.3607V77.3519ZM67.6303 77.8778C64.9409 76.3678 62.0112 75.3329 58.9701 74.8187C57.0524 74.5156 55.0943 74.5841 53.2024 75.0203C51.1162 75.5375 49.2229 76.6419 47.163 77.2204C42.491 78.5352 38.6868 75.2307 35.356 72.4257C32.0251 69.6208 29.0186 66.7457 26.0383 63.7129C30.8856 66.2549 34.4268 70.7252 39.4056 73.0656C41.7294 74.21 44.3465 74.6197 46.9088 74.2402C50.3449 73.7406 53.404 72.6799 56.9365 72.8377C56.9709 72.8294 57.0016 72.8098 57.0235 72.782C57.0454 72.7541 57.0573 72.7197 57.0573 72.6843C57.0573 72.6489 57.0454 72.6145 57.0235 72.5867C57.0016 72.5589 56.9709 72.5392 56.9365 72.5309C54.2104 71.8297 51.2652 72.8377 48.6005 73.4075C45.2046 74.2363 41.6186 73.688 38.6255 71.8823C37.6478 71.2813 36.7108 70.6167 35.8205 69.8925C36.1624 70.0678 36.513 70.2344 36.8724 70.3834C39.7387 71.5667 42.6225 71.3125 45.6378 70.699C49.7313 69.8224 53.3777 69.2614 57.3397 71.0057C57.5588 71.1022 57.7604 70.7954 57.5325 70.6727C54.7714 69.1913 51.835 69.0598 48.7671 69.4806C44.8402 70.0152 41.0272 71.146 37.1967 69.4806C32.1741 67.3856 28.554 62.6961 23.0493 61.7319L22.6899 61.6092C23.6881 61.4705 24.7038 61.53 25.6789 61.7845C28.1859 62.4682 30.0617 64.7034 32.0777 66.2373C36.1975 69.3578 40.5539 68.9371 45.4012 68.2709C56.5946 66.7282 67.3147 71.0057 75.6244 78.5002C77.7855 80.4692 79.7847 82.6091 81.6024 84.899C75.7068 78.8727 68.2787 74.5692 60.1183 72.452C60.0931 72.4491 60.0677 72.4553 60.0467 72.4697C60.0258 72.484 60.0107 72.5054 60.0043 72.53C59.9979 72.5545 60.0006 72.5806 60.0119 72.6033C60.0232 72.626 60.0423 72.6439 60.0657 72.6536C69.5586 75.807 78.0334 81.4458 84.6089 88.9836L84.907 89.4219C80.086 84.3029 74.3271 79.4556 67.6303 77.8866V77.8778Z" fill="#FBFBF2"/>
<path d="M26.3984 40.6071C26.6108 38.6542 27.031 36.7295 27.6518 34.8657C27.7708 34.8386 27.8764 34.7703 27.9498 34.6729C28.9579 33.3668 30.7373 30.7635 32.5429 30.5882C33.462 30.601 34.3789 30.6801 35.2865 30.8249C36.5704 30.9439 37.8444 31.1518 39.0995 31.4472C40.541 31.8222 42.0585 31.7888 43.4822 31.3508C44.8411 30.7064 46.1455 29.953 47.3828 29.0981C49.4406 27.8304 51.7497 27.0258 54.1497 26.7402C55.7167 26.6811 57.2856 26.7868 58.8305 27.0557C61.6792 27.3976 64.23 25.5393 66.8947 24.7154C71.2774 23.3567 76.4402 22.9623 79.8587 26.6175C79.9308 26.7174 80.0396 26.7847 80.1613 26.8044C80.2829 26.8241 80.4074 26.7947 80.5074 26.7226C80.6073 26.6506 80.6746 26.5418 80.6943 26.4201C80.714 26.2985 80.6846 26.174 80.6126 26.074C77.7375 22.1997 74.2576 18.3604 69.7434 16.3882C68.17 15.6609 66.4433 15.327 64.7121 15.4152C63.0028 15.5467 61.7669 16.2918 60.3294 17.0719C58.4185 18.0624 56.008 18.0624 53.9043 18.0975C51.5464 18.1413 49.1797 18.0975 46.8218 18.2026C41.1068 18.5533 36.987 22.4802 32.7971 25.9776C31.6051 26.9428 30.5443 28.0596 29.6416 29.2997L29.5364 29.4399C28.7164 30.6093 28.0257 31.8643 27.4765 33.1828C27.3023 33.4838 27.1443 33.794 27.0032 34.1119C26.9563 34.2301 26.9563 34.3618 27.0032 34.4801C26.3292 36.4543 26.0001 38.5299 26.0302 40.6159C26.0434 40.6548 26.0686 40.6886 26.1023 40.7122C26.136 40.7357 26.1764 40.7479 26.2175 40.747C26.2586 40.746 26.2984 40.7319 26.3309 40.7067C26.3634 40.6816 26.3871 40.6466 26.3984 40.6071ZM70.4973 22.6029C68.4478 22.837 66.4345 23.3198 64.5017 24.0404C63.0992 24.5488 61.4689 25.7059 59.9612 25.7234C58.4535 25.7409 56.981 25.2939 55.4821 25.2676C53.3743 25.2426 51.2846 25.6576 49.3463 26.486C47.3565 27.3625 45.6473 28.5722 43.7452 29.5626C42.0534 30.4392 40.3705 30.1675 38.5736 29.738C37.0826 29.4266 35.5709 29.2244 34.0506 29.1331C33.3944 29.013 32.7245 28.9865 32.0608 29.0542C32.9576 28.3426 34.0032 27.8423 35.12 27.5904C37.136 27.1872 38.9329 28.467 40.9402 28.3881C42.9475 28.3092 44.6743 26.9418 46.3485 25.9075C48.8729 24.3472 51.485 23.2778 54.4916 23.8301C56.4638 24.1631 58.1205 24.4699 60.0752 23.8301C62.3542 23.0675 64.3352 21.8754 66.7632 21.551C69.2042 21.2425 71.6836 21.522 73.9947 22.3662L74.7397 22.7519C73.3405 22.495 71.9111 22.4448 70.4973 22.6029ZM32.8936 28.1426C33.1565 27.9498 33.4224 27.7687 33.6912 27.5992L35.3917 26.7226L35.5582 26.6701C37.7058 25.8636 39.941 26.337 42.1148 25.7935C43.938 25.3114 45.4719 24.1719 47.1111 23.2866C49.1764 22.1804 51.5565 21.8095 53.8605 22.2347C55.6334 22.5644 57.452 22.5644 59.2249 22.2347C61.1701 21.6441 63.1487 21.1699 65.1503 20.8147C66.8774 20.6381 68.6218 20.7477 70.3132 21.1391C69.594 21.0656 68.8706 21.0422 68.1481 21.0689C65.9545 21.2137 63.8076 21.7697 61.8195 22.7081C60.3526 23.469 58.721 23.8574 57.0686 23.8388C55.894 23.7599 54.7545 23.4268 53.5624 23.3304C51.2841 23.2479 49.0343 23.8592 47.1111 25.0835C44.5691 26.521 42.3339 28.651 39.2222 27.9235C37.2324 27.4677 35.7949 26.9155 33.8139 27.792C33.498 27.8951 33.1878 28.0151 32.8848 28.1514L32.8936 28.1426ZM73.0217 21.5598C71.0575 20.753 68.9567 20.3304 66.8333 20.3151C64.7939 20.3758 62.7729 20.721 60.829 21.3407C58.3206 21.9662 55.7114 22.0766 53.1592 21.665C51.3767 21.3968 49.5547 21.6337 47.9 22.3487C45.5596 23.4005 43.5786 25.1536 40.9577 25.5481C39.5027 25.7672 38.109 25.7322 36.724 25.9951C38.6349 25.0222 40.5019 24.0404 42.4128 23.1639C44.6978 22.0441 47.1387 21.2758 49.6531 20.8849C51.9877 20.7231 54.3308 20.7231 56.6654 20.8849C58.7766 20.872 60.8784 20.6012 62.9239 20.0784C65.0802 19.5701 67.3066 18.8951 69.5594 19.2019C72.0663 19.5788 74.1261 21.0952 76.0633 22.7081C75.0928 22.2191 74.0732 21.8342 73.0217 21.5598ZM32.7007 26.9418C36.8029 23.4356 41.0892 19.3947 46.7254 19.1055C50.7049 18.8951 54.8334 19.4912 58.7516 18.5971C60.3294 18.2377 61.3812 17.2735 62.81 16.6424C64.4299 15.9701 66.2268 15.853 67.9202 16.3093C72.0049 17.3349 75.2919 20.4992 77.9216 23.8476L77.5534 23.6635L77.1064 23.3918C75.1166 21.7088 73.0655 19.9733 70.62 19.2808C66.3249 18.0624 61.8545 20.3502 57.5157 20.4641C55.0701 20.5255 52.6245 20.2012 50.1877 20.4641C47.9241 20.7179 45.7112 21.3088 43.6224 22.2172C39.3523 24.0579 35.1855 26.1296 31.1405 28.4231C31.6059 27.89 32.113 27.3946 32.6569 26.9418H32.7007Z" fill="#FBFBF2"/>
</svg>
