<svg width="110" height="110" viewBox="0 0 110 110" fill="none" xmlns="http://www.w3.org/2000/svg">
<path fill-rule="evenodd" clip-rule="evenodd" d="M60.8779 31.5727C61.8597 32.0636 62.631 31.2572 63.2797 30.9153C63.7618 29.7407 62.8151 27.8299 62.5171 26.7605C61.6405 26.9007 61.0795 27.7598 60.5536 28.3996C60.3529 29.2226 60.2616 30.0685 60.2819 30.9153C59.94 31.2396 60.0277 31.9146 60.6676 31.8444C60.8078 31.8795 60.6588 31.5201 60.8779 31.5727ZM62.1927 29.057C61.9824 29.0044 62.1927 28.8379 62.1402 28.6714C62.2541 28.7064 62.1489 28.9519 62.184 29.057H62.1927ZM62.3593 29.3288C62.3593 29.7232 62.3593 30.1352 61.9736 30.144C62.2453 30.0388 62.0087 29.4953 62.3505 29.3375L62.3593 29.3288ZM62.6223 30.2842C62.7888 30.2842 62.7187 30.0125 62.7274 29.8459C63.1306 29.8459 62.8502 30.293 62.9992 30.3368C62.7187 30.5121 62.6135 30.8627 62.2366 30.9416C62.3681 30.7049 62.3418 30.3193 62.5083 30.1177C62.5604 30.1621 62.5997 30.2196 62.6223 30.2842ZM62.2979 27.3303C62.1927 27.4267 62.1139 27.602 62.4031 27.5494C62.4466 27.7271 62.4643 27.9101 62.4557 28.0928C62.3856 28.1542 62.2541 28.1454 62.184 28.198C62.07 28.9606 62.184 27.6896 61.9123 27.6546C61.9341 27.5697 61.9842 27.4948 62.0543 27.4423C62.1244 27.3897 62.2103 27.3625 62.2979 27.3653V27.3303ZM62.1927 30.9942C62.0613 31.1783 61.9473 31.1783 61.7545 31.2133C61.7545 31.038 61.9123 30.9767 61.921 30.7751C61.9911 30.8978 62.0525 31.003 62.184 31.0293L62.1927 30.9942ZM61.7545 30.1177C61.886 30.1177 61.7545 30.3543 61.7545 30.3894C61.5529 30.3806 61.6844 30.2404 61.7457 30.1527L61.7545 30.1177ZM61.6405 31.1607C61.6405 31.3361 61.4302 31.2396 61.3162 31.2133C61.3863 31.1082 61.5003 31.1607 61.6405 31.1607Z" fill="#FBFBF2"/>
<path fill-rule="evenodd" clip-rule="evenodd" d="M60.0013 29.6091C59.8786 29.7231 60.0013 29.7669 60.0013 29.9335C60.2643 29.9597 60.1591 29.6179 60.0013 29.6091Z" fill="#FBFBF2"/>
<path fill-rule="evenodd" clip-rule="evenodd" d="M73.0004 64.4695C72.8338 64.0575 72.3868 64.2065 72.0712 64.0838C72.2027 63.9436 72.3955 63.6543 72.1764 63.479C71.817 63.479 71.8784 63.9085 71.6855 64.0838C71.5891 64.04 71.5278 63.9523 71.4138 63.9173C71.2648 64.1101 71.0106 64.4958 71.0281 64.6799C71.0281 64.5484 71.2999 64.6799 71.2473 64.7938C70.7301 65.0042 70.6863 65.6704 70.3707 66.1086C70.1516 67.0378 69.8623 68.0984 70.6425 68.6769C71.1051 68.775 71.5878 68.6937 71.9929 68.4497C72.398 68.2056 72.6954 67.8169 72.825 67.3621C72.8864 67.1254 72.7812 66.6872 72.825 66.3278C72.9302 65.6353 73.1932 64.9253 73.0004 64.4695ZM70.7126 67.6426C70.6074 67.292 70.4759 66.5206 70.9317 66.3278C70.8791 66.4943 70.9317 66.7222 70.7126 66.766C70.9492 66.9326 70.7564 67.4147 70.7126 67.6426ZM72.1852 65.8895C72.1436 65.8589 72.1117 65.817 72.0931 65.7689C72.0744 65.7208 72.0699 65.6684 72.08 65.6178C72.3079 65.6353 72.2027 65.7843 72.2027 65.8895H72.1852ZM71.7469 66.5469C71.7469 66.6872 71.6592 66.7134 71.6329 66.8186C71.5102 66.7748 71.5804 66.4855 71.7469 66.5469ZM71.2034 66.5995C71.4138 66.5206 71.2034 66.8449 71.4226 66.766C71.4752 66.9326 71.2999 66.8625 71.2034 66.88V66.5995ZM71.256 66.9326C71.256 67.1079 71.1596 67.1254 71.2034 67.3095C71.1245 67.3007 71.072 66.8625 71.256 66.9326ZM71.3262 68.186C71.1859 68.1159 71.3262 67.853 71.3262 67.7478C71.6066 67.9757 71.6592 67.5988 71.8696 67.5812C71.7531 67.8327 71.5637 68.0434 71.3262 68.186ZM71.9836 66.8186C71.7381 66.8186 71.9836 66.3716 71.7118 66.3804C71.722 66.3456 71.7446 66.3157 71.7752 66.2963C71.8059 66.277 71.8426 66.2694 71.8784 66.2752C71.6768 66.1086 71.8258 66.0999 71.931 66.0034C72.0362 65.907 71.8345 65.9596 71.7644 65.9509C71.7206 65.723 71.8521 65.6704 71.817 65.46C72.1589 65.8106 71.9573 66.2226 71.966 66.8186H71.9836ZM72.0887 66.2752C72.2465 66.2752 72.2465 66.4067 72.2553 66.5469C72.0887 66.5557 72.08 66.4154 72.0712 66.2752H72.0887ZM72.1939 67.59C72.1939 67.4234 72.2904 67.4322 72.2465 67.2657C72.4131 67.2744 72.3605 67.6163 72.2027 67.5812L72.1939 67.59ZM72.2027 64.8552C72.3342 64.7149 72.0887 64.6536 72.0975 64.4695C72.124 64.4307 72.1585 64.3982 72.1988 64.3741C72.2391 64.35 72.2841 64.3349 72.3308 64.3299C72.3775 64.3249 72.4247 64.3301 72.4691 64.3451C72.5136 64.3601 72.5543 64.3846 72.5884 64.4169C72.5095 64.5747 72.4744 64.8201 72.2027 64.8552Z" fill="#FBFBF2"/>
<path fill-rule="evenodd" clip-rule="evenodd" d="M71.3261 33.7027C70.9579 32.2564 69.573 31.5288 69.7395 29.767C69.5029 29.8196 69.3714 29.5917 69.0821 29.5479C68.9916 29.683 68.8542 29.7798 68.6965 29.8196C68.6439 30.2491 68.2757 30.6172 68.153 30.9679C67.9855 31.9616 67.8947 32.9667 67.8813 33.9744C67.7578 34.4552 67.7017 34.9508 67.7147 35.447C67.7733 35.6612 67.8838 35.8576 68.0365 36.0189C68.1892 36.1801 68.3792 36.3012 68.5899 36.3714C68.8006 36.4417 69.0253 36.4588 69.2442 36.4214C69.4631 36.384 69.6693 36.2932 69.8447 36.157C70.2041 35.9291 70.3268 35.4908 70.6073 35.1227C71.107 34.5354 71.3261 34.3601 71.3261 33.7027ZM69.8535 34.1935C69.7558 33.742 69.6827 33.2855 69.6344 32.8261C69.8403 33.2509 69.9281 33.7232 69.8886 34.1935H69.8535ZM68.9594 30.5383C69.0646 30.5997 69.0208 30.9591 68.9594 31.0292C68.8981 31.0993 68.8981 30.6085 68.9594 30.5383ZM68.5212 31.5727C68.4072 31.5727 68.4686 31.2396 68.5212 31.1958C68.5737 31.1519 68.5737 31.5288 68.5212 31.5727ZM68.4686 31.1344C68.3809 31.2659 68.4072 31.5025 68.1968 31.5201C68.153 31.2922 68.2932 30.9679 68.4686 31.1607V31.1344ZM68.2494 35.8327C68.1793 35.7625 68.1968 35.596 68.1968 35.447C68.302 35.5434 68.565 35.8239 68.2494 35.8414V35.8327ZM68.416 31.6253C68.4774 31.743 68.5095 31.8738 68.5095 32.0066C68.5095 32.1393 68.4774 32.2701 68.416 32.3879C68.2056 32.3002 68.4072 31.8532 68.416 31.6253ZM68.6965 34.8509C68.4411 34.3031 68.3823 33.684 68.5299 33.0979C68.5936 33.1425 68.672 33.1613 68.749 33.1504C68.5387 33.7553 69.2049 34.3688 68.749 34.4039C68.6965 34.5704 68.7753 34.772 68.6965 34.8509ZM68.8016 35.4558C68.9682 35.1139 68.8016 34.8246 68.9682 34.5792C69.1523 34.7808 69.0295 35.2804 69.2399 35.4558C69.1873 35.745 68.9507 35.5434 68.7929 35.4558H68.8016ZM69.5116 35.5609C69.5116 34.3601 68.8367 33.2206 69.0734 32.0109C69.5818 32.5807 69.1172 34.3864 69.7834 34.9649C69.8272 34.9649 69.836 34.9123 69.8886 34.9123C70.0463 34.7545 69.8886 34.4653 69.8886 34.2549C70.1165 34.2549 70.0463 34.5704 70.3268 34.5266C70.5284 33.9569 69.985 32.9576 70.0025 32.3966C70.546 33.1592 70.9755 35.3243 69.5029 35.5434L69.5116 35.5609ZM70.9316 34.2461C70.8177 33.6851 70.7037 33.4397 70.6073 32.7209C70.7721 32.9364 70.8867 33.1859 70.9428 33.4513C70.9989 33.7166 70.9951 33.9912 70.9316 34.2549V34.2461Z" fill="#FBFBF2"/>
<path fill-rule="evenodd" clip-rule="evenodd" d="M66.0142 49.9365C65.7425 49.7875 65.5321 49.9365 65.199 49.8313C64.9186 50.2433 64.4102 50.6027 64.3751 51.0848C64.1823 51.0848 64.2436 51.2776 64.0508 51.2513C63.7352 52.5311 62.4379 54.3017 62.6308 56.0635C62.6789 56.3952 62.8326 56.7025 63.069 56.9401C63.7615 57.4134 64.454 56.756 65.199 56.8875C65.9271 56.3708 66.5868 55.7641 67.1625 55.0818C67.3115 55.2308 67.3028 55.0818 67.4868 55.0818V54.8276C67.0223 54.3981 67.2063 53.653 67.1011 52.9693C66.8657 51.9173 66.5006 50.8986 66.0142 49.9365ZM63.3846 56.0022C63.4547 55.7041 63.1392 55.5551 63.3846 55.3973C63.2644 55.2202 63.2001 55.011 63.2001 54.7969C63.2001 54.5828 63.2644 54.3736 63.3846 54.1965C63.4668 54.3655 63.506 54.5522 63.4986 54.7399C63.2268 54.4332 63.4021 55.0993 63.332 55.2308C63.5599 55.3185 63.332 54.924 63.5511 55.0117C63.4372 55.2483 63.6826 55.8444 63.3846 56.0022ZM63.8755 53.8196C63.7177 53.7056 63.8755 53.4602 63.7703 53.3813C63.8667 53.2148 63.8842 53.5917 64.042 53.5478C64.042 53.6881 63.8667 53.6618 63.8755 53.8196ZM63.9281 54.5822V54.0387C63.9982 54.1527 64.2524 54.5646 63.9368 54.5822H63.9281ZM64.8572 56.3878C64.7347 56.4636 64.5955 56.5081 64.4518 56.5172C64.3081 56.5264 64.1643 56.5 64.0332 56.4404C64.1121 56.2038 64.0332 56.1336 64.0332 55.8356C64.0767 55.9356 64.1443 56.0231 64.23 56.0904C64.3157 56.1578 64.4167 56.2027 64.5241 56.2213C64.7432 56.2213 64.6556 55.9934 64.8484 56.0022L64.8572 56.3878ZM64.8046 55.3535C64.4628 54.9415 64.6994 54.1176 64.6381 53.4427C64.5728 53.0627 64.5728 52.6744 64.6381 52.2944C65.1903 52.9693 64.7432 54.477 64.8046 55.3448V55.3535ZM65.0763 53.2761C65.0325 52.7239 64.7082 51.7159 65.0237 51.1987C65.1919 52.5181 65.2477 53.8494 65.1903 55.1782C65.0695 54.5489 65.0341 53.9061 65.0851 53.2673L65.0763 53.2761ZM66.5489 52.7327C66.1808 52.3733 66.2246 51.6019 66.0055 51.0935C66.4174 51.4354 66.4087 52.2593 66.5577 52.7239L66.5489 52.7327ZM65.7337 50.4449C65.747 50.5107 65.7732 50.5733 65.8108 50.629C65.8485 50.6846 65.8967 50.7323 65.9529 50.7692C65.6548 50.962 65.7074 51.2425 65.7337 51.6983C65.6548 51.3214 65.2341 50.5325 65.7337 50.4449ZM66.0055 55.7041C65.8827 55.7041 65.7951 55.7041 65.7863 55.599C65.6286 55.599 65.7162 55.8532 65.5146 55.8181C65.4898 55.6947 65.4918 55.5675 65.5205 55.4449C65.5493 55.3224 65.604 55.2075 65.6811 55.1081C65.76 55.1694 65.7337 55.3448 65.9529 55.2746C66.172 55.2045 66.1632 54.6172 66.172 54.179C65.7162 54.3718 66.2246 53.3813 65.9003 53.1972C66.1019 53.1271 66.0931 52.6187 66.0668 52.4872C66.0179 52.5327 65.9817 52.5901 65.9616 52.6538C65.9616 52.6099 65.7337 52.4083 65.8565 52.5486C65.7425 52.7502 65.7337 52.3908 65.7425 52.2769C65.7513 52.1629 65.7425 52.4434 65.8565 52.4434C65.9704 52.4434 65.7513 52.198 65.909 52.1191C65.9967 52.2506 66.023 52.3557 66.023 52.0665C66.3736 52.5223 66.2246 53.469 66.5139 53.9773C66.5564 53.9804 66.5989 53.9722 66.6374 53.9538C66.6758 53.9353 66.7087 53.9072 66.733 53.8722C67.0486 54.6435 66.4087 55.3185 66.0142 55.7041H66.0055Z" fill="#FBFBF2"/>
<path fill-rule="evenodd" clip-rule="evenodd" d="M64.647 45.4046C64.7435 43.8619 64.0773 42.9152 63.937 41.3637C63.7716 41.1797 63.647 40.9627 63.5715 40.727C63.4959 40.4913 63.4712 40.2423 63.4988 39.9963C63.2007 40.2242 63.2095 40.1366 62.7274 40.1015C62.0048 40.6816 61.5034 41.4924 61.3074 42.3981C60.8954 42.3981 60.8078 42.9415 60.8165 43.4937C60.3082 43.8268 60.7026 45.0277 60.3257 45.2468C60.5974 46.2987 60.7114 47.6398 62.0788 47.2716C63.1154 46.9457 64.0172 46.2901 64.647 45.4046ZM62.9553 42.6698C62.7888 42.6698 62.8589 42.3981 62.8501 42.2315C63.0079 42.2403 62.929 42.5033 62.9465 42.6698H62.9553ZM63.0605 46.2724C63.1279 46.1544 63.1669 46.0224 63.1744 45.8867C63.3498 45.8867 63.3673 45.7903 63.5601 45.8341C63.525 45.9459 63.4598 46.0459 63.3717 46.1232C63.2836 46.2005 63.1759 46.2521 63.0605 46.2724ZM64.1036 44.5807C64.5068 45.0102 63.9984 45.6763 63.5601 45.7815C63.6381 45.4763 63.6938 45.1657 63.7267 44.8524C63.9546 44.9313 64.1825 44.9576 64.0948 44.5807H64.1036ZM63.4988 42.5558C63.7091 43.1081 63.7004 44.0284 63.8231 44.1424C63.9458 44.2563 63.6828 44.1424 63.5514 44.2563C63.6303 43.5025 63.2796 42.9853 63.4988 42.5558ZM63.8231 44.3615C63.8231 44.5368 63.9721 44.6858 63.7179 44.6858C63.8494 44.4579 63.7179 44.5281 63.6127 44.4141C63.5338 44.5631 63.6127 44.7209 63.4462 44.8524C63.1744 44.6332 63.4374 44.3089 63.8231 44.3615ZM63.0079 40.5398C63.49 41.0219 63.3673 42.0211 63.1744 42.7837C63.1744 43.0292 63.3673 42.7837 63.341 43.0555C62.78 42.7574 63.1394 41.3813 62.7362 40.7063C62.8589 40.68 62.8326 40.5135 63.0079 40.5398ZM62.4031 41.1446C62.5317 42.9446 62.5493 44.7508 62.4557 46.5529C62.2891 45.3695 62.3067 44.0021 62.184 42.8363C62.1226 42.2315 61.7807 41.5215 62.4031 41.1358V41.1446ZM61.3688 44.8086C61.3247 44.7555 61.2925 44.6937 61.2743 44.6271C61.2562 44.5606 61.2525 44.4909 61.2636 44.4229C61.4652 44.3703 61.3249 44.6771 61.3688 44.7998V44.8086ZM61.3162 43.5551C61.3162 43.6866 61.4214 43.8356 61.2022 43.8268C61.3425 43.7041 60.9919 43.5639 61.3074 43.5463L61.3162 43.5551ZM61.1496 46.5616C61.3337 46.5616 61.4126 46.5616 61.3688 46.3425C61.5178 46.3425 61.4827 46.4477 61.5879 46.4477C61.9999 46.0532 61.7282 45.5098 61.6405 44.8612C61.5528 44.2125 61.6405 43.2658 61.5879 42.7312C61.7895 42.512 61.7019 43.0467 61.8596 43.0555C61.7106 44.3003 61.8028 45.5621 62.1314 46.772C61.7895 46.8246 61.2022 46.9386 61.1496 46.5441V46.5616Z" fill="#FBFBF2"/>
<path fill-rule="evenodd" clip-rule="evenodd" d="M54.26 54.0298C54.2074 53.8457 54.0234 53.7931 53.9883 53.5915C53.9533 53.3899 54.0935 53.1182 53.8744 53.1532C53.6552 53.1883 53.7604 53.4337 53.6026 53.4775C53.4449 53.5214 53.4273 53.2146 53.1644 53.2584C52.9277 53.5915 52.4193 53.7843 52.13 54.1875C51.9898 54.3804 51.9284 54.8713 51.7444 55.1693C51.7444 55.2306 51.5515 55.2832 51.5252 55.3358C51.2798 55.8354 51.1658 56.5893 50.973 57.1415C50.8686 57.3546 50.7778 57.5742 50.7013 57.7989C50.5602 58.9741 50.6526 60.1656 50.973 61.3051C51.3499 61.8573 52.1563 61.7258 52.8839 61.5768C54.1373 60.858 55.7765 60.4899 55.347 58.5177C54.9074 57.0415 54.5446 55.5435 54.26 54.0298ZM51.2535 57.308C51.3762 57.3694 51.2535 57.6499 51.3061 57.7989C51.1658 57.6411 51.2535 57.5447 51.2535 57.308ZM51.6392 60.5863C51.5006 60.3996 51.4006 60.1872 51.3449 59.9615C51.2893 59.7358 51.279 59.5012 51.3149 59.2715C51.2009 59.5695 50.7977 58.395 51.1483 58.3424C51.1483 58.7368 51.3762 58.8858 51.42 59.0524C51.4639 59.2189 51.271 59.1312 51.2535 59.1575C51.236 59.1838 51.4639 59.4117 51.5778 59.4293C51.6918 59.4468 51.5252 59.4293 51.5252 59.4293C51.4844 59.5477 51.4837 59.6763 51.5234 59.7951C51.563 59.914 51.6406 60.0164 51.7444 60.0867C51.7597 60.26 51.723 60.4339 51.6392 60.5863ZM52.0775 60.148C52.0775 59.9377 51.981 59.8763 52.0249 59.6572C52.0687 59.438 51.8758 59.5169 51.8583 59.3854C51.8197 59.0686 51.7462 58.757 51.6392 58.4563C51.6129 58.2028 51.6129 57.9472 51.6392 57.6937C51.6392 57.4833 51.385 57.1415 51.6918 56.9837C51.7794 57.3431 51.8057 57.8603 51.9635 57.9654C51.8145 58.7105 52.3404 59.5871 52.0424 60.1568L52.0775 60.148ZM52.3492 56.8172C52.4631 56.861 52.393 57.0977 52.5157 57.1415C52.4018 57.308 52.3141 56.9837 52.3492 56.8172ZM52.6735 55.3446C52.7338 55.3994 52.7803 55.4676 52.8093 55.5438C52.8382 55.6199 52.8488 55.7018 52.84 55.7829C52.7644 55.7418 52.706 55.675 52.6755 55.5946C52.6449 55.5142 52.6442 55.4255 52.6735 55.3446ZM52.7787 56.3789C52.9277 56.1422 52.6735 56.0283 52.7787 55.8354C52.9189 55.9056 53.0767 56.4052 52.7874 56.3877L52.7787 56.3789ZM54.4178 57.3606C54.3812 57.4082 54.3625 57.4672 54.3652 57.5272C54.1286 57.5272 54.2688 57.4308 54.26 57.2554C54.3302 57.273 54.3477 57.3519 54.4266 57.3694L54.4178 57.3606ZM54.2513 56.1598C54.2513 56.3964 54.0847 56.1598 54.0321 56.1072C54.1728 56.436 54.2095 56.8 54.1373 57.1503C53.8744 56.2211 53.7254 55.2482 53.4799 54.1963C54.0146 54.3716 53.7955 55.704 54.26 56.1685L54.2513 56.1598ZM53.55 60.0867C53.6728 59.9201 53.6903 60.2971 53.7166 60.411C53.5325 60.3409 53.6026 60.0867 53.55 60.0867ZM54.8035 59.5345C54.7071 59.7273 54.5756 59.8851 54.4792 60.0867C54.3214 60.0078 54.3302 59.7624 54.26 59.5958C54.0935 59.6484 54.1899 59.964 53.9883 59.9815C53.8481 59.4468 54.3039 59.2189 54.1549 58.6667C54.3126 58.6229 54.2951 58.7456 54.4266 58.7193C54.5581 58.693 54.5844 58.5264 54.5931 58.395C54.5931 58.1057 54.4266 57.2467 54.5931 57.5798C54.8111 58.1947 54.8832 58.8519 54.8035 59.4994V59.5345Z" fill="#FBFBF2"/>
<path fill-rule="evenodd" clip-rule="evenodd" d="M42.9524 82.4472C42.7946 82.3245 42.6368 82.5173 42.5141 82.342C42.3914 82.1667 42.6456 81.2989 42.2424 81.2463C41.5064 82.7703 40.8681 84.3396 40.3315 85.9446C39.788 88.1272 39.1745 90.0644 40.165 92.0804C41.0415 92.2645 41.4973 91.6071 41.7515 90.9847C42.2949 90.45 43.1014 89.8978 43.1189 88.8547C43.2426 88.1126 43.3158 87.3629 43.338 86.6108C43.2066 85.2872 43.6185 83.4202 42.9524 82.4472ZM40.3227 90.2572C40.0861 89.8277 40.2614 89.5472 40.1036 89.0563C40.3315 89.0914 40.3753 89.9416 40.3315 90.266L40.3227 90.2572ZM40.3227 87.4172C40.5419 87.4172 40.3227 87.7503 40.4279 87.7415C40.2964 87.9519 40.3227 87.5399 40.3315 87.4172H40.3227ZM40.8662 87.5837C40.8224 87.8555 40.9714 88.3288 40.8136 88.2412C40.6558 88.1535 40.647 87.6889 40.8749 87.5837H40.8662ZM40.647 91.7912C40.5243 91.7912 40.647 91.5019 40.647 91.4668C40.647 91.4318 40.647 91.6772 40.8662 91.6334C40.8574 91.7386 40.647 91.6421 40.647 91.7912ZM40.8662 90.4237C40.647 90.301 40.7873 89.7225 40.761 89.7137C41.1204 89.7488 40.9801 90.0644 40.8749 90.4237H40.8662ZM41.6288 90.0381C41.2863 88.1829 41.1949 86.2902 41.3571 84.4107C41.4535 85.9534 41.6375 87.4786 41.6814 89.1615C41.7428 89.4555 41.7277 89.7604 41.6375 90.0468L41.6288 90.0381ZM41.8479 86.155C42.0767 87.1417 42.2059 88.149 42.2336 89.1615C41.8216 88.3726 42.0583 87.0754 41.8567 86.1637L41.8479 86.155ZM42.5053 87.7415C42.2978 86.5666 42.1515 85.3817 42.067 84.1915C42.3826 84.6473 42.1547 85.182 42.4527 85.5063C42.3563 85.5063 42.3475 85.5063 42.3475 85.4012C42.1547 85.7342 42.4527 85.9972 42.5141 86.2777C42.5141 86.4004 42.4264 86.5494 42.4615 86.6634C42.4966 86.7773 42.6543 86.8124 42.6806 86.8825C42.7858 87.2068 42.4878 87.3383 42.5141 87.7503L42.5053 87.7415ZM42.5053 82.7715C42.7508 82.9381 42.7595 83.35 42.777 83.7533C42.6353 83.446 42.5464 83.1171 42.5141 82.7803L42.5053 82.7715Z" fill="#FBFBF2"/>
<path fill-rule="evenodd" clip-rule="evenodd" d="M79.566 38.0767C79.2415 38.2209 78.9605 38.4475 78.7508 38.7341C78.5229 38.997 78.2337 39.3038 78.0408 39.558C77.3659 40.4346 77.699 41.6617 77.6025 43.0028C77.7513 43.2832 77.9151 43.5554 78.0934 43.818C79.0582 43.8932 80.0159 43.6022 80.7756 43.0028C80.9685 41.3374 79.978 39.6457 79.566 38.0767ZM78.146 39.9875C77.997 39.9174 78.2161 39.7684 78.2599 39.7158C78.444 39.8297 78.1372 39.9262 78.1372 39.9875H78.146ZM78.856 40.5923C78.6106 40.4872 78.856 40.2067 78.8034 39.9349C78.9875 39.9788 78.7771 40.3294 78.8472 40.5923H78.856ZM78.9086 43.3272C79.1803 43.0993 78.9787 42.6785 79.2943 42.5646C79.4082 42.7574 79.4082 43.073 79.7325 43.0554C79.5835 43.2746 79.2767 43.3272 78.9086 43.3272ZM79.7851 40.5923C79.7062 40.5923 79.7413 40.7326 79.7325 40.8115C79.4783 40.6011 79.5046 39.8473 79.5134 39.558C79.7851 39.7421 79.5134 40.3732 79.8377 40.5923C79.829 40.6537 79.7851 40.6186 79.7851 40.5923ZM79.8903 42.398C79.8783 42.2326 79.8961 42.0663 79.9429 41.9072H80.162C80.1533 42.1438 80.0919 42.3542 79.8903 42.398ZM80.3286 42.6172C80.2226 42.4154 80.1828 42.1854 80.2146 41.9597C80.2935 42.1876 80.5477 42.398 80.3286 42.6172Z" fill="#FBFBF2"/>
<path fill-rule="evenodd" clip-rule="evenodd" d="M79.5042 52.829C79.25 53.0394 80.0214 53.6529 79.4516 53.8633C79.3026 52.8115 78.6189 52.2943 78.1894 51.5142C77.8125 51.4616 77.8212 51.7947 77.4794 51.7859C77.3997 52.1994 77.2324 52.5909 76.9885 52.9342C76.8045 54.3629 75.9279 55.5638 76.3837 57.1416C76.6204 57.8516 77.7336 58.0181 78.4611 57.6325C78.6101 57.1679 79.3377 56.8962 79.6094 56.2125C79.6643 55.753 79.6848 55.29 79.6708 54.8275C79.7935 53.951 80.2756 53.1183 79.5042 52.829ZM76.6642 56.3352C76.7694 56.528 76.822 56.9225 76.8833 56.9926C76.6905 57.0978 76.673 56.5806 76.6642 56.3264V56.3352ZM76.8833 54.7486C77.075 55.34 77.1668 55.9591 77.1551 56.5806C76.8326 56.0243 76.7353 55.3656 76.8833 54.7399V54.7486ZM77.269 53.6529C77.3872 53.8086 77.4463 54.0012 77.4356 54.1964C77.1113 54.2402 77.2077 53.8721 77.269 53.6529ZM77.7599 54.3629V54.8275C77.6372 54.8275 77.7599 54.5558 77.7073 54.4418C77.6273 54.1748 77.6093 53.893 77.6547 53.6179C77.6547 53.5215 77.7073 53.5039 77.7073 53.5653C77.7073 53.6266 77.7336 54.1 77.7599 54.3629ZM77.979 52.0664C78.5137 52.2592 78.2946 53.5127 78.3121 54.1438C78.3121 54.4418 78.4348 54.661 78.2595 54.7399C78.1806 53.7494 78.0141 52.9166 77.979 52.0664ZM78.4173 55.7304C78.4173 55.8618 78.3209 55.8531 78.3647 56.0021C78.2332 55.4674 78.3384 54.9502 78.4173 55.7041V55.7304ZM78.7416 56.7121C78.5575 56.6595 78.7416 56.6069 78.689 56.4404C78.5137 56.4404 78.6452 56.7997 78.3647 56.7121C78.2508 56.3702 78.4874 56.4053 78.5313 56.1073C78.6978 56.0547 78.6277 56.23 78.6364 56.3264C79.1273 55.6778 78.6364 54.4857 78.7416 53.6968C79.0835 53.837 78.9345 54.3016 79.0133 54.6259C79.0922 54.9502 79.3727 55.3184 79.3377 55.7216C79.3026 56.1248 79.0484 56.3702 78.7416 56.7121Z" fill="#FBFBF2"/>
<path fill-rule="evenodd" clip-rule="evenodd" d="M68.1968 17.9689C68.0127 17.8199 68.0566 17.4517 67.9777 17.2063C67.8988 16.9609 68.1442 17.0836 68.0829 16.882C67.855 16.882 67.8988 16.6716 67.6972 16.6628C67.415 16.8082 67.1851 17.038 67.0398 17.3202C66.6804 17.4342 66.5577 17.7848 66.435 18.1354C66.9346 18.2231 66.9784 17.4079 67.4693 17.3202C67.294 17.7101 67.0733 18.0778 66.8119 18.4159C66.7417 18.3458 66.6453 18.3107 66.7593 18.1968C66.4525 18.3633 66.3911 18.7753 66.2158 19.0733C66.1457 18.863 66.3824 18.6614 66.2158 18.5299C65.9348 19.1341 65.7514 19.7791 65.6724 20.4407C65.6724 20.879 65.9879 21.2033 66.0055 21.6942C67.1274 22.5707 68.2143 21.2647 68.3546 20.0551C68.4335 19.3451 68.1179 18.6789 68.1968 17.9689ZM67.4342 17.8023C67.89 18.0127 67.4342 18.8191 67.6533 19.0558C67.6533 19.2223 67.5131 19.2399 67.4868 19.3801C67.3619 18.8633 67.344 18.3264 67.4342 17.8023ZM66.5051 18.7315C66.6103 19.3451 66.172 19.7921 66.0668 20.2654C66.134 19.7348 66.2818 19.2175 66.5051 18.7315ZM67.3816 21.2472C67.2589 21.1595 67.5832 21.0543 67.6008 20.9228C67.6709 20.9228 67.6446 21.0631 67.6533 21.142C67.6014 21.1289 67.5468 21.1319 67.4967 21.1507C67.4465 21.1695 67.4033 21.2032 67.3729 21.2472H67.3816ZM67.8725 20.318C67.6271 20.318 67.592 20.318 67.6533 20.6423C67.145 20.5722 67.0924 21.3786 66.3999 21.2998C66.4924 20.9423 66.5279 20.5726 66.5051 20.2041C66.6629 20.283 66.6979 20.5196 66.9434 20.3706C66.9434 20.6073 66.8645 20.6248 66.9959 20.7563C67.0448 20.6954 67.0803 20.6249 67.0999 20.5494C67.1196 20.4738 67.123 20.395 67.1099 20.318C67.4342 20.318 67.5219 20.2041 67.8725 20.1515V20.318Z" fill="#FBFBF2"/>
<path fill-rule="evenodd" clip-rule="evenodd" d="M66.1193 86.6019C65.9384 86.5764 65.7683 86.5005 65.6285 86.3828C65.4532 86.1198 65.6285 85.5062 65.3567 85.3485C65.085 85.1907 65.2253 85.7341 65.0324 85.7867C65.0324 85.5676 64.9185 85.7867 64.8133 85.7341C64.5891 86.1319 64.407 86.552 64.2698 86.9876C64.1822 87.198 63.928 87.3645 63.8316 87.5924C63.7351 87.8203 63.6475 88.3112 63.5072 88.6881C63.367 89.065 63.1654 89.3718 63.069 89.6698C62.8369 90.2795 62.7707 90.9398 62.8769 91.5834C62.9832 92.227 63.2581 92.831 63.6738 93.3338C64.068 93.4125 64.4768 93.371 64.8472 93.2147C65.2176 93.0585 65.5325 92.7946 65.7512 92.4572C65.8739 92.3082 65.909 92.0365 66.0229 91.9138C66.1369 91.791 66.2508 91.8173 66.2946 91.7472C66.917 90.8707 66.5751 89.3455 66.5664 88.1972C66.2683 87.8028 66.3297 87.0577 66.1193 86.6019ZM63.2793 91.4141C63.0865 91.2476 63.2267 90.9759 63.2267 90.7041C63.3495 90.8268 63.2443 91.1862 63.2793 91.4054V91.4141ZM63.6037 91.3615C63.6037 91.1687 63.7527 91.3615 63.7702 91.2563C63.8403 91.3615 63.7702 91.4755 63.8228 91.6946C63.6475 91.642 63.7001 91.4404 63.6037 91.3528V91.3615ZM63.8754 92.6764C63.7176 92.501 63.7702 92.0803 63.7702 91.7998C63.814 92.054 63.9893 92.4222 63.8754 92.6676V92.6764ZM63.9893 90.1607C63.8781 90.0155 63.8047 89.845 63.7756 89.6645C63.7465 89.484 63.7628 89.2991 63.8228 89.1263C64.0945 89.2403 63.8228 89.5296 64.0945 89.6698C63.9367 89.775 64.0507 89.8889 63.9893 90.1519V90.1607ZM64.2611 88.7933C64.0682 88.5917 64.0156 87.9167 64.2611 87.8641C64.2172 88.1359 64.3137 88.4164 64.2611 88.7845V88.7933ZM64.6993 88.9072C64.6103 88.7183 64.5917 88.5038 64.6467 88.3024C64.702 88.3905 64.7356 88.4905 64.7448 88.5941C64.7539 88.6977 64.7383 88.802 64.6993 88.8985V88.9072ZM64.7519 92.5186C64.7519 92.2206 64.8133 92.1417 64.7519 91.9138C64.9623 91.9138 64.9009 92.2731 65.1902 92.2381C65.1422 92.3141 65.078 92.3786 65.0023 92.4271C64.9265 92.4756 64.8411 92.5068 64.7519 92.5186ZM64.9185 86.6194C64.9185 86.374 65.1113 86.374 65.1376 86.1812C65.3304 86.225 65.234 86.5931 65.3041 86.6194C65.1902 86.7509 65.0762 86.5143 64.9185 86.6545V86.6194ZM65.3567 87.1629C65.5911 87.5361 65.6872 87.9796 65.6285 88.4164C65.2954 88.2849 65.5671 87.496 65.3567 87.2067V87.1629ZM65.4619 92.0277C65.4006 91.8173 65.6723 91.4755 65.6285 91.0986C65.8038 91.0986 65.8827 91.0986 66.0141 91.046V90.0993C65.9002 89.9152 65.8038 90.3097 65.7424 90.1519C65.7424 89.7399 65.9002 89.5822 65.8564 89.3367C66.093 89.3893 66.0843 89.9503 66.1281 90.3184C66.169 90.6416 66.1296 90.9698 66.0134 91.274C65.8972 91.5783 65.7078 91.8492 65.4619 92.0628V92.0277ZM65.9528 87.382C65.8827 87.1717 65.6635 87.1278 65.7337 86.7772C66.1058 87.3858 66.2945 88.0889 66.2771 88.802C65.9353 88.6004 66.0667 87.8992 65.9528 87.4259V87.382Z" fill="#FBFBF2"/>
<path fill-rule="evenodd" clip-rule="evenodd" d="M65.8475 71.5781C65.3216 69.7286 65.3741 67.7564 64.3749 66.3188C64.1032 66.3802 64.0593 66.1961 63.8314 66.2049C63.6123 66.8272 62.9549 67.4058 62.6306 68.2297C62.5079 68.519 62.5254 68.9047 62.4114 69.2114C62.2975 69.5182 62.0608 69.7374 61.9732 70.0266C61.7751 70.6319 61.6774 71.2656 61.6839 71.9024C61.6839 72.1216 61.8592 72.3495 61.903 72.6124C61.9819 73.0595 61.903 73.6205 62.2887 73.8133C63.9103 73.6205 65.3654 73.0595 65.8475 71.5781ZM62.7358 72.1829C62.6656 72.0164 62.8935 71.8761 62.7358 71.7972C62.9198 71.5693 62.99 72.2355 62.727 72.1742L62.7358 72.1829ZM62.8935 73.2348C62.8935 73.0858 62.8935 72.9192 62.9461 72.8491C62.9987 72.779 63.0776 73.2786 62.8935 73.2348ZM64.147 72.253C64.0491 71.3799 64.0315 70.4997 64.0944 69.6234C64.2878 70.4785 64.3086 71.3635 64.1558 72.2267L64.147 72.253ZM63.9804 67.6074C64.1119 67.4233 63.9103 67.1866 63.9804 66.8974C64.147 66.985 64.0418 67.3444 64.3048 67.3356C64.217 67.4377 64.1097 67.5211 63.9892 67.5811L63.9804 67.6074ZM64.4187 67.66C64.8395 67.8791 64.5853 68.8345 64.5239 69.2465C64.3135 68.9397 64.4625 68.2998 64.4275 67.6424L64.4187 67.66ZM64.7518 70.6051C64.7764 70.7929 64.7395 70.9836 64.6466 71.1486C64.5327 71.0785 64.5677 70.6051 64.7518 70.6051ZM64.7518 72.4108C64.9534 72.0251 65.3566 71.5343 65.2427 71.1486C65.4793 71.1486 65.3128 71.6219 65.6196 71.5869C65.3939 71.931 65.0982 72.2237 64.7518 72.4459V72.4108Z" fill="#FBFBF2"/>
<path fill-rule="evenodd" clip-rule="evenodd" d="M58.6334 21.7904C58.423 21.6239 58.0811 20.9928 58.3616 20.8613C58.4931 21.0366 58.5194 21.5538 58.686 21.5187C58.9401 20.537 58.2301 19.6692 57.8094 19.003C57.8094 19.1082 57.8094 19.117 57.7042 19.0556C57.7568 18.0651 56.7313 17.7058 56.7225 16.5925C56.8452 16.4786 57.0819 16.4786 57.1082 16.2682C56.2316 16.2069 55.9424 17.2499 55.3551 17.6882C55.4427 18.0739 55.1798 18.2492 55.1885 18.3982C55.022 18.3982 55.0834 18.2492 54.9168 18.293C54.724 18.5385 54.9168 19.1696 54.6451 19.3274C54.5136 19.3274 54.5224 19.2309 54.3734 19.2748C54.0578 20.8613 53.1374 22.7809 54.049 24.3587C55.3814 25.4369 57.2922 24.6304 58.3704 23.8153C58.712 23.0411 58.8968 22.2069 58.9139 21.3609C58.5983 21.4048 58.87 21.7116 58.6334 21.7904ZM57.8182 19.1608C57.8746 19.1973 57.9232 19.2449 57.9608 19.3006C57.9985 19.3563 58.0245 19.4191 58.0373 19.4851H57.8708C57.8708 19.6429 58.1688 19.5903 58.1425 19.8182C58.1162 20.0461 58.0548 19.5465 57.8094 19.6517C57.8094 19.415 57.6341 19.3712 57.6429 19.266C57.6516 19.1608 57.862 19.4238 57.8094 19.1696L57.8182 19.1608ZM55.1885 23.2017C55.1246 23.1156 55.0858 23.0135 55.0765 22.9067C55.0672 22.7999 55.0878 22.6926 55.1359 22.5969C55.2937 22.7459 55.2324 23.0088 55.1885 23.2104V23.2017ZM54.5311 23.9117C54.5311 23.8153 54.8204 23.9117 54.7503 24.1308C54.5662 24.1483 54.6714 23.9467 54.5311 23.9204V23.9117ZM54.9168 19.8182C55.1009 20.6071 54.9957 21.3609 55.1359 22.3339C54.9198 21.9075 54.7888 21.443 54.7503 20.9665C54.6806 20.5786 54.739 20.1787 54.9168 19.827V19.8182ZM55.4603 24.3499C55.2061 24.3499 54.8467 24.4201 54.8029 24.1834C55.0746 24.3237 55.3288 23.9117 55.5129 24.1834C55.5479 24.2886 55.469 24.2886 55.4603 24.3587V24.3499ZM55.5479 21.5713C55.2982 20.664 55.2415 19.7145 55.3814 18.7839C55.5925 19.6812 55.7129 20.5974 55.7408 21.5187C55.891 22.4225 55.9643 23.3374 55.9599 24.2535C55.5662 23.4181 55.4231 22.4864 55.5479 21.5713ZM56.4245 23.6487C55.9424 22.1761 56.0651 20.1425 55.7145 18.1878C55.8898 18.1878 55.7145 17.8635 55.9862 17.9161C56.2141 19.0293 55.9862 20.5896 56.3719 21.4223C56.1878 22.0885 56.705 22.8861 56.4245 23.6487ZM57.1345 23.7627C56.4245 22.1148 56.6874 19.1871 56.1703 17.3113C56.5559 17.8715 56.7469 18.5429 56.7137 19.2222C56.9922 20.7201 57.1417 22.2392 57.1608 23.7627H57.1345ZM57.1345 19.4413C57.2558 20.0205 57.3465 20.6057 57.4062 21.1944C57.1345 20.835 57.2484 19.9935 57.1608 19.4413H57.1345ZM57.6779 22.6056C57.5815 22.6056 57.564 22.5443 57.4588 22.553C57.5026 22.4303 57.4588 22.3427 57.6253 22.2287C57.7919 22.1148 57.7919 22.4216 57.8445 22.553C57.8182 22.5267 57.6692 22.3953 57.7042 22.6144L57.6779 22.6056ZM58.0636 23.0439C58.013 23.054 57.9606 23.0494 57.9124 23.0308C57.8643 23.0122 57.8225 22.9802 57.7919 22.9387C58.2564 22.2901 57.7042 21.4749 57.6867 20.4844C57.9528 20.8498 58.1282 21.2733 58.1983 21.7199C58.2685 22.1664 58.2313 22.6233 58.0899 23.0527L58.0636 23.0439Z" fill="#FBFBF2"/>
<path fill-rule="evenodd" clip-rule="evenodd" d="M55.3027 32.0371C55.3027 32.1336 55.3815 32.1774 55.3027 32.2037C55.2238 32.23 54.917 31.8969 54.9783 31.818C55.1887 31.7391 54.9783 32.0634 55.1975 31.9845C55.1361 31.6076 54.7417 31.5726 54.7592 31.108C54.0936 30.7021 53.5606 30.1113 53.2252 29.4075C52.7607 29.3462 52.8396 28.7326 52.3487 28.6975C52.2969 28.8556 52.2789 29.0229 52.2961 29.1884C52.0185 29.486 51.807 29.8391 51.6755 30.2243C51.5441 30.6096 51.4957 31.0183 51.5335 31.4236C50.8273 32.9901 50.6518 34.7445 51.0339 36.4199C51.4108 36.9282 51.8403 36.8669 52.4539 37.0773C52.803 37.2608 53.1702 37.4076 53.5496 37.5155C56.7665 37.7347 57.3713 33.6237 55.3027 32.0371ZM52.1909 32.0371C52.3487 32.1073 52.2698 32.2475 52.2961 32.528C52.0419 32.4842 52.1822 32.23 52.1822 32.0371H52.1909ZM51.253 35.6222C51.1493 34.8709 51.206 34.106 51.4196 33.3783C51.7702 34.1408 51.2092 34.9736 51.253 35.6222ZM52.1296 35.8939C52.0115 35.6549 51.9372 35.3966 51.9104 35.1313C52.3925 35.2891 52.0419 35.3855 52.1296 35.8939ZM52.1296 32.6682C52.4364 32.9487 52.1734 33.1065 52.4539 33.3783C52.1033 33.3958 51.9543 32.8436 52.1296 32.6682ZM52.3487 35.8939C52.4371 35.9674 52.5075 36.06 52.5546 36.1649C52.6017 36.2697 52.6242 36.3839 52.6204 36.4987C52.3312 36.49 52.3575 36.1744 52.3487 35.8939ZM52.9185 34.5265C52.9185 34.4213 52.8483 34.1934 53.0236 34.2548C52.9535 34.3249 53.0236 34.4213 53.0762 34.4739C53.1288 34.5265 52.9185 34.5178 52.9185 34.5265ZM54.8293 35.6748C54.8293 35.8326 54.8732 36.0517 54.7241 36.0605C54.5751 36.0692 54.5401 35.8501 54.505 35.6748H54.8293ZM54.2859 34.0357C54.207 34.0357 54.242 34.1671 54.2333 34.2548C53.9177 33.9217 54.0229 33.0452 53.909 32.6157C54.5225 32.8962 54.5138 33.799 54.5664 34.6405C54.3472 34.5265 54.3385 34.246 54.2596 34.0357H54.2859ZM53.3304 36.4199C53.4181 36.2445 53.3304 36.2095 53.3304 35.9816C53.4794 36.0342 53.4006 36.3147 53.6022 36.3059C53.6635 36.5163 53.4356 36.4199 53.3304 36.4199ZM53.4444 31.555C53.452 31.3723 53.4343 31.1894 53.3918 31.0116C53.6193 31.1288 53.8076 31.3098 53.9337 31.5324C54.0599 31.7551 54.1183 32.0097 54.1018 32.265C53.795 32.1423 53.8827 31.5901 53.4444 31.5726V31.555ZM53.7687 37.0773C54.1106 36.788 54.505 36.9633 54.8644 36.8581C54.5839 37.1474 54.1982 37.0422 53.795 37.0948L53.7687 37.0773ZM55.5481 32.9137C55.3728 32.9575 55.4341 32.7734 55.329 32.7471C55.4166 32.5806 55.6445 32.7208 55.5481 32.9137ZM55.7409 34.6668C55.5692 34.4062 55.475 34.1022 55.4692 33.7902C55.7322 34.0269 55.7848 34.246 55.7409 34.6668ZM55.3027 35.0524C55.925 35.0524 55.4867 35.6485 55.2501 35.7099C55.2501 35.6573 55.1799 35.7099 55.1449 35.6573C55.0923 35.3768 55.4078 35.4294 55.3027 35.07V35.0524ZM56.1266 35.219C56.2143 35.2716 56.1266 35.5871 55.9601 35.6047C55.9338 35.4118 56.0653 35.3592 56.1178 35.2365L56.1266 35.219ZM55.2501 36.6916C54.8556 36.1744 55.8023 36.0868 55.9075 35.7099C55.9864 36.1481 55.4429 36.4199 55.2413 36.7091L55.2501 36.6916ZM55.5481 32.9137C55.6464 32.9934 55.7263 33.0934 55.7823 33.2069C55.8383 33.3203 55.869 33.4446 55.8724 33.5711C55.7741 33.4914 55.6942 33.3914 55.6382 33.2779C55.5822 33.1644 55.5515 33.0402 55.5481 32.9137Z" fill="#FBFBF2"/>
<path fill-rule="evenodd" clip-rule="evenodd" d="M55.0838 45.7814C54.9348 45.0714 54.3212 44.5192 54.3738 43.8706C54.2511 43.7566 54.067 43.704 53.9881 43.5463C53.7252 42.8976 53.6989 42.0123 53.1116 41.688C52.235 42.2139 51.7529 43.6427 51.4199 44.9137C51.1218 44.9926 51.227 45.4834 50.9816 45.6237C50.7651 46.7459 50.783 47.9009 51.0342 49.0159C51.407 49.5952 51.8262 50.1434 52.2876 50.655C52.9007 50.7018 53.5144 50.5723 54.0564 50.2819C54.5984 49.9915 55.0461 49.5523 55.3468 49.0159C55.7062 48.3672 55.2942 47.8238 55.1276 47.0524C55.0487 46.6054 55.1539 46.1233 55.0838 45.7814ZM53.059 42.2314C53.2168 42.2314 53.1642 42.4944 53.2255 42.6171C53.1642 42.6171 53.0152 42.398 52.9538 42.5645C52.796 42.4681 53.0678 42.3542 53.059 42.2314ZM51.1657 46.4914C51.3673 46.7456 51.3059 47.2628 51.3322 47.6923C51.1605 47.3169 51.1026 46.8994 51.1657 46.4914ZM51.4987 46.3249C51.4023 46.3249 51.227 46.2723 51.2796 46.4301C51.0955 46.0444 51.3848 45.6675 51.4462 45.3344C51.6039 45.5623 51.49 46.0619 51.5338 46.3249H51.4987ZM51.937 48.078C51.6741 47.7975 51.8669 47.631 51.7705 47.2628C52.0422 47.4118 51.9984 47.815 51.9633 48.078H51.937ZM52.1562 49.0597C52.3402 49.0597 52.2438 49.2964 52.3227 49.384C52.1649 49.4103 52.2613 49.1474 52.1824 49.0597H52.1562ZM53.4184 50.1554C53.0064 50.2343 52.6032 50.3658 52.3227 50.1028C52.8136 50.1028 53.1554 50.2168 53.4184 49.9976V50.1554ZM54.1284 49.2789C53.5937 49.0772 53.8479 48.4023 53.8041 47.964C54.0144 48.2621 54.4089 48.8932 54.1547 49.2789H54.1284ZM54.8384 48.7354C54.5579 48.7354 54.7683 48.1131 54.5141 48.2445C54.5072 47.4239 54.4516 46.6043 54.3475 45.7902C54.7579 46.6995 54.9356 47.6965 54.8647 48.6916L54.8384 48.7354Z" fill="#FBFBF2"/>
<path fill-rule="evenodd" clip-rule="evenodd" d="M53.2255 67.4233C52.6781 67.7863 52.2818 68.3363 52.1107 68.9704C51.9397 69.6045 52.0057 70.2792 52.2963 70.8682C53.9355 71.2188 53.7601 68.8872 53.3394 67.809C53.278 67.5811 53.4972 67.4233 53.2255 67.4233ZM52.4629 69.9916C52.3314 69.6147 52.2788 69.1151 52.682 68.8959C52.6031 69.2641 52.3664 69.4657 52.4541 69.9916H52.4629ZM52.7346 70.649C52.6732 70.5438 53.0238 70.3948 52.9011 70.0442C53.0677 70.0442 53.0414 70.237 53.0677 70.3685C52.9187 70.4036 52.8748 70.6052 52.7346 70.6052V70.649ZM53.0589 68.1859C53.1816 68.1859 53.1729 68.3262 53.1641 68.4577C52.9187 68.4664 53.0238 68.3174 53.0589 68.1859Z" fill="#FBFBF2"/>
<path fill-rule="evenodd" clip-rule="evenodd" d="M53.2778 79.2831C53.2778 79.1166 53.4531 79.1253 53.383 78.8974C52.9973 78.4328 52.9359 77.1443 52.7255 76.4957C52.7255 76.3905 52.9009 76.4957 52.8921 76.3291C52.6851 75.9296 52.5206 75.5095 52.4012 75.0757C51.9542 75.251 51.998 75.7331 51.3669 75.6191C51.288 76.0837 50.9988 76.3467 50.9812 76.8726C50.2274 77.7491 49.4823 81.7462 51.3669 81.8426C52.2434 81.194 53.3742 80.5015 53.4443 79.213C53.383 79.0377 53.4268 79.3707 53.2778 79.2831ZM50.6481 79.064C50.6535 79.8031 50.7626 80.5378 50.9725 81.2465C50.5868 81.0274 50.5342 79.6249 50.6569 79.064H50.6481ZM51.849 80.8696C51.7908 80.8032 51.7545 80.7204 51.7451 80.6325C51.7357 80.5447 51.7536 80.4561 51.7964 80.3788C51.9805 80.4664 51.8753 80.6768 51.8578 80.8609L51.849 80.8696ZM51.7964 78.8974C51.7119 78.5029 51.6941 78.097 51.7438 77.6965C51.8841 77.6965 51.7438 78.1786 51.9104 78.4066C51.7789 78.5994 51.8402 78.652 51.8052 78.8974H51.7964ZM52.3399 80.3174C52.2573 79.5922 52.2573 78.86 52.3399 78.1348C52.4174 78.2774 52.4579 78.4371 52.4579 78.5994C52.4579 78.7617 52.4174 78.9214 52.3399 79.064C52.4713 79.5198 52.6642 79.9843 52.3486 80.3174H52.3399ZM52.8833 79.8791C52.8548 79.5174 52.8548 79.154 52.8833 78.7922C53.12 78.7922 53.1112 79.362 53.2164 79.3357C53.2865 79.6337 52.9973 79.7652 52.9184 79.8791H52.8833Z" fill="#FBFBF2"/>
<path fill-rule="evenodd" clip-rule="evenodd" d="M46.2307 23.9818C46.0817 24.1045 45.5996 23.5961 45.845 23.4909C45.7311 23.3857 45.7924 23.3857 45.6785 23.4909C45.2371 22.6693 44.8704 21.8098 44.5828 20.9226C44.2585 20.9226 44.3286 20.5895 44.0394 20.5983C43.829 20.9139 43.7063 21.3258 43.3294 21.4749C42.973 23 42.4221 24.4729 41.6902 25.8576C42.0321 26.6815 41.1731 27.8473 41.6902 28.9693C42.2773 29.3873 42.9529 29.664 43.6644 29.7781C44.3759 29.8921 45.1042 29.8403 45.7924 29.6267C46.5347 29.3146 47.1903 28.8274 47.7033 28.2067C47.8195 27.506 47.755 26.7872 47.5157 26.1184C47.2764 25.4496 46.8703 24.8529 46.3359 24.385C46.222 24.2009 46.3973 24.0957 46.2307 23.9818ZM44.7055 23.3244C44.5741 23.2542 44.6003 23.0263 44.539 22.8861C44.7143 22.9036 44.688 23.1315 44.6968 23.3244H44.7055ZM44.4338 24.0344C44.3016 23.6801 44.2076 23.3128 44.1533 22.9387C44.3812 23.1666 44.39 23.6136 44.425 24.0344H44.4338ZM41.9181 28.4171C42.0047 28.4413 42.0819 28.4911 42.1398 28.5599C42.1977 28.6287 42.2334 28.7133 42.2424 28.8028C42.0058 28.8378 41.9444 28.6713 41.9094 28.4609L41.9181 28.4171ZM42.7333 25.1914C42.8823 25.5157 42.7333 25.8225 42.8999 26.1731C42.5492 25.9891 42.558 25.6121 42.7333 25.2352V25.1914ZM42.8999 28.5836C42.8999 28.4258 43.2417 28.6275 43.2242 28.4784C43.3995 28.4784 43.2242 28.7326 43.3907 28.7502C43.2066 28.9605 43.0138 28.6888 42.8911 28.6275L42.8999 28.5836ZM43.5047 25.4719C43.1803 25.4719 43.5047 25.095 43.3381 24.981C43.3907 24.8934 43.4871 24.8583 43.5573 24.9284C43.4871 24.7093 43.1365 24.534 43.5047 24.385C43.6427 24.7468 43.6395 25.1473 43.4959 25.507L43.5047 25.4719ZM44.2673 28.9167C44.0713 28.3536 43.9793 27.7596 43.9955 27.1636C44.2404 27.7258 44.3311 28.3429 44.2585 28.9518L44.2673 28.9167ZM44.9247 28.8641C44.4864 28.6625 44.7494 27.8649 44.4338 27.6633C44.4338 26.5676 43.9955 25.4281 43.9429 24.0607C44.4163 25.4544 44.4776 27.0672 44.9247 28.1629C44.9924 28.4041 44.9894 28.6597 44.9159 28.8992L44.9247 28.8641ZM45.5295 28.8115C45.0297 27.3367 44.663 25.82 44.4338 24.2798C44.8545 25.5858 45.0824 26.8568 45.3629 27.9437C45.5382 27.8999 45.4769 27.8999 45.5821 27.9963C45.5233 28.2727 45.5027 28.5558 45.5207 28.8378L45.5295 28.8115ZM45.4243 23.8941C46.1606 24.7707 45.8012 25.8225 46.1869 26.8481C46.2345 26.8114 46.2934 26.7928 46.3534 26.7955C46.3534 27.0321 46.406 27.3565 46.3008 27.5055C45.9003 26.3384 45.6012 25.1389 45.4068 23.9204L45.4243 23.8941ZM46.9407 26.7779C47.0668 26.9719 47.1376 27.1966 47.1454 27.4279C47.1532 27.6591 47.0978 27.8881 46.985 28.0901C46.8723 28.2922 46.7065 28.4596 46.5056 28.5744C46.3048 28.6891 46.0763 28.7469 45.845 28.7414C45.9678 28.5573 46.2132 28.4872 46.1694 28.1454C46.5112 28.4258 46.7479 28.0577 46.6076 27.6545C47.1423 27.7071 46.9495 27.1198 46.9407 26.7779ZM46.555 25.9628C46.669 25.9628 46.555 25.6998 46.7216 25.8488C46.8881 25.9978 46.6515 26.4186 46.669 26.7254C46.4173 26.1357 46.269 25.5071 46.2307 24.8671C46.4154 24.9818 46.5508 25.161 46.6107 25.37C46.6707 25.5789 46.6508 25.8027 46.555 25.9978V25.9628Z" fill="#FBFBF2"/>
<path fill-rule="evenodd" clip-rule="evenodd" d="M43.4959 35.5434C43.1278 35.6661 43.4433 35.4294 43.2242 35.3242C42.6019 35.4031 42.7684 36.2534 42.4003 36.5864C42.2863 36.5251 42.1724 36.3235 42.0146 36.4813C41.9514 36.8222 41.9337 37.17 41.962 37.5156C41.3484 38.8392 40.4719 41.0217 40.7085 42.7748C40.8575 43.9056 41.6903 44.414 43.2768 44.1422C43.3557 44.2211 43.2768 44.4578 43.4959 44.414H43.7151C43.8134 44.3343 43.8933 44.2343 43.9492 44.1208C44.0052 44.0073 44.036 43.8831 44.0394 43.7566C44.4321 43.5745 44.7617 43.2797 44.9865 42.9098C45.2112 42.5399 45.3209 42.1116 45.3016 41.6792C45.3892 39.555 44.6901 37.4733 43.3382 35.8326C43.3644 35.7011 43.5398 35.7187 43.4959 35.5434ZM44.1533 43.0816C44.0306 42.8625 44.1533 42.7135 44.4251 42.6959C44.4075 42.8625 44.3374 43.0115 44.1533 43.0466V43.0816ZM44.6968 39.3651C45.0189 40.4194 44.9408 41.5554 44.4777 42.5557C44.3336 41.525 44.2983 40.482 44.3725 39.444C44.4777 39.4527 44.5565 39.4966 44.6968 39.33V39.3651ZM44.092 37.8311C44.3024 38.1029 44.7845 38.9356 44.1446 39.0846C44.073 38.6619 44.0583 38.2315 44.1007 37.8048L44.092 37.8311ZM42.672 37.1737C42.7333 38.5499 42.8298 41.1182 42.7772 42.9063C42.3652 42.0298 42.5668 40.6185 42.5054 39.4615C42.4791 38.8304 42.1636 37.8224 42.6807 37.1474L42.672 37.1737ZM41.3572 39.9085C41.5325 40.1715 41.2695 40.4783 41.252 40.7237C41.138 40.4871 41.401 40.1978 41.3659 39.8822L41.3572 39.9085ZM41.5763 43.292C41.3811 42.6921 41.3448 42.0518 41.4711 41.4337C41.7162 42.0137 41.7564 42.6598 41.5851 43.2657L41.5763 43.292ZM41.7954 43.4585C41.962 43.3446 42.2074 43.5374 42.2337 43.7303C42.0496 43.6601 41.7779 43.6952 41.8042 43.4322L41.7954 43.4585ZM42.9963 43.6777C42.6983 43.6777 42.5931 43.8179 42.3389 43.7303C42.523 43.5287 42.7421 43.5462 42.9963 43.5111V43.6777ZM43.8728 43.0729C43.6537 43.0729 43.68 42.7485 43.9254 42.8011C43.9517 42.9063 43.8378 42.8976 43.8816 43.0466L43.8728 43.0729ZM43.7677 37.2263C43.6274 37.3227 43.5836 37.5156 43.4959 37.6646C43.717 39.2767 43.8254 40.9022 43.8203 42.5294C43.6712 42.5732 43.3644 42.8976 43.4346 43.1342C43.2768 43.2832 43.3294 42.7661 43.3294 42.5908C43.5148 42.4191 43.6303 42.185 43.6537 41.9334C43.8203 40.3205 43.0752 38.4798 43.2154 36.5251C43.4687 36.6833 43.6628 36.9205 43.7677 37.2V37.2263Z" fill="#FBFBF2"/>
<path fill-rule="evenodd" clip-rule="evenodd" d="M43.3296 56.8787C43.3296 54.7399 42.1638 53.2411 41.7431 51.3039C41.6379 51.1373 41.4626 51.4354 41.4188 51.3039C41.375 51.1724 41.4977 50.7166 41.3048 50.6465C40.5773 51.1724 40.3406 52.198 39.8322 52.943C39.7796 52.943 39.7796 53.1622 39.7796 53.3813C39.7796 53.6004 39.429 53.3813 39.3414 53.6004C39.2537 53.8196 39.2537 54.3017 39.2274 54.7487C38.833 55.783 37.825 58.1672 38.4648 59.5609C38.9382 60.5953 40.7438 60.7092 41.7957 60.1657C42.05 60.0293 42.2882 59.8646 42.5057 59.6749C42.5583 59.6135 42.5057 59.5083 42.5583 59.4557C42.6109 59.4032 42.8914 59.3067 42.9966 59.184C43.3884 58.5867 43.5446 57.8651 43.4348 57.1592C43.4348 57.1592 43.4962 57.1592 43.4874 57.1066C43.4787 57.054 43.391 56.9488 43.3296 56.8787ZM42.3479 54.2491C42.2252 54.3981 42.3479 54.512 42.4005 54.8539C42.1288 54.6348 42.1989 54.0738 42.0148 53.7582C42.2603 53.7933 42.1288 54.1965 42.3479 54.2491ZM42.6722 55.8356C42.4706 55.6778 42.5232 55.2571 42.4005 55.0204C42.5778 55.2557 42.676 55.5411 42.681 55.8356H42.6722ZM39.8322 53.9511C39.8629 54.1689 39.8804 54.3885 39.8848 54.6085C39.6745 54.6172 39.7709 54.0825 39.8322 53.9511ZM39.394 59.9115C38.6226 59.596 38.5174 58.1585 38.7892 57.1767C38.8768 58.1234 38.7892 59.1577 39.4992 59.8064C39.5254 59.9203 39.4641 59.9291 39.394 59.9378V59.9115ZM39.9374 59.4733C39.4155 58.5048 39.1871 57.4052 39.28 56.309C39.5656 57.0888 39.7311 57.9075 39.7709 58.737C40.1829 58.772 39.9725 59.3155 39.9462 59.4996L39.9374 59.4733ZM39.7709 56.1687C39.7709 55.7041 39.4378 55.3798 39.6043 54.7487C39.7796 54.8276 39.8322 55.038 39.8235 55.2922C39.7271 55.2922 39.6832 55.1957 39.6569 55.2922C39.9287 55.3535 39.99 55.8882 40.0426 56.3265C39.9374 56.3265 39.8936 56.1775 39.8761 56.0548C39.7183 56.1336 39.9462 56.2651 39.8761 56.4404C39.9374 56.4404 39.9725 56.4404 39.99 56.3878C39.9632 56.7015 39.9989 57.0173 40.0952 57.317C39.8821 56.972 39.7698 56.5742 39.7709 56.1687ZM40.2617 54.363C40.1829 54.3192 40.1829 54.1877 40.1566 54.0913C40.3494 54.0475 40.3582 54.2841 40.2705 54.363H40.2617ZM40.2617 54.4682C40.4809 54.7312 40.2617 55.1169 40.4809 55.3448C40.2442 55.4149 40.2004 54.7575 40.2705 54.4682H40.2617ZM40.5948 53.3725C40.5247 53.2498 40.3406 53.0482 40.4809 52.8817C40.6474 52.943 40.5948 53.1797 40.6036 53.3813L40.5948 53.3725ZM40.8666 59.2717C40.6562 59.2191 40.8227 58.9999 40.814 58.8334C40.9454 58.886 40.8403 59.149 40.8753 59.2804L40.8666 59.2717ZM41.1909 59.9291C41.0682 59.7888 41.1383 59.6661 41.0857 59.5434C41.2243 59.6169 41.3715 59.6729 41.524 59.7099C41.4956 59.7737 41.4504 59.8286 41.3933 59.8687C41.3362 59.9089 41.2693 59.9328 41.1996 59.9378L41.1909 59.9291ZM41.2961 55.1169C41.5152 55.8006 41.6905 56.8699 41.8395 57.5186C41.7957 57.317 42.0324 57.615 41.7869 57.6851C41.6379 56.8436 41.4451 56.0197 41.3136 55.1256L41.2961 55.1169ZM42.0061 58.5617C41.8132 58.4652 41.8834 58.1059 41.7869 57.9043C42.1638 57.9656 42.1375 58.2812 42.0236 58.5704L42.0061 58.5617ZM42.3304 59.1051C42.1989 58.9386 42.2778 58.8422 42.2778 58.6143C42.3742 58.6669 42.4356 58.7457 42.5495 58.7808C42.532 58.9298 42.4005 58.9912 42.3479 59.1139L42.3304 59.1051ZM42.4969 58.0708C42.1773 57.2257 41.9738 56.3411 41.8921 55.4412C42.1901 55.9145 42.1814 57.0014 42.4356 57.466C42.4831 57.4293 42.5421 57.4107 42.6021 57.4134C42.5457 57.631 42.5163 57.8548 42.5145 58.0796L42.4969 58.0708ZM42.8213 56.6508C42.7176 56.4095 42.6611 56.1507 42.6547 55.8882C42.8388 56.0372 42.795 56.3878 42.8388 56.6596L42.8213 56.6508ZM42.7687 56.8173C42.979 56.6859 43.0404 57.168 43.0404 57.4222C42.9878 57.4572 42.944 56.9225 42.7862 56.8173H42.7687Z" fill="#FBFBF2"/>
<path fill-rule="evenodd" clip-rule="evenodd" d="M36.5009 71.1923C36.9655 69.9739 35.9487 69.2464 35.9575 68.0806C35.379 68.0193 35.7909 66.9674 35.3001 66.8271C35.1248 67.1778 35.0371 67.616 34.6427 67.7563C34.3096 69.4305 32.8896 71.1923 33.4944 72.8928C33.3016 73.5765 33.9414 73.8921 34.4235 73.822C35.2259 73.5308 35.916 72.994 36.3958 72.288C36.5886 71.9462 36.5272 71.7621 36.7814 71.7446C36.5798 71.6569 36.7288 71.2362 36.5009 71.1923ZM34.0379 72.6649C33.5645 72.2004 33.8888 71.1397 34.0379 70.7541C34.1664 71.3842 34.1694 72.0336 34.0466 72.6649H34.0379ZM34.967 72.9892C34.8018 72.2728 34.7839 71.5302 34.9144 70.8067C35.0546 71.2449 34.9144 71.8585 35.1861 72.2267C35.379 72.2705 35.4491 72.1039 35.563 72.2267C35.4437 72.5339 35.2401 72.8012 34.9758 72.998L34.967 72.9892ZM35.677 71.6744C35.7471 70.3421 35.4316 69.6934 35.4053 68.5013C35.7164 68.9651 35.9052 69.5 35.9543 70.0562C36.0033 70.6125 35.9109 71.1722 35.6858 71.6832L35.677 71.6744Z" fill="#FBFBF2"/>
<path fill-rule="evenodd" clip-rule="evenodd" d="M35.0285 38.4621C34.8182 38.3657 35.1513 38.3744 35.1425 38.2955C34.9234 38.2955 35.1425 38.1027 35.1951 38.2429C35.0022 37.9186 35.3616 37.8748 35.4668 37.6995C35.3441 37.4804 35.5545 37.0859 35.572 36.7704C35.6565 35.9783 35.5039 35.1791 35.1337 34.4738C35.1337 34.0618 34.9234 33.9128 34.862 33.5973C34.862 33.422 35.0285 33.4746 34.976 33.2729C34.7568 33.3255 34.6779 33.5184 34.3185 33.4395C33.5094 34.1046 32.9653 35.0374 32.7846 36.0691C32.5918 37.4453 32.3726 39.0406 33.7663 39.1283C34.0109 39.1088 34.249 39.0397 34.466 38.9252C34.6831 38.8106 34.8745 38.6531 35.0285 38.4621ZM35.1425 36.4899C34.8094 35.999 34.8971 35.3241 34.7042 34.6316C35.2039 35.0085 35.1688 35.6221 35.1337 36.4899H35.1425ZM34.5114 35.1225C34.6843 35.4839 34.794 35.8723 34.8357 36.2707C34.8357 36.3934 34.7305 36.3408 34.7218 36.3847C34.6604 36.7441 35.3616 37.6118 34.6692 38.0764C34.4959 37.1019 34.4429 36.1099 34.5114 35.1225ZM33.9679 34.9033C34.1958 35.2539 33.9679 35.7799 34.0731 36.2181C33.9192 35.8011 33.871 35.3523 33.9329 34.9121L33.9679 34.9033ZM33.8627 38.2342C33.8627 38.3569 33.8627 38.5322 34.0293 38.5585C33.9241 38.7952 33.5384 38.5585 33.4245 38.5059C33.5659 38.4295 33.7008 38.3416 33.8277 38.2429L33.8627 38.2342Z" fill="#FBFBF2"/>
<path fill-rule="evenodd" clip-rule="evenodd" d="M32.6796 24.7444C32.8987 24.3061 33.3019 24.0607 33.5035 23.5961C33.5737 22.0271 33.5035 19.9672 32.8987 18.7839C32.0835 18.4333 31.6014 19.6604 31.3122 20.2039C30.7792 21.0959 30.4083 22.0752 30.2165 23.0965C30.1289 23.8416 29.6993 24.6567 29.9974 25.4456C31.0054 26.0417 31.8031 24.9548 32.6796 24.7444ZM33.2231 23.0527C33.2231 23.4033 33.0565 23.5435 32.9513 23.7627C32.9338 23.526 32.9513 23.1842 33.2231 23.0527ZM32.9513 21.2996C32.6884 21.1593 32.8987 20.8525 32.8461 20.4844C32.9427 20.5944 33.0043 20.7307 33.0231 20.8759C33.0418 21.0212 33.0168 21.1686 32.9513 21.2996ZM32.8987 19.6604C32.9864 19.8533 32.7147 19.6604 32.7322 19.827C32.651 19.6178 32.6152 19.3937 32.627 19.1696C32.7585 19.2923 32.6971 19.5991 32.8987 19.6604ZM32.1361 19.6079C32.066 19.7569 32.0397 19.9409 31.8644 19.9935C31.8819 19.7656 31.9433 19.6429 32.1274 19.6079H32.1361ZM31.9696 22.8861C31.9696 23.0176 31.8819 23.5698 31.6453 23.6487C31.6422 23.5059 31.6695 23.364 31.7254 23.2326C31.7814 23.1011 31.8646 22.983 31.9696 22.8861ZM31.5839 23.9818C31.6009 23.977 31.6187 23.9761 31.6361 23.9793C31.6534 23.9826 31.6698 23.9898 31.6838 24.0004C31.6979 24.011 31.7093 24.0248 31.7172 24.0406C31.7251 24.0563 31.7292 24.0737 31.7292 24.0914C31.7292 24.109 31.7251 24.1264 31.7172 24.1422C31.7093 24.158 31.6979 24.1717 31.6838 24.1823C31.6698 24.193 31.6534 24.2002 31.6361 24.2034C31.6187 24.2066 31.6009 24.2058 31.5839 24.2009V23.9818ZM31.47 21.3522C31.5401 21.3522 31.5138 21.4924 31.5226 21.5713H31.356C31.3034 21.4048 31.4524 21.4398 31.4787 21.3609L31.47 21.3522ZM31.2508 24.4113C31.4174 24.4814 31.5226 24.6129 31.7417 24.6304C31.6365 24.8408 31.2771 24.8058 31.0317 24.7356C31.0054 24.5516 31.2245 24.5691 31.2596 24.4201L31.2508 24.4113ZM30.2077 24.683C30.4619 24.683 30.348 25.0512 30.4795 25.1739C30.795 25.1739 30.7424 24.9986 31.0229 25.1213C30.909 25.3843 30.4093 25.2703 30.199 25.1739L30.2077 24.683Z" fill="#FBFBF2"/>
<path fill-rule="evenodd" clip-rule="evenodd" d="M32.4075 44.7997C32.2409 43.9758 31.3995 43.2482 31.3732 42.398C31.3206 42.2314 31.6712 42.0211 31.3732 41.9597C31.0488 42.1087 30.6807 42.6872 30.3914 43.0554C29.5529 44.7918 28.9458 46.6307 28.5858 48.525C28.5049 48.8214 28.5134 49.135 28.61 49.4266C28.7067 49.7182 28.8873 49.9748 29.1292 50.1642C29.5412 50.094 29.7165 50.2693 30.0058 50.3307C30.9092 50.1496 31.7423 49.7148 32.4075 49.0772C32.3461 48.4461 32.8721 48.0868 32.9509 47.5433C32.9509 47.2716 32.7669 46.9823 32.6792 46.6668C32.5302 46.1321 32.5127 45.3169 32.4075 44.7997ZM30.0583 46.2197C30.1496 46.3054 30.2084 46.42 30.2249 46.544C30.1372 46.544 30.1197 46.544 30.1197 46.658C30.0619 46.6025 30.0238 46.5297 30.0112 46.4506C29.9985 46.3715 30.012 46.2905 30.0496 46.2197H30.0583ZM29.4535 48.9019H29.1204C29.1204 48.7529 29.0503 48.4637 29.173 48.4111C29.4272 48.4111 29.173 48.6302 29.2256 48.7968C29.4711 48.8844 29.3483 48.5864 29.4448 48.525C29.5412 48.4637 29.5061 48.8493 29.4535 48.8932V48.9019ZM30.2161 49.5068C30.0321 49.6032 29.9532 49.5068 29.7253 49.5068C29.8918 49.2263 29.7253 48.8581 29.8304 48.6302C30.0408 48.674 29.7253 49.384 30.2161 49.2876V49.5068ZM30.2687 47.105C30.146 47.0524 29.997 46.6405 30.2687 46.6668V47.105ZM30.2687 45.5185C30.1526 45.2406 30.1341 44.9317 30.2161 44.6419C30.3739 44.9137 30.2687 45.1854 30.2775 45.5097L30.2687 45.5185ZM30.707 46.1759C30.7426 46.2368 30.7568 46.3079 30.7472 46.3778C30.7377 46.4477 30.705 46.5124 30.6544 46.5616C30.5142 46.4914 30.5229 46.1847 30.707 46.1671V46.1759ZM30.6018 47.3768C30.7421 47.3768 30.707 47.5608 30.707 47.7011C30.5054 47.7624 30.6018 47.517 30.4879 47.4819C30.3739 47.4469 30.6018 47.4381 30.6018 47.368V47.3768ZM30.707 47.8676C30.6632 48.0517 30.707 48.3322 30.6018 48.525C30.5229 48.4286 30.4353 47.9728 30.707 47.815V47.8676ZM30.6544 48.6302C30.8472 48.4812 30.7245 49.1035 30.8209 49.235C30.5843 49.2087 30.8209 48.6916 30.6544 48.6214V48.6302ZM31.0401 43.108C31.5499 44.0221 31.741 45.0798 31.5835 46.1145C31.6975 45.9305 31.6975 46.1145 31.6887 46.2811C31.6361 46.2811 31.6887 46.211 31.6361 46.1759C31.4783 46.3249 31.6361 46.7982 31.5835 46.8859C31.9955 47.1839 31.4345 47.6485 31.4696 47.9202C31.3726 47.3788 31.3169 46.8309 31.303 46.2811C31.2329 45.2555 31.3819 44.1861 30.8648 43.4937C30.8998 43.3271 31.0664 43.3184 31.005 43.108H31.0401ZM31.2066 46.0006C30.97 46.0006 30.9174 45.387 31.154 45.3432C31.2086 45.5578 31.2235 45.7806 31.1979 46.0006H31.2066ZM31.3206 48.788C31.7676 48.49 31.7588 47.7361 31.9254 47.1489C32.0393 47.368 31.978 47.7449 32.3637 47.6923C32.2891 47.9459 32.1546 48.1779 31.9715 48.3686C31.7884 48.5593 31.5622 48.7031 31.3118 48.788H31.3206Z" fill="#FBFBF2"/>
</svg>
