<svg width="109" height="110" viewBox="0 0 109 110" fill="none" xmlns="http://www.w3.org/2000/svg">
<path d="M96.4081 51.7646C96.1854 51.8753 95.972 51.9933 95.7492 52.09C95.1683 52.342 94.5735 52.5642 94.0017 52.8353C93.4746 53.1014 92.8784 53.199 92.294 53.1147C91.7096 53.0304 91.1653 52.7683 90.7349 52.3641C90.4122 52.0791 90.0709 51.8159 89.7131 51.5764C88.7078 50.9685 87.884 51.65 86.9978 51.9798C85.3806 52.6365 83.7306 53.2095 82.0545 53.6966C80.2903 54.0244 78.4671 53.7171 76.9077 52.8294C73.9058 51.437 71.8946 48.9055 69.6685 46.6116C69.1298 46.018 68.4876 45.5273 67.7733 45.1635C67.2301 44.8986 66.612 44.8295 66.0236 44.9678C65.4352 45.1062 64.9127 45.4436 64.5444 45.9228C63.4325 47.1738 62.3937 48.4879 61.4331 49.8586C60.4523 51.2958 59.5496 52.7354 57.8835 53.5148C56.9936 53.9484 55.9917 54.0974 55.0141 53.9415C54.0366 53.7856 53.1307 53.3323 52.4199 52.6434C51.3713 51.6077 50.2869 50.6087 49.1667 49.6463C48.252 48.8591 47.2257 48.0749 45.9448 48.5291C45.0985 48.8653 44.3186 49.3492 43.6415 49.9583C42.5378 50.8947 41.5439 51.9593 40.4869 52.952C38.7065 54.6239 36.7384 54.727 34.6519 53.4632C32.383 52.0888 30.8092 50.0132 28.9911 48.1779C28.1843 47.1602 27.1374 46.3589 25.9444 45.8458C25.2324 45.6175 24.4822 45.5326 23.7372 45.5961C22.9922 45.6596 22.2671 45.8702 21.604 46.2157C19.7766 47.2256 18.1256 48.5261 16.7158 50.0662C15.1675 51.6188 13.957 53.4747 13.1602 55.5175C13.1313 55.6414 13.0761 55.7577 12.9983 55.8584C12.8169 55.9878 12.6258 56.103 12.4268 56.2031C12.3258 55.9975 12.2727 55.7715 12.2717 55.5423C12.4218 54.9776 12.6329 54.431 12.9014 53.912C14.825 50.4129 17.6885 47.5212 21.1686 45.5635C21.967 45.037 22.8858 44.7214 23.8392 44.6463C24.7926 44.5713 25.7494 44.7391 26.6204 45.1342C27.3028 45.4663 27.9238 45.912 28.457 46.4521C29.8794 47.871 31.1625 49.4363 32.6416 50.7897C33.7051 51.7332 34.876 52.5482 36.1302 53.218C37.3085 53.8675 39.1941 53.145 40.2655 52.0856C41.6832 50.6377 43.2022 49.2925 44.8108 48.0602C45.365 47.6584 46.0373 47.4526 46.7214 47.4753C47.4056 47.498 48.0627 47.7479 48.589 48.1855C49.9512 49.1991 51.1736 50.3983 52.5014 51.4609C53.1571 52.0786 53.9211 52.5703 54.7549 52.9112C56.9556 53.5741 58.5257 52.3758 59.7983 50.7636C60.6288 49.7115 61.2525 48.4953 62.0914 47.4512C62.9013 46.4439 63.7975 45.5092 64.7699 44.6577C66.0125 43.5706 68.1824 43.8897 69.598 45.3057C70.5482 46.256 71.4068 47.2977 72.3549 48.2502C74.3389 50.2437 76.4096 52.1111 79.2923 52.7323C80.588 53.0273 81.9401 52.9576 83.1987 52.5311C84.7789 51.9842 86.3152 51.2975 87.8357 50.596C88.2228 50.4063 88.653 50.3214 89.0832 50.3499C89.5134 50.3783 89.9286 50.5191 90.2874 50.7582C90.5574 50.9031 90.8042 51.0877 91.0196 51.3057C91.3814 51.7608 91.9052 52.0582 92.4814 52.1357C93.0576 52.2132 93.6414 52.0647 94.1105 51.7214C94.4647 51.5213 94.8439 51.3691 95.2382 51.2689C95.3461 51.214 95.4647 51.1834 95.5856 51.1792C95.7066 51.175 95.827 51.1972 95.9385 51.2445C96.0499 51.2917 96.1497 51.3627 96.2308 51.4525C96.312 51.5424 96.3725 51.6489 96.4081 51.7646Z" fill="#FBFBF2" stroke="#FBFBF2" stroke-width="0.5"/>
<path d="M27.1533 56.1989C27.8 56.1809 28.4409 56.3254 29.0173 56.6192C29.5936 56.913 30.0871 57.3467 30.4525 57.8805C31.7603 59.5466 33.4306 60.8929 35.3364 61.8171C35.6688 61.9811 36.0336 62.0685 36.4042 62.0731C36.7747 62.0778 37.1416 61.9994 37.4779 61.8438C40.1494 60.8587 42.453 59.0754 44.0759 56.7359C44.2138 56.5224 44.3629 56.3141 44.4783 56.0887C44.5928 55.7606 44.7828 55.464 45.0332 55.2229C45.2836 54.9819 45.5872 54.8032 45.9195 54.7013C46.2517 54.5994 46.6033 54.5772 46.9458 54.6365C47.2882 54.6958 47.6119 54.8349 47.8906 55.0425C49.2943 55.87 50.5085 56.9832 51.4546 58.3098C52.3895 59.5352 53.4375 60.6701 54.5848 61.6994C55.7078 62.7263 58.0503 62.4334 59.426 61.4146C61.0821 60.0591 62.452 58.3878 63.4561 56.4979C64.3599 55.0014 65.4653 54.2726 66.9191 54.6257C67.6887 54.8626 68.3754 55.3129 68.8995 55.9243C69.951 57.0904 70.7946 58.4442 71.8461 59.6104C72.524 60.3185 73.2988 60.9268 74.1474 61.4173C74.7966 61.8207 75.5167 62.0967 76.2692 62.2307C76.9947 62.3053 77.7275 62.2624 78.4394 62.1039C78.9393 62.0031 79.4198 61.823 79.8628 61.5703C80.5869 61.1658 81.4129 60.9801 82.2405 61.036C83.0681 61.0918 83.8616 61.3868 84.5248 61.885C85.3047 62.4241 86.2255 62.7229 87.1733 62.7445C88.1212 62.766 89.0545 62.5094 89.8581 62.0063C90.4812 61.6597 91.1264 61.3546 91.7896 61.0929C92.0555 60.9962 92.346 60.9912 92.6151 61.0785C92.6883 61.1538 92.7417 61.246 92.7704 61.347C92.7992 61.448 92.8024 61.5546 92.7798 61.6572C92.5753 61.8396 92.3338 61.9759 92.0719 62.0566C91.5488 62.2346 91.0379 62.4467 90.5425 62.6913C89.4613 63.3769 88.1975 63.7185 86.9181 63.671C85.6388 63.6235 84.4038 63.1892 83.3764 62.4254C83.0047 62.1583 82.5677 61.9967 82.1117 61.9579C81.6557 61.919 81.1976 62.0042 80.7861 62.2046C80.0899 62.5105 79.3491 62.7138 78.6466 63.0069C76.8398 63.7607 75.2724 62.9815 73.6965 62.2629C72.3398 61.6164 71.2055 60.5819 70.4371 59.2903C69.6275 57.7555 68.4262 56.4621 66.9554 55.5414C66.7397 55.4136 66.4927 55.3485 66.242 55.3534C65.9914 55.3583 65.7471 55.4329 65.5366 55.569C64.6047 56.2011 63.8732 57.0867 63.4284 58.1211C62.5332 59.605 61.3851 60.9207 60.0361 62.0087C59.524 62.4604 58.9258 62.8037 58.2775 63.0179C57.6292 63.2321 56.9442 63.3127 56.2638 63.2549C55.5835 63.1971 54.9219 63.0021 54.3189 62.6817C53.716 62.3612 53.1843 61.922 52.7557 61.3904C51.8583 60.3965 51.139 59.244 50.288 58.2052C49.5247 57.0813 48.423 56.2299 47.1429 55.7747C46.8281 55.6363 46.4746 55.6129 46.1443 55.7085C45.8139 55.804 45.5276 56.0125 45.3351 56.2975C44.6256 57.2876 43.8653 58.2402 43.0572 59.1515C41.6157 60.632 39.8813 61.7955 37.9648 62.5676C36.1821 63.3833 34.72 62.6398 33.2768 61.7006C31.8604 60.7446 30.604 59.5708 29.5539 58.2226C29.2591 57.8347 28.8667 57.5318 28.4167 57.3449C27.9667 57.1579 27.4752 57.0936 26.9923 57.1585C25.4283 57.3301 23.8311 57.4996 22.6131 58.6584C22.2116 59.0404 21.9775 59.5939 21.5968 60.004C21.3283 60.2216 21.0298 60.3994 20.7107 60.532C20.5972 60.2413 20.5585 59.9267 20.5981 59.6172C21.4149 58.2781 22.687 57.2783 24.1812 56.8011C25.1524 56.5141 26.1469 56.3126 27.1533 56.1989Z" fill="#FBFBF2" stroke="#FBFBF2" stroke-width="0.5"/>
<path d="M35.5045 41.0568C35.915 41.0483 36.321 41.1442 36.6843 41.3355C37.0477 41.5268 37.3565 41.8071 37.5819 42.1503C38.1053 42.9532 38.8235 43.6106 39.6695 44.061C40.5154 44.5115 41.4617 44.7404 42.42 44.7265C43.5238 44.7011 44.5862 44.3009 45.4324 43.5917C46.7195 42.6495 47.9386 41.6149 49.2146 40.6568C49.8721 40.1384 50.5761 39.6819 51.3176 39.2931C52.4395 38.7397 53.092 38.9789 53.7335 40.0529C54.2155 40.8601 54.6618 41.6885 55.1297 42.5042C55.2572 42.811 55.4559 43.0831 55.7093 43.2979C55.9628 43.5128 56.2637 43.6643 56.5872 43.7398C56.9108 43.8154 57.2477 43.8128 57.5701 43.7324C57.8925 43.6521 58.1911 43.4961 58.4413 43.2775C59.3199 42.5993 60.117 41.8215 60.8166 40.9599C61.5804 39.9428 62.554 39.102 63.6715 38.4944C64.7889 37.8868 66.024 37.5267 67.2929 37.4386C68.0082 37.4333 68.7144 37.5987 69.353 37.921C69.9916 38.2433 70.5441 38.7132 70.9648 39.2918C71.6726 40.3438 72.5835 41.2438 73.6441 41.9387C74.1271 42.2173 74.6784 42.355 75.2356 42.3362C75.7928 42.3175 76.3336 42.1431 76.7968 41.8328C77.4834 41.4035 78.1408 40.929 78.7645 40.4126C78.8668 40.2983 78.9942 40.2093 79.1366 40.1525C79.279 40.0956 79.4327 40.0725 79.5855 40.0849C79.7384 40.0972 79.8863 40.1448 80.0177 40.2238C80.1491 40.3028 80.2605 40.4111 80.3431 40.5403C80.7353 40.9755 81.1498 41.39 81.585 41.7821C81.8761 42.0663 82.2243 42.2853 82.6066 42.4246C82.9888 42.5639 83.3963 42.6203 83.802 42.5901C84.5642 42.5226 85.3307 42.5204 86.0933 42.5835C86.2676 42.6205 86.4329 42.6915 86.5797 42.7925C86.7266 42.8935 86.852 43.0224 86.949 43.1719C86.9782 43.31 86.9768 43.4529 86.9447 43.5904C86.9126 43.7278 86.8508 43.8566 86.7634 43.9675C86.6646 44.0093 86.5582 44.0302 86.4509 44.029C86.3435 44.0277 86.2376 44.0043 86.1398 43.9602C86.0976 43.8384 86.03 43.727 85.9415 43.6333C85.8529 43.5397 85.7455 43.4659 85.6262 43.4169C85.507 43.368 85.3787 43.3449 85.2499 43.3493C85.1211 43.3537 84.9947 43.3854 84.8791 43.4424C83.9957 43.6575 83.0683 43.6052 82.2147 43.2923C81.3611 42.9793 80.6197 42.4197 80.0847 41.6846C80.0219 41.5623 79.9286 41.4582 79.8138 41.3823C79.6991 41.3065 79.5668 41.2614 79.4296 41.2515C79.2924 41.2416 79.155 41.2672 79.0305 41.3257C78.9061 41.3843 78.7988 41.4739 78.719 41.5859C77.8394 42.4447 76.7094 43.0013 75.4926 43.1754C74.9268 43.2631 74.3483 43.2134 73.8058 43.0306C72.5891 42.5553 71.5474 41.7186 70.8208 40.6331C68.8798 37.6734 65.7084 37.7554 63.3567 39.7455C62.4526 40.5104 61.7312 41.4872 60.876 42.3152C60.2193 43.0538 59.4593 43.6937 58.6196 44.215C56.8886 45.101 55.4213 44.7774 54.2973 42.8967C53.8826 42.2027 53.5263 41.4733 53.153 40.7549C52.6747 39.8344 52.1022 39.6133 51.2547 40.2186C50.0794 41.058 49.0306 42.0776 47.8395 42.8909C46.5545 43.8697 45.1567 44.691 43.6763 45.3374C41.4306 46.1728 39.4559 45.2396 37.7598 43.7013C37.4926 43.4276 37.2489 43.1319 37.0312 42.8175C36.355 41.9537 35.6936 41.6499 34.7808 42.1583C33.8444 42.7442 32.9676 43.4204 32.163 44.1772C32.0885 44.2198 32.0281 44.2832 31.9892 44.3597C31.9503 44.4361 31.9346 44.5223 31.9439 44.6076C31.9533 44.6928 31.9874 44.7735 32.042 44.8397C32.0966 44.9058 32.1694 44.9546 32.2513 44.98C32.305 45.047 32.3414 45.1261 32.3575 45.2104C32.3735 45.2947 32.3686 45.3816 32.3433 45.4636C32.2663 45.5317 32.1756 45.5826 32.0774 45.613C31.9791 45.6433 31.8756 45.6524 31.7735 45.6396C31.6327 45.5933 31.5041 45.5159 31.3973 45.4131C31.2905 45.3103 31.2081 45.1848 31.1565 45.0459C31.1048 44.9069 31.085 44.7581 31.0987 44.6105C31.1124 44.4629 31.1591 44.3202 31.2354 44.1932C31.7944 43.101 32.7026 42.2273 33.8155 41.7109C34.3593 41.4461 34.9242 41.2273 35.5045 41.0568Z" fill="#FBFBF2" stroke="#FBFBF2" stroke-width="0.5"/>
<path d="M34.4928 70.8983C34.4874 70.6605 34.5404 70.4249 34.6474 70.2123C36.0078 68.949 37.3692 67.4883 39.3045 67.375C41.9084 67.2226 44.5459 67.2384 46.5152 69.5539C47.3936 70.4604 48.3716 71.2648 49.4305 71.9519C49.7519 72.1877 50.1346 72.3256 50.5326 72.3491C50.9305 72.3725 51.3268 72.2805 51.6737 72.0841C53.3831 71.243 55.0711 70.3569 56.7949 69.5471C57.7981 69.0722 58.8313 68.6638 59.8881 68.3246C60.373 68.1402 60.9079 68.1354 61.396 68.3112C61.8841 68.4869 62.2932 68.8316 62.5493 69.2828C63.118 70.0623 63.6382 70.8807 64.2489 71.6252C64.5316 71.9329 64.8883 72.1633 65.2851 72.2942C65.6819 72.4252 66.1056 72.4525 66.516 72.3734C68.5998 72.2244 70.6195 71.5883 72.4127 70.5164C74.0429 69.5508 75.4963 70.1475 76.7414 71.2171C77.264 71.7046 77.9214 72.0232 78.6279 72.1311C79.3344 72.2391 80.057 72.1315 80.7013 71.8223C82.0233 71.2975 83.3147 70.6872 84.6589 70.2305C85.4577 70.0011 86.28 69.8635 87.11 69.8204C87.3432 69.9098 87.5486 70.0592 87.7054 70.2536C87.5729 70.4678 87.3858 70.643 87.1633 70.7611C84.8962 70.6182 83.1046 71.9665 81.1177 72.6737C79.3658 73.2972 77.7646 73.3953 76.2577 72.1103C75.8648 71.7451 75.3992 71.4671 74.8913 71.2945C74.3307 71.1123 73.7302 71.0913 73.1583 71.234C71.6977 71.7261 70.3126 72.4459 68.8469 72.9177C67.9181 73.1785 66.9587 73.3145 65.994 73.3221C65.3401 73.3367 64.6953 73.1666 64.1336 72.8313C63.572 72.496 63.1162 72.0092 62.8187 71.4266C62.4488 70.7631 61.9999 70.1469 61.4818 69.5914C61.2988 69.4326 61.0831 69.316 60.85 69.2498C60.6169 69.1836 60.3722 69.1694 60.133 69.2083C58.9504 69.5727 57.7953 70.0213 56.6768 70.5507C55.1326 71.261 53.6014 72.0082 52.11 72.8224C51.4762 73.1593 50.7537 73.292 50.0416 73.2021C49.3295 73.1122 48.6626 72.8043 48.1323 72.3205C47.1761 71.6045 46.3004 70.7868 45.5205 69.8819C45.0868 69.4006 44.5597 69.0126 43.9714 68.7415C43.383 68.4704 42.7456 68.3218 42.0979 68.3048C40.6686 68.2095 39.173 67.9887 37.8338 68.7416C37.2148 69.1357 36.6253 69.5742 36.07 70.0539C35.6391 70.3877 35.2215 70.7386 34.798 71.0818L34.4928 70.8983Z" fill="#FBFBF2" stroke="#FBFBF2" stroke-width="0.5"/>
</svg>
