<svg width="109" height="109" viewBox="0 0 109 109" fill="none" xmlns="http://www.w3.org/2000/svg">
<path d="M59.2157 32.1999C61.7157 32.0999 64.3157 31.8999 66.7157 32.7999C67.6157 33.1999 69.0157 32.9999 69.2157 34.5999C69.2157 34.7999 69.7157 34.8999 70.0157 34.7999C70.9157 34.6999 71.6157 35.1999 72.1157 35.8999C72.6157 36.6999 73.3157 37.2999 74.0157 37.8999C75.0157 38.7999 75.7157 39.9999 76.3157 41.1999C77.6157 43.6999 78.8157 46.1999 79.3157 48.8999C79.3157 48.9999 79.4157 49.0999 79.3157 49.1999C78.7157 51.9999 79.9157 54.8999 79.0157 57.7999C78.9157 58.2999 78.6157 58.8999 79.3157 59.2999C79.6157 59.4999 79.4157 59.8999 79.3157 60.0999C78.9157 61.0999 78.3157 61.8999 77.8157 62.7999C75.9157 65.5999 73.3157 67.7999 71.1157 70.3999C69.4157 72.3999 67.3157 73.2999 64.9157 73.9999C62.5157 74.6999 60.1157 75.3999 57.5157 75.4999C55.8157 75.5999 54.2157 75.4999 52.5157 74.9999C51.5157 74.6999 50.4157 74.4999 49.3157 74.3999C46.6157 73.9999 44.3157 72.3999 41.9157 71.3999C40.7157 70.8999 39.9157 69.8999 39.3157 68.7999C38.8157 67.8999 38.3157 66.8999 37.8157 65.8999C37.5157 65.1999 37.2157 64.4999 36.6157 63.9999C36.3157 63.6999 36.1157 63.1999 36.0157 62.7999C35.6157 61.2999 35.3157 59.7999 35.3157 58.1999C35.3157 57.2999 35.6157 56.3999 34.8157 55.5999C34.6157 55.4999 34.7157 54.9999 34.8157 54.6999C35.1157 52.6999 35.5157 50.6999 36.3157 48.8999C37.0157 47.0999 37.3157 45.1999 38.1157 43.4999C38.5157 42.5999 39.0157 41.7999 39.9157 41.1999C40.1157 40.9999 40.4157 40.7999 40.6157 40.5999C43.3157 37.1999 46.8157 34.9999 50.7157 33.3999C52.4157 32.6999 54.2157 32.2999 56.1157 32.2999C57.1157 32.1999 58.2157 32.1999 59.2157 32.1999ZM66.2157 35.8999C65.7157 35.6999 65.6157 35.6999 65.4157 35.6999C63.2157 34.6999 61.0157 34.0999 58.5157 34.3999C58.2157 34.3999 57.9157 34.4999 57.6157 34.1999C57.2157 33.6999 56.6157 33.7999 56.0157 33.9999C54.3157 34.4999 52.5157 34.8999 50.8157 35.2999C49.0157 35.6999 47.4157 36.4999 45.9157 37.5999C44.9157 38.2999 43.9157 39.0999 43.0157 39.8999C42.1157 40.7999 41.2157 41.6999 40.8157 42.9999C40.5157 43.8999 40.1157 45.0999 39.5157 45.6999C38.3157 46.9999 37.6157 48.5999 37.1157 50.1999C36.5157 52.0999 35.9157 53.8999 36.4157 55.9999C36.5157 56.2999 36.5157 56.7999 36.9157 56.7999C37.7157 56.7999 37.4157 57.2999 37.4157 57.5999C37.2157 58.5999 37.4157 59.4999 38.1157 60.3999C38.6157 60.2999 39.1157 59.8999 39.7157 59.9999C40.1157 60.0999 40.4157 60.2999 40.4157 60.6999C40.4157 61.0999 40.1157 61.1999 39.8157 61.2999C39.4157 61.4999 38.9157 61.1999 38.5157 61.4999C38.9157 62.6999 39.7157 63.4999 40.5157 64.2999C40.7157 64.4999 41.0157 64.8999 41.4157 64.3999C41.6157 64.0999 41.9157 63.9999 42.1157 64.2999C42.3157 64.5999 42.4157 64.7999 42.2157 65.0999C41.9157 65.4999 41.5157 65.7999 41.0157 66.0999C41.8157 66.9999 42.5157 67.8999 43.2157 68.6999C43.7157 69.2999 44.4157 69.6999 45.2157 69.8999C46.1157 70.0999 47.1157 70.4999 47.9157 70.9999C48.5157 71.2999 48.9157 71.6999 49.6157 71.2999C49.8157 71.1999 50.0157 71.2999 50.1157 71.4999C50.4157 72.4999 51.2157 72.3999 52.0157 72.3999C53.2157 72.3999 54.4157 72.2999 55.4157 72.8999C56.2157 73.3999 56.8157 73.0999 57.5157 72.6999C58.3157 72.1999 59.0157 71.4999 60.1157 71.6999C60.3157 71.6999 60.6157 71.4999 60.5157 71.1999C60.4157 70.5999 60.4157 70.5999 60.8157 70.4999C62.2157 70.1999 63.5157 69.9999 64.9157 69.5999C66.9157 69.1999 68.5157 68.2999 69.8157 66.5999C70.3157 65.9999 70.6157 65.0999 71.6157 64.9999C72.0157 64.8999 72.0157 64.5999 72.1157 64.2999C72.2157 63.7999 72.3157 63.1999 72.6157 62.6999C73.2157 61.6999 73.4157 60.6999 73.5157 59.5999C73.6157 58.6999 73.7157 57.8999 73.9157 56.9999C74.0157 56.4999 74.1157 55.9999 73.5157 55.5999C73.3157 55.4999 73.0157 55.1999 73.2157 54.9999C73.7157 54.5999 73.5157 53.8999 74.0157 53.4999C74.4157 53.1999 74.9157 53.6999 75.3157 53.3999C75.5157 51.8999 75.2157 50.2999 75.7157 48.7999C75.3157 48.6999 74.9157 48.5999 74.5157 48.4999C73.9157 48.1999 73.8157 47.5999 74.3157 47.0999C74.5157 46.8999 74.8157 46.8999 75.0157 46.7999C76.3157 46.1999 76.4157 45.9999 75.7157 44.7999C74.7157 43.0999 73.5157 41.5999 72.4157 39.8999C71.7157 38.7999 70.7157 37.8999 69.7157 37.1999C68.3157 36.1999 66.7157 35.2999 65.2157 34.3999C63.5157 33.2999 61.3157 32.6999 59.1157 33.2999C61.5157 34.1999 64.2157 33.5999 66.2157 35.8999ZM66.4157 69.9999C65.7157 69.9999 65.3157 70.0999 65.0157 70.5999C65.0157 70.6999 65.1157 70.7999 65.1157 70.7999C65.8157 71.0999 66.0157 70.6999 66.4157 69.9999ZM77.5157 48.5999C77.3157 47.9999 77.5157 47.3999 76.9157 46.7999C76.9157 47.4999 76.7157 48.0999 77.5157 48.5999ZM69.7157 36.3999C69.5157 35.7999 69.1157 35.4999 68.2157 35.3999C68.6157 35.6999 68.8157 35.8999 69.0157 35.9999C69.3157 36.0999 69.5157 36.1999 69.7157 36.3999ZM40.6157 68.2999C40.8157 68.6999 40.9157 69.0999 41.4157 69.1999C41.5157 69.1999 41.6157 69.0999 41.6157 68.9999C41.6157 68.4999 41.2157 68.3999 40.8157 68.1999C40.8157 68.1999 40.7157 68.2999 40.6157 68.2999ZM45.2157 71.4999C45.3157 71.5999 45.3157 71.6999 45.4157 71.6999C45.6157 71.7999 45.8157 72.0999 46.0157 71.7999C45.7157 71.6999 45.6157 71.2999 45.2157 71.4999ZM62.5157 70.8999C62.6157 70.6999 62.4157 70.5999 62.3157 70.5999C62.1157 70.5999 61.9157 70.6999 61.8157 70.7999C61.7157 70.8999 61.8157 71.1999 62.1157 71.1999C62.3157 71.1999 62.4157 71.0999 62.5157 70.8999ZM78.8157 60.1999C78.3157 60.4999 78.1157 60.7999 78.3157 61.1999C78.6157 60.9999 78.8157 60.6999 78.8157 60.1999Z" fill="#FBFBF2"/>
<path d="M85.5156 44.9C84.3156 44.9 83.9156 44.5 83.8156 43.3C83.7156 42.3 84.3156 41.5 85.1156 41.4C85.9156 41.3 86.1156 41.5 86.3156 42.3C86.3156 42.5 86.3156 42.8 86.4156 42.9C87.3156 43.4 86.9156 43.6 86.4156 44.2C86.1156 44.7 85.9156 45 85.5156 44.9Z" fill="#FBFBF2"/>
<path d="M13.9155 85.2001C13.9155 83.8001 14.8155 82.9 16.1155 82.8C16.9155 82.8 17.1155 83.0001 17.0155 83.7001C16.8155 84.7001 16.4155 85.4001 15.6155 86.0001C15.2155 86.3001 14.7155 86.3001 14.3155 86.1001C13.9155 85.9001 13.9155 85.5001 13.9155 85.2001Z" fill="#FBFBF2"/>
<path d="M43.5154 28.6999C42.7154 28.7999 42.2154 28.6999 42.6154 27.7999C42.7154 27.6999 42.6154 27.4999 42.6154 27.2999C42.6154 26.7999 42.5154 26.0999 43.2154 25.9999C43.8154 25.8999 44.4154 26.1999 44.9154 26.5999C45.0154 26.6999 45.1154 26.8999 45.1154 26.9999C45.1154 27.5999 44.8154 28.0999 44.4154 28.4999C44.2154 28.8999 43.9154 28.7999 43.5154 28.6999Z" fill="#FBFBF2"/>
<path d="M30.1153 50.3C30.0153 50.9 29.4153 51.4 29.9153 52.2C30.1153 52.6 29.7153 52.8 29.3153 52.9C28.8153 53 28.4153 53 28.1153 52.6C27.4153 51.6 27.7153 50.7 28.8153 50.3C29.1153 50 29.6153 49.9 30.1153 50.3Z" fill="#FBFBF2"/>
<path d="M87.0154 79.3C87.1154 78.9 86.7154 78 87.8154 78.1C88.4154 78.1 89.0154 78.9 88.9154 79.5C88.8154 80.2 88.3154 80.4 87.7154 80.4C87.0154 80.5 86.8154 80 87.0154 79.3Z" fill="#FBFBF2"/>
<path d="M9.51566 62.3C9.31566 62.8 8.91566 62.8 8.61566 62.8C8.31566 62.8 7.91566 62.8 8.01566 62.3C8.01566 61.9 8.41566 61.8 8.71566 61.8C9.01566 61.8 9.31566 62 9.51566 62.3Z" fill="#FBFBF2"/>
<path d="M29.7155 70.2C29.7155 70.7 29.4155 70.9 28.9155 70.9C28.6155 70.9 28.4155 70.6 28.4155 70.3C28.4155 69.9 28.7155 69.7 29.1155 69.7C29.5155 69.6 29.8155 69.8 29.7155 70.2Z" fill="#FBFBF2"/>
<path d="M98.1156 46.4C98.2156 46.1 97.9156 45.5 98.6156 45.5C98.9156 45.5 99.0156 45.7 99.1156 46C99.1156 46.5 98.8156 47.1 98.4156 47C98.0156 47 98.1156 46.7 98.1156 46.4Z" fill="#FBFBF2"/>
<path d="M47.5154 82.3999C47.5154 82.7999 47.3154 83.0999 46.9154 83.0999C46.6154 83.0999 46.3154 83.0999 46.3154 82.7999C46.3154 82.2999 46.6154 82.0999 47.0154 81.9999C47.3154 81.8999 47.4154 82.0999 47.5154 82.3999Z" fill="#FBFBF2"/>
<path d="M22.0156 59.0999C22.0156 59.1999 22.0156 59.6999 21.4156 59.7999C21.2156 59.7999 21.0156 59.6999 21.0156 59.3999C21.0156 58.8999 21.4156 58.3999 21.8156 58.4999C22.0156 58.5999 22.2156 58.6999 22.0156 59.0999Z" fill="#FBFBF2"/>
<path d="M91.2155 25.0999C91.1155 25.4999 90.8155 25.5999 90.4155 25.5999C90.1155 25.5999 89.9155 25.4999 89.9155 25.1999C89.9155 24.6999 90.2155 24.5999 90.6155 24.5999C90.9155 24.5999 91.2155 24.6999 91.2155 25.0999Z" fill="#FBFBF2"/>
<path d="M22.0156 93C22.5156 93 22.8156 93.1 22.7156 93.4C22.7156 93.7 22.4156 93.9 22.0156 93.9C21.7156 93.9 21.5156 93.7 21.5156 93.5C21.6156 93.1 21.9156 93 22.0156 93Z" fill="#FBFBF2"/>
<path d="M80.7153 18.8C80.7153 19.1 80.5153 19.3 80.2153 19.3C79.9153 19.3 79.7153 19 79.7153 18.7C79.7153 18.4 79.9153 18.2 80.2153 18.2C80.5153 18.3 80.7153 18.5 80.7153 18.8Z" fill="#FBFBF2"/>
<path d="M69.4157 85.8999C69.3157 86.1999 69.0157 86.1999 68.8157 86.1999C68.5157 86.1999 68.3157 85.9999 68.4157 85.6999C68.4157 85.4999 68.6157 85.3999 68.8157 85.3999C69.2157 85.3999 69.4157 85.5999 69.4157 85.8999Z" fill="#FBFBF2"/>
<path d="M84.4155 62.9999C84.3155 63.1999 84.2155 63.3999 84.0155 63.3999C83.6155 63.3999 83.4155 63.1999 83.4155 62.7999C83.4155 62.5999 83.6155 62.3999 83.8155 62.3999C84.1155 62.4999 84.3155 62.5999 84.4155 62.9999Z" fill="#FBFBF2"/>
<path d="M78.3155 30.9999C78.1155 30.8999 77.9155 30.7999 77.9155 30.5999C78.0155 30.1999 78.3155 30.0999 78.7155 30.0999C78.9155 30.0999 79.1155 30.2999 79.0155 30.4999C79.0155 30.7999 78.7155 30.9999 78.3155 30.9999Z" fill="#FBFBF2"/>
<path d="M28.7154 36.7999C28.7154 37.0999 28.5154 37.2999 28.2154 37.2999C27.8154 37.2999 27.8154 36.9999 27.8154 36.6999C27.8154 36.4999 27.8154 36.2999 28.1154 36.2999C28.5154 36.1999 28.7154 36.4999 28.7154 36.7999Z" fill="#FBFBF2"/>
<path d="M69.7154 25.7C70.0154 25.7 70.3154 25.8 70.3154 26.1C70.3154 26.3 70.1154 26.5 69.9154 26.5C69.6154 26.5 69.4154 26.3 69.3154 26.1C69.3154 25.7 69.5154 25.7 69.7154 25.7Z" fill="#FBFBF2"/>
<path d="M94.8154 64C94.7154 64.2 94.6154 64.4 94.4154 64.4C94.1154 64.4 93.8154 64.2 93.8154 63.8C93.8154 63.6 94.0154 63.5 94.3154 63.5C94.6154 63.6 94.8154 63.8 94.8154 64Z" fill="#FBFBF2"/>
<path d="M52.5156 15.4C52.6156 15.2 52.8156 15 53.1156 15C53.3156 15 53.4156 15.2 53.3156 15.3C53.2156 15.5 53.1156 15.8 52.8156 15.7C52.6156 15.7 52.5156 15.6 52.5156 15.4Z" fill="#FBFBF2"/>
<path d="M38.0156 85.6C37.9156 85.6 37.7156 85.5 37.7156 85.4C37.6156 85.2 37.8156 85 38.0156 85C38.2156 85 38.3156 85.1 38.3156 85.3C38.4156 85.5 38.3156 85.6 38.0156 85.6Z" fill="#FBFBF2"/>
<path d="M67.2155 67.5999C66.1155 67.5999 65.5155 67.1999 65.2155 66.3999C64.9155 65.4999 65.2155 64.8999 66.1155 64.7999C66.9155 64.6999 67.6155 64.1999 68.5155 64.4999C69.0155 64.6999 69.5155 64.7999 69.7155 65.2999C69.9155 65.8999 69.7155 66.3999 69.2155 66.7999C68.6155 67.1999 67.9155 67.6999 67.2155 67.5999ZM67.1155 66.9999C67.8155 66.9999 68.3155 66.7999 68.7155 66.2999C68.9155 65.9999 69.0155 65.7999 68.9155 65.4999C68.7155 65.0999 68.3155 65.0999 68.0155 65.0999C67.4155 65.1999 66.9155 65.4999 66.3155 65.5999C66.0155 65.5999 65.9155 66.0999 66.1155 66.4999C66.3155 66.7999 66.7155 66.9999 67.1155 66.9999Z" fill="#FBFBF2"/>
<path d="M43.1152 63.1999C43.1152 62.3999 43.4152 61.8999 44.1152 61.8999C45.0152 61.8999 45.9152 62.6999 45.9152 63.4999C45.9152 64.2999 45.4152 64.7999 44.6152 64.7999C43.7152 64.7999 43.1152 64.1999 43.1152 63.1999Z" fill="#FBFBF2"/>
<path d="M70.9154 50.5C71.8154 50.5 72.5154 51 72.5154 51.6C72.5154 52.4 71.9154 52.9 70.9154 53C70.3154 53 69.8154 52.8 69.4154 52.4C69.1154 52.1 68.8154 51.6 69.0154 51.2C69.1154 50.7 69.6154 51 69.9154 50.8C70.2154 50.6 70.5154 50.5 70.9154 50.5ZM71.6154 51.8C71.5154 51.4 71.3154 51.3 70.9154 51.3C70.5154 51.3 70.1154 51.3 70.1154 51.8C70.1154 52.2 70.5154 52.2 70.8154 52.3C71.2154 52.4 71.5154 52.2 71.6154 51.8Z" fill="#FBFBF2"/>
<path d="M58.4155 61C58.9155 61 59.4155 61 59.9155 61.1C60.2155 61.2 60.5155 61.4 60.5155 61.7C60.5155 62.1 60.3155 62.4 59.9155 62.5C59.0155 62.8 57.4155 61.9 57.4155 60.9C57.4155 60.4 57.5155 60.1 58.0155 59.9C58.3155 59.8 58.7155 59.7 58.8155 60.1C59.0155 60.5 58.2155 60.4 58.4155 61Z" fill="#FBFBF2"/>
<path d="M52.2156 66.0999C52.1156 66.6999 52.1156 67.1999 52.0156 67.6999C51.8156 68.4999 51.2156 68.6999 50.5156 68.1999C50.0156 67.7999 49.5156 67.3999 49.7156 66.6999C49.9156 66.0999 50.5156 65.9999 51.1156 65.8999C51.4156 65.8999 51.8156 65.8999 52.2156 66.0999ZM50.6156 67.1999C50.6156 67.3999 50.8156 67.5999 51.0156 67.5999C51.3156 67.5999 51.4156 67.2999 51.4156 66.9999C51.4156 66.6999 51.2156 66.6999 51.0156 66.6999C50.8156 66.7999 50.7156 66.8999 50.6156 67.1999Z" fill="#FBFBF2"/>
<path d="M64.8154 61.9999C64.9154 61.5999 64.9154 60.8999 65.5154 61.0999C65.9154 61.1999 66.7154 61.0999 66.7154 61.8999C66.7154 62.3999 66.1154 62.9999 65.6154 62.9999C65.0154 62.9999 64.8154 62.5999 64.8154 61.9999Z" fill="#FBFBF2"/>
<path d="M53.3154 70.5C53.2154 70.1 53.2154 69.7 53.7154 69.7C54.3154 69.7 55.1154 70.3 55.1154 70.7C55.0154 71.3 54.7154 71.6 54.1154 71.6C53.2154 71.7 53.2154 71.1 53.3154 70.5Z" fill="#FBFBF2"/>
<path d="M67.6156 46.4999C67.6156 46.9999 67.3156 47.2999 66.8156 47.2999C66.3156 47.2999 65.9156 46.9999 65.9156 46.4999C65.8156 45.8999 66.3156 45.2999 66.9156 45.2999C67.7156 45.1999 67.5156 45.8999 67.6156 46.4999Z" fill="#FBFBF2"/>
<path d="M53.0156 62.2C52.6156 62.1 52.0156 62.1 52.1156 61.5C52.1156 60.9 52.6156 60.7 53.2156 60.7C53.7156 60.7 54.2156 60.8 54.2156 61.4C54.1156 61.9 53.7156 62.2 53.0156 62.2Z" fill="#FBFBF2"/>
<path d="M45.6152 67.3C46.2152 67.3 46.4152 67.6001 46.4152 68.1001C46.4152 68.7001 46.0152 68.9 45.5152 68.9C45.0152 68.9 44.6152 68.7001 44.6152 68.1001C44.7152 67.4001 45.3152 67.5 45.6152 67.3Z" fill="#FBFBF2"/>
<path d="M72.1152 47.5999C72.4152 47.5999 72.9152 47.3999 73.1152 47.9999C73.2152 48.3999 72.5152 48.8999 72.1152 48.9999C71.6152 48.9999 71.1152 48.4999 71.1152 47.9999C71.2152 47.3999 71.7152 47.5999 72.1152 47.5999Z" fill="#FBFBF2"/>
<path d="M57.5154 66.0999C57.3154 66.7999 56.7154 66.6999 56.3154 66.7999C55.9154 66.7999 55.8154 66.5999 55.8154 66.1999C55.9154 65.6999 56.2154 65.3999 56.7154 65.3999C57.2154 65.3999 57.4154 65.6999 57.5154 66.0999Z" fill="#FBFBF2"/>
<path d="M71.4154 56.7999C71.1154 56.6999 70.8154 56.5999 70.8154 56.1999C70.9154 55.5999 71.4154 55.3999 71.9154 55.3999C72.2154 55.3999 72.4154 55.4999 72.4154 55.7999C72.5154 56.2999 71.9154 56.7999 71.4154 56.7999Z" fill="#FBFBF2"/>
<path d="M68.5153 40.3C68.2153 40.3 67.9153 40.2 67.8153 39.8C67.7153 39.5 68.6153 39 69.0153 39C69.2153 39 69.4153 39.2 69.4153 39.4C69.5153 39.8 69.0153 40.2 68.5153 40.3Z" fill="#FBFBF2"/>
<path d="M70.6152 60.0999C71.1152 60.0999 71.5152 60.0999 71.5152 60.4999C71.5152 60.9999 71.1152 61.1999 70.7152 61.1999C70.4152 61.1999 70.1152 61.0999 70.1152 60.6999C70.1152 60.1999 70.4152 60.0999 70.6152 60.0999Z" fill="#FBFBF2"/>
<path d="M64.6156 53.8C64.5156 54.2 64.2156 54.5 63.8156 54.7C63.4156 54.8 63.2156 54.6 63.2156 54.2C63.1156 53.6 63.5156 53.5 64.0156 53.5C64.3156 53.5 64.5156 53.5 64.6156 53.8Z" fill="#FBFBF2"/>
<path d="M67.5152 51.9999C67.5152 52.2999 67.4152 52.3999 67.2152 52.4999C66.7152 52.5999 66.1152 52.2999 66.1152 51.7999C66.1152 51.6999 66.2152 51.4999 66.3152 51.3999C66.6152 51.2999 67.5152 51.6999 67.5152 51.9999Z" fill="#FBFBF2"/>
<path d="M69.0154 37.3999C69.4154 37.3999 69.6154 37.5999 69.5154 37.9999C69.4154 38.3999 69.2154 38.6999 68.8154 38.5999C68.5154 38.4999 68.3154 38.2999 68.3154 37.8999C68.3154 37.4999 68.7154 37.3999 69.0154 37.3999Z" fill="#FBFBF2"/>
<path d="M61.1155 68.7C61.0155 69.1 60.9155 69.3999 60.5155 69.2999C60.2155 69.1999 59.9155 69.1 59.9155 68.7C59.9155 68.4 60.2155 68.2 60.5155 68.2C61.0155 68.2 61.1155 68.5 61.1155 68.7Z" fill="#FBFBF2"/>
<path d="M66.0154 57.2C66.3154 57.2 66.5154 57.4 66.5154 57.7C66.5154 58 66.3154 58.3 65.9154 58.2C65.6154 58.1 65.3154 58 65.3154 57.6C65.3154 57.3 65.6154 57.2 66.0154 57.2Z" fill="#FBFBF2"/>
<path d="M62.8156 58.3999C62.6156 58.6999 62.4156 58.7999 62.0156 58.6999C61.8156 58.6999 61.6156 58.4999 61.7156 58.2999C61.8156 57.8999 62.1156 57.9999 62.4156 57.9999C62.7156 57.9999 62.9156 58.0999 62.8156 58.3999Z" fill="#FBFBF2"/>
<path d="M71.3155 44.6C71.3155 44.9 71.1155 45.1 70.9155 45.1C70.6155 45.2 70.4155 44.9 70.4155 44.7C70.4155 44.4 70.6155 44.2 70.9155 44.2C71.1155 44.3 71.2155 44.4 71.3155 44.6Z" fill="#FBFBF2"/>
<path d="M67.2153 54.0999C67.4153 54.1999 67.6153 54.1999 67.6153 54.3999C67.6153 54.6999 67.4153 54.8999 67.2153 54.8999C67.0153 54.8999 66.7153 54.6999 66.8153 54.3999C66.8153 54.1999 67.0153 54.1999 67.2153 54.0999Z" fill="#FBFBF2"/>
<path d="M50.0153 69.6999C49.9153 69.9999 49.8153 70.0999 49.5153 69.9999C49.2153 69.8999 49.2153 69.6999 49.2153 69.3999C49.2153 69.1999 49.4153 69.0999 49.5153 69.1999C49.8153 69.2999 50.0153 69.3999 50.0153 69.6999Z" fill="#FBFBF2"/>
<path d="M71.8153 41.8998C71.8153 42.0998 71.6153 42.2998 71.4153 42.2998C71.1153 42.2998 70.9153 42.0998 71.0153 41.7998C71.1153 41.4998 71.2153 41.4998 71.5153 41.5998C71.7153 41.4998 71.8153 41.5998 71.8153 41.8998Z" fill="#FBFBF2"/>
<path d="M59.8155 57.0999C60.1155 57.0999 60.2155 57.1999 60.2155 57.3999C60.2155 57.4999 60.1155 57.6999 59.9155 57.6999C59.7155 57.7999 59.5155 57.6999 59.4155 57.4999C59.4155 57.2999 59.6155 57.0999 59.8155 57.0999Z" fill="#FBFBF2"/>
<path d="M67.9156 49C68.2156 49 68.4156 49.2 68.3156 49.5C68.3156 49.7 68.1156 49.9 67.9156 49.9C67.6156 49.9 67.5156 49.7 67.5156 49.4C67.5156 49.1 67.7156 49 67.9156 49Z" fill="#FBFBF2"/>
<path d="M69.7153 42.5C69.5153 42.8 69.3153 42.8999 69.0153 42.7999C68.8153 42.7999 68.8153 42.6 68.9153 42.5C69.1153 42.3 69.3153 42.2 69.5153 42.2C69.7153 42.2 69.8153 42.3 69.7153 42.5Z" fill="#FBFBF2"/>
<path d="M57.9156 71.3C58.0156 71.5 57.8156 71.6 57.7156 71.6C57.5156 71.7 57.2156 71.6 57.2156 71.4C57.1156 71.2 57.3156 71 57.5156 71C57.7156 71 57.9156 71 57.9156 71.3Z" fill="#FBFBF2"/>
<path d="M65.7153 37.5C65.5153 37.5 65.2153 37.4001 65.2153 37.1001C65.2153 36.8001 65.4153 36.8 65.6153 36.8C65.8153 36.8 66.0153 36.9001 66.0153 37.1001C66.0153 37.3001 65.9153 37.4 65.7153 37.5Z" fill="#FBFBF2"/>
<path d="M47.2153 63.5C47.4153 63.6 47.7153 63.6 47.6153 63.9C47.6153 64.1 47.4153 64.2 47.1153 64.2C46.9153 64.2 46.8153 64.1 46.8153 63.9C46.7153 63.5 47.0153 63.6 47.2153 63.5Z" fill="#FBFBF2"/>
<path d="M74.2154 44.0999C74.4154 44.0999 74.6154 44.1999 74.6154 44.3999C74.6154 44.5999 74.4154 44.6999 74.2154 44.5999C74.1154 44.5999 73.9154 44.4999 73.9154 44.3999C73.8154 44.1999 73.9154 44.0999 74.2154 44.0999Z" fill="#FBFBF2"/>
<path d="M65.6154 41.8C65.7154 41.8 65.9154 41.9 65.9154 42C65.9154 42.2 65.8154 42.3 65.6154 42.3C65.4154 42.3 65.3154 42.2 65.3154 42C65.3154 41.9 65.4154 41.9 65.6154 41.8Z" fill="#FBFBF2"/>
<path d="M63.2155 65.6C63.2155 65.7 63.0155 65.7 62.8155 65.8C62.7155 65.8 62.4155 65.7 62.4155 65.6C62.4155 65.4 62.5155 65.2 62.7155 65.2C63.0155 65.1 63.2155 65.1 63.2155 65.6Z" fill="#FBFBF2"/>
<path d="M71.8152 63.6999C71.8152 63.8999 71.7152 63.9999 71.6152 64.0999C71.4152 64.1999 71.3152 64.1999 71.2152 63.9999C71.1152 63.7999 71.2152 63.5999 71.5152 63.5999C71.5152 63.5999 71.7152 63.6999 71.8152 63.6999Z" fill="#FBFBF2"/>
<path d="M74.5153 51.2999C74.4153 51.6999 74.3153 51.6999 74.0153 51.6999C73.7153 51.6999 73.7153 51.4999 73.7153 51.2999C73.7153 51.1999 73.9153 51.0999 74.1153 51.0999C74.3153 51.0999 74.5153 51.0999 74.5153 51.2999Z" fill="#FBFBF2"/>
<path d="M53.6156 64.6999C53.6156 64.8999 53.5156 64.9999 53.4156 64.9999C53.2156 64.9999 53.0156 64.8999 53.0156 64.6999C53.0156 64.4999 53.1156 64.3999 53.3156 64.3999C53.5156 64.3999 53.6156 64.3999 53.6156 64.6999Z" fill="#FBFBF2"/>
</svg>
