<svg width="110" height="110" viewBox="0 0 110 110" fill="none" xmlns="http://www.w3.org/2000/svg">
<path d="M68.2291 69.89C65.3156 70.1266 62.4052 70.4171 59.4876 70.5831C57.0187 70.7235 54.5383 70.8268 52.0688 70.7528C48.8957 70.6578 45.7305 70.2705 42.5577 70.2011C40.6326 70.233 38.7113 70.382 36.8043 70.6471C33.7402 70.9836 30.6425 70.8428 27.6216 70.2299C25.5936 69.8056 23.5318 69.5626 21.4607 69.5038C20.4911 69.489 19.5316 69.7025 18.6597 70.1271C17.7879 70.5516 17.0281 71.1754 16.4419 71.9478C15.9456 72.5471 15.4729 73.1716 14.9238 73.7188C14.6403 73.9027 14.3246 74.0314 13.9932 74.0982C13.9341 73.7432 13.7156 73.3141 13.8408 73.0449C14.3788 71.9411 15.1415 70.9619 16.08 70.1701C17.0185 69.3783 18.112 68.7912 19.2906 68.4466C21.7226 67.5985 24.1799 67.9902 26.5286 68.5908C30.8231 69.6889 35.109 69.3695 39.4324 69.0709C41.3468 68.9386 43.2804 69.0455 45.2038 69.0979C46.7615 69.1405 48.3162 69.325 49.8733 69.3398C53.6846 69.3762 57.4992 69.4375 61.3076 69.3243C64.5594 69.2276 67.8163 69.0089 71.0489 68.6467C73.963 68.3177 76.6431 66.8932 78.5462 64.6619C79.5998 63.2266 80.2496 61.5352 80.4278 59.7636C80.7344 57.6112 80.744 55.427 80.4565 53.272C80.0504 50.1631 77.7059 48.4989 75.1 47.1959C72.1056 45.6986 68.834 45.2023 65.5834 44.7291C62.9864 44.3511 60.3367 44.3412 57.7357 43.9836C54.2356 43.5024 50.8772 44.1761 47.5103 44.9212C47.0419 45.0358 46.5831 45.1867 46.1382 45.3726C43.9025 46.2513 41.7558 49.0818 41.9586 51.4031C41.9605 52.249 42.1873 53.0792 42.6157 53.8085C43.0442 54.5378 43.6589 55.1401 44.3968 55.5536C46.4116 56.5373 48.5009 57.3607 50.6451 58.0161C52.7226 58.6255 54.9097 58.8554 57.0372 59.3063C57.3703 59.3769 57.8617 59.7053 57.8987 59.9682C57.9862 60.5905 57.5581 60.9238 56.9112 60.8072C54.4457 60.3628 51.9321 60.081 49.5347 59.3949C47.4515 58.7494 45.4375 57.8987 43.5222 56.8555C41.4006 55.7551 40.6777 53.7155 40.6533 51.4458C40.639 50.1248 40.8353 48.8026 40.907 47.4793C41.0184 45.4253 42.6681 44.5323 44.1363 44.0404C47.614 42.7473 51.3028 42.1153 55.0127 42.177C59.0676 42.3791 63.1161 42.9091 67.1384 43.495C69.5152 43.8702 71.86 44.4259 74.1525 45.1572C75.8268 45.6144 77.3686 46.4626 78.6511 47.6322C79.9335 48.8017 80.9199 50.2591 81.5289 51.8843C82.0619 53.5126 82.2214 55.24 81.9955 56.9384C81.7019 59.1256 81.2166 61.2828 80.545 63.385C79.9507 65.4344 78.2274 66.5677 76.5829 67.7403C74.067 69.5342 71.1811 69.8318 68.2291 69.89Z" fill="#FBFBF2"/>
<path d="M82.5006 29.8225C82.2463 26.9833 85.4306 22.8157 88.1602 22.1467C89.2319 21.8841 90.3 21.5785 91.3883 21.4203C92.4607 21.2645 93.0909 22.0772 92.9576 23.1393C92.7346 24.5604 92.6105 25.9952 92.5863 27.4334C92.6401 31.0962 90.4964 33.3402 87.4438 34.5678C86.4615 34.8954 85.4532 35.1388 84.4296 35.2953C84.3036 35.3348 84.1702 35.3446 84.0398 35.3238C83.9094 35.3031 83.7856 35.2523 83.6781 35.1756C83.5707 35.0989 83.4824 34.9983 83.4204 34.8817C83.3584 34.7651 83.3243 34.6358 83.3208 34.5038C83.0389 32.9448 82.7729 31.3831 82.5006 29.8225ZM90.0188 23.1909C85.4428 23.9862 82.6828 28.7392 84.3969 32.5605C85.5875 28.9731 89.3067 26.9837 90.0188 23.1909ZM85.3287 33.3298C90.2857 32.355 91.8608 30.0425 91.2762 24.7277C89.3574 27.5029 87.343 30.4163 85.3287 33.3298Z" fill="#FBFBF2"/>
<path d="M54.2609 87.2954C49.8083 87.3206 45.3894 83.454 44.5527 80.0195C44.3386 79.0426 44.2455 78.0431 44.2755 77.0435C44.2601 76.8371 44.2934 76.6299 44.3726 76.4386C44.4518 76.2473 44.5747 76.0773 44.7315 75.9421C44.8883 75.8069 45.0745 75.7103 45.2754 75.6601C45.4762 75.6099 45.6861 75.6075 45.888 75.6531C48.5979 76.0783 51.341 76.496 53.5263 78.3553C54.36 78.9785 55.0482 79.7754 55.5435 80.6909C56.0387 81.6063 56.3291 82.6185 56.3945 83.6573C56.4051 84.173 56.486 84.6849 56.6348 85.1787C56.9968 86.3032 56.4662 86.7454 55.456 86.9404C55.0504 87.0331 54.6512 87.1517 54.2609 87.2954ZM54.105 85.7731C53.862 85.5524 53.6535 85.2964 53.4866 85.0137C52.9042 83.7566 51.8807 82.757 50.6102 82.2045C49.8497 81.7535 49.1384 81.2242 48.4878 80.6254C47.4871 79.7514 46.5412 78.8147 45.5428 77.8773C46.1225 82.1524 50.5155 86.2092 54.105 85.7731ZM46.853 77.1266L46.6631 77.3793C47.9717 78.4352 49.22 79.5795 50.6048 80.5236C52.1911 81.605 54.0211 82.3702 54.8337 84.3054C54.845 84.3323 54.9568 84.317 55.0216 84.3215C55.2813 80.8051 51.7213 77.5705 46.853 77.1266Z" fill="#FBFBF2"/>
<path d="M96.6953 62.5285C96.5321 66.1814 95.316 68.4625 92.9998 70.188C92.5865 70.5946 92.1976 71.0253 91.8351 71.4778C91.4418 71.8542 90.9814 72.1604 90.5506 72.4975C90.4579 72.0204 90.3399 71.5466 90.278 71.0655C90.2514 70.1214 90.1362 69.1818 89.9341 68.2592C89.2533 66.2504 89.1377 64.0933 89.5998 62.0233C90.0332 60.1037 90.569 58.016 93.0534 57.4507C93.9166 57.2543 94.588 57.2882 94.933 58.078C95.6644 59.7518 96.2836 61.4747 96.6953 62.5285ZM91.2034 67.5461C93.0788 65.0153 92.8776 61.9252 93.008 58.9007C90.9568 59.3641 90.0654 64.6689 91.2034 67.5461ZM94.3408 59.6756C94.2959 61.2813 94.1348 62.8817 93.8588 64.4642C93.3662 66.0342 92.7621 67.5669 92.0513 69.0509C94.765 67.6762 96.7309 62.8871 94.3408 59.6756Z" fill="#FBFBF2"/>
</svg>
